%TF.GenerationSoftware,KiCad,Pcbnew,5.1.10*%
%TF.CreationDate,2021-06-14T18:04:53+02:00*%
%TF.ProjectId,scattered-bat-pcb,73636174-7465-4726-9564-2d6261742d70,rev?*%
%TF.SameCoordinates,Original*%
%TF.FileFunction,Paste,Top*%
%TF.FilePolarity,Positive*%
%FSLAX46Y46*%
G04 Gerber Fmt 4.6, Leading zero omitted, Abs format (unit mm)*
G04 Created by KiCad (PCBNEW 5.1.10) date 2021-06-14 18:04:53*
%MOMM*%
%LPD*%
G01*
G04 APERTURE LIST*
%ADD10R,1.200000X1.500000*%
%ADD11R,1.000000X1.500000*%
%ADD12R,1.500000X1.000000*%
%ADD13R,1.200000X1.200000*%
G04 APERTURE END LIST*
D10*
%TO.C,R1*%
X41920000Y-74740000D03*
X41920000Y-72040000D03*
%TD*%
D11*
%TO.C,D38*%
X147950000Y-77930000D03*
X144750000Y-77930000D03*
X147950000Y-82830000D03*
X144750000Y-82830000D03*
%TD*%
%TO.C,D39*%
X128350000Y-54220000D03*
X125150000Y-54220000D03*
X128350000Y-59120000D03*
X125150000Y-59120000D03*
%TD*%
D12*
%TO.C,D37*%
X95850000Y-109960000D03*
X95850000Y-106760000D03*
X90950000Y-109960000D03*
X90950000Y-106760000D03*
%TD*%
%TO.C,D36*%
X61000000Y-97660000D03*
X61000000Y-100860000D03*
X65900000Y-97660000D03*
X65900000Y-100860000D03*
%TD*%
D11*
%TO.C,D35*%
X91190000Y-52200000D03*
X87990000Y-52200000D03*
X91190000Y-57100000D03*
X87990000Y-57100000D03*
%TD*%
D13*
%TO.C,D23*%
X59925000Y-114750000D03*
X63075000Y-114750000D03*
%TD*%
%TO.C,D20*%
X78925000Y-138500000D03*
X82075000Y-138500000D03*
%TD*%
%TO.C,D19*%
X78925000Y-119750000D03*
X82075000Y-119750000D03*
%TD*%
%TO.C,D18*%
X78925000Y-100750000D03*
X82075000Y-100750000D03*
%TD*%
%TO.C,D17*%
X78925000Y-81500000D03*
X82075000Y-81500000D03*
%TD*%
%TO.C,D16*%
X78925000Y-62500000D03*
X82075000Y-62500000D03*
%TD*%
%TO.C,D15*%
X97925000Y-124500000D03*
X101075000Y-124500000D03*
%TD*%
%TO.C,D14*%
X97925000Y-100750000D03*
X101075000Y-100750000D03*
%TD*%
%TO.C,D13*%
X97925000Y-81500000D03*
X101075000Y-81500000D03*
%TD*%
%TO.C,D12*%
X97925000Y-62500000D03*
X101075000Y-62500000D03*
%TD*%
%TO.C,D11*%
X117175000Y-91250000D03*
X120325000Y-91250000D03*
%TD*%
%TO.C,D10*%
X117175000Y-72230000D03*
X120325000Y-72230000D03*
%TD*%
%TO.C,D9*%
X117175000Y-53000000D03*
X120325000Y-53000000D03*
%TD*%
%TO.C,D8*%
X136175000Y-96000000D03*
X139325000Y-96000000D03*
%TD*%
%TO.C,D7*%
X136175000Y-77000000D03*
X139325000Y-77000000D03*
%TD*%
%TO.C,D6*%
X136175000Y-58000000D03*
X139325000Y-58000000D03*
%TD*%
%TO.C,D5*%
X155175000Y-110000000D03*
X158325000Y-110000000D03*
%TD*%
%TO.C,D4*%
X155175000Y-91250000D03*
X158325000Y-91250000D03*
%TD*%
%TO.C,D3*%
X155175000Y-72000000D03*
X158325000Y-72000000D03*
%TD*%
M02*
