M48
; DRILL file {KiCad 5.1.10} date Mon Jun 14 18:04:56 2021
; FORMAT={-:-/ absolute / inch / decimal}
; #@! TF.CreationDate,2021-06-14T18:04:56+02:00
; #@! TF.GenerationSoftware,Kicad,Pcbnew,5.1.10
; #@! TF.FileFunction,Plated,1,2,PTH
FMAT,2
INCH
T1C0.0157
T2C0.0276
T3C0.0320
T4C0.0354
T5C0.0394
T6C0.0433
T7C0.0590
T8C0.0906
%
G90
G05
T1
X2.374Y-2.8882
X2.424Y-2.9299
X2.4571Y-3.887
X2.5295Y-3.2634
X2.5945Y-4.0173
X2.5949Y-3.8
X2.776Y-4.0201
X2.7854Y-3.9134
X2.9075Y-2.7902
X2.9161Y-4.0295
X2.9465Y-3.9965
X3.0713Y-3.3689
X3.2819Y-4.7831
X3.4224Y-3.3807
X3.4638Y-4.0295
X3.465Y-2.1559
X3.4807Y-2.6555
X3.4831Y-4.7917
X3.498Y-2.6138
X3.498Y-2.6972
X3.5004Y-4.75
X3.5004Y-4.8335
X3.5098Y-2.398
X3.5398Y-2.5965
X3.5398Y-2.7146
X3.5421Y-4.7327
X3.5421Y-4.8508
X3.5488Y-2.1169
X3.5807Y-4.3988
X3.5815Y-2.6138
X3.5815Y-2.6972
X3.5839Y-4.75
X3.5839Y-4.8335
X3.5862Y-2.3843
X3.5862Y-2.5461
X3.587Y-2.3197
X3.5988Y-2.6555
X3.6012Y-4.7917
X3.6195Y-4.1572
X3.739Y-3.3815
X3.7437Y-4.3756
X3.8616Y-4.2352
X4.2228Y-4.1114
X4.3972Y-3.076
X4.5543Y-2.2311
X4.961Y-2.0949
X4.9697Y-2.337
X5.0024Y-2.1524
X5.0152Y-2.2648
X5.0681Y-2.5004
X5.0866Y-2.4516
X5.2173Y-3.1665
X5.5996Y-3.2154
X5.7476Y-2.4272
X5.7512Y-3.7496
X5.753Y-3.2073
X5.765Y-2.3854
X5.765Y-2.4689
X5.7685Y-3.7079
X5.7685Y-3.7913
X5.7783Y-3.3244
X5.8067Y-2.3681
X5.8067Y-2.4862
X5.8102Y-3.6906
X5.8102Y-3.8087
X5.8484Y-2.3854
X5.8484Y-2.4689
X5.852Y-3.7079
X5.852Y-3.7913
X5.8657Y-2.4272
X5.8693Y-3.7496
X5.872Y-3.0898
T2
X2.2677Y-4.5177
X2.2677Y-4.5177
X2.5748Y-4.5177
X2.5748Y-4.5177
X3.0157Y-2.4606
X3.0157Y-2.461
X3.0157Y-3.2083
X3.0157Y-3.2087
X3.0157Y-3.9665
X3.0157Y-3.9665
X3.0157Y-4.7146
X3.0157Y-4.7146
X3.0157Y-5.4528
X3.0157Y-5.4528
X3.3228Y-2.4606
X3.3228Y-2.461
X3.3228Y-3.2083
X3.3228Y-3.2087
X3.3228Y-3.9665
X3.3228Y-3.9665
X3.3228Y-4.7146
X3.3228Y-4.7146
X3.3228Y-5.4528
X3.3228Y-5.4528
X3.7638Y-2.4606
X3.7638Y-2.4606
X3.7638Y-3.2087
X3.7638Y-3.2087
X3.7638Y-3.9665
X3.7638Y-3.9665
X3.7638Y-4.9016
X3.7638Y-4.9016
X4.0709Y-2.4606
X4.0709Y-2.4606
X4.0709Y-3.2087
X4.0709Y-3.2087
X4.0709Y-3.9665
X4.0709Y-3.9665
X4.0709Y-4.9016
X4.0709Y-4.9016
X4.5217Y-2.0866
X4.5217Y-2.0866
X4.5217Y-2.8437
X4.5217Y-3.5925
X4.5217Y-3.5925
X4.522Y-2.8437
X4.8287Y-2.0866
X4.8287Y-2.0866
X4.8287Y-2.8437
X4.8287Y-3.5925
X4.8287Y-3.5925
X4.8291Y-2.8437
X5.2697Y-2.2835
X5.2697Y-2.2835
X5.2697Y-3.0315
X5.2697Y-3.7795
X5.2697Y-3.7795
X5.2701Y-3.0319
X5.5768Y-2.2835
X5.5768Y-2.2835
X5.5768Y-3.0315
X5.5768Y-3.7795
X5.5768Y-3.7795
X5.5772Y-3.0319
X6.0173Y-3.5925
X6.0177Y-2.8346
X6.0177Y-2.8346
X6.0177Y-3.5925
X6.0177Y-4.3303
X6.0177Y-4.3307
X6.3244Y-3.5925
X6.3248Y-2.8346
X6.3248Y-2.8346
X6.3248Y-3.5925
X6.3248Y-4.3303
X6.3248Y-4.3307
T3
X2.1906Y-3.5969
X2.2807Y-3.4969
X2.2906Y-3.5969
X2.3807Y-3.4969
X2.3906Y-3.5969
X2.4807Y-3.4969
X2.4906Y-3.5969
X2.5807Y-3.4969
T5
X1.6504Y-2.7358
X1.6504Y-3.0429
T6
X1.7413Y-2.7555
X1.7413Y-3.0114
X1.9185Y-2.7555
X1.9185Y-3.0114
X2.039Y-2.1669
X2.039Y-2.2669
X2.039Y-2.3669
X2.039Y-2.4669
X2.039Y-2.5669
X2.039Y-2.6669
X2.039Y-2.7669
X2.039Y-2.8669
X2.039Y-2.9669
X2.039Y-3.0669
X2.039Y-3.1669
X2.039Y-3.2669
X2.1299Y-2.1661
X2.1299Y-2.2661
X2.1299Y-2.3661
X2.1299Y-2.4661
X2.1299Y-2.5661
X2.1299Y-2.6661
X2.1299Y-2.7661
X2.1299Y-2.8661
X2.1299Y-2.9661
X2.1299Y-3.0661
X2.1299Y-3.1661
X2.1299Y-3.2661
X2.639Y-2.1669
X2.639Y-2.2669
X2.639Y-2.3669
X2.639Y-2.4669
X2.639Y-2.5669
X2.639Y-2.6669
X2.639Y-2.7669
X2.639Y-2.8669
X2.639Y-2.9669
X2.639Y-3.0669
X2.639Y-3.1669
X2.639Y-3.2669
X2.7299Y-2.1661
X2.7299Y-2.2661
X2.7299Y-2.3661
X2.7299Y-2.4661
X2.7299Y-2.5661
X2.7299Y-2.6661
X2.7299Y-2.7661
X2.7299Y-2.8661
X2.7299Y-2.9661
X2.7299Y-3.0661
X2.7299Y-3.1661
X2.7299Y-3.2661
T7
X2.2709Y-4.2169
X2.3209Y-4.1169
X2.5209Y-4.1169
X2.5709Y-4.2169
X3.0193Y-2.902
X3.0209Y-3.6551
X3.0213Y-2.1539
X3.0213Y-4.4047
X3.0213Y-5.1539
X3.0693Y-2.802
X3.0709Y-3.5551
X3.0713Y-2.0539
X3.0713Y-4.3047
X3.0713Y-5.0539
X3.2693Y-2.802
X3.2709Y-3.5551
X3.2713Y-2.0539
X3.2713Y-4.3047
X3.2713Y-5.0539
X3.3193Y-2.902
X3.3209Y-3.6551
X3.3213Y-2.1539
X3.3213Y-4.4047
X3.3213Y-5.1539
X3.7705Y-2.1551
X3.7709Y-2.9047
X3.7713Y-3.6547
X3.772Y-4.5909
X3.8205Y-2.0551
X3.8209Y-2.8047
X3.8213Y-3.5547
X3.822Y-4.4909
X4.0205Y-2.0551
X4.0209Y-2.8047
X4.0213Y-3.5547
X4.022Y-4.4909
X4.0705Y-2.1551
X4.0709Y-2.9047
X4.0713Y-3.6547
X4.072Y-4.5909
X4.5209Y-1.7803
X4.5213Y-2.5303
X4.5217Y-3.2791
X4.5709Y-1.6803
X4.5713Y-2.4303
X4.5717Y-3.1791
X4.7709Y-1.6803
X4.7713Y-2.4303
X4.7717Y-3.1791
X4.8209Y-1.7803
X4.8213Y-2.5303
X4.8217Y-3.2791
X5.2709Y-3.4673
X5.2713Y-2.7165
X5.2732Y-1.9669
X5.3209Y-3.3673
X5.3213Y-2.6165
X5.3232Y-1.8669
X5.5209Y-3.3673
X5.5213Y-2.6165
X5.5232Y-1.8669
X5.5709Y-3.4673
X5.5713Y-2.7165
X5.5732Y-1.9669
X6.0213Y-2.528
X6.0217Y-3.2795
X6.0217Y-4.0291
X6.0713Y-2.428
X6.0717Y-3.1795
X6.0717Y-3.9291
X6.2713Y-2.428
X6.2717Y-3.1795
X6.2717Y-3.9291
X6.3213Y-2.528
X6.3217Y-3.2795
X6.3217Y-4.0291
T8
X3.5398Y-2.6555
X3.5421Y-4.7917
X5.8067Y-2.4272
X5.8102Y-3.7496
T4
G00X1.6693Y-2.2508
M15
G01X1.6693Y-2.235
M16
G05
G00X1.6693Y-2.3689
M15
G01X1.6693Y-2.3531
M16
G05
G00X1.6693Y-2.5264
M15
G01X1.6693Y-2.5106
M16
G05
G00X1.7594Y-2.5539
M15
G01X1.7594Y-2.5697
M16
G05
G00X1.8504Y-2.5697
M15
G01X1.8504Y-2.5539
M16
G05
G00X1.9406Y-2.235
M15
G01X1.9406Y-2.2508
M16
G05
G00X1.9406Y-2.3531
M15
G01X1.9406Y-2.3689
M16
G05
G00X1.9406Y-2.5106
M15
G01X1.9406Y-2.5264
M16
G05
T0
M30
