%TF.GenerationSoftware,KiCad,Pcbnew,5.1.10*%
%TF.CreationDate,2021-06-14T18:04:53+02:00*%
%TF.ProjectId,scattered-bat-pcb,73636174-7465-4726-9564-2d6261742d70,rev?*%
%TF.SameCoordinates,Original*%
%TF.FileFunction,Paste,Bot*%
%TF.FilePolarity,Positive*%
%FSLAX46Y46*%
G04 Gerber Fmt 4.6, Leading zero omitted, Abs format (unit mm)*
G04 Created by KiCad (PCBNEW 5.1.10) date 2021-06-14 18:04:53*
%MOMM*%
%LPD*%
G01*
G04 APERTURE LIST*
%ADD10R,1.200000X1.500000*%
%ADD11R,1.000000X1.500000*%
%ADD12R,1.200000X1.200000*%
%ADD13R,1.500000X1.000000*%
G04 APERTURE END LIST*
D10*
%TO.C,R1*%
X41920000Y-72040000D03*
X41920000Y-74740000D03*
%TD*%
D11*
%TO.C,D38*%
X144740000Y-82850000D03*
X147940000Y-82850000D03*
X144740000Y-87750000D03*
X147940000Y-87750000D03*
%TD*%
D12*
%TO.C,D23*%
X63075000Y-114750000D03*
X59925000Y-114750000D03*
%TD*%
%TO.C,D17*%
X82075000Y-81490000D03*
X78925000Y-81490000D03*
%TD*%
%TO.C,D18*%
X82075000Y-100750000D03*
X78925000Y-100750000D03*
%TD*%
%TO.C,D19*%
X82075000Y-119750000D03*
X78925000Y-119750000D03*
%TD*%
%TO.C,D20*%
X82075000Y-138500000D03*
X78925000Y-138500000D03*
%TD*%
%TO.C,D13*%
X101075000Y-81500000D03*
X97925000Y-81500000D03*
%TD*%
%TO.C,D14*%
X101075000Y-100750000D03*
X97925000Y-100750000D03*
%TD*%
%TO.C,D15*%
X101075000Y-124500000D03*
X97925000Y-124500000D03*
%TD*%
%TO.C,D10*%
X120335000Y-72230000D03*
X117185000Y-72230000D03*
%TD*%
%TO.C,D11*%
X120325000Y-91250000D03*
X117175000Y-91250000D03*
%TD*%
%TO.C,D8*%
X139325000Y-96000000D03*
X136175000Y-96000000D03*
%TD*%
%TO.C,D7*%
X139335000Y-77010000D03*
X136185000Y-77010000D03*
%TD*%
%TO.C,D4*%
X158315000Y-91250000D03*
X155165000Y-91250000D03*
%TD*%
%TO.C,D5*%
X158325000Y-109990000D03*
X155175000Y-109990000D03*
%TD*%
%TO.C,D3*%
X158325000Y-72000000D03*
X155175000Y-72000000D03*
%TD*%
%TO.C,D6*%
X139325000Y-58000000D03*
X136175000Y-58000000D03*
%TD*%
%TO.C,D9*%
X120325000Y-53000000D03*
X117175000Y-53000000D03*
%TD*%
%TO.C,D12*%
X101075000Y-62500000D03*
X97925000Y-62500000D03*
%TD*%
%TO.C,D16*%
X82075000Y-62510000D03*
X78925000Y-62510000D03*
%TD*%
D11*
%TO.C,D39*%
X125170000Y-51220000D03*
X128370000Y-51220000D03*
X125170000Y-56120000D03*
X128370000Y-56120000D03*
%TD*%
D13*
%TO.C,D37*%
X92860000Y-106750000D03*
X92860000Y-109950000D03*
X87960000Y-106750000D03*
X87960000Y-109950000D03*
%TD*%
%TO.C,D36*%
X63930000Y-100890000D03*
X63930000Y-97690000D03*
X68830000Y-100890000D03*
X68830000Y-97690000D03*
%TD*%
D11*
%TO.C,D35*%
X87980000Y-57100000D03*
X91180000Y-57100000D03*
X87980000Y-62000000D03*
X91180000Y-62000000D03*
%TD*%
M02*
