%TF.GenerationSoftware,KiCad,Pcbnew,5.1.10*%
%TF.CreationDate,2021-06-14T18:04:53+02:00*%
%TF.ProjectId,scattered-bat-pcb,73636174-7465-4726-9564-2d6261742d70,rev?*%
%TF.SameCoordinates,Original*%
%TF.FileFunction,Profile,NP*%
%FSLAX46Y46*%
G04 Gerber Fmt 4.6, Leading zero omitted, Abs format (unit mm)*
G04 Created by KiCad (PCBNEW 5.1.10) date 2021-06-14 18:04:53*
%MOMM*%
%LPD*%
G01*
G04 APERTURE LIST*
%TA.AperFunction,Profile*%
%ADD10C,0.100000*%
%TD*%
G04 APERTURE END LIST*
D10*
X48750000Y-100130000D02*
X48750000Y-119203900D01*
X40620000Y-92000000D02*
X48750000Y-100130000D01*
X51945000Y-119203900D02*
X48750000Y-119203900D01*
X40620000Y-52500000D02*
X70993475Y-52479400D01*
X40620000Y-53770000D02*
X40620000Y-92000000D01*
X40620000Y-53770000D02*
X40620000Y-52500000D01*
X166295000Y-66766900D02*
X166295000Y-114441970D01*
X70993866Y-119203900D02*
X51945000Y-119203900D01*
X70995000Y-143016360D02*
X70993866Y-119203900D01*
X90094174Y-143016360D02*
X70995000Y-143016360D01*
X90095174Y-128728900D02*
X90094174Y-143016360D01*
X109144000Y-128728900D02*
X90095174Y-128728900D01*
X109145558Y-95391200D02*
X109144000Y-128728900D01*
X128143475Y-95391200D02*
X109145558Y-95391200D01*
X128144475Y-100153700D02*
X128143475Y-95391200D01*
X147193825Y-100153700D02*
X128144475Y-100153700D01*
X147194825Y-114441400D02*
X147193825Y-100153700D01*
X166294000Y-114441970D02*
X147194825Y-114441400D01*
X166295000Y-57241900D02*
X166295000Y-66766900D01*
X147245000Y-57241900D02*
X166295000Y-57241900D01*
X147245000Y-42954400D02*
X147245000Y-57241900D01*
X128195000Y-42954400D02*
X147245000Y-42954400D01*
X128195000Y-38192000D02*
X128195000Y-42954400D01*
X109094747Y-38192000D02*
X128195000Y-38192000D01*
X109093441Y-47716901D02*
X109094747Y-38192000D01*
X70994475Y-47716901D02*
X109093441Y-47716901D01*
X70994475Y-47716901D02*
X70993475Y-52479400D01*
M02*
