M48
; DRILL file {KiCad 5.1.10} date Mon Jun 14 18:04:56 2021
; FORMAT={-:-/ absolute / inch / decimal}
; #@! TF.CreationDate,2021-06-14T18:04:56+02:00
; #@! TF.GenerationSoftware,Kicad,Pcbnew,5.1.10
; #@! TF.FileFunction,NonPlated,1,2,NPTH
FMAT,2
INCH
T1C0.0315
T2C0.0670
T3C0.1570
%
G90
G05
T1
X1.7598Y-2.1799
X1.7598Y-2.4555
X1.85Y-2.1799
X1.85Y-2.4555
T2
X2.2209Y-4.3169
X2.6209Y-4.3169
X2.9693Y-3.002
X2.9709Y-3.7551
X2.9713Y-2.2539
X2.9713Y-4.5047
X2.9713Y-5.2539
X3.3693Y-3.002
X3.3709Y-3.7551
X3.3713Y-2.2539
X3.3713Y-4.5047
X3.3713Y-5.2539
X3.7205Y-2.2551
X3.7209Y-3.0047
X3.7213Y-3.7547
X3.722Y-4.6909
X4.1205Y-2.2551
X4.1209Y-3.0047
X4.1213Y-3.7547
X4.122Y-4.6909
X4.4709Y-1.8803
X4.4713Y-2.6303
X4.4717Y-3.3791
X4.8709Y-1.8803
X4.8713Y-2.6303
X4.8717Y-3.3791
X5.2209Y-3.5673
X5.2213Y-2.8165
X5.2232Y-2.0669
X5.6209Y-3.5673
X5.6213Y-2.8165
X5.6232Y-2.0669
X5.9713Y-2.628
X5.9717Y-3.3795
X5.9717Y-4.1291
X6.3713Y-2.628
X6.3717Y-3.3795
X6.3717Y-4.1291
T3
X2.4209Y-4.3169
X3.1693Y-3.002
X3.1709Y-3.7551
X3.1713Y-2.2539
X3.1713Y-4.5047
X3.1713Y-5.2539
X3.9205Y-2.2551
X3.9209Y-3.0047
X3.9213Y-3.7547
X3.922Y-4.6909
X4.6709Y-1.8803
X4.6713Y-2.6303
X4.6717Y-3.3791
X5.4209Y-3.5673
X5.4213Y-2.8165
X5.4232Y-2.0669
X6.1713Y-2.628
X6.1717Y-3.3795
X6.1717Y-4.1291
T0
M30
