%TF.GenerationSoftware,KiCad,Pcbnew,5.1.10*%
%TF.CreationDate,2021-06-14T18:04:53+02:00*%
%TF.ProjectId,scattered-bat-pcb,73636174-7465-4726-9564-2d6261742d70,rev?*%
%TF.SameCoordinates,Original*%
%TF.FileFunction,Legend,Top*%
%TF.FilePolarity,Positive*%
%FSLAX46Y46*%
G04 Gerber Fmt 4.6, Leading zero omitted, Abs format (unit mm)*
G04 Created by KiCad (PCBNEW 5.1.10) date 2021-06-14 18:04:53*
%MOMM*%
%LPD*%
G01*
G04 APERTURE LIST*
%ADD10C,0.048672*%
%ADD11C,0.250000*%
%ADD12C,0.150000*%
%ADD13C,0.120000*%
%ADD14C,0.200000*%
G04 APERTURE END LIST*
D10*
X51038508Y-89512706D02*
X51001691Y-89474676D01*
X51001691Y-89474676D02*
X50962413Y-89434102D01*
X50962413Y-89434102D02*
X50924056Y-89394481D01*
X50924056Y-89394481D02*
X50878265Y-89347180D01*
X50878265Y-89347180D02*
X50843692Y-89311468D01*
X50843692Y-89311468D02*
X50805943Y-89272473D01*
X50805943Y-89272473D02*
X50765067Y-89230251D01*
X50765067Y-89230251D02*
X50721118Y-89184852D01*
X50721118Y-89184852D02*
X50674144Y-89136330D01*
X50674144Y-89136330D02*
X50624198Y-89084737D01*
X50624198Y-89084737D02*
X50598127Y-89057806D01*
X46529217Y-91065831D02*
X46528531Y-91065123D01*
X48007140Y-88828676D02*
X48058396Y-88839604D01*
X48058396Y-88839604D02*
X48100637Y-88869923D01*
X48100637Y-88869923D02*
X48126701Y-88911198D01*
X48007138Y-88004842D02*
X47641230Y-88382815D01*
X48372985Y-88382751D02*
X48007138Y-88004842D01*
X48126701Y-88911198D02*
X48136524Y-88959419D01*
X48136524Y-88959419D02*
X48127410Y-89011711D01*
X48127410Y-89011711D02*
X48098648Y-89056879D01*
X46503582Y-90129832D02*
X46540916Y-90168396D01*
X46540916Y-90168396D02*
X46578139Y-90206847D01*
X46578139Y-90206847D02*
X46615235Y-90245166D01*
X46615235Y-90245166D02*
X46652190Y-90283339D01*
X46652190Y-90283339D02*
X46688987Y-90321349D01*
X46688987Y-90321349D02*
X46725611Y-90359181D01*
X46725611Y-90359181D02*
X46762048Y-90396819D01*
X46762048Y-90396819D02*
X46798280Y-90434246D01*
X46798280Y-90434246D02*
X46834294Y-90471448D01*
X46834294Y-90471448D02*
X46870074Y-90508407D01*
X46870074Y-90508407D02*
X46905603Y-90545108D01*
X46905603Y-90545108D02*
X46940868Y-90581535D01*
X46940868Y-90581535D02*
X46975852Y-90617673D01*
X46975852Y-90617673D02*
X47010540Y-90653504D01*
X47010540Y-90653504D02*
X47044917Y-90689014D01*
X47044917Y-90689014D02*
X47078967Y-90724187D01*
X47078967Y-90724187D02*
X47146025Y-90793456D01*
X47146025Y-90793456D02*
X47211591Y-90861183D01*
X47211591Y-90861183D02*
X47275542Y-90927243D01*
X47275542Y-90927243D02*
X47337754Y-90991506D01*
X47337754Y-90991506D02*
X47398105Y-91053847D01*
X47398105Y-91053847D02*
X47456470Y-91114137D01*
X47456470Y-91114137D02*
X47512728Y-91172249D01*
X47512728Y-91172249D02*
X47566755Y-91228057D01*
X48007136Y-87336892D02*
X45903460Y-89509925D01*
X49582706Y-93919457D02*
X49595337Y-93887959D01*
X49609328Y-93960612D02*
X49582706Y-93919457D01*
X45833606Y-85053431D02*
X45793626Y-85081026D01*
X46453117Y-85139288D02*
X46479739Y-85098132D01*
X46406121Y-85129631D02*
X46453117Y-85139288D01*
X48495094Y-87974543D02*
X48982592Y-88478113D01*
X48007138Y-87470500D02*
X47519684Y-87974024D01*
X48495094Y-87974543D02*
X48007138Y-87470500D01*
X48052892Y-90123172D02*
X48008080Y-90142742D01*
X48008080Y-90142742D02*
X47982380Y-90137661D01*
X48066918Y-90050335D02*
X48067272Y-90100590D01*
X48067272Y-90100590D02*
X48052892Y-90123172D01*
X45251089Y-82894138D02*
X47384734Y-85098132D01*
X47014749Y-85035024D02*
X46970589Y-85010614D01*
X46970589Y-85010614D02*
X46953655Y-85008884D01*
X47040055Y-85098132D02*
X47026690Y-85050450D01*
X47026690Y-85050450D02*
X47014749Y-85035024D01*
X46396774Y-85081086D02*
X46406121Y-85129631D01*
X46436615Y-85053587D02*
X46396774Y-85081086D01*
X47384734Y-85098132D02*
X45251294Y-87301916D01*
X46528531Y-91065123D02*
X46565865Y-91103687D01*
X46565865Y-91103687D02*
X46603088Y-91142137D01*
X46603088Y-91142137D02*
X46640184Y-91180457D01*
X46640184Y-91180457D02*
X46677139Y-91218630D01*
X46677139Y-91218630D02*
X46713936Y-91256640D01*
X46713936Y-91256640D02*
X46750560Y-91294472D01*
X46750560Y-91294472D02*
X46786997Y-91332110D01*
X46786997Y-91332110D02*
X46823229Y-91369537D01*
X46823229Y-91369537D02*
X46859243Y-91406738D01*
X46859243Y-91406738D02*
X46895023Y-91443697D01*
X46895023Y-91443697D02*
X46930552Y-91480398D01*
X46930552Y-91480398D02*
X46965817Y-91516826D01*
X46965817Y-91516826D02*
X47000801Y-91552963D01*
X47000801Y-91552963D02*
X47035489Y-91588795D01*
X47035489Y-91588795D02*
X47069866Y-91624305D01*
X47069866Y-91624305D02*
X47103916Y-91659478D01*
X47103916Y-91659478D02*
X47170974Y-91728746D01*
X47170974Y-91728746D02*
X47236540Y-91796474D01*
X47236540Y-91796474D02*
X47300491Y-91862533D01*
X47300491Y-91862533D02*
X47362703Y-91926797D01*
X47362703Y-91926797D02*
X47423054Y-91989137D01*
X47423054Y-91989137D02*
X47481419Y-92049428D01*
X47481419Y-92049428D02*
X47537677Y-92107540D01*
X47537677Y-92107540D02*
X47591704Y-92163348D01*
X46986719Y-85180588D02*
X47025493Y-85147716D01*
X47025493Y-85147716D02*
X47040055Y-85098132D01*
X46892561Y-85161241D02*
X46936799Y-85185666D01*
X46936799Y-85185666D02*
X46986719Y-85180588D01*
X47946333Y-89300097D02*
X47990285Y-89275801D01*
X47990285Y-89275801D02*
X48007140Y-89274079D01*
X47921145Y-89362909D02*
X47934446Y-89315450D01*
X47934446Y-89315450D02*
X47946333Y-89300097D01*
X49169884Y-93982565D02*
X49125646Y-94006990D01*
X49125646Y-94006990D02*
X49075726Y-94001912D01*
X49188613Y-93885303D02*
X49194085Y-93933678D01*
X49194085Y-93933678D02*
X49172149Y-93980134D01*
X49172149Y-93980134D02*
X49169884Y-93982565D01*
X48086588Y-89328915D02*
X48091481Y-89380238D01*
X48091481Y-89380238D02*
X48067947Y-89425721D01*
X47915632Y-88867829D02*
X47957616Y-88838851D01*
X47957616Y-88838851D02*
X48007140Y-88828676D01*
X47877729Y-88962354D02*
X47886407Y-88914224D01*
X47886407Y-88914224D02*
X47913388Y-88870205D01*
X47913388Y-88870205D02*
X47915632Y-88867829D01*
X47942437Y-90075912D02*
X47960266Y-90029840D01*
X47960266Y-90029840D02*
X47961388Y-90028652D01*
X47982380Y-90137661D02*
X47947726Y-90102384D01*
X47947726Y-90102384D02*
X47942437Y-90075912D01*
X48007136Y-91682957D02*
X50110812Y-89509925D01*
X49670431Y-89055025D02*
X49616404Y-88999217D01*
X49616404Y-88999217D02*
X49560147Y-88941104D01*
X49560147Y-88941104D02*
X49501781Y-88880814D01*
X49501781Y-88880814D02*
X49441430Y-88818474D01*
X49441430Y-88818474D02*
X49379218Y-88754210D01*
X49379218Y-88754210D02*
X49315267Y-88688151D01*
X49315267Y-88688151D02*
X49249701Y-88620423D01*
X49249701Y-88620423D02*
X49182643Y-88551154D01*
X49182643Y-88551154D02*
X49148593Y-88515982D01*
X49148593Y-88515982D02*
X49114217Y-88480472D01*
X49114217Y-88480472D02*
X49079529Y-88444640D01*
X49079529Y-88444640D02*
X49044545Y-88408502D01*
X49044545Y-88408502D02*
X49009280Y-88372075D01*
X49009280Y-88372075D02*
X48973750Y-88335374D01*
X48973750Y-88335374D02*
X48937971Y-88298415D01*
X48937971Y-88298415D02*
X48901957Y-88261214D01*
X48901957Y-88261214D02*
X48865724Y-88223786D01*
X48865724Y-88223786D02*
X48829288Y-88186149D01*
X48829288Y-88186149D02*
X48792663Y-88148317D01*
X48792663Y-88148317D02*
X48755866Y-88110307D01*
X48755866Y-88110307D02*
X48718912Y-88072134D01*
X48718912Y-88072134D02*
X48681815Y-88033814D01*
X48681815Y-88033814D02*
X48644592Y-87995364D01*
X48644592Y-87995364D02*
X48607259Y-87956800D01*
X51688054Y-97697273D02*
X51598383Y-97604640D01*
X51947422Y-97697547D02*
X51688054Y-97697273D01*
X51813028Y-97558724D02*
X51947422Y-97697547D01*
X48289884Y-93919422D02*
X51947422Y-97697541D01*
X48030858Y-93919422D02*
X52253198Y-89557871D01*
X51688054Y-97697191D02*
X48030858Y-93919422D01*
X45833606Y-85053431D02*
X45833606Y-85053431D01*
X48113885Y-88649535D02*
X48072967Y-88679608D01*
X48072967Y-88679608D02*
X48025765Y-88694016D01*
X48025765Y-88694016D02*
X47976320Y-88691929D01*
X47976320Y-88691929D02*
X47949370Y-88683337D01*
X48146608Y-88479597D02*
X48157847Y-88530154D01*
X48157847Y-88530154D02*
X48152670Y-88580714D01*
X48152670Y-88580714D02*
X48131883Y-88627103D01*
X48131883Y-88627103D02*
X48113885Y-88649535D01*
X48007140Y-88383335D02*
X48056659Y-88391956D01*
X48056659Y-88391956D02*
X48099899Y-88416245D01*
X48099899Y-88416245D02*
X48133432Y-88453835D01*
X48133432Y-88453835D02*
X48146608Y-88479597D01*
X47519684Y-87974024D02*
X47032055Y-88477734D01*
X49535640Y-87960290D02*
X49498305Y-87921725D01*
X49498305Y-87921725D02*
X49461082Y-87883275D01*
X49461082Y-87883275D02*
X49423986Y-87844955D01*
X49423986Y-87844955D02*
X49387031Y-87806782D01*
X49387031Y-87806782D02*
X49350234Y-87768772D01*
X49350234Y-87768772D02*
X49313610Y-87730940D01*
X49313610Y-87730940D02*
X49277173Y-87693303D01*
X49277173Y-87693303D02*
X49240940Y-87655875D01*
X49240940Y-87655875D02*
X49204927Y-87618674D01*
X49204927Y-87618674D02*
X49169147Y-87581715D01*
X49169147Y-87581715D02*
X49133617Y-87545014D01*
X49133617Y-87545014D02*
X49098353Y-87508587D01*
X49098353Y-87508587D02*
X49063368Y-87472449D01*
X49063368Y-87472449D02*
X49028680Y-87436617D01*
X49028680Y-87436617D02*
X48994304Y-87401107D01*
X48994304Y-87401107D02*
X48960254Y-87365935D01*
X48960254Y-87365935D02*
X48893196Y-87296666D01*
X48893196Y-87296666D02*
X48827630Y-87228938D01*
X48827630Y-87228938D02*
X48763679Y-87162879D01*
X48763679Y-87162879D02*
X48701466Y-87098615D01*
X48701466Y-87098615D02*
X48641115Y-87036275D01*
X48641115Y-87036275D02*
X48582750Y-86975985D01*
X48582750Y-86975985D02*
X48526492Y-86917872D01*
X48526492Y-86917872D02*
X48472466Y-86862065D01*
X48472466Y-86862065D02*
X48421052Y-86808956D01*
X48421052Y-86808956D02*
X48372586Y-86758892D01*
X48372586Y-86758892D02*
X48327118Y-86711925D01*
X48327118Y-86711925D02*
X48284699Y-86668108D01*
X48284699Y-86668108D02*
X48245381Y-86627493D01*
X48245381Y-86627493D02*
X48209213Y-86590133D01*
X48209213Y-86590133D02*
X48160982Y-86540311D01*
X48160982Y-86540311D02*
X48120128Y-86498111D01*
X48120128Y-86498111D02*
X48077430Y-86454005D01*
X48077430Y-86454005D02*
X48043554Y-86419012D01*
X48043554Y-86419012D02*
X48032085Y-86407165D01*
X46953655Y-85008884D02*
X46953655Y-85008884D01*
X46467108Y-85066634D02*
X46436615Y-85053587D01*
X46479739Y-85098132D02*
X46467108Y-85066634D01*
X45903460Y-89509925D02*
X45940275Y-89547954D01*
X45940275Y-89547954D02*
X45979554Y-89588528D01*
X45979554Y-89588528D02*
X46017911Y-89628149D01*
X46017911Y-89628149D02*
X46063702Y-89675450D01*
X46063702Y-89675450D02*
X46098274Y-89711162D01*
X46098274Y-89711162D02*
X46136024Y-89750156D01*
X46136024Y-89750156D02*
X46176899Y-89792379D01*
X46176899Y-89792379D02*
X46220849Y-89837778D01*
X46220849Y-89837778D02*
X46267823Y-89886300D01*
X46267823Y-89886300D02*
X46317769Y-89937892D01*
X46317769Y-89937892D02*
X46343841Y-89964824D01*
X46343841Y-89964824D02*
X46397867Y-90020631D01*
X46397867Y-90020631D02*
X46454124Y-90078743D01*
X46454124Y-90078743D02*
X46512490Y-90139034D01*
X46512490Y-90139034D02*
X46572841Y-90201374D01*
X46572841Y-90201374D02*
X46635053Y-90265638D01*
X46635053Y-90265638D02*
X46699004Y-90331697D01*
X46699004Y-90331697D02*
X46764570Y-90399425D01*
X46764570Y-90399425D02*
X46831628Y-90468694D01*
X46831628Y-90468694D02*
X46865678Y-90503866D01*
X46865678Y-90503866D02*
X46900054Y-90539376D01*
X46900054Y-90539376D02*
X46934743Y-90575208D01*
X46934743Y-90575208D02*
X46969727Y-90611346D01*
X46969727Y-90611346D02*
X47004991Y-90647773D01*
X47004991Y-90647773D02*
X47040521Y-90684474D01*
X47040521Y-90684474D02*
X47076301Y-90721433D01*
X47076301Y-90721433D02*
X47112315Y-90758634D01*
X47112315Y-90758634D02*
X47148547Y-90796062D01*
X47148547Y-90796062D02*
X47184984Y-90833700D01*
X47184984Y-90833700D02*
X47221608Y-90871532D01*
X47221608Y-90871532D02*
X47258405Y-90909542D01*
X47258405Y-90909542D02*
X47295360Y-90947715D01*
X47295360Y-90947715D02*
X47332456Y-90986034D01*
X47332456Y-90986034D02*
X47369679Y-91024485D01*
X47369679Y-91024485D02*
X47407014Y-91063050D01*
X48032085Y-86407165D02*
X45025663Y-89512706D01*
X47407014Y-91063050D02*
X46503582Y-90129832D01*
X50110812Y-89509925D02*
X50073996Y-89471895D01*
X50073996Y-89471895D02*
X50034717Y-89431321D01*
X50034717Y-89431321D02*
X49996361Y-89391700D01*
X49996361Y-89391700D02*
X49950569Y-89344399D01*
X49950569Y-89344399D02*
X49915997Y-89308686D01*
X49915997Y-89308686D02*
X49878247Y-89269692D01*
X49878247Y-89269692D02*
X49837372Y-89227469D01*
X49837372Y-89227469D02*
X49793422Y-89182070D01*
X49793422Y-89182070D02*
X49746448Y-89133548D01*
X49746448Y-89133548D02*
X49696502Y-89081956D01*
X49696502Y-89081956D02*
X49670431Y-89055025D01*
X50198240Y-93887849D02*
X50228839Y-93874756D01*
X50185565Y-93919457D02*
X50198240Y-93887849D01*
X49108790Y-93830208D02*
X49156791Y-93845249D01*
X49156791Y-93845249D02*
X49188613Y-93885303D01*
X44578286Y-90352645D02*
X44745159Y-90525020D01*
X41015854Y-90352645D02*
X44578286Y-90352645D01*
X48030859Y-85098105D02*
X43802252Y-89466124D01*
X44373534Y-81320202D02*
X48030859Y-85098105D01*
X44115116Y-81320380D02*
X44373534Y-81320202D01*
X44203355Y-81411527D02*
X44115116Y-81320380D01*
X47772226Y-85098066D02*
X43540000Y-89470000D01*
X44115115Y-81320386D02*
X47772226Y-85098066D01*
X48007136Y-87336892D02*
X48007136Y-87336892D01*
X48607259Y-87956800D02*
X49510691Y-88890017D01*
X48098648Y-89056879D02*
X48054922Y-89086589D01*
X48054922Y-89086589D02*
X48004299Y-89096004D01*
X48004299Y-89096004D02*
X47957616Y-89085856D01*
X47900395Y-88429007D02*
X47942637Y-88398286D01*
X47942637Y-88398286D02*
X47992219Y-88384098D01*
X47992219Y-88384098D02*
X48007140Y-88383335D01*
X47856181Y-88539271D02*
X47863820Y-88490290D01*
X47863820Y-88490290D02*
X47885802Y-88446498D01*
X47885802Y-88446498D02*
X47900395Y-88429007D01*
X49108790Y-93830208D02*
X49108790Y-93830208D01*
X49595337Y-93887959D02*
X49625830Y-93874912D01*
X44578286Y-90352645D02*
X41015854Y-90352645D01*
X51489218Y-88670007D02*
X51352393Y-88528671D01*
X55223356Y-88670007D02*
X51489218Y-88670007D01*
X44578288Y-91777350D02*
X45839508Y-93080698D01*
X44578288Y-90352623D02*
X47218922Y-93080698D01*
X48007140Y-90009076D02*
X48052223Y-90027968D01*
X48052223Y-90027968D02*
X48066918Y-90050335D01*
X48007140Y-88828676D02*
X48007140Y-88828676D01*
X47566755Y-91228057D02*
X47618168Y-91281165D01*
X47618168Y-91281165D02*
X47666634Y-91331229D01*
X47666634Y-91331229D02*
X47712102Y-91378196D01*
X47712102Y-91378196D02*
X47754521Y-91422013D01*
X47754521Y-91422013D02*
X47793840Y-91462628D01*
X47793840Y-91462628D02*
X47830007Y-91499988D01*
X47830007Y-91499988D02*
X47878238Y-91549810D01*
X47878238Y-91549810D02*
X47919092Y-91592010D01*
X47919092Y-91592010D02*
X47961790Y-91636116D01*
X47961790Y-91636116D02*
X47995666Y-91671109D01*
X47995666Y-91671109D02*
X48007136Y-91682957D01*
X52300762Y-89508763D02*
X52253197Y-89557896D01*
X52565919Y-89503381D02*
X52300762Y-89508763D01*
X52479427Y-89592726D02*
X52565919Y-89503381D01*
X48003286Y-91545132D02*
X48015251Y-91557487D01*
X48007138Y-91549197D02*
X49435076Y-90074183D01*
X48032085Y-86407165D02*
X48032085Y-86407165D01*
X49534953Y-87959581D02*
X49535640Y-87960290D01*
X50212279Y-93960755D02*
X50185565Y-93919457D01*
X50259438Y-93951065D02*
X50212279Y-93960755D01*
X46436615Y-85053587D02*
X46436615Y-85053587D01*
X45864205Y-85066524D02*
X45833606Y-85053431D01*
X45876880Y-85098132D02*
X45864205Y-85066524D01*
X47957616Y-89085856D02*
X47914310Y-89055497D01*
X47914310Y-89055497D02*
X47886517Y-89010789D01*
X47886517Y-89010789D02*
X47877729Y-88962354D01*
X49022390Y-93919457D02*
X49035754Y-93871774D01*
X49035754Y-93871774D02*
X49047696Y-93856348D01*
X49075726Y-94001912D02*
X49036951Y-93969040D01*
X49036951Y-93969040D02*
X49022390Y-93919457D01*
X49625830Y-93874912D02*
X49665671Y-93902410D01*
X48677711Y-93919457D02*
X50811151Y-96123240D01*
X50811356Y-91715462D02*
X48677711Y-93919457D01*
X49047696Y-93856348D02*
X49091855Y-93831938D01*
X49091855Y-93831938D02*
X49108790Y-93830208D01*
X47949370Y-88683337D02*
X47906814Y-88655796D01*
X47906814Y-88655796D02*
X47875864Y-88616264D01*
X47875864Y-88616264D02*
X47858809Y-88568279D01*
X47858809Y-88568279D02*
X47856181Y-88539271D01*
X50268819Y-93902350D02*
X50259438Y-93951065D01*
X50228839Y-93874756D02*
X50268819Y-93902350D01*
X47591704Y-92163348D02*
X47643117Y-92216456D01*
X47643117Y-92216456D02*
X47691583Y-92266520D01*
X47691583Y-92266520D02*
X47737051Y-92313487D01*
X47737051Y-92313487D02*
X47779470Y-92357304D01*
X47779470Y-92357304D02*
X47818789Y-92397919D01*
X47818789Y-92397919D02*
X47854956Y-92435279D01*
X47854956Y-92435279D02*
X47903187Y-92485101D01*
X47903187Y-92485101D02*
X47944041Y-92527301D01*
X47944041Y-92527301D02*
X47986739Y-92571407D01*
X47986739Y-92571407D02*
X48020615Y-92606400D01*
X48020615Y-92606400D02*
X48032085Y-92618248D01*
X48447517Y-87791791D02*
X48396103Y-87738682D01*
X48396103Y-87738682D02*
X48347637Y-87688619D01*
X48347637Y-87688619D02*
X48302169Y-87641652D01*
X48302169Y-87641652D02*
X48259750Y-87597834D01*
X48259750Y-87597834D02*
X48220432Y-87557219D01*
X48220432Y-87557219D02*
X48184264Y-87519859D01*
X48184264Y-87519859D02*
X48136033Y-87470038D01*
X48136033Y-87470038D02*
X48095179Y-87427838D01*
X48095179Y-87427838D02*
X48052481Y-87383732D01*
X48052481Y-87383732D02*
X48018605Y-87348739D01*
X48018605Y-87348739D02*
X48007136Y-87336892D01*
X49510691Y-88890017D02*
X49473356Y-88851452D01*
X49473356Y-88851452D02*
X49436133Y-88813002D01*
X49436133Y-88813002D02*
X49399037Y-88774682D01*
X49399037Y-88774682D02*
X49362082Y-88736509D01*
X49362082Y-88736509D02*
X49325285Y-88698499D01*
X49325285Y-88698499D02*
X49288661Y-88660667D01*
X49288661Y-88660667D02*
X49252224Y-88623029D01*
X49252224Y-88623029D02*
X49215991Y-88585602D01*
X49215991Y-88585602D02*
X49179978Y-88548401D01*
X49179978Y-88548401D02*
X49144198Y-88511442D01*
X49144198Y-88511442D02*
X49108668Y-88474740D01*
X49108668Y-88474740D02*
X49073404Y-88438313D01*
X49073404Y-88438313D02*
X49038419Y-88402176D01*
X49038419Y-88402176D02*
X49003731Y-88366344D01*
X49003731Y-88366344D02*
X48969355Y-88330834D01*
X48969355Y-88330834D02*
X48935305Y-88295661D01*
X48935305Y-88295661D02*
X48868247Y-88226392D01*
X48868247Y-88226392D02*
X48802681Y-88158665D01*
X48802681Y-88158665D02*
X48738730Y-88092605D01*
X48738730Y-88092605D02*
X48676517Y-88028342D01*
X48676517Y-88028342D02*
X48616166Y-87966001D01*
X48616166Y-87966001D02*
X48557801Y-87905711D01*
X48557801Y-87905711D02*
X48501543Y-87847598D01*
X48501543Y-87847598D02*
X48447517Y-87791791D01*
X47974231Y-89444977D02*
X47935637Y-89412259D01*
X47935637Y-89412259D02*
X47921145Y-89362909D01*
X48067947Y-89425721D02*
X48023916Y-89450031D01*
X48023916Y-89450031D02*
X47974231Y-89444977D01*
X46873832Y-85063979D02*
X46868359Y-85112354D01*
X46868359Y-85112354D02*
X46890295Y-85158810D01*
X46890295Y-85158810D02*
X46892561Y-85161241D01*
X46953655Y-85008884D02*
X46905653Y-85023925D01*
X46905653Y-85023925D02*
X46873832Y-85063979D01*
X50228839Y-93874756D02*
X50228839Y-93874756D01*
X49625830Y-93874912D02*
X49625830Y-93874912D01*
X48007138Y-91549197D02*
X46580062Y-90075072D01*
X48007140Y-90009076D02*
X48007140Y-90009076D01*
X48007140Y-89274079D02*
X48007140Y-89274079D01*
X47961388Y-90028652D02*
X48007140Y-90009076D01*
X48007140Y-89274079D02*
X48054916Y-89289049D01*
X48054916Y-89289049D02*
X48086588Y-89328915D01*
X48007140Y-88383335D02*
X48007140Y-88383335D01*
X49656324Y-93950955D02*
X49609328Y-93960612D01*
X49665671Y-93902410D02*
X49656324Y-93950955D01*
X45850166Y-85139431D02*
X45876880Y-85098132D01*
X45803007Y-85129741D02*
X45850166Y-85139431D01*
X45793626Y-85081026D02*
X45803007Y-85129741D01*
X48032085Y-92618248D02*
X51038508Y-89512706D01*
X50598127Y-89057806D02*
X50544100Y-89001998D01*
X50544100Y-89001998D02*
X50487842Y-88943886D01*
X50487842Y-88943886D02*
X50429476Y-88883596D01*
X50429476Y-88883596D02*
X50369126Y-88821255D01*
X50369126Y-88821255D02*
X50306913Y-88756992D01*
X50306913Y-88756992D02*
X50242962Y-88690932D01*
X50242962Y-88690932D02*
X50177396Y-88623205D01*
X50177396Y-88623205D02*
X50110338Y-88553936D01*
X50110338Y-88553936D02*
X50076288Y-88518763D01*
X50076288Y-88518763D02*
X50041911Y-88483253D01*
X50041911Y-88483253D02*
X50007223Y-88447422D01*
X50007223Y-88447422D02*
X49972239Y-88411284D01*
X49972239Y-88411284D02*
X49936974Y-88374857D01*
X49936974Y-88374857D02*
X49901445Y-88338156D01*
X49901445Y-88338156D02*
X49865665Y-88301197D01*
X49865665Y-88301197D02*
X49829651Y-88263995D01*
X49829651Y-88263995D02*
X49793418Y-88226568D01*
X49793418Y-88226568D02*
X49756982Y-88188930D01*
X49756982Y-88188930D02*
X49720357Y-88151098D01*
X49720357Y-88151098D02*
X49683560Y-88113088D01*
X49683560Y-88113088D02*
X49646606Y-88074915D01*
X49646606Y-88074915D02*
X49609509Y-88036596D01*
X49609509Y-88036596D02*
X49572286Y-87998145D01*
X49572286Y-87998145D02*
X49534953Y-87959581D01*
X48030858Y-93919422D02*
X48289884Y-93919422D01*
X52565917Y-89503381D02*
X48283769Y-93921942D01*
X48030858Y-85098066D02*
X47772226Y-85098066D01*
X45025663Y-89512706D02*
X45062479Y-89550735D01*
X45062479Y-89550735D02*
X45101757Y-89591309D01*
X45101757Y-89591309D02*
X45140114Y-89630930D01*
X45140114Y-89630930D02*
X45185905Y-89678231D01*
X45185905Y-89678231D02*
X45220478Y-89713944D01*
X45220478Y-89713944D02*
X45258227Y-89752938D01*
X45258227Y-89752938D02*
X45299103Y-89795161D01*
X45299103Y-89795161D02*
X45343052Y-89840560D01*
X45343052Y-89840560D02*
X45390026Y-89889082D01*
X45390026Y-89889082D02*
X45439972Y-89940674D01*
X45439972Y-89940674D02*
X45466044Y-89967606D01*
X45466044Y-89967606D02*
X45520070Y-90023413D01*
X45520070Y-90023413D02*
X45576328Y-90081526D01*
X45576328Y-90081526D02*
X45634693Y-90141816D01*
X45634693Y-90141816D02*
X45695044Y-90204156D01*
X45695044Y-90204156D02*
X45757257Y-90268420D01*
X45757257Y-90268420D02*
X45821207Y-90334479D01*
X45821207Y-90334479D02*
X45886774Y-90402207D01*
X45886774Y-90402207D02*
X45953832Y-90471476D01*
X45953832Y-90471476D02*
X45987881Y-90506648D01*
X45987881Y-90506648D02*
X46022258Y-90542158D01*
X46022258Y-90542158D02*
X46056946Y-90577990D01*
X46056946Y-90577990D02*
X46091930Y-90614128D01*
X46091930Y-90614128D02*
X46127195Y-90650555D01*
X46127195Y-90650555D02*
X46162725Y-90687256D01*
X46162725Y-90687256D02*
X46198504Y-90724215D01*
X46198504Y-90724215D02*
X46234518Y-90761416D01*
X46234518Y-90761416D02*
X46270751Y-90798844D01*
X46270751Y-90798844D02*
X46307187Y-90836481D01*
X46307187Y-90836481D02*
X46343812Y-90874313D01*
X46343812Y-90874313D02*
X46380609Y-90912323D01*
X46380609Y-90912323D02*
X46417563Y-90950496D01*
X46417563Y-90950496D02*
X46454660Y-90988816D01*
X46454660Y-90988816D02*
X46491883Y-91027266D01*
X46491883Y-91027266D02*
X46529217Y-91065831D01*
X51489227Y-87245295D02*
X50228007Y-85941947D01*
X51489227Y-88670022D02*
X48848593Y-85941947D01*
X43760946Y-89508742D02*
X43802240Y-89466084D01*
X43502482Y-89508742D02*
X43760946Y-89508742D01*
X43540000Y-89470000D02*
X43502482Y-89508742D01*
D11*
X55452857Y-64559047D02*
X56310000Y-64559047D01*
X56481428Y-64606666D01*
X56595714Y-64701904D01*
X56652857Y-64844761D01*
X56652857Y-64940000D01*
X56652857Y-63606666D02*
X56652857Y-64082857D01*
X55452857Y-64082857D01*
X56538571Y-62701904D02*
X56595714Y-62749523D01*
X56652857Y-62892380D01*
X56652857Y-62987619D01*
X56595714Y-63130476D01*
X56481428Y-63225714D01*
X56367142Y-63273333D01*
X56138571Y-63320952D01*
X55967142Y-63320952D01*
X55738571Y-63273333D01*
X55624285Y-63225714D01*
X55510000Y-63130476D01*
X55452857Y-62987619D01*
X55452857Y-62892380D01*
X55510000Y-62749523D01*
X55567142Y-62701904D01*
X55452857Y-61987619D02*
X56310000Y-61987619D01*
X56481428Y-62035238D01*
X56595714Y-62130476D01*
X56652857Y-62273333D01*
X56652857Y-62368571D01*
X56652857Y-61035238D02*
X56652857Y-61511428D01*
X55452857Y-61511428D01*
X56538571Y-60130476D02*
X56595714Y-60178095D01*
X56652857Y-60320952D01*
X56652857Y-60416190D01*
X56595714Y-60559047D01*
X56481428Y-60654285D01*
X56367142Y-60701904D01*
X56138571Y-60749523D01*
X55967142Y-60749523D01*
X55738571Y-60701904D01*
X55624285Y-60654285D01*
X55510000Y-60559047D01*
X55452857Y-60416190D01*
X55452857Y-60320952D01*
X55510000Y-60178095D01*
X55567142Y-60130476D01*
X55452857Y-59416190D02*
X56310000Y-59416190D01*
X56481428Y-59463809D01*
X56595714Y-59559047D01*
X56652857Y-59701904D01*
X56652857Y-59797142D01*
X56652857Y-58463809D02*
X56652857Y-58940000D01*
X55452857Y-58940000D01*
X56538571Y-57559047D02*
X56595714Y-57606666D01*
X56652857Y-57749523D01*
X56652857Y-57844761D01*
X56595714Y-57987619D01*
X56481428Y-58082857D01*
X56367142Y-58130476D01*
X56138571Y-58178095D01*
X55967142Y-58178095D01*
X55738571Y-58130476D01*
X55624285Y-58082857D01*
X55510000Y-57987619D01*
X55452857Y-57844761D01*
X55452857Y-57749523D01*
X55510000Y-57606666D01*
X55567142Y-57559047D01*
X55452857Y-56844761D02*
X56310000Y-56844761D01*
X56481428Y-56892380D01*
X56595714Y-56987619D01*
X56652857Y-57130476D01*
X56652857Y-57225714D01*
X56652857Y-55892380D02*
X56652857Y-56368571D01*
X55452857Y-56368571D01*
X56538571Y-54987619D02*
X56595714Y-55035238D01*
X56652857Y-55178095D01*
X56652857Y-55273333D01*
X56595714Y-55416190D01*
X56481428Y-55511428D01*
X56367142Y-55559047D01*
X56138571Y-55606666D01*
X55967142Y-55606666D01*
X55738571Y-55559047D01*
X55624285Y-55511428D01*
X55510000Y-55416190D01*
X55452857Y-55273333D01*
X55452857Y-55178095D01*
X55510000Y-55035238D01*
X55567142Y-54987619D01*
D12*
X71681428Y-49092380D02*
X71681428Y-48092380D01*
X71919523Y-48092380D01*
X72062380Y-48140000D01*
X72157619Y-48235238D01*
X72205238Y-48330476D01*
X72252857Y-48520952D01*
X72252857Y-48663809D01*
X72205238Y-48854285D01*
X72157619Y-48949523D01*
X72062380Y-49044761D01*
X71919523Y-49092380D01*
X71681428Y-49092380D01*
X73062380Y-49044761D02*
X72967142Y-49092380D01*
X72776666Y-49092380D01*
X72681428Y-49044761D01*
X72633809Y-48949523D01*
X72633809Y-48568571D01*
X72681428Y-48473333D01*
X72776666Y-48425714D01*
X72967142Y-48425714D01*
X73062380Y-48473333D01*
X73110000Y-48568571D01*
X73110000Y-48663809D01*
X72633809Y-48759047D01*
X73490952Y-49044761D02*
X73586190Y-49092380D01*
X73776666Y-49092380D01*
X73871904Y-49044761D01*
X73919523Y-48949523D01*
X73919523Y-48901904D01*
X73871904Y-48806666D01*
X73776666Y-48759047D01*
X73633809Y-48759047D01*
X73538571Y-48711428D01*
X73490952Y-48616190D01*
X73490952Y-48568571D01*
X73538571Y-48473333D01*
X73633809Y-48425714D01*
X73776666Y-48425714D01*
X73871904Y-48473333D01*
X74348095Y-49092380D02*
X74348095Y-48425714D01*
X74348095Y-48092380D02*
X74300476Y-48140000D01*
X74348095Y-48187619D01*
X74395714Y-48140000D01*
X74348095Y-48092380D01*
X74348095Y-48187619D01*
X75252857Y-48425714D02*
X75252857Y-49235238D01*
X75205238Y-49330476D01*
X75157619Y-49378095D01*
X75062380Y-49425714D01*
X74919523Y-49425714D01*
X74824285Y-49378095D01*
X75252857Y-49044761D02*
X75157619Y-49092380D01*
X74967142Y-49092380D01*
X74871904Y-49044761D01*
X74824285Y-48997142D01*
X74776666Y-48901904D01*
X74776666Y-48616190D01*
X74824285Y-48520952D01*
X74871904Y-48473333D01*
X74967142Y-48425714D01*
X75157619Y-48425714D01*
X75252857Y-48473333D01*
X75729047Y-48425714D02*
X75729047Y-49092380D01*
X75729047Y-48520952D02*
X75776666Y-48473333D01*
X75871904Y-48425714D01*
X76014761Y-48425714D01*
X76110000Y-48473333D01*
X76157619Y-48568571D01*
X76157619Y-49092380D01*
X77014761Y-49044761D02*
X76919523Y-49092380D01*
X76729047Y-49092380D01*
X76633809Y-49044761D01*
X76586190Y-48949523D01*
X76586190Y-48568571D01*
X76633809Y-48473333D01*
X76729047Y-48425714D01*
X76919523Y-48425714D01*
X77014761Y-48473333D01*
X77062380Y-48568571D01*
X77062380Y-48663809D01*
X76586190Y-48759047D01*
X77919523Y-49092380D02*
X77919523Y-48092380D01*
X77919523Y-49044761D02*
X77824285Y-49092380D01*
X77633809Y-49092380D01*
X77538571Y-49044761D01*
X77490952Y-48997142D01*
X77443333Y-48901904D01*
X77443333Y-48616190D01*
X77490952Y-48520952D01*
X77538571Y-48473333D01*
X77633809Y-48425714D01*
X77824285Y-48425714D01*
X77919523Y-48473333D01*
X79157619Y-49092380D02*
X79157619Y-48092380D01*
X79157619Y-48473333D02*
X79252857Y-48425714D01*
X79443333Y-48425714D01*
X79538571Y-48473333D01*
X79586190Y-48520952D01*
X79633809Y-48616190D01*
X79633809Y-48901904D01*
X79586190Y-48997142D01*
X79538571Y-49044761D01*
X79443333Y-49092380D01*
X79252857Y-49092380D01*
X79157619Y-49044761D01*
X79967142Y-48425714D02*
X80205238Y-49092380D01*
X80443333Y-48425714D02*
X80205238Y-49092380D01*
X80110000Y-49330476D01*
X80062380Y-49378095D01*
X79967142Y-49425714D01*
X81538571Y-49044761D02*
X81681428Y-49092380D01*
X81919523Y-49092380D01*
X82014761Y-49044761D01*
X82062380Y-48997142D01*
X82110000Y-48901904D01*
X82110000Y-48806666D01*
X82062380Y-48711428D01*
X82014761Y-48663809D01*
X81919523Y-48616190D01*
X81729047Y-48568571D01*
X81633809Y-48520952D01*
X81586190Y-48473333D01*
X81538571Y-48378095D01*
X81538571Y-48282857D01*
X81586190Y-48187619D01*
X81633809Y-48140000D01*
X81729047Y-48092380D01*
X81967142Y-48092380D01*
X82110000Y-48140000D01*
X82967142Y-49044761D02*
X82871904Y-49092380D01*
X82681428Y-49092380D01*
X82586190Y-49044761D01*
X82538571Y-48997142D01*
X82490952Y-48901904D01*
X82490952Y-48616190D01*
X82538571Y-48520952D01*
X82586190Y-48473333D01*
X82681428Y-48425714D01*
X82871904Y-48425714D01*
X82967142Y-48473333D01*
X83824285Y-49092380D02*
X83824285Y-48568571D01*
X83776666Y-48473333D01*
X83681428Y-48425714D01*
X83490952Y-48425714D01*
X83395714Y-48473333D01*
X83824285Y-49044761D02*
X83729047Y-49092380D01*
X83490952Y-49092380D01*
X83395714Y-49044761D01*
X83348095Y-48949523D01*
X83348095Y-48854285D01*
X83395714Y-48759047D01*
X83490952Y-48711428D01*
X83729047Y-48711428D01*
X83824285Y-48663809D01*
X84157619Y-48425714D02*
X84538571Y-48425714D01*
X84300476Y-48092380D02*
X84300476Y-48949523D01*
X84348095Y-49044761D01*
X84443333Y-49092380D01*
X84538571Y-49092380D01*
X84729047Y-48425714D02*
X85110000Y-48425714D01*
X84871904Y-48092380D02*
X84871904Y-48949523D01*
X84919523Y-49044761D01*
X85014761Y-49092380D01*
X85110000Y-49092380D01*
X85824285Y-49044761D02*
X85729047Y-49092380D01*
X85538571Y-49092380D01*
X85443333Y-49044761D01*
X85395714Y-48949523D01*
X85395714Y-48568571D01*
X85443333Y-48473333D01*
X85538571Y-48425714D01*
X85729047Y-48425714D01*
X85824285Y-48473333D01*
X85871904Y-48568571D01*
X85871904Y-48663809D01*
X85395714Y-48759047D01*
X86300476Y-49092380D02*
X86300476Y-48425714D01*
X86300476Y-48616190D02*
X86348095Y-48520952D01*
X86395714Y-48473333D01*
X86490952Y-48425714D01*
X86586190Y-48425714D01*
X87300476Y-49044761D02*
X87205238Y-49092380D01*
X87014761Y-49092380D01*
X86919523Y-49044761D01*
X86871904Y-48949523D01*
X86871904Y-48568571D01*
X86919523Y-48473333D01*
X87014761Y-48425714D01*
X87205238Y-48425714D01*
X87300476Y-48473333D01*
X87348095Y-48568571D01*
X87348095Y-48663809D01*
X86871904Y-48759047D01*
X88205238Y-49092380D02*
X88205238Y-48092380D01*
X88205238Y-49044761D02*
X88109999Y-49092380D01*
X87919523Y-49092380D01*
X87824285Y-49044761D01*
X87776666Y-48997142D01*
X87729047Y-48901904D01*
X87729047Y-48616190D01*
X87776666Y-48520952D01*
X87824285Y-48473333D01*
X87919523Y-48425714D01*
X88109999Y-48425714D01*
X88205238Y-48473333D01*
X88681428Y-49092380D02*
X88681428Y-48092380D01*
X88919523Y-48092380D01*
X89062380Y-48140000D01*
X89157619Y-48235238D01*
X89205238Y-48330476D01*
X89252857Y-48520952D01*
X89252857Y-48663809D01*
X89205238Y-48854285D01*
X89157619Y-48949523D01*
X89062380Y-49044761D01*
X88919523Y-49092380D01*
X88681428Y-49092380D01*
X89681428Y-49092380D02*
X89681428Y-48425714D01*
X89681428Y-48616190D02*
X89729047Y-48520952D01*
X89776666Y-48473333D01*
X89871904Y-48425714D01*
X89967142Y-48425714D01*
X90300476Y-49092380D02*
X90300476Y-48425714D01*
X90300476Y-48092380D02*
X90252857Y-48140000D01*
X90300476Y-48187619D01*
X90348095Y-48140000D01*
X90300476Y-48092380D01*
X90300476Y-48187619D01*
X90633809Y-48425714D02*
X91014761Y-48425714D01*
X90776666Y-49092380D02*
X90776666Y-48235238D01*
X90824285Y-48140000D01*
X90919523Y-48092380D01*
X91014761Y-48092380D01*
X91205238Y-48425714D02*
X91586190Y-48425714D01*
X91348095Y-48092380D02*
X91348095Y-48949523D01*
X91395714Y-49044761D01*
X91490952Y-49092380D01*
X91586190Y-49092380D01*
X92300476Y-49044761D02*
X92205238Y-49092380D01*
X92014761Y-49092380D01*
X91919523Y-49044761D01*
X91871904Y-48949523D01*
X91871904Y-48568571D01*
X91919523Y-48473333D01*
X92014761Y-48425714D01*
X92205238Y-48425714D01*
X92300476Y-48473333D01*
X92348095Y-48568571D01*
X92348095Y-48663809D01*
X91871904Y-48759047D01*
X92776666Y-49092380D02*
X92776666Y-48425714D01*
X92776666Y-48616190D02*
X92824285Y-48520952D01*
X92871904Y-48473333D01*
X92967142Y-48425714D01*
X93062380Y-48425714D01*
X94395714Y-49425714D02*
X94395714Y-47997142D01*
X96205238Y-48568571D02*
X95871904Y-48568571D01*
X95871904Y-49092380D02*
X95871904Y-48092380D01*
X96348095Y-48092380D01*
X97157619Y-49092380D02*
X97157619Y-48568571D01*
X97110000Y-48473333D01*
X97014761Y-48425714D01*
X96824285Y-48425714D01*
X96729047Y-48473333D01*
X97157619Y-49044761D02*
X97062380Y-49092380D01*
X96824285Y-49092380D01*
X96729047Y-49044761D01*
X96681428Y-48949523D01*
X96681428Y-48854285D01*
X96729047Y-48759047D01*
X96824285Y-48711428D01*
X97062380Y-48711428D01*
X97157619Y-48663809D01*
X97633809Y-49092380D02*
X97633809Y-48092380D01*
X97633809Y-48473333D02*
X97729047Y-48425714D01*
X97919523Y-48425714D01*
X98014761Y-48473333D01*
X98062380Y-48520952D01*
X98109999Y-48616190D01*
X98109999Y-48901904D01*
X98062380Y-48997142D01*
X98014761Y-49044761D01*
X97919523Y-49092380D01*
X97729047Y-49092380D01*
X97633809Y-49044761D01*
X98538571Y-49092380D02*
X98538571Y-48425714D01*
X98538571Y-48092380D02*
X98490952Y-48140000D01*
X98538571Y-48187619D01*
X98586190Y-48140000D01*
X98538571Y-48092380D01*
X98538571Y-48187619D01*
X99443333Y-49092380D02*
X99443333Y-48568571D01*
X99395714Y-48473333D01*
X99300476Y-48425714D01*
X99109999Y-48425714D01*
X99014761Y-48473333D01*
X99443333Y-49044761D02*
X99348095Y-49092380D01*
X99109999Y-49092380D01*
X99014761Y-49044761D01*
X98967142Y-48949523D01*
X98967142Y-48854285D01*
X99014761Y-48759047D01*
X99109999Y-48711428D01*
X99348095Y-48711428D01*
X99443333Y-48663809D01*
X99919523Y-48425714D02*
X99919523Y-49092380D01*
X99919523Y-48520952D02*
X99967142Y-48473333D01*
X100062380Y-48425714D01*
X100205238Y-48425714D01*
X100300476Y-48473333D01*
X100348095Y-48568571D01*
X100348095Y-49092380D01*
X101538571Y-49044761D02*
X101681428Y-49092380D01*
X101919523Y-49092380D01*
X102014761Y-49044761D01*
X102062380Y-48997142D01*
X102109999Y-48901904D01*
X102109999Y-48806666D01*
X102062380Y-48711428D01*
X102014761Y-48663809D01*
X101919523Y-48616190D01*
X101729047Y-48568571D01*
X101633809Y-48520952D01*
X101586190Y-48473333D01*
X101538571Y-48378095D01*
X101538571Y-48282857D01*
X101586190Y-48187619D01*
X101633809Y-48140000D01*
X101729047Y-48092380D01*
X101967142Y-48092380D01*
X102109999Y-48140000D01*
X102538571Y-48997142D02*
X102586190Y-49044761D01*
X102538571Y-49092380D01*
X102490952Y-49044761D01*
X102538571Y-48997142D01*
X102538571Y-49092380D01*
%TO.C,U1*%
X70610000Y-84230000D02*
X52830000Y-84230000D01*
X70610000Y-53750000D02*
X70610000Y-84230000D01*
X65530000Y-53750000D02*
X70610000Y-53750000D01*
X65530000Y-51210000D02*
X65530000Y-53750000D01*
X57910000Y-51210000D02*
X65530000Y-51210000D01*
X57910000Y-53750000D02*
X57910000Y-51210000D01*
X52830000Y-53750000D02*
X57910000Y-53750000D01*
X52830000Y-53750000D02*
X52830000Y-84230000D01*
%TO.C,Brd1*%
X54370000Y-92630000D02*
X64530000Y-92630000D01*
X64530000Y-92630000D02*
X64530000Y-90090000D01*
X64530000Y-90090000D02*
X54370000Y-90090000D01*
X54370000Y-90090000D02*
X54370000Y-92630000D01*
%TO.C,K17*%
X73500000Y-70250000D02*
X73500000Y-69250000D01*
X73500000Y-83250000D02*
X73500000Y-82250000D01*
X87500000Y-69250000D02*
X87500000Y-70250000D01*
X86500000Y-69250000D02*
X87500000Y-69250000D01*
X87500000Y-83250000D02*
X86500000Y-83250000D01*
X87500000Y-82250000D02*
X87500000Y-83250000D01*
X74500000Y-83250000D02*
X73500000Y-83250000D01*
X73500000Y-69250000D02*
X74500000Y-69250000D01*
%TO.C,U1*%
X50520000Y-53770000D02*
X50520000Y-84250000D01*
X55600000Y-53770000D02*
X50520000Y-53770000D01*
X55600000Y-51230000D02*
X55600000Y-53770000D01*
X63220000Y-51230000D02*
X55600000Y-51230000D01*
X63220000Y-53770000D02*
X63220000Y-51230000D01*
X68300000Y-53770000D02*
X63220000Y-53770000D01*
X68300000Y-84250000D02*
X68300000Y-53770000D01*
X50520000Y-84250000D02*
X68300000Y-84250000D01*
%TO.C,R1*%
X41158000Y-76184000D02*
X40904000Y-75930000D01*
X40904000Y-75930000D02*
X40904000Y-75676000D01*
X40904000Y-75676000D02*
X41158000Y-75422000D01*
X41158000Y-75422000D02*
X41158000Y-71358000D01*
X41158000Y-71358000D02*
X40904000Y-71104000D01*
X40904000Y-71104000D02*
X40904000Y-70850000D01*
X40904000Y-70850000D02*
X41158000Y-70596000D01*
X41158000Y-70596000D02*
X42682000Y-70596000D01*
X42682000Y-70596000D02*
X42936000Y-70850000D01*
X42936000Y-70850000D02*
X42936000Y-71104000D01*
X42936000Y-71104000D02*
X42682000Y-71358000D01*
X42682000Y-71358000D02*
X42682000Y-75422000D01*
X42682000Y-75422000D02*
X42936000Y-75676000D01*
X42936000Y-75676000D02*
X42936000Y-75930000D01*
X42936000Y-75930000D02*
X42682000Y-76184000D01*
X42682000Y-76184000D02*
X41158000Y-76184000D01*
X41920000Y-76692000D02*
X41920000Y-76184000D01*
X41920000Y-70596000D02*
X41920000Y-70088000D01*
%TO.C,K14*%
X92600000Y-89370000D02*
X92600000Y-88370000D01*
X92600000Y-102370000D02*
X92600000Y-101370000D01*
X106600000Y-88370000D02*
X106600000Y-89370000D01*
X105600000Y-88370000D02*
X106600000Y-88370000D01*
X106600000Y-102370000D02*
X105600000Y-102370000D01*
X106600000Y-101370000D02*
X106600000Y-102370000D01*
X93600000Y-102370000D02*
X92600000Y-102370000D01*
X92600000Y-88370000D02*
X93600000Y-88370000D01*
D13*
%TO.C,K00*%
X43230000Y-70990000D02*
X43230000Y-75490000D01*
X47230000Y-69740000D02*
X45730000Y-69740000D01*
X49730000Y-75490000D02*
X49730000Y-70990000D01*
X45730000Y-76740000D02*
X47230000Y-76740000D01*
D12*
%TO.C,K5*%
X149760000Y-98880000D02*
X149760000Y-97880000D01*
X149760000Y-111880000D02*
X149760000Y-110880000D01*
X163760000Y-97880000D02*
X163760000Y-98880000D01*
X162760000Y-97880000D02*
X163760000Y-97880000D01*
X163760000Y-111880000D02*
X162760000Y-111880000D01*
X163760000Y-110880000D02*
X163760000Y-111880000D01*
X150760000Y-111880000D02*
X149760000Y-111880000D01*
X149760000Y-97880000D02*
X150760000Y-97880000D01*
D13*
%TO.C,D38*%
X143600000Y-84030000D02*
X144750000Y-84030000D01*
X143600000Y-76730000D02*
X143600000Y-84030000D01*
X149100000Y-76730000D02*
X149100000Y-84030000D01*
D12*
%TO.C,K8*%
X130690000Y-84610000D02*
X130690000Y-83610000D01*
X130690000Y-97610000D02*
X130690000Y-96610000D01*
X144690000Y-83610000D02*
X144690000Y-84610000D01*
X143690000Y-83610000D02*
X144690000Y-83610000D01*
X144690000Y-97610000D02*
X143690000Y-97610000D01*
X144690000Y-96610000D02*
X144690000Y-97610000D01*
X131690000Y-97610000D02*
X130690000Y-97610000D01*
X130690000Y-83610000D02*
X131690000Y-83610000D01*
%TO.C,K4*%
X149760000Y-79840000D02*
X149760000Y-78840000D01*
X149760000Y-92840000D02*
X149760000Y-91840000D01*
X163760000Y-78840000D02*
X163760000Y-79840000D01*
X162760000Y-78840000D02*
X163760000Y-78840000D01*
X163760000Y-92840000D02*
X162760000Y-92840000D01*
X163760000Y-91840000D02*
X163760000Y-92840000D01*
X150760000Y-92840000D02*
X149760000Y-92840000D01*
X149760000Y-78840000D02*
X150760000Y-78840000D01*
%TO.C,U2*%
X49790000Y-51770000D02*
X44190000Y-51770000D01*
X44190000Y-53770000D02*
X44190000Y-51770000D01*
X49790000Y-53770000D02*
X49790000Y-51770000D01*
X43940000Y-53770000D02*
X43940000Y-65870000D01*
X50040000Y-53770000D02*
X50040000Y-65870000D01*
X50040000Y-65870000D02*
X43940000Y-65870000D01*
X50040000Y-53770000D02*
X43940000Y-53770000D01*
%TO.C,K23*%
X54490000Y-103650000D02*
X54490000Y-102650000D01*
X54490000Y-116650000D02*
X54490000Y-115650000D01*
X68490000Y-102650000D02*
X68490000Y-103650000D01*
X67490000Y-102650000D02*
X68490000Y-102650000D01*
X68490000Y-116650000D02*
X67490000Y-116650000D01*
X68490000Y-115650000D02*
X68490000Y-116650000D01*
X55490000Y-116650000D02*
X54490000Y-116650000D01*
X54490000Y-102650000D02*
X55490000Y-102650000D01*
%TO.C,K20*%
X73550000Y-127450000D02*
X73550000Y-126450000D01*
X73550000Y-140450000D02*
X73550000Y-139450000D01*
X87550000Y-126450000D02*
X87550000Y-127450000D01*
X86550000Y-126450000D02*
X87550000Y-126450000D01*
X87550000Y-140450000D02*
X86550000Y-140450000D01*
X87550000Y-139450000D02*
X87550000Y-140450000D01*
X74550000Y-140450000D02*
X73550000Y-140450000D01*
X73550000Y-126450000D02*
X74550000Y-126450000D01*
%TO.C,K19*%
X73550000Y-108420000D02*
X73550000Y-107420000D01*
X73550000Y-121420000D02*
X73550000Y-120420000D01*
X87550000Y-107420000D02*
X87550000Y-108420000D01*
X86550000Y-107420000D02*
X87550000Y-107420000D01*
X87550000Y-121420000D02*
X86550000Y-121420000D01*
X87550000Y-120420000D02*
X87550000Y-121420000D01*
X74550000Y-121420000D02*
X73550000Y-121420000D01*
X73550000Y-107420000D02*
X74550000Y-107420000D01*
%TO.C,K18*%
X73540000Y-89380000D02*
X73540000Y-88380000D01*
X73540000Y-102380000D02*
X73540000Y-101380000D01*
X87540000Y-88380000D02*
X87540000Y-89380000D01*
X86540000Y-88380000D02*
X87540000Y-88380000D01*
X87540000Y-102380000D02*
X86540000Y-102380000D01*
X87540000Y-101380000D02*
X87540000Y-102380000D01*
X74540000Y-102380000D02*
X73540000Y-102380000D01*
X73540000Y-88380000D02*
X74540000Y-88380000D01*
%TO.C,K16*%
X73550000Y-51250000D02*
X73550000Y-50250000D01*
X73550000Y-64250000D02*
X73550000Y-63250000D01*
X87550000Y-50250000D02*
X87550000Y-51250000D01*
X86550000Y-50250000D02*
X87550000Y-50250000D01*
X87550000Y-64250000D02*
X86550000Y-64250000D01*
X87550000Y-63250000D02*
X87550000Y-64250000D01*
X74550000Y-64250000D02*
X73550000Y-64250000D01*
X73550000Y-50250000D02*
X74550000Y-50250000D01*
%TO.C,K15*%
X92620000Y-113150000D02*
X92620000Y-112150000D01*
X92620000Y-126150000D02*
X92620000Y-125150000D01*
X106620000Y-112150000D02*
X106620000Y-113150000D01*
X105620000Y-112150000D02*
X106620000Y-112150000D01*
X106620000Y-126150000D02*
X105620000Y-126150000D01*
X106620000Y-125150000D02*
X106620000Y-126150000D01*
X93620000Y-126150000D02*
X92620000Y-126150000D01*
X92620000Y-112150000D02*
X93620000Y-112150000D01*
%TO.C,K13*%
X92590000Y-70320000D02*
X92590000Y-69320000D01*
X92590000Y-83320000D02*
X92590000Y-82320000D01*
X106590000Y-69320000D02*
X106590000Y-70320000D01*
X105590000Y-69320000D02*
X106590000Y-69320000D01*
X106590000Y-83320000D02*
X105590000Y-83320000D01*
X106590000Y-82320000D02*
X106590000Y-83320000D01*
X93590000Y-83320000D02*
X92590000Y-83320000D01*
X92590000Y-69320000D02*
X93590000Y-69320000D01*
%TO.C,K12*%
X92580000Y-51280000D02*
X92580000Y-50280000D01*
X92580000Y-64280000D02*
X92580000Y-63280000D01*
X106580000Y-50280000D02*
X106580000Y-51280000D01*
X105580000Y-50280000D02*
X106580000Y-50280000D01*
X106580000Y-64280000D02*
X105580000Y-64280000D01*
X106580000Y-63280000D02*
X106580000Y-64280000D01*
X93580000Y-64280000D02*
X92580000Y-64280000D01*
X92580000Y-50280000D02*
X93580000Y-50280000D01*
%TO.C,K11*%
X111660000Y-79830000D02*
X111660000Y-78830000D01*
X111660000Y-92830000D02*
X111660000Y-91830000D01*
X125660000Y-78830000D02*
X125660000Y-79830000D01*
X124660000Y-78830000D02*
X125660000Y-78830000D01*
X125660000Y-92830000D02*
X124660000Y-92830000D01*
X125660000Y-91830000D02*
X125660000Y-92830000D01*
X112660000Y-92830000D02*
X111660000Y-92830000D01*
X111660000Y-78830000D02*
X112660000Y-78830000D01*
%TO.C,K10*%
X111650000Y-60810000D02*
X111650000Y-59810000D01*
X111650000Y-73810000D02*
X111650000Y-72810000D01*
X125650000Y-59810000D02*
X125650000Y-60810000D01*
X124650000Y-59810000D02*
X125650000Y-59810000D01*
X125650000Y-73810000D02*
X124650000Y-73810000D01*
X125650000Y-72810000D02*
X125650000Y-73810000D01*
X112650000Y-73810000D02*
X111650000Y-73810000D01*
X111650000Y-59810000D02*
X112650000Y-59810000D01*
%TO.C,K9*%
X111640000Y-41760000D02*
X111640000Y-40760000D01*
X111640000Y-54760000D02*
X111640000Y-53760000D01*
X125640000Y-40760000D02*
X125640000Y-41760000D01*
X124640000Y-40760000D02*
X125640000Y-40760000D01*
X125640000Y-54760000D02*
X124640000Y-54760000D01*
X125640000Y-53760000D02*
X125640000Y-54760000D01*
X112640000Y-54760000D02*
X111640000Y-54760000D01*
X111640000Y-40760000D02*
X112640000Y-40760000D01*
%TO.C,K7*%
X130700000Y-65540000D02*
X130700000Y-64540000D01*
X130700000Y-78540000D02*
X130700000Y-77540000D01*
X144700000Y-64540000D02*
X144700000Y-65540000D01*
X143700000Y-64540000D02*
X144700000Y-64540000D01*
X144700000Y-78540000D02*
X143700000Y-78540000D01*
X144700000Y-77540000D02*
X144700000Y-78540000D01*
X131700000Y-78540000D02*
X130700000Y-78540000D01*
X130700000Y-64540000D02*
X131700000Y-64540000D01*
%TO.C,K6*%
X130750000Y-46500000D02*
X130750000Y-45500000D01*
X130750000Y-59500000D02*
X130750000Y-58500000D01*
X144750000Y-45500000D02*
X144750000Y-46500000D01*
X143750000Y-45500000D02*
X144750000Y-45500000D01*
X144750000Y-59500000D02*
X143750000Y-59500000D01*
X144750000Y-58500000D02*
X144750000Y-59500000D01*
X131750000Y-59500000D02*
X130750000Y-59500000D01*
X130750000Y-45500000D02*
X131750000Y-45500000D01*
%TO.C,K3*%
X149750000Y-60750000D02*
X149750000Y-59750000D01*
X149750000Y-73750000D02*
X149750000Y-72750000D01*
X163750000Y-59750000D02*
X163750000Y-60750000D01*
X162750000Y-59750000D02*
X163750000Y-59750000D01*
X163750000Y-73750000D02*
X162750000Y-73750000D01*
X163750000Y-72750000D02*
X163750000Y-73750000D01*
X150750000Y-73750000D02*
X149750000Y-73750000D01*
X149750000Y-59750000D02*
X150750000Y-59750000D01*
D13*
%TO.C,D39*%
X124000000Y-60320000D02*
X125150000Y-60320000D01*
X124000000Y-53020000D02*
X124000000Y-60320000D01*
X129500000Y-53020000D02*
X129500000Y-60320000D01*
%TO.C,D37*%
X89750000Y-105610000D02*
X89750000Y-106760000D01*
X97050000Y-105610000D02*
X89750000Y-105610000D01*
X97050000Y-111110000D02*
X89750000Y-111110000D01*
%TO.C,D36*%
X67100000Y-102010000D02*
X67100000Y-100860000D01*
X59800000Y-102010000D02*
X67100000Y-102010000D01*
X59800000Y-96510000D02*
X67100000Y-96510000D01*
%TO.C,D35*%
X86840000Y-58300000D02*
X87990000Y-58300000D01*
X86840000Y-51000000D02*
X86840000Y-58300000D01*
X92340000Y-51000000D02*
X92340000Y-58300000D01*
D14*
%TO.C,D23*%
X64300000Y-115950000D02*
X58500000Y-115950000D01*
X64300000Y-113550000D02*
X64300000Y-115950000D01*
X58500000Y-113550000D02*
X64300000Y-113550000D01*
X58575000Y-113550000D02*
X58575000Y-115950000D01*
X58700000Y-113550000D02*
X58700000Y-115950000D01*
X58475000Y-115950000D02*
X58475000Y-113550000D01*
X58875000Y-113550000D02*
X58875000Y-115950000D01*
X59050000Y-113550000D02*
X59050000Y-115950000D01*
X59225000Y-113550000D02*
X59225000Y-115950000D01*
%TO.C,D20*%
X83300000Y-139700000D02*
X77500000Y-139700000D01*
X83300000Y-137300000D02*
X83300000Y-139700000D01*
X77500000Y-137300000D02*
X83300000Y-137300000D01*
X77575000Y-137300000D02*
X77575000Y-139700000D01*
X77700000Y-137300000D02*
X77700000Y-139700000D01*
X77475000Y-139700000D02*
X77475000Y-137300000D01*
X77875000Y-137300000D02*
X77875000Y-139700000D01*
X78050000Y-137300000D02*
X78050000Y-139700000D01*
X78225000Y-137300000D02*
X78225000Y-139700000D01*
%TO.C,D19*%
X83300000Y-120950000D02*
X77500000Y-120950000D01*
X83300000Y-118550000D02*
X83300000Y-120950000D01*
X77500000Y-118550000D02*
X83300000Y-118550000D01*
X77575000Y-118550000D02*
X77575000Y-120950000D01*
X77700000Y-118550000D02*
X77700000Y-120950000D01*
X77475000Y-120950000D02*
X77475000Y-118550000D01*
X77875000Y-118550000D02*
X77875000Y-120950000D01*
X78050000Y-118550000D02*
X78050000Y-120950000D01*
X78225000Y-118550000D02*
X78225000Y-120950000D01*
%TO.C,D18*%
X83300000Y-101950000D02*
X77500000Y-101950000D01*
X83300000Y-99550000D02*
X83300000Y-101950000D01*
X77500000Y-99550000D02*
X83300000Y-99550000D01*
X77575000Y-99550000D02*
X77575000Y-101950000D01*
X77700000Y-99550000D02*
X77700000Y-101950000D01*
X77475000Y-101950000D02*
X77475000Y-99550000D01*
X77875000Y-99550000D02*
X77875000Y-101950000D01*
X78050000Y-99550000D02*
X78050000Y-101950000D01*
X78225000Y-99550000D02*
X78225000Y-101950000D01*
%TO.C,D17*%
X83300000Y-82700000D02*
X77500000Y-82700000D01*
X83300000Y-80300000D02*
X83300000Y-82700000D01*
X77500000Y-80300000D02*
X83300000Y-80300000D01*
X77575000Y-80300000D02*
X77575000Y-82700000D01*
X77700000Y-80300000D02*
X77700000Y-82700000D01*
X77475000Y-82700000D02*
X77475000Y-80300000D01*
X77875000Y-80300000D02*
X77875000Y-82700000D01*
X78050000Y-80300000D02*
X78050000Y-82700000D01*
X78225000Y-80300000D02*
X78225000Y-82700000D01*
%TO.C,D16*%
X83300000Y-63700000D02*
X77500000Y-63700000D01*
X83300000Y-61300000D02*
X83300000Y-63700000D01*
X77500000Y-61300000D02*
X83300000Y-61300000D01*
X77575000Y-61300000D02*
X77575000Y-63700000D01*
X77700000Y-61300000D02*
X77700000Y-63700000D01*
X77475000Y-63700000D02*
X77475000Y-61300000D01*
X77875000Y-61300000D02*
X77875000Y-63700000D01*
X78050000Y-61300000D02*
X78050000Y-63700000D01*
X78225000Y-61300000D02*
X78225000Y-63700000D01*
%TO.C,D15*%
X102300000Y-125700000D02*
X96500000Y-125700000D01*
X102300000Y-123300000D02*
X102300000Y-125700000D01*
X96500000Y-123300000D02*
X102300000Y-123300000D01*
X96575000Y-123300000D02*
X96575000Y-125700000D01*
X96700000Y-123300000D02*
X96700000Y-125700000D01*
X96475000Y-125700000D02*
X96475000Y-123300000D01*
X96875000Y-123300000D02*
X96875000Y-125700000D01*
X97050000Y-123300000D02*
X97050000Y-125700000D01*
X97225000Y-123300000D02*
X97225000Y-125700000D01*
%TO.C,D14*%
X102300000Y-101950000D02*
X96500000Y-101950000D01*
X102300000Y-99550000D02*
X102300000Y-101950000D01*
X96500000Y-99550000D02*
X102300000Y-99550000D01*
X96575000Y-99550000D02*
X96575000Y-101950000D01*
X96700000Y-99550000D02*
X96700000Y-101950000D01*
X96475000Y-101950000D02*
X96475000Y-99550000D01*
X96875000Y-99550000D02*
X96875000Y-101950000D01*
X97050000Y-99550000D02*
X97050000Y-101950000D01*
X97225000Y-99550000D02*
X97225000Y-101950000D01*
%TO.C,D13*%
X102300000Y-82700000D02*
X96500000Y-82700000D01*
X102300000Y-80300000D02*
X102300000Y-82700000D01*
X96500000Y-80300000D02*
X102300000Y-80300000D01*
X96575000Y-80300000D02*
X96575000Y-82700000D01*
X96700000Y-80300000D02*
X96700000Y-82700000D01*
X96475000Y-82700000D02*
X96475000Y-80300000D01*
X96875000Y-80300000D02*
X96875000Y-82700000D01*
X97050000Y-80300000D02*
X97050000Y-82700000D01*
X97225000Y-80300000D02*
X97225000Y-82700000D01*
%TO.C,D12*%
X102300000Y-63700000D02*
X96500000Y-63700000D01*
X102300000Y-61300000D02*
X102300000Y-63700000D01*
X96500000Y-61300000D02*
X102300000Y-61300000D01*
X96575000Y-61300000D02*
X96575000Y-63700000D01*
X96700000Y-61300000D02*
X96700000Y-63700000D01*
X96475000Y-63700000D02*
X96475000Y-61300000D01*
X96875000Y-61300000D02*
X96875000Y-63700000D01*
X97050000Y-61300000D02*
X97050000Y-63700000D01*
X97225000Y-61300000D02*
X97225000Y-63700000D01*
%TO.C,D11*%
X121550000Y-92450000D02*
X115750000Y-92450000D01*
X121550000Y-90050000D02*
X121550000Y-92450000D01*
X115750000Y-90050000D02*
X121550000Y-90050000D01*
X115825000Y-90050000D02*
X115825000Y-92450000D01*
X115950000Y-90050000D02*
X115950000Y-92450000D01*
X115725000Y-92450000D02*
X115725000Y-90050000D01*
X116125000Y-90050000D02*
X116125000Y-92450000D01*
X116300000Y-90050000D02*
X116300000Y-92450000D01*
X116475000Y-90050000D02*
X116475000Y-92450000D01*
%TO.C,D10*%
X121550000Y-73430000D02*
X115750000Y-73430000D01*
X121550000Y-71030000D02*
X121550000Y-73430000D01*
X115750000Y-71030000D02*
X121550000Y-71030000D01*
X115825000Y-71030000D02*
X115825000Y-73430000D01*
X115950000Y-71030000D02*
X115950000Y-73430000D01*
X115725000Y-73430000D02*
X115725000Y-71030000D01*
X116125000Y-71030000D02*
X116125000Y-73430000D01*
X116300000Y-71030000D02*
X116300000Y-73430000D01*
X116475000Y-71030000D02*
X116475000Y-73430000D01*
%TO.C,D9*%
X121550000Y-54200000D02*
X115750000Y-54200000D01*
X121550000Y-51800000D02*
X121550000Y-54200000D01*
X115750000Y-51800000D02*
X121550000Y-51800000D01*
X115825000Y-51800000D02*
X115825000Y-54200000D01*
X115950000Y-51800000D02*
X115950000Y-54200000D01*
X115725000Y-54200000D02*
X115725000Y-51800000D01*
X116125000Y-51800000D02*
X116125000Y-54200000D01*
X116300000Y-51800000D02*
X116300000Y-54200000D01*
X116475000Y-51800000D02*
X116475000Y-54200000D01*
%TO.C,D8*%
X140550000Y-97200000D02*
X134750000Y-97200000D01*
X140550000Y-94800000D02*
X140550000Y-97200000D01*
X134750000Y-94800000D02*
X140550000Y-94800000D01*
X134825000Y-94800000D02*
X134825000Y-97200000D01*
X134950000Y-94800000D02*
X134950000Y-97200000D01*
X134725000Y-97200000D02*
X134725000Y-94800000D01*
X135125000Y-94800000D02*
X135125000Y-97200000D01*
X135300000Y-94800000D02*
X135300000Y-97200000D01*
X135475000Y-94800000D02*
X135475000Y-97200000D01*
%TO.C,D7*%
X140550000Y-78200000D02*
X134750000Y-78200000D01*
X140550000Y-75800000D02*
X140550000Y-78200000D01*
X134750000Y-75800000D02*
X140550000Y-75800000D01*
X134825000Y-75800000D02*
X134825000Y-78200000D01*
X134950000Y-75800000D02*
X134950000Y-78200000D01*
X134725000Y-78200000D02*
X134725000Y-75800000D01*
X135125000Y-75800000D02*
X135125000Y-78200000D01*
X135300000Y-75800000D02*
X135300000Y-78200000D01*
X135475000Y-75800000D02*
X135475000Y-78200000D01*
%TO.C,D6*%
X140550000Y-59200000D02*
X134750000Y-59200000D01*
X140550000Y-56800000D02*
X140550000Y-59200000D01*
X134750000Y-56800000D02*
X140550000Y-56800000D01*
X134825000Y-56800000D02*
X134825000Y-59200000D01*
X134950000Y-56800000D02*
X134950000Y-59200000D01*
X134725000Y-59200000D02*
X134725000Y-56800000D01*
X135125000Y-56800000D02*
X135125000Y-59200000D01*
X135300000Y-56800000D02*
X135300000Y-59200000D01*
X135475000Y-56800000D02*
X135475000Y-59200000D01*
%TO.C,D5*%
X159550000Y-111200000D02*
X153750000Y-111200000D01*
X159550000Y-108800000D02*
X159550000Y-111200000D01*
X153750000Y-108800000D02*
X159550000Y-108800000D01*
X153825000Y-108800000D02*
X153825000Y-111200000D01*
X153950000Y-108800000D02*
X153950000Y-111200000D01*
X153725000Y-111200000D02*
X153725000Y-108800000D01*
X154125000Y-108800000D02*
X154125000Y-111200000D01*
X154300000Y-108800000D02*
X154300000Y-111200000D01*
X154475000Y-108800000D02*
X154475000Y-111200000D01*
%TO.C,D4*%
X159550000Y-92450000D02*
X153750000Y-92450000D01*
X159550000Y-90050000D02*
X159550000Y-92450000D01*
X153750000Y-90050000D02*
X159550000Y-90050000D01*
X153825000Y-90050000D02*
X153825000Y-92450000D01*
X153950000Y-90050000D02*
X153950000Y-92450000D01*
X153725000Y-92450000D02*
X153725000Y-90050000D01*
X154125000Y-90050000D02*
X154125000Y-92450000D01*
X154300000Y-90050000D02*
X154300000Y-92450000D01*
X154475000Y-90050000D02*
X154475000Y-92450000D01*
%TO.C,D3*%
X159550000Y-73200000D02*
X153750000Y-73200000D01*
X159550000Y-70800000D02*
X159550000Y-73200000D01*
X153750000Y-70800000D02*
X159550000Y-70800000D01*
X153825000Y-70800000D02*
X153825000Y-73200000D01*
X153950000Y-70800000D02*
X153950000Y-73200000D01*
X153725000Y-73200000D02*
X153725000Y-70800000D01*
X154125000Y-70800000D02*
X154125000Y-73200000D01*
X154300000Y-70800000D02*
X154300000Y-73200000D01*
X154475000Y-70800000D02*
X154475000Y-73200000D01*
D12*
%TO.C,Brd1*%
X56660000Y-90090000D02*
X66820000Y-90090000D01*
X56660000Y-87550000D02*
X66820000Y-87550000D01*
X66820000Y-87550000D02*
X66820000Y-90090000D01*
X56660000Y-90090000D02*
X56660000Y-87550000D01*
X57937619Y-92912380D02*
X58128095Y-92912380D01*
X58223333Y-92960000D01*
X58318571Y-93055238D01*
X58366190Y-93245714D01*
X58366190Y-93579047D01*
X58318571Y-93769523D01*
X58223333Y-93864761D01*
X58128095Y-93912380D01*
X57937619Y-93912380D01*
X57842380Y-93864761D01*
X57747142Y-93769523D01*
X57699523Y-93579047D01*
X57699523Y-93245714D01*
X57747142Y-93055238D01*
X57842380Y-92960000D01*
X57937619Y-92912380D01*
X59270952Y-93912380D02*
X58794761Y-93912380D01*
X58794761Y-92912380D01*
X59604285Y-93388571D02*
X59937619Y-93388571D01*
X60080476Y-93912380D02*
X59604285Y-93912380D01*
X59604285Y-92912380D01*
X60080476Y-92912380D01*
X60509047Y-93912380D02*
X60509047Y-92912380D01*
X60747142Y-92912380D01*
X60890000Y-92960000D01*
X60985238Y-93055238D01*
X61032857Y-93150476D01*
X61080476Y-93340952D01*
X61080476Y-93483809D01*
X61032857Y-93674285D01*
X60985238Y-93769523D01*
X60890000Y-93864761D01*
X60747142Y-93912380D01*
X60509047Y-93912380D01*
%TO.C,K17*%
X79285714Y-68447380D02*
X79285714Y-67447380D01*
X79857142Y-68447380D02*
X79428571Y-67875952D01*
X79857142Y-67447380D02*
X79285714Y-68018809D01*
X80809523Y-68447380D02*
X80238095Y-68447380D01*
X80523809Y-68447380D02*
X80523809Y-67447380D01*
X80428571Y-67590238D01*
X80333333Y-67685476D01*
X80238095Y-67733095D01*
X81142857Y-67447380D02*
X81809523Y-67447380D01*
X81380952Y-68447380D01*
%TO.C,R1*%
X43781904Y-73573333D02*
X43400952Y-73840000D01*
X43781904Y-74030476D02*
X42981904Y-74030476D01*
X42981904Y-73725714D01*
X43020000Y-73649523D01*
X43058095Y-73611428D01*
X43134285Y-73573333D01*
X43248571Y-73573333D01*
X43324761Y-73611428D01*
X43362857Y-73649523D01*
X43400952Y-73725714D01*
X43400952Y-74030476D01*
X43781904Y-72811428D02*
X43781904Y-73268571D01*
X43781904Y-73040000D02*
X42981904Y-73040000D01*
X43096190Y-73116190D01*
X43172380Y-73192380D01*
X43210476Y-73268571D01*
%TO.C,3*%
X89676666Y-121132380D02*
X90295714Y-121132380D01*
X89962380Y-121513333D01*
X90105238Y-121513333D01*
X90200476Y-121560952D01*
X90248095Y-121608571D01*
X90295714Y-121703809D01*
X90295714Y-121941904D01*
X90248095Y-122037142D01*
X90200476Y-122084761D01*
X90105238Y-122132380D01*
X89819523Y-122132380D01*
X89724285Y-122084761D01*
X89676666Y-122037142D01*
%TO.C,5*%
X147798095Y-61052380D02*
X147321904Y-61052380D01*
X147274285Y-61528571D01*
X147321904Y-61480952D01*
X147417142Y-61433333D01*
X147655238Y-61433333D01*
X147750476Y-61480952D01*
X147798095Y-61528571D01*
X147845714Y-61623809D01*
X147845714Y-61861904D01*
X147798095Y-61957142D01*
X147750476Y-62004761D01*
X147655238Y-62052380D01*
X147417142Y-62052380D01*
X147321904Y-62004761D01*
X147274285Y-61957142D01*
%TO.C,K14*%
X98385714Y-87567380D02*
X98385714Y-86567380D01*
X98957142Y-87567380D02*
X98528571Y-86995952D01*
X98957142Y-86567380D02*
X98385714Y-87138809D01*
X99909523Y-87567380D02*
X99338095Y-87567380D01*
X99623809Y-87567380D02*
X99623809Y-86567380D01*
X99528571Y-86710238D01*
X99433333Y-86805476D01*
X99338095Y-86853095D01*
X100766666Y-86900714D02*
X100766666Y-87567380D01*
X100528571Y-86519761D02*
X100290476Y-87234047D01*
X100909523Y-87234047D01*
%TO.C,6*%
X89990476Y-66762380D02*
X89800000Y-66762380D01*
X89704761Y-66810000D01*
X89657142Y-66857619D01*
X89561904Y-67000476D01*
X89514285Y-67190952D01*
X89514285Y-67571904D01*
X89561904Y-67667142D01*
X89609523Y-67714761D01*
X89704761Y-67762380D01*
X89895238Y-67762380D01*
X89990476Y-67714761D01*
X90038095Y-67667142D01*
X90085714Y-67571904D01*
X90085714Y-67333809D01*
X90038095Y-67238571D01*
X89990476Y-67190952D01*
X89895238Y-67143333D01*
X89704761Y-67143333D01*
X89609523Y-67190952D01*
X89561904Y-67238571D01*
X89514285Y-67333809D01*
%TO.C,K00*%
X51182380Y-74454285D02*
X50182380Y-74454285D01*
X51182380Y-73882857D02*
X50610952Y-74311428D01*
X50182380Y-73882857D02*
X50753809Y-74454285D01*
X50182380Y-73263809D02*
X50182380Y-73168571D01*
X50230000Y-73073333D01*
X50277619Y-73025714D01*
X50372857Y-72978095D01*
X50563333Y-72930476D01*
X50801428Y-72930476D01*
X50991904Y-72978095D01*
X51087142Y-73025714D01*
X51134761Y-73073333D01*
X51182380Y-73168571D01*
X51182380Y-73263809D01*
X51134761Y-73359047D01*
X51087142Y-73406666D01*
X50991904Y-73454285D01*
X50801428Y-73501904D01*
X50563333Y-73501904D01*
X50372857Y-73454285D01*
X50277619Y-73406666D01*
X50230000Y-73359047D01*
X50182380Y-73263809D01*
X50182380Y-72311428D02*
X50182380Y-72216190D01*
X50230000Y-72120952D01*
X50277619Y-72073333D01*
X50372857Y-72025714D01*
X50563333Y-71978095D01*
X50801428Y-71978095D01*
X50991904Y-72025714D01*
X51087142Y-72073333D01*
X51134761Y-72120952D01*
X51182380Y-72216190D01*
X51182380Y-72311428D01*
X51134761Y-72406666D01*
X51087142Y-72454285D01*
X50991904Y-72501904D01*
X50801428Y-72549523D01*
X50563333Y-72549523D01*
X50372857Y-72501904D01*
X50277619Y-72454285D01*
X50230000Y-72406666D01*
X50182380Y-72311428D01*
%TO.C,4*%
X147750476Y-95125714D02*
X147750476Y-95792380D01*
X147512380Y-94744761D02*
X147274285Y-95459047D01*
X147893333Y-95459047D01*
%TO.C,K5*%
X156021904Y-97077380D02*
X156021904Y-96077380D01*
X156593333Y-97077380D02*
X156164761Y-96505952D01*
X156593333Y-96077380D02*
X156021904Y-96648809D01*
X157498095Y-96077380D02*
X157021904Y-96077380D01*
X156974285Y-96553571D01*
X157021904Y-96505952D01*
X157117142Y-96458333D01*
X157355238Y-96458333D01*
X157450476Y-96505952D01*
X157498095Y-96553571D01*
X157545714Y-96648809D01*
X157545714Y-96886904D01*
X157498095Y-96982142D01*
X157450476Y-97029761D01*
X157355238Y-97077380D01*
X157117142Y-97077380D01*
X157021904Y-97029761D01*
X156974285Y-96982142D01*
%TO.C,D38*%
X144085714Y-80192380D02*
X144085714Y-79192380D01*
X144323809Y-79192380D01*
X144466666Y-79240000D01*
X144561904Y-79335238D01*
X144609523Y-79430476D01*
X144657142Y-79620952D01*
X144657142Y-79763809D01*
X144609523Y-79954285D01*
X144561904Y-80049523D01*
X144466666Y-80144761D01*
X144323809Y-80192380D01*
X144085714Y-80192380D01*
X144990476Y-79192380D02*
X145609523Y-79192380D01*
X145276190Y-79573333D01*
X145419047Y-79573333D01*
X145514285Y-79620952D01*
X145561904Y-79668571D01*
X145609523Y-79763809D01*
X145609523Y-80001904D01*
X145561904Y-80097142D01*
X145514285Y-80144761D01*
X145419047Y-80192380D01*
X145133333Y-80192380D01*
X145038095Y-80144761D01*
X144990476Y-80097142D01*
X146180952Y-79620952D02*
X146085714Y-79573333D01*
X146038095Y-79525714D01*
X145990476Y-79430476D01*
X145990476Y-79382857D01*
X146038095Y-79287619D01*
X146085714Y-79240000D01*
X146180952Y-79192380D01*
X146371428Y-79192380D01*
X146466666Y-79240000D01*
X146514285Y-79287619D01*
X146561904Y-79382857D01*
X146561904Y-79430476D01*
X146514285Y-79525714D01*
X146466666Y-79573333D01*
X146371428Y-79620952D01*
X146180952Y-79620952D01*
X146085714Y-79668571D01*
X146038095Y-79716190D01*
X145990476Y-79811428D01*
X145990476Y-80001904D01*
X146038095Y-80097142D01*
X146085714Y-80144761D01*
X146180952Y-80192380D01*
X146371428Y-80192380D01*
X146466666Y-80144761D01*
X146514285Y-80097142D01*
X146561904Y-80001904D01*
X146561904Y-79811428D01*
X146514285Y-79716190D01*
X146466666Y-79668571D01*
X146371428Y-79620952D01*
X148402380Y-75944285D02*
X148402380Y-76515714D01*
X148402380Y-76230000D02*
X147402380Y-76230000D01*
X147545238Y-76325238D01*
X147640476Y-76420476D01*
X147688095Y-76515714D01*
%TO.C,K8*%
X136951904Y-82807380D02*
X136951904Y-81807380D01*
X137523333Y-82807380D02*
X137094761Y-82235952D01*
X137523333Y-81807380D02*
X136951904Y-82378809D01*
X138094761Y-82235952D02*
X137999523Y-82188333D01*
X137951904Y-82140714D01*
X137904285Y-82045476D01*
X137904285Y-81997857D01*
X137951904Y-81902619D01*
X137999523Y-81855000D01*
X138094761Y-81807380D01*
X138285238Y-81807380D01*
X138380476Y-81855000D01*
X138428095Y-81902619D01*
X138475714Y-81997857D01*
X138475714Y-82045476D01*
X138428095Y-82140714D01*
X138380476Y-82188333D01*
X138285238Y-82235952D01*
X138094761Y-82235952D01*
X137999523Y-82283571D01*
X137951904Y-82331190D01*
X137904285Y-82426428D01*
X137904285Y-82616904D01*
X137951904Y-82712142D01*
X137999523Y-82759761D01*
X138094761Y-82807380D01*
X138285238Y-82807380D01*
X138380476Y-82759761D01*
X138428095Y-82712142D01*
X138475714Y-82616904D01*
X138475714Y-82426428D01*
X138428095Y-82331190D01*
X138380476Y-82283571D01*
X138285238Y-82235952D01*
%TO.C,K4*%
X156021904Y-78037380D02*
X156021904Y-77037380D01*
X156593333Y-78037380D02*
X156164761Y-77465952D01*
X156593333Y-77037380D02*
X156021904Y-77608809D01*
X157450476Y-77370714D02*
X157450476Y-78037380D01*
X157212380Y-76989761D02*
X156974285Y-77704047D01*
X157593333Y-77704047D01*
%TO.C,K23*%
X56965714Y-101982380D02*
X56965714Y-100982380D01*
X57537142Y-101982380D02*
X57108571Y-101410952D01*
X57537142Y-100982380D02*
X56965714Y-101553809D01*
X57918095Y-101077619D02*
X57965714Y-101030000D01*
X58060952Y-100982380D01*
X58299047Y-100982380D01*
X58394285Y-101030000D01*
X58441904Y-101077619D01*
X58489523Y-101172857D01*
X58489523Y-101268095D01*
X58441904Y-101410952D01*
X57870476Y-101982380D01*
X58489523Y-101982380D01*
X58822857Y-100982380D02*
X59441904Y-100982380D01*
X59108571Y-101363333D01*
X59251428Y-101363333D01*
X59346666Y-101410952D01*
X59394285Y-101458571D01*
X59441904Y-101553809D01*
X59441904Y-101791904D01*
X59394285Y-101887142D01*
X59346666Y-101934761D01*
X59251428Y-101982380D01*
X58965714Y-101982380D01*
X58870476Y-101934761D01*
X58822857Y-101887142D01*
%TO.C,K20*%
X79335714Y-125647380D02*
X79335714Y-124647380D01*
X79907142Y-125647380D02*
X79478571Y-125075952D01*
X79907142Y-124647380D02*
X79335714Y-125218809D01*
X80288095Y-124742619D02*
X80335714Y-124695000D01*
X80430952Y-124647380D01*
X80669047Y-124647380D01*
X80764285Y-124695000D01*
X80811904Y-124742619D01*
X80859523Y-124837857D01*
X80859523Y-124933095D01*
X80811904Y-125075952D01*
X80240476Y-125647380D01*
X80859523Y-125647380D01*
X81478571Y-124647380D02*
X81573809Y-124647380D01*
X81669047Y-124695000D01*
X81716666Y-124742619D01*
X81764285Y-124837857D01*
X81811904Y-125028333D01*
X81811904Y-125266428D01*
X81764285Y-125456904D01*
X81716666Y-125552142D01*
X81669047Y-125599761D01*
X81573809Y-125647380D01*
X81478571Y-125647380D01*
X81383333Y-125599761D01*
X81335714Y-125552142D01*
X81288095Y-125456904D01*
X81240476Y-125266428D01*
X81240476Y-125028333D01*
X81288095Y-124837857D01*
X81335714Y-124742619D01*
X81383333Y-124695000D01*
X81478571Y-124647380D01*
%TO.C,K19*%
X79335714Y-106617380D02*
X79335714Y-105617380D01*
X79907142Y-106617380D02*
X79478571Y-106045952D01*
X79907142Y-105617380D02*
X79335714Y-106188809D01*
X80859523Y-106617380D02*
X80288095Y-106617380D01*
X80573809Y-106617380D02*
X80573809Y-105617380D01*
X80478571Y-105760238D01*
X80383333Y-105855476D01*
X80288095Y-105903095D01*
X81335714Y-106617380D02*
X81526190Y-106617380D01*
X81621428Y-106569761D01*
X81669047Y-106522142D01*
X81764285Y-106379285D01*
X81811904Y-106188809D01*
X81811904Y-105807857D01*
X81764285Y-105712619D01*
X81716666Y-105665000D01*
X81621428Y-105617380D01*
X81430952Y-105617380D01*
X81335714Y-105665000D01*
X81288095Y-105712619D01*
X81240476Y-105807857D01*
X81240476Y-106045952D01*
X81288095Y-106141190D01*
X81335714Y-106188809D01*
X81430952Y-106236428D01*
X81621428Y-106236428D01*
X81716666Y-106188809D01*
X81764285Y-106141190D01*
X81811904Y-106045952D01*
%TO.C,K18*%
X79325714Y-87577380D02*
X79325714Y-86577380D01*
X79897142Y-87577380D02*
X79468571Y-87005952D01*
X79897142Y-86577380D02*
X79325714Y-87148809D01*
X80849523Y-87577380D02*
X80278095Y-87577380D01*
X80563809Y-87577380D02*
X80563809Y-86577380D01*
X80468571Y-86720238D01*
X80373333Y-86815476D01*
X80278095Y-86863095D01*
X81420952Y-87005952D02*
X81325714Y-86958333D01*
X81278095Y-86910714D01*
X81230476Y-86815476D01*
X81230476Y-86767857D01*
X81278095Y-86672619D01*
X81325714Y-86625000D01*
X81420952Y-86577380D01*
X81611428Y-86577380D01*
X81706666Y-86625000D01*
X81754285Y-86672619D01*
X81801904Y-86767857D01*
X81801904Y-86815476D01*
X81754285Y-86910714D01*
X81706666Y-86958333D01*
X81611428Y-87005952D01*
X81420952Y-87005952D01*
X81325714Y-87053571D01*
X81278095Y-87101190D01*
X81230476Y-87196428D01*
X81230476Y-87386904D01*
X81278095Y-87482142D01*
X81325714Y-87529761D01*
X81420952Y-87577380D01*
X81611428Y-87577380D01*
X81706666Y-87529761D01*
X81754285Y-87482142D01*
X81801904Y-87386904D01*
X81801904Y-87196428D01*
X81754285Y-87101190D01*
X81706666Y-87053571D01*
X81611428Y-87005952D01*
%TO.C,K16*%
X73795714Y-51462380D02*
X73795714Y-50462380D01*
X74367142Y-51462380D02*
X73938571Y-50890952D01*
X74367142Y-50462380D02*
X73795714Y-51033809D01*
X75319523Y-51462380D02*
X74748095Y-51462380D01*
X75033809Y-51462380D02*
X75033809Y-50462380D01*
X74938571Y-50605238D01*
X74843333Y-50700476D01*
X74748095Y-50748095D01*
X76176666Y-50462380D02*
X75986190Y-50462380D01*
X75890952Y-50510000D01*
X75843333Y-50557619D01*
X75748095Y-50700476D01*
X75700476Y-50890952D01*
X75700476Y-51271904D01*
X75748095Y-51367142D01*
X75795714Y-51414761D01*
X75890952Y-51462380D01*
X76081428Y-51462380D01*
X76176666Y-51414761D01*
X76224285Y-51367142D01*
X76271904Y-51271904D01*
X76271904Y-51033809D01*
X76224285Y-50938571D01*
X76176666Y-50890952D01*
X76081428Y-50843333D01*
X75890952Y-50843333D01*
X75795714Y-50890952D01*
X75748095Y-50938571D01*
X75700476Y-51033809D01*
%TO.C,K15*%
X98405714Y-111347380D02*
X98405714Y-110347380D01*
X98977142Y-111347380D02*
X98548571Y-110775952D01*
X98977142Y-110347380D02*
X98405714Y-110918809D01*
X99929523Y-111347380D02*
X99358095Y-111347380D01*
X99643809Y-111347380D02*
X99643809Y-110347380D01*
X99548571Y-110490238D01*
X99453333Y-110585476D01*
X99358095Y-110633095D01*
X100834285Y-110347380D02*
X100358095Y-110347380D01*
X100310476Y-110823571D01*
X100358095Y-110775952D01*
X100453333Y-110728333D01*
X100691428Y-110728333D01*
X100786666Y-110775952D01*
X100834285Y-110823571D01*
X100881904Y-110918809D01*
X100881904Y-111156904D01*
X100834285Y-111252142D01*
X100786666Y-111299761D01*
X100691428Y-111347380D01*
X100453333Y-111347380D01*
X100358095Y-111299761D01*
X100310476Y-111252142D01*
%TO.C,K13*%
X98375714Y-68517380D02*
X98375714Y-67517380D01*
X98947142Y-68517380D02*
X98518571Y-67945952D01*
X98947142Y-67517380D02*
X98375714Y-68088809D01*
X99899523Y-68517380D02*
X99328095Y-68517380D01*
X99613809Y-68517380D02*
X99613809Y-67517380D01*
X99518571Y-67660238D01*
X99423333Y-67755476D01*
X99328095Y-67803095D01*
X100232857Y-67517380D02*
X100851904Y-67517380D01*
X100518571Y-67898333D01*
X100661428Y-67898333D01*
X100756666Y-67945952D01*
X100804285Y-67993571D01*
X100851904Y-68088809D01*
X100851904Y-68326904D01*
X100804285Y-68422142D01*
X100756666Y-68469761D01*
X100661428Y-68517380D01*
X100375714Y-68517380D01*
X100280476Y-68469761D01*
X100232857Y-68422142D01*
%TO.C,K12*%
X92815714Y-51412380D02*
X92815714Y-50412380D01*
X93387142Y-51412380D02*
X92958571Y-50840952D01*
X93387142Y-50412380D02*
X92815714Y-50983809D01*
X94339523Y-51412380D02*
X93768095Y-51412380D01*
X94053809Y-51412380D02*
X94053809Y-50412380D01*
X93958571Y-50555238D01*
X93863333Y-50650476D01*
X93768095Y-50698095D01*
X94720476Y-50507619D02*
X94768095Y-50460000D01*
X94863333Y-50412380D01*
X95101428Y-50412380D01*
X95196666Y-50460000D01*
X95244285Y-50507619D01*
X95291904Y-50602857D01*
X95291904Y-50698095D01*
X95244285Y-50840952D01*
X94672857Y-51412380D01*
X95291904Y-51412380D01*
%TO.C,K11*%
X117445714Y-78027380D02*
X117445714Y-77027380D01*
X118017142Y-78027380D02*
X117588571Y-77455952D01*
X118017142Y-77027380D02*
X117445714Y-77598809D01*
X118969523Y-78027380D02*
X118398095Y-78027380D01*
X118683809Y-78027380D02*
X118683809Y-77027380D01*
X118588571Y-77170238D01*
X118493333Y-77265476D01*
X118398095Y-77313095D01*
X119921904Y-78027380D02*
X119350476Y-78027380D01*
X119636190Y-78027380D02*
X119636190Y-77027380D01*
X119540952Y-77170238D01*
X119445714Y-77265476D01*
X119350476Y-77313095D01*
%TO.C,K10*%
X117435714Y-59007380D02*
X117435714Y-58007380D01*
X118007142Y-59007380D02*
X117578571Y-58435952D01*
X118007142Y-58007380D02*
X117435714Y-58578809D01*
X118959523Y-59007380D02*
X118388095Y-59007380D01*
X118673809Y-59007380D02*
X118673809Y-58007380D01*
X118578571Y-58150238D01*
X118483333Y-58245476D01*
X118388095Y-58293095D01*
X119578571Y-58007380D02*
X119673809Y-58007380D01*
X119769047Y-58055000D01*
X119816666Y-58102619D01*
X119864285Y-58197857D01*
X119911904Y-58388333D01*
X119911904Y-58626428D01*
X119864285Y-58816904D01*
X119816666Y-58912142D01*
X119769047Y-58959761D01*
X119673809Y-59007380D01*
X119578571Y-59007380D01*
X119483333Y-58959761D01*
X119435714Y-58912142D01*
X119388095Y-58816904D01*
X119340476Y-58626428D01*
X119340476Y-58388333D01*
X119388095Y-58197857D01*
X119435714Y-58102619D01*
X119483333Y-58055000D01*
X119578571Y-58007380D01*
%TO.C,K9*%
X117901904Y-39957380D02*
X117901904Y-38957380D01*
X118473333Y-39957380D02*
X118044761Y-39385952D01*
X118473333Y-38957380D02*
X117901904Y-39528809D01*
X118949523Y-39957380D02*
X119140000Y-39957380D01*
X119235238Y-39909761D01*
X119282857Y-39862142D01*
X119378095Y-39719285D01*
X119425714Y-39528809D01*
X119425714Y-39147857D01*
X119378095Y-39052619D01*
X119330476Y-39005000D01*
X119235238Y-38957380D01*
X119044761Y-38957380D01*
X118949523Y-39005000D01*
X118901904Y-39052619D01*
X118854285Y-39147857D01*
X118854285Y-39385952D01*
X118901904Y-39481190D01*
X118949523Y-39528809D01*
X119044761Y-39576428D01*
X119235238Y-39576428D01*
X119330476Y-39528809D01*
X119378095Y-39481190D01*
X119425714Y-39385952D01*
%TO.C,K7*%
X136961904Y-63737380D02*
X136961904Y-62737380D01*
X137533333Y-63737380D02*
X137104761Y-63165952D01*
X137533333Y-62737380D02*
X136961904Y-63308809D01*
X137866666Y-62737380D02*
X138533333Y-62737380D01*
X138104761Y-63737380D01*
%TO.C,K6*%
X137011904Y-44697380D02*
X137011904Y-43697380D01*
X137583333Y-44697380D02*
X137154761Y-44125952D01*
X137583333Y-43697380D02*
X137011904Y-44268809D01*
X138440476Y-43697380D02*
X138250000Y-43697380D01*
X138154761Y-43745000D01*
X138107142Y-43792619D01*
X138011904Y-43935476D01*
X137964285Y-44125952D01*
X137964285Y-44506904D01*
X138011904Y-44602142D01*
X138059523Y-44649761D01*
X138154761Y-44697380D01*
X138345238Y-44697380D01*
X138440476Y-44649761D01*
X138488095Y-44602142D01*
X138535714Y-44506904D01*
X138535714Y-44268809D01*
X138488095Y-44173571D01*
X138440476Y-44125952D01*
X138345238Y-44078333D01*
X138154761Y-44078333D01*
X138059523Y-44125952D01*
X138011904Y-44173571D01*
X137964285Y-44268809D01*
%TO.C,K3*%
X156011904Y-58947380D02*
X156011904Y-57947380D01*
X156583333Y-58947380D02*
X156154761Y-58375952D01*
X156583333Y-57947380D02*
X156011904Y-58518809D01*
X156916666Y-57947380D02*
X157535714Y-57947380D01*
X157202380Y-58328333D01*
X157345238Y-58328333D01*
X157440476Y-58375952D01*
X157488095Y-58423571D01*
X157535714Y-58518809D01*
X157535714Y-58756904D01*
X157488095Y-58852142D01*
X157440476Y-58899761D01*
X157345238Y-58947380D01*
X157059523Y-58947380D01*
X156964285Y-58899761D01*
X156916666Y-58852142D01*
%TO.C,D39*%
X125735714Y-49762380D02*
X125735714Y-48762380D01*
X125973809Y-48762380D01*
X126116666Y-48810000D01*
X126211904Y-48905238D01*
X126259523Y-49000476D01*
X126307142Y-49190952D01*
X126307142Y-49333809D01*
X126259523Y-49524285D01*
X126211904Y-49619523D01*
X126116666Y-49714761D01*
X125973809Y-49762380D01*
X125735714Y-49762380D01*
X126640476Y-48762380D02*
X127259523Y-48762380D01*
X126926190Y-49143333D01*
X127069047Y-49143333D01*
X127164285Y-49190952D01*
X127211904Y-49238571D01*
X127259523Y-49333809D01*
X127259523Y-49571904D01*
X127211904Y-49667142D01*
X127164285Y-49714761D01*
X127069047Y-49762380D01*
X126783333Y-49762380D01*
X126688095Y-49714761D01*
X126640476Y-49667142D01*
X127735714Y-49762380D02*
X127926190Y-49762380D01*
X128021428Y-49714761D01*
X128069047Y-49667142D01*
X128164285Y-49524285D01*
X128211904Y-49333809D01*
X128211904Y-48952857D01*
X128164285Y-48857619D01*
X128116666Y-48810000D01*
X128021428Y-48762380D01*
X127830952Y-48762380D01*
X127735714Y-48810000D01*
X127688095Y-48857619D01*
X127640476Y-48952857D01*
X127640476Y-49190952D01*
X127688095Y-49286190D01*
X127735714Y-49333809D01*
X127830952Y-49381428D01*
X128021428Y-49381428D01*
X128116666Y-49333809D01*
X128164285Y-49286190D01*
X128211904Y-49190952D01*
X128802380Y-52234285D02*
X128802380Y-52805714D01*
X128802380Y-52520000D02*
X127802380Y-52520000D01*
X127945238Y-52615238D01*
X128040476Y-52710476D01*
X128088095Y-52805714D01*
%TO.C,D37*%
X93315714Y-105442380D02*
X93315714Y-104442380D01*
X93553809Y-104442380D01*
X93696666Y-104490000D01*
X93791904Y-104585238D01*
X93839523Y-104680476D01*
X93887142Y-104870952D01*
X93887142Y-105013809D01*
X93839523Y-105204285D01*
X93791904Y-105299523D01*
X93696666Y-105394761D01*
X93553809Y-105442380D01*
X93315714Y-105442380D01*
X94220476Y-104442380D02*
X94839523Y-104442380D01*
X94506190Y-104823333D01*
X94649047Y-104823333D01*
X94744285Y-104870952D01*
X94791904Y-104918571D01*
X94839523Y-105013809D01*
X94839523Y-105251904D01*
X94791904Y-105347142D01*
X94744285Y-105394761D01*
X94649047Y-105442380D01*
X94363333Y-105442380D01*
X94268095Y-105394761D01*
X94220476Y-105347142D01*
X95172857Y-104442380D02*
X95839523Y-104442380D01*
X95410952Y-105442380D01*
X97835714Y-110412380D02*
X97264285Y-110412380D01*
X97550000Y-110412380D02*
X97550000Y-109412380D01*
X97454761Y-109555238D01*
X97359523Y-109650476D01*
X97264285Y-109698095D01*
%TO.C,D36*%
X62235714Y-96212380D02*
X62235714Y-95212380D01*
X62473809Y-95212380D01*
X62616666Y-95260000D01*
X62711904Y-95355238D01*
X62759523Y-95450476D01*
X62807142Y-95640952D01*
X62807142Y-95783809D01*
X62759523Y-95974285D01*
X62711904Y-96069523D01*
X62616666Y-96164761D01*
X62473809Y-96212380D01*
X62235714Y-96212380D01*
X63140476Y-95212380D02*
X63759523Y-95212380D01*
X63426190Y-95593333D01*
X63569047Y-95593333D01*
X63664285Y-95640952D01*
X63711904Y-95688571D01*
X63759523Y-95783809D01*
X63759523Y-96021904D01*
X63711904Y-96117142D01*
X63664285Y-96164761D01*
X63569047Y-96212380D01*
X63283333Y-96212380D01*
X63188095Y-96164761D01*
X63140476Y-96117142D01*
X64616666Y-95212380D02*
X64426190Y-95212380D01*
X64330952Y-95260000D01*
X64283333Y-95307619D01*
X64188095Y-95450476D01*
X64140476Y-95640952D01*
X64140476Y-96021904D01*
X64188095Y-96117142D01*
X64235714Y-96164761D01*
X64330952Y-96212380D01*
X64521428Y-96212380D01*
X64616666Y-96164761D01*
X64664285Y-96117142D01*
X64711904Y-96021904D01*
X64711904Y-95783809D01*
X64664285Y-95688571D01*
X64616666Y-95640952D01*
X64521428Y-95593333D01*
X64330952Y-95593333D01*
X64235714Y-95640952D01*
X64188095Y-95688571D01*
X64140476Y-95783809D01*
X59585714Y-98112380D02*
X59014285Y-98112380D01*
X59300000Y-98112380D02*
X59300000Y-97112380D01*
X59204761Y-97255238D01*
X59109523Y-97350476D01*
X59014285Y-97398095D01*
%TO.C,D35*%
X93542380Y-55864285D02*
X92542380Y-55864285D01*
X92542380Y-55626190D01*
X92590000Y-55483333D01*
X92685238Y-55388095D01*
X92780476Y-55340476D01*
X92970952Y-55292857D01*
X93113809Y-55292857D01*
X93304285Y-55340476D01*
X93399523Y-55388095D01*
X93494761Y-55483333D01*
X93542380Y-55626190D01*
X93542380Y-55864285D01*
X92542380Y-54959523D02*
X92542380Y-54340476D01*
X92923333Y-54673809D01*
X92923333Y-54530952D01*
X92970952Y-54435714D01*
X93018571Y-54388095D01*
X93113809Y-54340476D01*
X93351904Y-54340476D01*
X93447142Y-54388095D01*
X93494761Y-54435714D01*
X93542380Y-54530952D01*
X93542380Y-54816666D01*
X93494761Y-54911904D01*
X93447142Y-54959523D01*
X92542380Y-53435714D02*
X92542380Y-53911904D01*
X93018571Y-53959523D01*
X92970952Y-53911904D01*
X92923333Y-53816666D01*
X92923333Y-53578571D01*
X92970952Y-53483333D01*
X93018571Y-53435714D01*
X93113809Y-53388095D01*
X93351904Y-53388095D01*
X93447142Y-53435714D01*
X93494761Y-53483333D01*
X93542380Y-53578571D01*
X93542380Y-53816666D01*
X93494761Y-53911904D01*
X93447142Y-53959523D01*
X91642380Y-50214285D02*
X91642380Y-50785714D01*
X91642380Y-50500000D02*
X90642380Y-50500000D01*
X90785238Y-50595238D01*
X90880476Y-50690476D01*
X90928095Y-50785714D01*
%TO.C,D23*%
X60518571Y-113181904D02*
X60518571Y-112381904D01*
X60709047Y-112381904D01*
X60823333Y-112420000D01*
X60899523Y-112496190D01*
X60937619Y-112572380D01*
X60975714Y-112724761D01*
X60975714Y-112839047D01*
X60937619Y-112991428D01*
X60899523Y-113067619D01*
X60823333Y-113143809D01*
X60709047Y-113181904D01*
X60518571Y-113181904D01*
X61280476Y-112458095D02*
X61318571Y-112420000D01*
X61394761Y-112381904D01*
X61585238Y-112381904D01*
X61661428Y-112420000D01*
X61699523Y-112458095D01*
X61737619Y-112534285D01*
X61737619Y-112610476D01*
X61699523Y-112724761D01*
X61242380Y-113181904D01*
X61737619Y-113181904D01*
X62004285Y-112381904D02*
X62499523Y-112381904D01*
X62232857Y-112686666D01*
X62347142Y-112686666D01*
X62423333Y-112724761D01*
X62461428Y-112762857D01*
X62499523Y-112839047D01*
X62499523Y-113029523D01*
X62461428Y-113105714D01*
X62423333Y-113143809D01*
X62347142Y-113181904D01*
X62118571Y-113181904D01*
X62042380Y-113143809D01*
X62004285Y-113105714D01*
%TO.C,D20*%
X79488571Y-136921904D02*
X79488571Y-136121904D01*
X79679047Y-136121904D01*
X79793333Y-136160000D01*
X79869523Y-136236190D01*
X79907619Y-136312380D01*
X79945714Y-136464761D01*
X79945714Y-136579047D01*
X79907619Y-136731428D01*
X79869523Y-136807619D01*
X79793333Y-136883809D01*
X79679047Y-136921904D01*
X79488571Y-136921904D01*
X80250476Y-136198095D02*
X80288571Y-136160000D01*
X80364761Y-136121904D01*
X80555238Y-136121904D01*
X80631428Y-136160000D01*
X80669523Y-136198095D01*
X80707619Y-136274285D01*
X80707619Y-136350476D01*
X80669523Y-136464761D01*
X80212380Y-136921904D01*
X80707619Y-136921904D01*
X81202857Y-136121904D02*
X81279047Y-136121904D01*
X81355238Y-136160000D01*
X81393333Y-136198095D01*
X81431428Y-136274285D01*
X81469523Y-136426666D01*
X81469523Y-136617142D01*
X81431428Y-136769523D01*
X81393333Y-136845714D01*
X81355238Y-136883809D01*
X81279047Y-136921904D01*
X81202857Y-136921904D01*
X81126666Y-136883809D01*
X81088571Y-136845714D01*
X81050476Y-136769523D01*
X81012380Y-136617142D01*
X81012380Y-136426666D01*
X81050476Y-136274285D01*
X81088571Y-136198095D01*
X81126666Y-136160000D01*
X81202857Y-136121904D01*
%TO.C,D19*%
X79498571Y-118191904D02*
X79498571Y-117391904D01*
X79689047Y-117391904D01*
X79803333Y-117430000D01*
X79879523Y-117506190D01*
X79917619Y-117582380D01*
X79955714Y-117734761D01*
X79955714Y-117849047D01*
X79917619Y-118001428D01*
X79879523Y-118077619D01*
X79803333Y-118153809D01*
X79689047Y-118191904D01*
X79498571Y-118191904D01*
X80717619Y-118191904D02*
X80260476Y-118191904D01*
X80489047Y-118191904D02*
X80489047Y-117391904D01*
X80412857Y-117506190D01*
X80336666Y-117582380D01*
X80260476Y-117620476D01*
X81098571Y-118191904D02*
X81250952Y-118191904D01*
X81327142Y-118153809D01*
X81365238Y-118115714D01*
X81441428Y-118001428D01*
X81479523Y-117849047D01*
X81479523Y-117544285D01*
X81441428Y-117468095D01*
X81403333Y-117430000D01*
X81327142Y-117391904D01*
X81174761Y-117391904D01*
X81098571Y-117430000D01*
X81060476Y-117468095D01*
X81022380Y-117544285D01*
X81022380Y-117734761D01*
X81060476Y-117810952D01*
X81098571Y-117849047D01*
X81174761Y-117887142D01*
X81327142Y-117887142D01*
X81403333Y-117849047D01*
X81441428Y-117810952D01*
X81479523Y-117734761D01*
%TO.C,D18*%
X79538571Y-99161904D02*
X79538571Y-98361904D01*
X79729047Y-98361904D01*
X79843333Y-98400000D01*
X79919523Y-98476190D01*
X79957619Y-98552380D01*
X79995714Y-98704761D01*
X79995714Y-98819047D01*
X79957619Y-98971428D01*
X79919523Y-99047619D01*
X79843333Y-99123809D01*
X79729047Y-99161904D01*
X79538571Y-99161904D01*
X80757619Y-99161904D02*
X80300476Y-99161904D01*
X80529047Y-99161904D02*
X80529047Y-98361904D01*
X80452857Y-98476190D01*
X80376666Y-98552380D01*
X80300476Y-98590476D01*
X81214761Y-98704761D02*
X81138571Y-98666666D01*
X81100476Y-98628571D01*
X81062380Y-98552380D01*
X81062380Y-98514285D01*
X81100476Y-98438095D01*
X81138571Y-98400000D01*
X81214761Y-98361904D01*
X81367142Y-98361904D01*
X81443333Y-98400000D01*
X81481428Y-98438095D01*
X81519523Y-98514285D01*
X81519523Y-98552380D01*
X81481428Y-98628571D01*
X81443333Y-98666666D01*
X81367142Y-98704761D01*
X81214761Y-98704761D01*
X81138571Y-98742857D01*
X81100476Y-98780952D01*
X81062380Y-98857142D01*
X81062380Y-99009523D01*
X81100476Y-99085714D01*
X81138571Y-99123809D01*
X81214761Y-99161904D01*
X81367142Y-99161904D01*
X81443333Y-99123809D01*
X81481428Y-99085714D01*
X81519523Y-99009523D01*
X81519523Y-98857142D01*
X81481428Y-98780952D01*
X81443333Y-98742857D01*
X81367142Y-98704761D01*
%TO.C,D17*%
X79458571Y-79931904D02*
X79458571Y-79131904D01*
X79649047Y-79131904D01*
X79763333Y-79170000D01*
X79839523Y-79246190D01*
X79877619Y-79322380D01*
X79915714Y-79474761D01*
X79915714Y-79589047D01*
X79877619Y-79741428D01*
X79839523Y-79817619D01*
X79763333Y-79893809D01*
X79649047Y-79931904D01*
X79458571Y-79931904D01*
X80677619Y-79931904D02*
X80220476Y-79931904D01*
X80449047Y-79931904D02*
X80449047Y-79131904D01*
X80372857Y-79246190D01*
X80296666Y-79322380D01*
X80220476Y-79360476D01*
X80944285Y-79131904D02*
X81477619Y-79131904D01*
X81134761Y-79931904D01*
%TO.C,D16*%
X79498571Y-60951904D02*
X79498571Y-60151904D01*
X79689047Y-60151904D01*
X79803333Y-60190000D01*
X79879523Y-60266190D01*
X79917619Y-60342380D01*
X79955714Y-60494761D01*
X79955714Y-60609047D01*
X79917619Y-60761428D01*
X79879523Y-60837619D01*
X79803333Y-60913809D01*
X79689047Y-60951904D01*
X79498571Y-60951904D01*
X80717619Y-60951904D02*
X80260476Y-60951904D01*
X80489047Y-60951904D02*
X80489047Y-60151904D01*
X80412857Y-60266190D01*
X80336666Y-60342380D01*
X80260476Y-60380476D01*
X81403333Y-60151904D02*
X81250952Y-60151904D01*
X81174761Y-60190000D01*
X81136666Y-60228095D01*
X81060476Y-60342380D01*
X81022380Y-60494761D01*
X81022380Y-60799523D01*
X81060476Y-60875714D01*
X81098571Y-60913809D01*
X81174761Y-60951904D01*
X81327142Y-60951904D01*
X81403333Y-60913809D01*
X81441428Y-60875714D01*
X81479523Y-60799523D01*
X81479523Y-60609047D01*
X81441428Y-60532857D01*
X81403333Y-60494761D01*
X81327142Y-60456666D01*
X81174761Y-60456666D01*
X81098571Y-60494761D01*
X81060476Y-60532857D01*
X81022380Y-60609047D01*
%TO.C,D15*%
X98448571Y-122921904D02*
X98448571Y-122121904D01*
X98639047Y-122121904D01*
X98753333Y-122160000D01*
X98829523Y-122236190D01*
X98867619Y-122312380D01*
X98905714Y-122464761D01*
X98905714Y-122579047D01*
X98867619Y-122731428D01*
X98829523Y-122807619D01*
X98753333Y-122883809D01*
X98639047Y-122921904D01*
X98448571Y-122921904D01*
X99667619Y-122921904D02*
X99210476Y-122921904D01*
X99439047Y-122921904D02*
X99439047Y-122121904D01*
X99362857Y-122236190D01*
X99286666Y-122312380D01*
X99210476Y-122350476D01*
X100391428Y-122121904D02*
X100010476Y-122121904D01*
X99972380Y-122502857D01*
X100010476Y-122464761D01*
X100086666Y-122426666D01*
X100277142Y-122426666D01*
X100353333Y-122464761D01*
X100391428Y-122502857D01*
X100429523Y-122579047D01*
X100429523Y-122769523D01*
X100391428Y-122845714D01*
X100353333Y-122883809D01*
X100277142Y-122921904D01*
X100086666Y-122921904D01*
X100010476Y-122883809D01*
X99972380Y-122845714D01*
%TO.C,D14*%
X98498571Y-99151904D02*
X98498571Y-98351904D01*
X98689047Y-98351904D01*
X98803333Y-98390000D01*
X98879523Y-98466190D01*
X98917619Y-98542380D01*
X98955714Y-98694761D01*
X98955714Y-98809047D01*
X98917619Y-98961428D01*
X98879523Y-99037619D01*
X98803333Y-99113809D01*
X98689047Y-99151904D01*
X98498571Y-99151904D01*
X99717619Y-99151904D02*
X99260476Y-99151904D01*
X99489047Y-99151904D02*
X99489047Y-98351904D01*
X99412857Y-98466190D01*
X99336666Y-98542380D01*
X99260476Y-98580476D01*
X100403333Y-98618571D02*
X100403333Y-99151904D01*
X100212857Y-98313809D02*
X100022380Y-98885238D01*
X100517619Y-98885238D01*
%TO.C,D13*%
X98488571Y-79941904D02*
X98488571Y-79141904D01*
X98679047Y-79141904D01*
X98793333Y-79180000D01*
X98869523Y-79256190D01*
X98907619Y-79332380D01*
X98945714Y-79484761D01*
X98945714Y-79599047D01*
X98907619Y-79751428D01*
X98869523Y-79827619D01*
X98793333Y-79903809D01*
X98679047Y-79941904D01*
X98488571Y-79941904D01*
X99707619Y-79941904D02*
X99250476Y-79941904D01*
X99479047Y-79941904D02*
X99479047Y-79141904D01*
X99402857Y-79256190D01*
X99326666Y-79332380D01*
X99250476Y-79370476D01*
X99974285Y-79141904D02*
X100469523Y-79141904D01*
X100202857Y-79446666D01*
X100317142Y-79446666D01*
X100393333Y-79484761D01*
X100431428Y-79522857D01*
X100469523Y-79599047D01*
X100469523Y-79789523D01*
X100431428Y-79865714D01*
X100393333Y-79903809D01*
X100317142Y-79941904D01*
X100088571Y-79941904D01*
X100012380Y-79903809D01*
X99974285Y-79865714D01*
%TO.C,D12*%
X98488571Y-60941904D02*
X98488571Y-60141904D01*
X98679047Y-60141904D01*
X98793333Y-60180000D01*
X98869523Y-60256190D01*
X98907619Y-60332380D01*
X98945714Y-60484761D01*
X98945714Y-60599047D01*
X98907619Y-60751428D01*
X98869523Y-60827619D01*
X98793333Y-60903809D01*
X98679047Y-60941904D01*
X98488571Y-60941904D01*
X99707619Y-60941904D02*
X99250476Y-60941904D01*
X99479047Y-60941904D02*
X99479047Y-60141904D01*
X99402857Y-60256190D01*
X99326666Y-60332380D01*
X99250476Y-60370476D01*
X100012380Y-60218095D02*
X100050476Y-60180000D01*
X100126666Y-60141904D01*
X100317142Y-60141904D01*
X100393333Y-60180000D01*
X100431428Y-60218095D01*
X100469523Y-60294285D01*
X100469523Y-60370476D01*
X100431428Y-60484761D01*
X99974285Y-60941904D01*
X100469523Y-60941904D01*
%TO.C,D11*%
X117798571Y-89671904D02*
X117798571Y-88871904D01*
X117989047Y-88871904D01*
X118103333Y-88910000D01*
X118179523Y-88986190D01*
X118217619Y-89062380D01*
X118255714Y-89214761D01*
X118255714Y-89329047D01*
X118217619Y-89481428D01*
X118179523Y-89557619D01*
X118103333Y-89633809D01*
X117989047Y-89671904D01*
X117798571Y-89671904D01*
X119017619Y-89671904D02*
X118560476Y-89671904D01*
X118789047Y-89671904D02*
X118789047Y-88871904D01*
X118712857Y-88986190D01*
X118636666Y-89062380D01*
X118560476Y-89100476D01*
X119779523Y-89671904D02*
X119322380Y-89671904D01*
X119550952Y-89671904D02*
X119550952Y-88871904D01*
X119474761Y-88986190D01*
X119398571Y-89062380D01*
X119322380Y-89100476D01*
%TO.C,D10*%
X117758571Y-70661904D02*
X117758571Y-69861904D01*
X117949047Y-69861904D01*
X118063333Y-69900000D01*
X118139523Y-69976190D01*
X118177619Y-70052380D01*
X118215714Y-70204761D01*
X118215714Y-70319047D01*
X118177619Y-70471428D01*
X118139523Y-70547619D01*
X118063333Y-70623809D01*
X117949047Y-70661904D01*
X117758571Y-70661904D01*
X118977619Y-70661904D02*
X118520476Y-70661904D01*
X118749047Y-70661904D02*
X118749047Y-69861904D01*
X118672857Y-69976190D01*
X118596666Y-70052380D01*
X118520476Y-70090476D01*
X119472857Y-69861904D02*
X119549047Y-69861904D01*
X119625238Y-69900000D01*
X119663333Y-69938095D01*
X119701428Y-70014285D01*
X119739523Y-70166666D01*
X119739523Y-70357142D01*
X119701428Y-70509523D01*
X119663333Y-70585714D01*
X119625238Y-70623809D01*
X119549047Y-70661904D01*
X119472857Y-70661904D01*
X119396666Y-70623809D01*
X119358571Y-70585714D01*
X119320476Y-70509523D01*
X119282380Y-70357142D01*
X119282380Y-70166666D01*
X119320476Y-70014285D01*
X119358571Y-69938095D01*
X119396666Y-69900000D01*
X119472857Y-69861904D01*
%TO.C,D9*%
X118119523Y-51441904D02*
X118119523Y-50641904D01*
X118310000Y-50641904D01*
X118424285Y-50680000D01*
X118500476Y-50756190D01*
X118538571Y-50832380D01*
X118576666Y-50984761D01*
X118576666Y-51099047D01*
X118538571Y-51251428D01*
X118500476Y-51327619D01*
X118424285Y-51403809D01*
X118310000Y-51441904D01*
X118119523Y-51441904D01*
X118957619Y-51441904D02*
X119110000Y-51441904D01*
X119186190Y-51403809D01*
X119224285Y-51365714D01*
X119300476Y-51251428D01*
X119338571Y-51099047D01*
X119338571Y-50794285D01*
X119300476Y-50718095D01*
X119262380Y-50680000D01*
X119186190Y-50641904D01*
X119033809Y-50641904D01*
X118957619Y-50680000D01*
X118919523Y-50718095D01*
X118881428Y-50794285D01*
X118881428Y-50984761D01*
X118919523Y-51060952D01*
X118957619Y-51099047D01*
X119033809Y-51137142D01*
X119186190Y-51137142D01*
X119262380Y-51099047D01*
X119300476Y-51060952D01*
X119338571Y-50984761D01*
%TO.C,D8*%
X137109523Y-94421904D02*
X137109523Y-93621904D01*
X137300000Y-93621904D01*
X137414285Y-93660000D01*
X137490476Y-93736190D01*
X137528571Y-93812380D01*
X137566666Y-93964761D01*
X137566666Y-94079047D01*
X137528571Y-94231428D01*
X137490476Y-94307619D01*
X137414285Y-94383809D01*
X137300000Y-94421904D01*
X137109523Y-94421904D01*
X138023809Y-93964761D02*
X137947619Y-93926666D01*
X137909523Y-93888571D01*
X137871428Y-93812380D01*
X137871428Y-93774285D01*
X137909523Y-93698095D01*
X137947619Y-93660000D01*
X138023809Y-93621904D01*
X138176190Y-93621904D01*
X138252380Y-93660000D01*
X138290476Y-93698095D01*
X138328571Y-93774285D01*
X138328571Y-93812380D01*
X138290476Y-93888571D01*
X138252380Y-93926666D01*
X138176190Y-93964761D01*
X138023809Y-93964761D01*
X137947619Y-94002857D01*
X137909523Y-94040952D01*
X137871428Y-94117142D01*
X137871428Y-94269523D01*
X137909523Y-94345714D01*
X137947619Y-94383809D01*
X138023809Y-94421904D01*
X138176190Y-94421904D01*
X138252380Y-94383809D01*
X138290476Y-94345714D01*
X138328571Y-94269523D01*
X138328571Y-94117142D01*
X138290476Y-94040952D01*
X138252380Y-94002857D01*
X138176190Y-93964761D01*
%TO.C,D7*%
X137079523Y-75441904D02*
X137079523Y-74641904D01*
X137270000Y-74641904D01*
X137384285Y-74680000D01*
X137460476Y-74756190D01*
X137498571Y-74832380D01*
X137536666Y-74984761D01*
X137536666Y-75099047D01*
X137498571Y-75251428D01*
X137460476Y-75327619D01*
X137384285Y-75403809D01*
X137270000Y-75441904D01*
X137079523Y-75441904D01*
X137803333Y-74641904D02*
X138336666Y-74641904D01*
X137993809Y-75441904D01*
%TO.C,D6*%
X137129523Y-56431904D02*
X137129523Y-55631904D01*
X137320000Y-55631904D01*
X137434285Y-55670000D01*
X137510476Y-55746190D01*
X137548571Y-55822380D01*
X137586666Y-55974761D01*
X137586666Y-56089047D01*
X137548571Y-56241428D01*
X137510476Y-56317619D01*
X137434285Y-56393809D01*
X137320000Y-56431904D01*
X137129523Y-56431904D01*
X138272380Y-55631904D02*
X138120000Y-55631904D01*
X138043809Y-55670000D01*
X138005714Y-55708095D01*
X137929523Y-55822380D01*
X137891428Y-55974761D01*
X137891428Y-56279523D01*
X137929523Y-56355714D01*
X137967619Y-56393809D01*
X138043809Y-56431904D01*
X138196190Y-56431904D01*
X138272380Y-56393809D01*
X138310476Y-56355714D01*
X138348571Y-56279523D01*
X138348571Y-56089047D01*
X138310476Y-56012857D01*
X138272380Y-55974761D01*
X138196190Y-55936666D01*
X138043809Y-55936666D01*
X137967619Y-55974761D01*
X137929523Y-56012857D01*
X137891428Y-56089047D01*
%TO.C,D5*%
X156159523Y-108431904D02*
X156159523Y-107631904D01*
X156350000Y-107631904D01*
X156464285Y-107670000D01*
X156540476Y-107746190D01*
X156578571Y-107822380D01*
X156616666Y-107974761D01*
X156616666Y-108089047D01*
X156578571Y-108241428D01*
X156540476Y-108317619D01*
X156464285Y-108393809D01*
X156350000Y-108431904D01*
X156159523Y-108431904D01*
X157340476Y-107631904D02*
X156959523Y-107631904D01*
X156921428Y-108012857D01*
X156959523Y-107974761D01*
X157035714Y-107936666D01*
X157226190Y-107936666D01*
X157302380Y-107974761D01*
X157340476Y-108012857D01*
X157378571Y-108089047D01*
X157378571Y-108279523D01*
X157340476Y-108355714D01*
X157302380Y-108393809D01*
X157226190Y-108431904D01*
X157035714Y-108431904D01*
X156959523Y-108393809D01*
X156921428Y-108355714D01*
%TO.C,D4*%
X156109523Y-89691904D02*
X156109523Y-88891904D01*
X156300000Y-88891904D01*
X156414285Y-88930000D01*
X156490476Y-89006190D01*
X156528571Y-89082380D01*
X156566666Y-89234761D01*
X156566666Y-89349047D01*
X156528571Y-89501428D01*
X156490476Y-89577619D01*
X156414285Y-89653809D01*
X156300000Y-89691904D01*
X156109523Y-89691904D01*
X157252380Y-89158571D02*
X157252380Y-89691904D01*
X157061904Y-88853809D02*
X156871428Y-89425238D01*
X157366666Y-89425238D01*
%TO.C,D3*%
X156119523Y-70431904D02*
X156119523Y-69631904D01*
X156310000Y-69631904D01*
X156424285Y-69670000D01*
X156500476Y-69746190D01*
X156538571Y-69822380D01*
X156576666Y-69974761D01*
X156576666Y-70089047D01*
X156538571Y-70241428D01*
X156500476Y-70317619D01*
X156424285Y-70393809D01*
X156310000Y-70431904D01*
X156119523Y-70431904D01*
X156843333Y-69631904D02*
X157338571Y-69631904D01*
X157071904Y-69936666D01*
X157186190Y-69936666D01*
X157262380Y-69974761D01*
X157300476Y-70012857D01*
X157338571Y-70089047D01*
X157338571Y-70279523D01*
X157300476Y-70355714D01*
X157262380Y-70393809D01*
X157186190Y-70431904D01*
X156957619Y-70431904D01*
X156881428Y-70393809D01*
X156843333Y-70355714D01*
%TO.C,Brd1*%
X60277619Y-86172380D02*
X60468095Y-86172380D01*
X60563333Y-86220000D01*
X60658571Y-86315238D01*
X60706190Y-86505714D01*
X60706190Y-86839047D01*
X60658571Y-87029523D01*
X60563333Y-87124761D01*
X60468095Y-87172380D01*
X60277619Y-87172380D01*
X60182380Y-87124761D01*
X60087142Y-87029523D01*
X60039523Y-86839047D01*
X60039523Y-86505714D01*
X60087142Y-86315238D01*
X60182380Y-86220000D01*
X60277619Y-86172380D01*
X61610952Y-87172380D02*
X61134761Y-87172380D01*
X61134761Y-86172380D01*
X61944285Y-86648571D02*
X62277619Y-86648571D01*
X62420476Y-87172380D02*
X61944285Y-87172380D01*
X61944285Y-86172380D01*
X62420476Y-86172380D01*
X62849047Y-87172380D02*
X62849047Y-86172380D01*
X63087142Y-86172380D01*
X63230000Y-86220000D01*
X63325238Y-86315238D01*
X63372857Y-86410476D01*
X63420476Y-86600952D01*
X63420476Y-86743809D01*
X63372857Y-86934285D01*
X63325238Y-87029523D01*
X63230000Y-87124761D01*
X63087142Y-87172380D01*
X62849047Y-87172380D01*
%TD*%
M02*
