%TF.GenerationSoftware,KiCad,Pcbnew,5.1.10*%
%TF.CreationDate,2021-06-14T18:04:53+02:00*%
%TF.ProjectId,scattered-bat-pcb,73636174-7465-4726-9564-2d6261742d70,rev?*%
%TF.SameCoordinates,Original*%
%TF.FileFunction,Legend,Bot*%
%TF.FilePolarity,Positive*%
%FSLAX46Y46*%
G04 Gerber Fmt 4.6, Leading zero omitted, Abs format (unit mm)*
G04 Created by KiCad (PCBNEW 5.1.10) date 2021-06-14 18:04:53*
%MOMM*%
%LPD*%
G01*
G04 APERTURE LIST*
%ADD10C,0.048672*%
%ADD11C,0.150000*%
%ADD12C,0.120000*%
%ADD13C,0.200000*%
G04 APERTURE END LIST*
D10*
X47027829Y-85080067D02*
X47014465Y-85032384D01*
X47014465Y-85032384D02*
X47002523Y-85016958D01*
X47994912Y-87452434D02*
X47507459Y-87955957D01*
X48482867Y-87956477D02*
X48970366Y-88460047D01*
X45821379Y-85035366D02*
X45781400Y-85062961D01*
X47994914Y-88365269D02*
X48044433Y-88373890D01*
X48044433Y-88373890D02*
X48087673Y-88398178D01*
X48087673Y-88398178D02*
X48121207Y-88435769D01*
X48121207Y-88435769D02*
X48134383Y-88461530D01*
X49498463Y-88871950D02*
X49461129Y-88833385D01*
X49461129Y-88833385D02*
X49423906Y-88794935D01*
X49423906Y-88794935D02*
X49386809Y-88756615D01*
X49386809Y-88756615D02*
X49349855Y-88718442D01*
X49349855Y-88718442D02*
X49313058Y-88680432D01*
X49313058Y-88680432D02*
X49276434Y-88642600D01*
X49276434Y-88642600D02*
X49239997Y-88604963D01*
X49239997Y-88604963D02*
X49203765Y-88567535D01*
X49203765Y-88567535D02*
X49167751Y-88530334D01*
X49167751Y-88530334D02*
X49131971Y-88493375D01*
X49131971Y-88493375D02*
X49096442Y-88456674D01*
X49096442Y-88456674D02*
X49061177Y-88420247D01*
X49061177Y-88420247D02*
X49026193Y-88384109D01*
X49026193Y-88384109D02*
X48991505Y-88348277D01*
X48991505Y-88348277D02*
X48957128Y-88312767D01*
X48957128Y-88312767D02*
X48923079Y-88277595D01*
X48923079Y-88277595D02*
X48856021Y-88208326D01*
X48856021Y-88208326D02*
X48790455Y-88140598D01*
X48790455Y-88140598D02*
X48726504Y-88074539D01*
X48726504Y-88074539D02*
X48664292Y-88010276D01*
X48664292Y-88010276D02*
X48603941Y-87947935D01*
X48603941Y-87947935D02*
X48545575Y-87887645D01*
X48545575Y-87887645D02*
X48489318Y-87829533D01*
X48489318Y-87829533D02*
X48435292Y-87773726D01*
X49522727Y-87941515D02*
X49523346Y-87942134D01*
X50247212Y-93932996D02*
X50200051Y-93942697D01*
X50256592Y-93884282D02*
X50247223Y-93932996D01*
X50216613Y-93856688D02*
X50256592Y-93884282D01*
X46491355Y-90111764D02*
X46528689Y-90150329D01*
X46528689Y-90150329D02*
X46565912Y-90188779D01*
X46565912Y-90188779D02*
X46603008Y-90227098D01*
X46603008Y-90227098D02*
X46639963Y-90265271D01*
X46639963Y-90265271D02*
X46676760Y-90303282D01*
X46676760Y-90303282D02*
X46713384Y-90341114D01*
X46713384Y-90341114D02*
X46749821Y-90378752D01*
X46749821Y-90378752D02*
X46786054Y-90416179D01*
X46786054Y-90416179D02*
X46822067Y-90453380D01*
X46822067Y-90453380D02*
X46857847Y-90490339D01*
X46857847Y-90490339D02*
X46893377Y-90527041D01*
X46893377Y-90527041D02*
X46928641Y-90563468D01*
X46928641Y-90563468D02*
X46963625Y-90599605D01*
X46963625Y-90599605D02*
X46998314Y-90635437D01*
X46998314Y-90635437D02*
X47032690Y-90670947D01*
X47032690Y-90670947D02*
X47066740Y-90706120D01*
X47066740Y-90706120D02*
X47133798Y-90775389D01*
X47133798Y-90775389D02*
X47199364Y-90843117D01*
X47199364Y-90843117D02*
X47263315Y-90909176D01*
X47263315Y-90909176D02*
X47325527Y-90973440D01*
X47325527Y-90973440D02*
X47385878Y-91035780D01*
X47385878Y-91035780D02*
X47444244Y-91096070D01*
X47444244Y-91096070D02*
X47500501Y-91154183D01*
X47500501Y-91154183D02*
X47554528Y-91209991D01*
X49583109Y-93869891D02*
X49613604Y-93856848D01*
X47994914Y-88810609D02*
X48046170Y-88821538D01*
X48046170Y-88821538D02*
X48088411Y-88851857D01*
X48088411Y-88851857D02*
X48114476Y-88893131D01*
X49570480Y-93901389D02*
X49583109Y-93869891D01*
X51800801Y-97540656D02*
X51935194Y-97679478D01*
X49597102Y-93942544D02*
X49570480Y-93901389D01*
X49644098Y-93932887D02*
X49597102Y-93942545D01*
X49653444Y-93884342D02*
X49644095Y-93932887D01*
X44191131Y-81393463D02*
X44102891Y-81302316D01*
X47937144Y-88665270D02*
X47894588Y-88637729D01*
X47894588Y-88637729D02*
X47863638Y-88598197D01*
X47863638Y-88598197D02*
X47846583Y-88550212D01*
X47846583Y-88550212D02*
X47843955Y-88521204D01*
X48018633Y-85080039D02*
X43790027Y-89448057D01*
X48101658Y-88631468D02*
X48060740Y-88661541D01*
X48060740Y-88661541D02*
X48013539Y-88675950D01*
X48013539Y-88675950D02*
X47964094Y-88673863D01*
X47964094Y-88673863D02*
X47937144Y-88665270D01*
X47554528Y-91209991D02*
X47605941Y-91263099D01*
X47605941Y-91263099D02*
X47654407Y-91313162D01*
X47654407Y-91313162D02*
X47699875Y-91360129D01*
X47699875Y-91360129D02*
X47742295Y-91403947D01*
X47742295Y-91403947D02*
X47781613Y-91444562D01*
X47781613Y-91444562D02*
X47817781Y-91481922D01*
X47817781Y-91481922D02*
X47866012Y-91531743D01*
X47866012Y-91531743D02*
X47906866Y-91573944D01*
X47906866Y-91573944D02*
X47949564Y-91618050D01*
X47949564Y-91618050D02*
X47983440Y-91653043D01*
X47983440Y-91653043D02*
X47994910Y-91664891D01*
X46393895Y-85111565D02*
X46440893Y-85121222D01*
X47994910Y-87318827D02*
X45891234Y-89491857D01*
X50098585Y-89491857D02*
X50061769Y-89453827D01*
X50061769Y-89453827D02*
X50022490Y-89413254D01*
X50022490Y-89413254D02*
X49984134Y-89373633D01*
X49984134Y-89373633D02*
X49938343Y-89326332D01*
X49938343Y-89326332D02*
X49903770Y-89290620D01*
X49903770Y-89290620D02*
X49866021Y-89251626D01*
X49866021Y-89251626D02*
X49825146Y-89209403D01*
X49825146Y-89209403D02*
X49781196Y-89164004D01*
X49781196Y-89164004D02*
X49734223Y-89115482D01*
X49734223Y-89115482D02*
X49684277Y-89063889D01*
X49684277Y-89063889D02*
X49658206Y-89036958D01*
X49658206Y-89036958D02*
X49604179Y-88981150D01*
X49604179Y-88981150D02*
X49547921Y-88923037D01*
X49547921Y-88923037D02*
X49489555Y-88862747D01*
X49489555Y-88862747D02*
X49429204Y-88800407D01*
X49429204Y-88800407D02*
X49366991Y-88736143D01*
X49366991Y-88736143D02*
X49303041Y-88670084D01*
X49303041Y-88670084D02*
X49237475Y-88602356D01*
X49237475Y-88602356D02*
X49170417Y-88533087D01*
X49170417Y-88533087D02*
X49136367Y-88497915D01*
X49136367Y-88497915D02*
X49101990Y-88462405D01*
X49101990Y-88462405D02*
X49067302Y-88426573D01*
X49067302Y-88426573D02*
X49032318Y-88390435D01*
X49032318Y-88390435D02*
X48997053Y-88354008D01*
X48997053Y-88354008D02*
X48961524Y-88317307D01*
X48961524Y-88317307D02*
X48925744Y-88280348D01*
X48925744Y-88280348D02*
X48889730Y-88243147D01*
X48889730Y-88243147D02*
X48853497Y-88205719D01*
X48853497Y-88205719D02*
X48817061Y-88168082D01*
X48817061Y-88168082D02*
X48780437Y-88130250D01*
X48780437Y-88130250D02*
X48743639Y-88092240D01*
X48743639Y-88092240D02*
X48706685Y-88054067D01*
X48706685Y-88054067D02*
X48669589Y-88015747D01*
X48669589Y-88015747D02*
X48632366Y-87977297D01*
X48632366Y-87977297D02*
X48595032Y-87938733D01*
X46384548Y-85063020D02*
X46393897Y-85111565D01*
X47579477Y-92145280D02*
X47630890Y-92198388D01*
X47630890Y-92198388D02*
X47679356Y-92248452D01*
X47679356Y-92248452D02*
X47724824Y-92295419D01*
X47724824Y-92295419D02*
X47767244Y-92339237D01*
X47767244Y-92339237D02*
X47806562Y-92379852D01*
X47806562Y-92379852D02*
X47842730Y-92417212D01*
X47842730Y-92417212D02*
X47890961Y-92467033D01*
X47890961Y-92467033D02*
X47931815Y-92509234D01*
X47931815Y-92509234D02*
X47974513Y-92553339D01*
X47974513Y-92553339D02*
X48008389Y-92588332D01*
X48008389Y-92588332D02*
X48019859Y-92600180D01*
X48482867Y-87956477D02*
X47994912Y-87452434D01*
X47843955Y-88521204D02*
X47851596Y-88472224D01*
X47851596Y-88472224D02*
X47873578Y-88428431D01*
X47873578Y-88428431D02*
X47888169Y-88410940D01*
X47394788Y-91044983D02*
X46491355Y-90111764D01*
X46331615Y-89946757D02*
X46385641Y-90002564D01*
X46385641Y-90002564D02*
X46441898Y-90060676D01*
X46441898Y-90060676D02*
X46500264Y-90120967D01*
X46500264Y-90120967D02*
X46560615Y-90183307D01*
X46560615Y-90183307D02*
X46622827Y-90247571D01*
X46622827Y-90247571D02*
X46686778Y-90313630D01*
X46686778Y-90313630D02*
X46752344Y-90381358D01*
X46752344Y-90381358D02*
X46819402Y-90450627D01*
X46819402Y-90450627D02*
X46853452Y-90485799D01*
X46853452Y-90485799D02*
X46887828Y-90521309D01*
X46887828Y-90521309D02*
X46922517Y-90557141D01*
X46922517Y-90557141D02*
X46957501Y-90593279D01*
X46957501Y-90593279D02*
X46992765Y-90629706D01*
X46992765Y-90629706D02*
X47028295Y-90666407D01*
X47028295Y-90666407D02*
X47064075Y-90703366D01*
X47064075Y-90703366D02*
X47100089Y-90740567D01*
X47100089Y-90740567D02*
X47136321Y-90777995D01*
X47136321Y-90777995D02*
X47172758Y-90815633D01*
X47172758Y-90815633D02*
X47209382Y-90853465D01*
X47209382Y-90853465D02*
X47246179Y-90891475D01*
X47246179Y-90891475D02*
X47283134Y-90929648D01*
X47283134Y-90929648D02*
X47320230Y-90967967D01*
X47320230Y-90967967D02*
X47357453Y-91006418D01*
X47357453Y-91006418D02*
X47394788Y-91044983D01*
X48665484Y-93901389D02*
X50798924Y-96105171D01*
X46941428Y-84990818D02*
X46893427Y-85005859D01*
X46893427Y-85005859D02*
X46861606Y-85045913D01*
X51026282Y-89494639D02*
X50989465Y-89456609D01*
X50989465Y-89456609D02*
X50950186Y-89416035D01*
X50950186Y-89416035D02*
X50911829Y-89376414D01*
X50911829Y-89376414D02*
X50866038Y-89329113D01*
X50866038Y-89329113D02*
X50831465Y-89293401D01*
X50831465Y-89293401D02*
X50793715Y-89254406D01*
X50793715Y-89254406D02*
X50752840Y-89212184D01*
X50752840Y-89212184D02*
X50708890Y-89166785D01*
X50708890Y-89166785D02*
X50661917Y-89118263D01*
X50661917Y-89118263D02*
X50611971Y-89066670D01*
X50611971Y-89066670D02*
X50585900Y-89039739D01*
X48435292Y-87773726D02*
X48383878Y-87720617D01*
X48383878Y-87720617D02*
X48335412Y-87670553D01*
X48335412Y-87670553D02*
X48289944Y-87623586D01*
X48289944Y-87623586D02*
X48247525Y-87579768D01*
X48247525Y-87579768D02*
X48208206Y-87539153D01*
X48208206Y-87539153D02*
X48172038Y-87501794D01*
X48172038Y-87501794D02*
X48123807Y-87451972D01*
X48123807Y-87451972D02*
X48082953Y-87409772D01*
X48082953Y-87409772D02*
X48040255Y-87365667D01*
X48040255Y-87365667D02*
X48006379Y-87330674D01*
X48006379Y-87330674D02*
X47994910Y-87318827D01*
X51675826Y-97679272D02*
X51586156Y-97586640D01*
X46440893Y-85121222D02*
X46467513Y-85080067D01*
X46467513Y-85080067D02*
X46454883Y-85048569D01*
X48114476Y-88893131D02*
X48124293Y-88941353D01*
X48124293Y-88941353D02*
X48115181Y-88993645D01*
X48115181Y-88993645D02*
X48086421Y-89038812D01*
X50585900Y-89039739D02*
X50531873Y-88983931D01*
X50531873Y-88983931D02*
X50475616Y-88925819D01*
X50475616Y-88925819D02*
X50417250Y-88865529D01*
X50417250Y-88865529D02*
X50356899Y-88803188D01*
X50356899Y-88803188D02*
X50294687Y-88738925D01*
X50294687Y-88738925D02*
X50230736Y-88672866D01*
X50230736Y-88672866D02*
X50165170Y-88605138D01*
X50165170Y-88605138D02*
X50098112Y-88535870D01*
X50098112Y-88535870D02*
X50064062Y-88500697D01*
X50064062Y-88500697D02*
X50029686Y-88465187D01*
X50029686Y-88465187D02*
X49994997Y-88429355D01*
X49994997Y-88429355D02*
X49960013Y-88393218D01*
X49960013Y-88393218D02*
X49924749Y-88356791D01*
X49924749Y-88356791D02*
X49889219Y-88320090D01*
X49889219Y-88320090D02*
X49853439Y-88283130D01*
X49853439Y-88283130D02*
X49817426Y-88245929D01*
X49817426Y-88245929D02*
X49781193Y-88208502D01*
X49781193Y-88208502D02*
X49744756Y-88170864D01*
X49744756Y-88170864D02*
X49708132Y-88133032D01*
X49708132Y-88133032D02*
X49671335Y-88095022D01*
X49671335Y-88095022D02*
X49634380Y-88056849D01*
X49634380Y-88056849D02*
X49597284Y-88018530D01*
X49597284Y-88018530D02*
X49560061Y-87980079D01*
X49560061Y-87980079D02*
X49522727Y-87941515D01*
X46516991Y-91047763D02*
X46516372Y-91047145D01*
X49523414Y-87942223D02*
X49486079Y-87903658D01*
X49486079Y-87903658D02*
X49448856Y-87865208D01*
X49448856Y-87865208D02*
X49411760Y-87826889D01*
X49411760Y-87826889D02*
X49374805Y-87788716D01*
X49374805Y-87788716D02*
X49338008Y-87750706D01*
X49338008Y-87750706D02*
X49301384Y-87712874D01*
X49301384Y-87712874D02*
X49264947Y-87675236D01*
X49264947Y-87675236D02*
X49228714Y-87637809D01*
X49228714Y-87637809D02*
X49192700Y-87600608D01*
X49192700Y-87600608D02*
X49156921Y-87563649D01*
X49156921Y-87563649D02*
X49121391Y-87526948D01*
X49121391Y-87526948D02*
X49086126Y-87490520D01*
X49086126Y-87490520D02*
X49051142Y-87454383D01*
X49051142Y-87454383D02*
X49016454Y-87418551D01*
X49016454Y-87418551D02*
X48982077Y-87383041D01*
X48982077Y-87383041D02*
X48948027Y-87347869D01*
X48948027Y-87347869D02*
X48880969Y-87278600D01*
X48880969Y-87278600D02*
X48815403Y-87210872D01*
X48815403Y-87210872D02*
X48751452Y-87144812D01*
X48751452Y-87144812D02*
X48689240Y-87080549D01*
X48689240Y-87080549D02*
X48628889Y-87018208D01*
X48628889Y-87018208D02*
X48570523Y-86957918D01*
X48570523Y-86957918D02*
X48514266Y-86899805D01*
X48514266Y-86899805D02*
X48460240Y-86843998D01*
X48460240Y-86843998D02*
X48408827Y-86790890D01*
X48408827Y-86790890D02*
X48360361Y-86740826D01*
X48360361Y-86740826D02*
X48314893Y-86693859D01*
X48314893Y-86693859D02*
X48272474Y-86650042D01*
X48272474Y-86650042D02*
X48233155Y-86609427D01*
X48233155Y-86609427D02*
X48196988Y-86572067D01*
X48196988Y-86572067D02*
X48148756Y-86522246D01*
X48148756Y-86522246D02*
X48107903Y-86480045D01*
X48107903Y-86480045D02*
X48065204Y-86435939D01*
X48065204Y-86435939D02*
X48031328Y-86400946D01*
X48031328Y-86400946D02*
X48019859Y-86389099D01*
X46861606Y-85045913D02*
X46856132Y-85094288D01*
X46856132Y-85094288D02*
X46878078Y-85140744D01*
X46878078Y-85140744D02*
X46880346Y-85143175D01*
X48019859Y-92600180D02*
X51026282Y-89494639D01*
X45891234Y-89491857D02*
X45928049Y-89529886D01*
X45928049Y-89529886D02*
X45967328Y-89570460D01*
X45967328Y-89570460D02*
X46005684Y-89610081D01*
X46005684Y-89610081D02*
X46051475Y-89657382D01*
X46051475Y-89657382D02*
X46086048Y-89693095D01*
X46086048Y-89693095D02*
X46123797Y-89732089D01*
X46123797Y-89732089D02*
X46164673Y-89774312D01*
X46164673Y-89774312D02*
X46208623Y-89819711D01*
X46208623Y-89819711D02*
X46255596Y-89868233D01*
X46255596Y-89868233D02*
X46305543Y-89919825D01*
X46305543Y-89919825D02*
X46331615Y-89946757D01*
X48019859Y-86389099D02*
X45013438Y-89494639D01*
X47994912Y-87986775D02*
X47629004Y-88364749D01*
X49613604Y-93856844D02*
X49653444Y-93884342D01*
X44566061Y-90334579D02*
X44732934Y-90506954D01*
X47970154Y-90119594D02*
X47935500Y-90084318D01*
X47935500Y-90084318D02*
X47930211Y-90057845D01*
X47994912Y-91531128D02*
X46567835Y-90057005D01*
X48074362Y-89310848D02*
X48079253Y-89362171D01*
X48079253Y-89362171D02*
X48055727Y-89407654D01*
X47994910Y-91664891D02*
X50098585Y-89491857D01*
X47002523Y-85016958D02*
X46958363Y-84992548D01*
X46958363Y-84992548D02*
X46941428Y-84990818D01*
X48360759Y-88364685D02*
X47994912Y-87986775D01*
X46974493Y-85162522D02*
X47013268Y-85129650D01*
X47013268Y-85129650D02*
X47027829Y-85080067D01*
X48277659Y-93901353D02*
X51935194Y-97679471D01*
X50200051Y-93942688D02*
X50173338Y-93901389D01*
X47994912Y-91531128D02*
X49422849Y-90056116D01*
X41003631Y-90334579D02*
X44566061Y-90334579D01*
X47865503Y-88944287D02*
X47874183Y-88896157D01*
X47874183Y-88896157D02*
X47901161Y-88852139D01*
X47901161Y-88852139D02*
X47903405Y-88849763D01*
X46880335Y-85143175D02*
X46924573Y-85167600D01*
X46924573Y-85167600D02*
X46974493Y-85162523D01*
X44102891Y-81302316D02*
X44361310Y-81302138D01*
X47903405Y-88849763D02*
X47945390Y-88820784D01*
X47945390Y-88820784D02*
X47994914Y-88810609D01*
X47962006Y-89426912D02*
X47923410Y-89394195D01*
X47923410Y-89394195D02*
X47908917Y-89344842D01*
X47949163Y-90010585D02*
X47994914Y-89991021D01*
X47994914Y-89256012D02*
X48042690Y-89270982D01*
X48042690Y-89270982D02*
X48074362Y-89310848D01*
X52288535Y-89490701D02*
X52240970Y-89539834D01*
X47991059Y-91527065D02*
X48003029Y-91539427D01*
X50799129Y-91697395D02*
X48665484Y-93901389D01*
X50186014Y-93869780D02*
X50216613Y-93856695D01*
X52467199Y-89574659D02*
X52553691Y-89485316D01*
X46454883Y-85048569D02*
X46424389Y-85035522D01*
X48040666Y-90105104D02*
X47995852Y-90124673D01*
X47995852Y-90124673D02*
X47970154Y-90119592D01*
X48018633Y-85080000D02*
X47760000Y-85080000D01*
X44566061Y-90334579D02*
X41003631Y-90334579D01*
X46424389Y-85035522D02*
X46384548Y-85063020D01*
X49035469Y-93838281D02*
X49079628Y-93813870D01*
X49079628Y-93813870D02*
X49096564Y-93812139D01*
X49010164Y-93901389D02*
X49023526Y-93853707D01*
X49023526Y-93853707D02*
X49035469Y-93838281D01*
X49063499Y-93983843D02*
X49024724Y-93950974D01*
X49024724Y-93950974D02*
X49010164Y-93901389D01*
X47934106Y-89282030D02*
X47978057Y-89257735D01*
X47978057Y-89257735D02*
X47994914Y-89256012D01*
X47994914Y-89991010D02*
X48039996Y-90009902D01*
X48039996Y-90009902D02*
X48054691Y-90032269D01*
X49157658Y-93964498D02*
X49113419Y-93988921D01*
X49113419Y-93988921D02*
X49063499Y-93983835D01*
X49176386Y-93867235D02*
X49181859Y-93915609D01*
X49181859Y-93915609D02*
X49159914Y-93962067D01*
X49159914Y-93962067D02*
X49157648Y-93964498D01*
X51675826Y-97679120D02*
X48018633Y-93901353D01*
X51935194Y-97679478D02*
X51675826Y-97679272D01*
X43527774Y-89451932D02*
X43490257Y-89490675D01*
X49096564Y-93812139D02*
X49144564Y-93827180D01*
X49144564Y-93827180D02*
X49176386Y-93867235D01*
X47888169Y-88410940D02*
X47930411Y-88380220D01*
X47930411Y-88380220D02*
X47979993Y-88366032D01*
X47979993Y-88366032D02*
X47994914Y-88365269D01*
X51476990Y-88651940D02*
X51340166Y-88510604D01*
X43748721Y-89490675D02*
X43790014Y-89448017D01*
X55211128Y-88651940D02*
X51476990Y-88651940D01*
X43490257Y-89490675D02*
X43748721Y-89490675D01*
X50173338Y-93901389D02*
X50186010Y-93869780D01*
X44566063Y-91759282D02*
X45827282Y-93062629D01*
X47945390Y-89067790D02*
X47902084Y-89037431D01*
X47902084Y-89037431D02*
X47874291Y-88992722D01*
X47874291Y-88992722D02*
X47865503Y-88944287D01*
X47908917Y-89344842D02*
X47922219Y-89297383D01*
X47922219Y-89297383D02*
X47934106Y-89282030D01*
X48018633Y-93901353D02*
X52240971Y-89539805D01*
X45790781Y-85111675D02*
X45837941Y-85121365D01*
X45851981Y-85048459D02*
X45821379Y-85035366D01*
X48055721Y-89407654D02*
X48011690Y-89431965D01*
X48011690Y-89431965D02*
X47962006Y-89426909D01*
X48595032Y-87938733D02*
X49498463Y-88871950D01*
X47507459Y-87955957D02*
X47019830Y-88459667D01*
X46516306Y-91047056D02*
X46553639Y-91085620D01*
X46553639Y-91085620D02*
X46590862Y-91124070D01*
X46590862Y-91124070D02*
X46627959Y-91162390D01*
X46627959Y-91162390D02*
X46664913Y-91200563D01*
X46664913Y-91200563D02*
X46701710Y-91238573D01*
X46701710Y-91238573D02*
X46738334Y-91276405D01*
X46738334Y-91276405D02*
X46774771Y-91314042D01*
X46774771Y-91314042D02*
X46811003Y-91351470D01*
X46811003Y-91351470D02*
X46847017Y-91388671D01*
X46847017Y-91388671D02*
X46882797Y-91425630D01*
X46882797Y-91425630D02*
X46918326Y-91462331D01*
X46918326Y-91462331D02*
X46953591Y-91498758D01*
X46953591Y-91498758D02*
X46988575Y-91534896D01*
X46988575Y-91534896D02*
X47023263Y-91570728D01*
X47023263Y-91570728D02*
X47057640Y-91606238D01*
X47057640Y-91606238D02*
X47091690Y-91641410D01*
X47091690Y-91641410D02*
X47158747Y-91710679D01*
X47158747Y-91710679D02*
X47224313Y-91778407D01*
X47224313Y-91778407D02*
X47288264Y-91844466D01*
X47288264Y-91844466D02*
X47350476Y-91908729D01*
X47350476Y-91908729D02*
X47410827Y-91971070D01*
X47410827Y-91971070D02*
X47469193Y-92031360D01*
X47469193Y-92031360D02*
X47525450Y-92089472D01*
X47525450Y-92089472D02*
X47579477Y-92145280D01*
X48086421Y-89038812D02*
X48042696Y-89068523D01*
X48042696Y-89068523D02*
X47992073Y-89077938D01*
X47992073Y-89077938D02*
X47945390Y-89067790D01*
X48134383Y-88461530D02*
X48145620Y-88512087D01*
X48145620Y-88512087D02*
X48140441Y-88562648D01*
X48140441Y-88562648D02*
X48119654Y-88609036D01*
X48119654Y-88609036D02*
X48101658Y-88631468D01*
X44566063Y-90334556D02*
X47206696Y-93062629D01*
X45837941Y-85121365D02*
X45864654Y-85080067D01*
X51477000Y-87227229D02*
X50215779Y-85923882D01*
X45238864Y-82876073D02*
X47372508Y-85080067D01*
X47930211Y-90057845D02*
X47948034Y-90011772D01*
X47948034Y-90011772D02*
X47949157Y-90010585D01*
X45781400Y-85062961D02*
X45790791Y-85111675D01*
X45864654Y-85080067D02*
X45851983Y-85048459D01*
X48054691Y-90032269D02*
X48055041Y-90082522D01*
X48055041Y-90082522D02*
X48040657Y-90105104D01*
X51477000Y-88651955D02*
X48836367Y-85923882D01*
X48018633Y-93901353D02*
X48277659Y-93901353D01*
X52553690Y-89485313D02*
X48271543Y-93903873D01*
X45013438Y-89494639D02*
X45050254Y-89532668D01*
X45050254Y-89532668D02*
X45089532Y-89573242D01*
X45089532Y-89573242D02*
X45127889Y-89612863D01*
X45127889Y-89612863D02*
X45173680Y-89660164D01*
X45173680Y-89660164D02*
X45208253Y-89695877D01*
X45208253Y-89695877D02*
X45246002Y-89734871D01*
X45246002Y-89734871D02*
X45286877Y-89777094D01*
X45286877Y-89777094D02*
X45330827Y-89822493D01*
X45330827Y-89822493D02*
X45377800Y-89871015D01*
X45377800Y-89871015D02*
X45427746Y-89922607D01*
X45427746Y-89922607D02*
X45453818Y-89949539D01*
X44361310Y-81302138D02*
X48018633Y-85080039D01*
X44102891Y-81302322D02*
X47760000Y-85080000D01*
X45453818Y-89949539D02*
X45507844Y-90005346D01*
X45507844Y-90005346D02*
X45564102Y-90063458D01*
X45564102Y-90063458D02*
X45622468Y-90123748D01*
X45622468Y-90123748D02*
X45682819Y-90186089D01*
X45682819Y-90186089D02*
X45745031Y-90250352D01*
X45745031Y-90250352D02*
X45808982Y-90316411D01*
X45808982Y-90316411D02*
X45874548Y-90384139D01*
X45874548Y-90384139D02*
X45941606Y-90453408D01*
X45941606Y-90453408D02*
X45975656Y-90488580D01*
X45975656Y-90488580D02*
X46010033Y-90524090D01*
X46010033Y-90524090D02*
X46044721Y-90559922D01*
X46044721Y-90559922D02*
X46079705Y-90596060D01*
X46079705Y-90596060D02*
X46114970Y-90632487D01*
X46114970Y-90632487D02*
X46150499Y-90669188D01*
X46150499Y-90669188D02*
X46186279Y-90706147D01*
X46186279Y-90706147D02*
X46222293Y-90743348D01*
X46222293Y-90743348D02*
X46258525Y-90780776D01*
X46258525Y-90780776D02*
X46294962Y-90818413D01*
X46294962Y-90818413D02*
X46331586Y-90856245D01*
X46331586Y-90856245D02*
X46368383Y-90894255D01*
X46368383Y-90894255D02*
X46405337Y-90932428D01*
X46405337Y-90932428D02*
X46442434Y-90970748D01*
X46442434Y-90970748D02*
X46479657Y-91009198D01*
X46479657Y-91009198D02*
X46516991Y-91047763D01*
X47372508Y-85080067D02*
X45239068Y-87283850D01*
X52553691Y-89485316D02*
X52288535Y-89490701D01*
X47760000Y-85080000D02*
X43527774Y-89451932D01*
D11*
X102618571Y-49112380D02*
X102618571Y-48112380D01*
X102380476Y-48112380D01*
X102237619Y-48160000D01*
X102142380Y-48255238D01*
X102094761Y-48350476D01*
X102047142Y-48540952D01*
X102047142Y-48683809D01*
X102094761Y-48874285D01*
X102142380Y-48969523D01*
X102237619Y-49064761D01*
X102380476Y-49112380D01*
X102618571Y-49112380D01*
X101237619Y-49064761D02*
X101332857Y-49112380D01*
X101523333Y-49112380D01*
X101618571Y-49064761D01*
X101666190Y-48969523D01*
X101666190Y-48588571D01*
X101618571Y-48493333D01*
X101523333Y-48445714D01*
X101332857Y-48445714D01*
X101237619Y-48493333D01*
X101190000Y-48588571D01*
X101190000Y-48683809D01*
X101666190Y-48779047D01*
X100809047Y-49064761D02*
X100713809Y-49112380D01*
X100523333Y-49112380D01*
X100428095Y-49064761D01*
X100380476Y-48969523D01*
X100380476Y-48921904D01*
X100428095Y-48826666D01*
X100523333Y-48779047D01*
X100666190Y-48779047D01*
X100761428Y-48731428D01*
X100809047Y-48636190D01*
X100809047Y-48588571D01*
X100761428Y-48493333D01*
X100666190Y-48445714D01*
X100523333Y-48445714D01*
X100428095Y-48493333D01*
X99951904Y-49112380D02*
X99951904Y-48445714D01*
X99951904Y-48112380D02*
X99999523Y-48160000D01*
X99951904Y-48207619D01*
X99904285Y-48160000D01*
X99951904Y-48112380D01*
X99951904Y-48207619D01*
X99047142Y-48445714D02*
X99047142Y-49255238D01*
X99094761Y-49350476D01*
X99142380Y-49398095D01*
X99237619Y-49445714D01*
X99380476Y-49445714D01*
X99475714Y-49398095D01*
X99047142Y-49064761D02*
X99142380Y-49112380D01*
X99332857Y-49112380D01*
X99428095Y-49064761D01*
X99475714Y-49017142D01*
X99523333Y-48921904D01*
X99523333Y-48636190D01*
X99475714Y-48540952D01*
X99428095Y-48493333D01*
X99332857Y-48445714D01*
X99142380Y-48445714D01*
X99047142Y-48493333D01*
X98570952Y-48445714D02*
X98570952Y-49112380D01*
X98570952Y-48540952D02*
X98523333Y-48493333D01*
X98428095Y-48445714D01*
X98285238Y-48445714D01*
X98190000Y-48493333D01*
X98142380Y-48588571D01*
X98142380Y-49112380D01*
X97285238Y-49064761D02*
X97380476Y-49112380D01*
X97570952Y-49112380D01*
X97666190Y-49064761D01*
X97713809Y-48969523D01*
X97713809Y-48588571D01*
X97666190Y-48493333D01*
X97570952Y-48445714D01*
X97380476Y-48445714D01*
X97285238Y-48493333D01*
X97237619Y-48588571D01*
X97237619Y-48683809D01*
X97713809Y-48779047D01*
X96380476Y-49112380D02*
X96380476Y-48112380D01*
X96380476Y-49064761D02*
X96475714Y-49112380D01*
X96666190Y-49112380D01*
X96761428Y-49064761D01*
X96809047Y-49017142D01*
X96856666Y-48921904D01*
X96856666Y-48636190D01*
X96809047Y-48540952D01*
X96761428Y-48493333D01*
X96666190Y-48445714D01*
X96475714Y-48445714D01*
X96380476Y-48493333D01*
X95142380Y-49112380D02*
X95142380Y-48112380D01*
X95142380Y-48493333D02*
X95047142Y-48445714D01*
X94856666Y-48445714D01*
X94761428Y-48493333D01*
X94713809Y-48540952D01*
X94666190Y-48636190D01*
X94666190Y-48921904D01*
X94713809Y-49017142D01*
X94761428Y-49064761D01*
X94856666Y-49112380D01*
X95047142Y-49112380D01*
X95142380Y-49064761D01*
X94332857Y-48445714D02*
X94094761Y-49112380D01*
X93856666Y-48445714D02*
X94094761Y-49112380D01*
X94190000Y-49350476D01*
X94237619Y-49398095D01*
X94332857Y-49445714D01*
X92761428Y-49064761D02*
X92618571Y-49112380D01*
X92380476Y-49112380D01*
X92285238Y-49064761D01*
X92237619Y-49017142D01*
X92190000Y-48921904D01*
X92190000Y-48826666D01*
X92237619Y-48731428D01*
X92285238Y-48683809D01*
X92380476Y-48636190D01*
X92570952Y-48588571D01*
X92666190Y-48540952D01*
X92713809Y-48493333D01*
X92761428Y-48398095D01*
X92761428Y-48302857D01*
X92713809Y-48207619D01*
X92666190Y-48160000D01*
X92570952Y-48112380D01*
X92332857Y-48112380D01*
X92190000Y-48160000D01*
X91332857Y-49064761D02*
X91428095Y-49112380D01*
X91618571Y-49112380D01*
X91713809Y-49064761D01*
X91761428Y-49017142D01*
X91809047Y-48921904D01*
X91809047Y-48636190D01*
X91761428Y-48540952D01*
X91713809Y-48493333D01*
X91618571Y-48445714D01*
X91428095Y-48445714D01*
X91332857Y-48493333D01*
X90475714Y-49112380D02*
X90475714Y-48588571D01*
X90523333Y-48493333D01*
X90618571Y-48445714D01*
X90809047Y-48445714D01*
X90904285Y-48493333D01*
X90475714Y-49064761D02*
X90570952Y-49112380D01*
X90809047Y-49112380D01*
X90904285Y-49064761D01*
X90951904Y-48969523D01*
X90951904Y-48874285D01*
X90904285Y-48779047D01*
X90809047Y-48731428D01*
X90570952Y-48731428D01*
X90475714Y-48683809D01*
X90142380Y-48445714D02*
X89761428Y-48445714D01*
X89999523Y-48112380D02*
X89999523Y-48969523D01*
X89951904Y-49064761D01*
X89856666Y-49112380D01*
X89761428Y-49112380D01*
X89570952Y-48445714D02*
X89190000Y-48445714D01*
X89428095Y-48112380D02*
X89428095Y-48969523D01*
X89380476Y-49064761D01*
X89285238Y-49112380D01*
X89190000Y-49112380D01*
X88475714Y-49064761D02*
X88570952Y-49112380D01*
X88761428Y-49112380D01*
X88856666Y-49064761D01*
X88904285Y-48969523D01*
X88904285Y-48588571D01*
X88856666Y-48493333D01*
X88761428Y-48445714D01*
X88570952Y-48445714D01*
X88475714Y-48493333D01*
X88428095Y-48588571D01*
X88428095Y-48683809D01*
X88904285Y-48779047D01*
X87999523Y-49112380D02*
X87999523Y-48445714D01*
X87999523Y-48636190D02*
X87951904Y-48540952D01*
X87904285Y-48493333D01*
X87809047Y-48445714D01*
X87713809Y-48445714D01*
X86999523Y-49064761D02*
X87094761Y-49112380D01*
X87285238Y-49112380D01*
X87380476Y-49064761D01*
X87428095Y-48969523D01*
X87428095Y-48588571D01*
X87380476Y-48493333D01*
X87285238Y-48445714D01*
X87094761Y-48445714D01*
X86999523Y-48493333D01*
X86951904Y-48588571D01*
X86951904Y-48683809D01*
X87428095Y-48779047D01*
X86094761Y-49112380D02*
X86094761Y-48112380D01*
X86094761Y-49064761D02*
X86190000Y-49112380D01*
X86380476Y-49112380D01*
X86475714Y-49064761D01*
X86523333Y-49017142D01*
X86570952Y-48921904D01*
X86570952Y-48636190D01*
X86523333Y-48540952D01*
X86475714Y-48493333D01*
X86380476Y-48445714D01*
X86190000Y-48445714D01*
X86094761Y-48493333D01*
X85618571Y-49112380D02*
X85618571Y-48112380D01*
X85380476Y-48112380D01*
X85237619Y-48160000D01*
X85142380Y-48255238D01*
X85094761Y-48350476D01*
X85047142Y-48540952D01*
X85047142Y-48683809D01*
X85094761Y-48874285D01*
X85142380Y-48969523D01*
X85237619Y-49064761D01*
X85380476Y-49112380D01*
X85618571Y-49112380D01*
X84618571Y-49112380D02*
X84618571Y-48445714D01*
X84618571Y-48636190D02*
X84570952Y-48540952D01*
X84523333Y-48493333D01*
X84428095Y-48445714D01*
X84332857Y-48445714D01*
X83999523Y-49112380D02*
X83999523Y-48445714D01*
X83999523Y-48112380D02*
X84047142Y-48160000D01*
X83999523Y-48207619D01*
X83951904Y-48160000D01*
X83999523Y-48112380D01*
X83999523Y-48207619D01*
X83666190Y-48445714D02*
X83285238Y-48445714D01*
X83523333Y-49112380D02*
X83523333Y-48255238D01*
X83475714Y-48160000D01*
X83380476Y-48112380D01*
X83285238Y-48112380D01*
X83094761Y-48445714D02*
X82713809Y-48445714D01*
X82951904Y-48112380D02*
X82951904Y-48969523D01*
X82904285Y-49064761D01*
X82809047Y-49112380D01*
X82713809Y-49112380D01*
X81999523Y-49064761D02*
X82094761Y-49112380D01*
X82285238Y-49112380D01*
X82380476Y-49064761D01*
X82428095Y-48969523D01*
X82428095Y-48588571D01*
X82380476Y-48493333D01*
X82285238Y-48445714D01*
X82094761Y-48445714D01*
X81999523Y-48493333D01*
X81951904Y-48588571D01*
X81951904Y-48683809D01*
X82428095Y-48779047D01*
X81523333Y-49112380D02*
X81523333Y-48445714D01*
X81523333Y-48636190D02*
X81475714Y-48540952D01*
X81428095Y-48493333D01*
X81332857Y-48445714D01*
X81237619Y-48445714D01*
X79904285Y-49445714D02*
X79904285Y-48017142D01*
X78094761Y-48588571D02*
X78428095Y-48588571D01*
X78428095Y-49112380D02*
X78428095Y-48112380D01*
X77951904Y-48112380D01*
X77142380Y-49112380D02*
X77142380Y-48588571D01*
X77190000Y-48493333D01*
X77285238Y-48445714D01*
X77475714Y-48445714D01*
X77570952Y-48493333D01*
X77142380Y-49064761D02*
X77237619Y-49112380D01*
X77475714Y-49112380D01*
X77570952Y-49064761D01*
X77618571Y-48969523D01*
X77618571Y-48874285D01*
X77570952Y-48779047D01*
X77475714Y-48731428D01*
X77237619Y-48731428D01*
X77142380Y-48683809D01*
X76666190Y-49112380D02*
X76666190Y-48112380D01*
X76666190Y-48493333D02*
X76570952Y-48445714D01*
X76380476Y-48445714D01*
X76285238Y-48493333D01*
X76237619Y-48540952D01*
X76190000Y-48636190D01*
X76190000Y-48921904D01*
X76237619Y-49017142D01*
X76285238Y-49064761D01*
X76380476Y-49112380D01*
X76570952Y-49112380D01*
X76666190Y-49064761D01*
X75761428Y-49112380D02*
X75761428Y-48445714D01*
X75761428Y-48112380D02*
X75809047Y-48160000D01*
X75761428Y-48207619D01*
X75713809Y-48160000D01*
X75761428Y-48112380D01*
X75761428Y-48207619D01*
X74856666Y-49112380D02*
X74856666Y-48588571D01*
X74904285Y-48493333D01*
X74999523Y-48445714D01*
X75190000Y-48445714D01*
X75285238Y-48493333D01*
X74856666Y-49064761D02*
X74951904Y-49112380D01*
X75190000Y-49112380D01*
X75285238Y-49064761D01*
X75332857Y-48969523D01*
X75332857Y-48874285D01*
X75285238Y-48779047D01*
X75190000Y-48731428D01*
X74951904Y-48731428D01*
X74856666Y-48683809D01*
X74380476Y-48445714D02*
X74380476Y-49112380D01*
X74380476Y-48540952D02*
X74332857Y-48493333D01*
X74237619Y-48445714D01*
X74094761Y-48445714D01*
X73999523Y-48493333D01*
X73951904Y-48588571D01*
X73951904Y-49112380D01*
X72761428Y-49064761D02*
X72618571Y-49112380D01*
X72380476Y-49112380D01*
X72285238Y-49064761D01*
X72237619Y-49017142D01*
X72190000Y-48921904D01*
X72190000Y-48826666D01*
X72237619Y-48731428D01*
X72285238Y-48683809D01*
X72380476Y-48636190D01*
X72570952Y-48588571D01*
X72666190Y-48540952D01*
X72713809Y-48493333D01*
X72761428Y-48398095D01*
X72761428Y-48302857D01*
X72713809Y-48207619D01*
X72666190Y-48160000D01*
X72570952Y-48112380D01*
X72332857Y-48112380D01*
X72190000Y-48160000D01*
X71761428Y-49017142D02*
X71713809Y-49064761D01*
X71761428Y-49112380D01*
X71809047Y-49064761D01*
X71761428Y-49017142D01*
X71761428Y-49112380D01*
%TO.C,U1*%
X70610000Y-53750000D02*
X70610000Y-84230000D01*
X65530000Y-53750000D02*
X70610000Y-53750000D01*
X65530000Y-51210000D02*
X65530000Y-53750000D01*
X57910000Y-51210000D02*
X65530000Y-51210000D01*
X57910000Y-53750000D02*
X57910000Y-51210000D01*
X52830000Y-53750000D02*
X57910000Y-53750000D01*
X52830000Y-84230000D02*
X52830000Y-53750000D01*
X70610000Y-84230000D02*
X52830000Y-84230000D01*
%TO.C,Brd1*%
X54370000Y-90090000D02*
X64530000Y-90090000D01*
X54370000Y-92630000D02*
X64530000Y-92630000D01*
X64530000Y-92630000D02*
X64530000Y-90090000D01*
X54370000Y-90090000D02*
X54370000Y-92630000D01*
%TO.C,K17*%
X73500000Y-69250000D02*
X74500000Y-69250000D01*
X86500000Y-69250000D02*
X87500000Y-69250000D01*
X87500000Y-69250000D02*
X87500000Y-70250000D01*
X87500000Y-83250000D02*
X86500000Y-83250000D01*
X87500000Y-82250000D02*
X87500000Y-83250000D01*
X74500000Y-83250000D02*
X73500000Y-83250000D01*
X73500000Y-83250000D02*
X73500000Y-82250000D01*
X73500000Y-70250000D02*
X73500000Y-69250000D01*
%TO.C,U1*%
X50520000Y-84250000D02*
X68300000Y-84250000D01*
X50520000Y-53770000D02*
X50520000Y-84250000D01*
X55600000Y-53770000D02*
X50520000Y-53770000D01*
X55600000Y-51230000D02*
X55600000Y-53770000D01*
X63220000Y-51230000D02*
X55600000Y-51230000D01*
X63220000Y-53770000D02*
X63220000Y-51230000D01*
X68300000Y-53770000D02*
X63220000Y-53770000D01*
X68300000Y-53770000D02*
X68300000Y-84250000D01*
D12*
%TO.C,D38*%
X143590000Y-81650000D02*
X144740000Y-81650000D01*
X143590000Y-88950000D02*
X143590000Y-81650000D01*
X149090000Y-88950000D02*
X149090000Y-81650000D01*
D11*
%TO.C,K14*%
X92600000Y-88370000D02*
X93600000Y-88370000D01*
X105600000Y-88370000D02*
X106600000Y-88370000D01*
X106600000Y-88370000D02*
X106600000Y-89370000D01*
X106600000Y-102370000D02*
X105600000Y-102370000D01*
X106600000Y-101370000D02*
X106600000Y-102370000D01*
X93600000Y-102370000D02*
X92600000Y-102370000D01*
X92600000Y-102370000D02*
X92600000Y-101370000D01*
X92600000Y-89370000D02*
X92600000Y-88370000D01*
D13*
%TO.C,D23*%
X64300000Y-113550000D02*
X58500000Y-113550000D01*
X64300000Y-115950000D02*
X64300000Y-113550000D01*
X58500000Y-115950000D02*
X64300000Y-115950000D01*
X58575000Y-115950000D02*
X58575000Y-113550000D01*
X58700000Y-115950000D02*
X58700000Y-113550000D01*
X58475000Y-113550000D02*
X58475000Y-115950000D01*
X58875000Y-115950000D02*
X58875000Y-113550000D01*
X59050000Y-115950000D02*
X59050000Y-113550000D01*
X59225000Y-115950000D02*
X59225000Y-113550000D01*
%TO.C,D17*%
X83300000Y-80290000D02*
X77500000Y-80290000D01*
X83300000Y-82690000D02*
X83300000Y-80290000D01*
X77500000Y-82690000D02*
X83300000Y-82690000D01*
X77575000Y-82690000D02*
X77575000Y-80290000D01*
X77700000Y-82690000D02*
X77700000Y-80290000D01*
X77475000Y-80290000D02*
X77475000Y-82690000D01*
X77875000Y-82690000D02*
X77875000Y-80290000D01*
X78050000Y-82690000D02*
X78050000Y-80290000D01*
X78225000Y-82690000D02*
X78225000Y-80290000D01*
%TO.C,D18*%
X83300000Y-99550000D02*
X77500000Y-99550000D01*
X83300000Y-101950000D02*
X83300000Y-99550000D01*
X77500000Y-101950000D02*
X83300000Y-101950000D01*
X77575000Y-101950000D02*
X77575000Y-99550000D01*
X77700000Y-101950000D02*
X77700000Y-99550000D01*
X77475000Y-99550000D02*
X77475000Y-101950000D01*
X77875000Y-101950000D02*
X77875000Y-99550000D01*
X78050000Y-101950000D02*
X78050000Y-99550000D01*
X78225000Y-101950000D02*
X78225000Y-99550000D01*
%TO.C,D19*%
X83300000Y-118550000D02*
X77500000Y-118550000D01*
X83300000Y-120950000D02*
X83300000Y-118550000D01*
X77500000Y-120950000D02*
X83300000Y-120950000D01*
X77575000Y-120950000D02*
X77575000Y-118550000D01*
X77700000Y-120950000D02*
X77700000Y-118550000D01*
X77475000Y-118550000D02*
X77475000Y-120950000D01*
X77875000Y-120950000D02*
X77875000Y-118550000D01*
X78050000Y-120950000D02*
X78050000Y-118550000D01*
X78225000Y-120950000D02*
X78225000Y-118550000D01*
%TO.C,D20*%
X83300000Y-137300000D02*
X77500000Y-137300000D01*
X83300000Y-139700000D02*
X83300000Y-137300000D01*
X77500000Y-139700000D02*
X83300000Y-139700000D01*
X77575000Y-139700000D02*
X77575000Y-137300000D01*
X77700000Y-139700000D02*
X77700000Y-137300000D01*
X77475000Y-137300000D02*
X77475000Y-139700000D01*
X77875000Y-139700000D02*
X77875000Y-137300000D01*
X78050000Y-139700000D02*
X78050000Y-137300000D01*
X78225000Y-139700000D02*
X78225000Y-137300000D01*
%TO.C,D13*%
X102300000Y-80300000D02*
X96500000Y-80300000D01*
X102300000Y-82700000D02*
X102300000Y-80300000D01*
X96500000Y-82700000D02*
X102300000Y-82700000D01*
X96575000Y-82700000D02*
X96575000Y-80300000D01*
X96700000Y-82700000D02*
X96700000Y-80300000D01*
X96475000Y-80300000D02*
X96475000Y-82700000D01*
X96875000Y-82700000D02*
X96875000Y-80300000D01*
X97050000Y-82700000D02*
X97050000Y-80300000D01*
X97225000Y-82700000D02*
X97225000Y-80300000D01*
%TO.C,D14*%
X102300000Y-99550000D02*
X96500000Y-99550000D01*
X102300000Y-101950000D02*
X102300000Y-99550000D01*
X96500000Y-101950000D02*
X102300000Y-101950000D01*
X96575000Y-101950000D02*
X96575000Y-99550000D01*
X96700000Y-101950000D02*
X96700000Y-99550000D01*
X96475000Y-99550000D02*
X96475000Y-101950000D01*
X96875000Y-101950000D02*
X96875000Y-99550000D01*
X97050000Y-101950000D02*
X97050000Y-99550000D01*
X97225000Y-101950000D02*
X97225000Y-99550000D01*
%TO.C,D15*%
X102300000Y-123300000D02*
X96500000Y-123300000D01*
X102300000Y-125700000D02*
X102300000Y-123300000D01*
X96500000Y-125700000D02*
X102300000Y-125700000D01*
X96575000Y-125700000D02*
X96575000Y-123300000D01*
X96700000Y-125700000D02*
X96700000Y-123300000D01*
X96475000Y-123300000D02*
X96475000Y-125700000D01*
X96875000Y-125700000D02*
X96875000Y-123300000D01*
X97050000Y-125700000D02*
X97050000Y-123300000D01*
X97225000Y-125700000D02*
X97225000Y-123300000D01*
%TO.C,D10*%
X121560000Y-71030000D02*
X115760000Y-71030000D01*
X121560000Y-73430000D02*
X121560000Y-71030000D01*
X115760000Y-73430000D02*
X121560000Y-73430000D01*
X115835000Y-73430000D02*
X115835000Y-71030000D01*
X115960000Y-73430000D02*
X115960000Y-71030000D01*
X115735000Y-71030000D02*
X115735000Y-73430000D01*
X116135000Y-73430000D02*
X116135000Y-71030000D01*
X116310000Y-73430000D02*
X116310000Y-71030000D01*
X116485000Y-73430000D02*
X116485000Y-71030000D01*
%TO.C,D11*%
X121550000Y-90050000D02*
X115750000Y-90050000D01*
X121550000Y-92450000D02*
X121550000Y-90050000D01*
X115750000Y-92450000D02*
X121550000Y-92450000D01*
X115825000Y-92450000D02*
X115825000Y-90050000D01*
X115950000Y-92450000D02*
X115950000Y-90050000D01*
X115725000Y-90050000D02*
X115725000Y-92450000D01*
X116125000Y-92450000D02*
X116125000Y-90050000D01*
X116300000Y-92450000D02*
X116300000Y-90050000D01*
X116475000Y-92450000D02*
X116475000Y-90050000D01*
%TO.C,D8*%
X140550000Y-94800000D02*
X134750000Y-94800000D01*
X140550000Y-97200000D02*
X140550000Y-94800000D01*
X134750000Y-97200000D02*
X140550000Y-97200000D01*
X134825000Y-97200000D02*
X134825000Y-94800000D01*
X134950000Y-97200000D02*
X134950000Y-94800000D01*
X134725000Y-94800000D02*
X134725000Y-97200000D01*
X135125000Y-97200000D02*
X135125000Y-94800000D01*
X135300000Y-97200000D02*
X135300000Y-94800000D01*
X135475000Y-97200000D02*
X135475000Y-94800000D01*
%TO.C,D7*%
X140560000Y-75810000D02*
X134760000Y-75810000D01*
X140560000Y-78210000D02*
X140560000Y-75810000D01*
X134760000Y-78210000D02*
X140560000Y-78210000D01*
X134835000Y-78210000D02*
X134835000Y-75810000D01*
X134960000Y-78210000D02*
X134960000Y-75810000D01*
X134735000Y-75810000D02*
X134735000Y-78210000D01*
X135135000Y-78210000D02*
X135135000Y-75810000D01*
X135310000Y-78210000D02*
X135310000Y-75810000D01*
X135485000Y-78210000D02*
X135485000Y-75810000D01*
%TO.C,D4*%
X159540000Y-90050000D02*
X153740000Y-90050000D01*
X159540000Y-92450000D02*
X159540000Y-90050000D01*
X153740000Y-92450000D02*
X159540000Y-92450000D01*
X153815000Y-92450000D02*
X153815000Y-90050000D01*
X153940000Y-92450000D02*
X153940000Y-90050000D01*
X153715000Y-90050000D02*
X153715000Y-92450000D01*
X154115000Y-92450000D02*
X154115000Y-90050000D01*
X154290000Y-92450000D02*
X154290000Y-90050000D01*
X154465000Y-92450000D02*
X154465000Y-90050000D01*
%TO.C,D5*%
X159550000Y-108790000D02*
X153750000Y-108790000D01*
X159550000Y-111190000D02*
X159550000Y-108790000D01*
X153750000Y-111190000D02*
X159550000Y-111190000D01*
X153825000Y-111190000D02*
X153825000Y-108790000D01*
X153950000Y-111190000D02*
X153950000Y-108790000D01*
X153725000Y-108790000D02*
X153725000Y-111190000D01*
X154125000Y-111190000D02*
X154125000Y-108790000D01*
X154300000Y-111190000D02*
X154300000Y-108790000D01*
X154475000Y-111190000D02*
X154475000Y-108790000D01*
%TO.C,D3*%
X159550000Y-70800000D02*
X153750000Y-70800000D01*
X159550000Y-73200000D02*
X159550000Y-70800000D01*
X153750000Y-73200000D02*
X159550000Y-73200000D01*
X153825000Y-73200000D02*
X153825000Y-70800000D01*
X153950000Y-73200000D02*
X153950000Y-70800000D01*
X153725000Y-70800000D02*
X153725000Y-73200000D01*
X154125000Y-73200000D02*
X154125000Y-70800000D01*
X154300000Y-73200000D02*
X154300000Y-70800000D01*
X154475000Y-73200000D02*
X154475000Y-70800000D01*
%TO.C,D6*%
X140550000Y-56800000D02*
X134750000Y-56800000D01*
X140550000Y-59200000D02*
X140550000Y-56800000D01*
X134750000Y-59200000D02*
X140550000Y-59200000D01*
X134825000Y-59200000D02*
X134825000Y-56800000D01*
X134950000Y-59200000D02*
X134950000Y-56800000D01*
X134725000Y-56800000D02*
X134725000Y-59200000D01*
X135125000Y-59200000D02*
X135125000Y-56800000D01*
X135300000Y-59200000D02*
X135300000Y-56800000D01*
X135475000Y-59200000D02*
X135475000Y-56800000D01*
%TO.C,D9*%
X121550000Y-51800000D02*
X115750000Y-51800000D01*
X121550000Y-54200000D02*
X121550000Y-51800000D01*
X115750000Y-54200000D02*
X121550000Y-54200000D01*
X115825000Y-54200000D02*
X115825000Y-51800000D01*
X115950000Y-54200000D02*
X115950000Y-51800000D01*
X115725000Y-51800000D02*
X115725000Y-54200000D01*
X116125000Y-54200000D02*
X116125000Y-51800000D01*
X116300000Y-54200000D02*
X116300000Y-51800000D01*
X116475000Y-54200000D02*
X116475000Y-51800000D01*
%TO.C,D12*%
X102300000Y-61300000D02*
X96500000Y-61300000D01*
X102300000Y-63700000D02*
X102300000Y-61300000D01*
X96500000Y-63700000D02*
X102300000Y-63700000D01*
X96575000Y-63700000D02*
X96575000Y-61300000D01*
X96700000Y-63700000D02*
X96700000Y-61300000D01*
X96475000Y-61300000D02*
X96475000Y-63700000D01*
X96875000Y-63700000D02*
X96875000Y-61300000D01*
X97050000Y-63700000D02*
X97050000Y-61300000D01*
X97225000Y-63700000D02*
X97225000Y-61300000D01*
%TO.C,D16*%
X83300000Y-61310000D02*
X77500000Y-61310000D01*
X83300000Y-63710000D02*
X83300000Y-61310000D01*
X77500000Y-63710000D02*
X83300000Y-63710000D01*
X77575000Y-63710000D02*
X77575000Y-61310000D01*
X77700000Y-63710000D02*
X77700000Y-61310000D01*
X77475000Y-61310000D02*
X77475000Y-63710000D01*
X77875000Y-63710000D02*
X77875000Y-61310000D01*
X78050000Y-63710000D02*
X78050000Y-61310000D01*
X78225000Y-63710000D02*
X78225000Y-61310000D01*
D11*
%TO.C,K5*%
X149760000Y-97880000D02*
X150760000Y-97880000D01*
X162760000Y-97880000D02*
X163760000Y-97880000D01*
X163760000Y-97880000D02*
X163760000Y-98880000D01*
X163760000Y-111880000D02*
X162760000Y-111880000D01*
X163760000Y-110880000D02*
X163760000Y-111880000D01*
X150760000Y-111880000D02*
X149760000Y-111880000D01*
X149760000Y-111880000D02*
X149760000Y-110880000D01*
X149760000Y-98880000D02*
X149760000Y-97880000D01*
%TO.C,K8*%
X130690000Y-83610000D02*
X131690000Y-83610000D01*
X143690000Y-83610000D02*
X144690000Y-83610000D01*
X144690000Y-83610000D02*
X144690000Y-84610000D01*
X144690000Y-97610000D02*
X143690000Y-97610000D01*
X144690000Y-96610000D02*
X144690000Y-97610000D01*
X131690000Y-97610000D02*
X130690000Y-97610000D01*
X130690000Y-97610000D02*
X130690000Y-96610000D01*
X130690000Y-84610000D02*
X130690000Y-83610000D01*
D12*
%TO.C,D39*%
X124020000Y-50020000D02*
X125170000Y-50020000D01*
X124020000Y-57320000D02*
X124020000Y-50020000D01*
X129520000Y-57320000D02*
X129520000Y-50020000D01*
%TO.C,D37*%
X94060000Y-105600000D02*
X94060000Y-106750000D01*
X86760000Y-105600000D02*
X94060000Y-105600000D01*
X86760000Y-111100000D02*
X94060000Y-111100000D01*
%TO.C,D36*%
X62730000Y-102040000D02*
X62730000Y-100890000D01*
X70030000Y-102040000D02*
X62730000Y-102040000D01*
X70030000Y-96540000D02*
X62730000Y-96540000D01*
%TO.C,D35*%
X86830000Y-55900000D02*
X87980000Y-55900000D01*
X86830000Y-63200000D02*
X86830000Y-55900000D01*
X92330000Y-63200000D02*
X92330000Y-55900000D01*
D11*
%TO.C,K4*%
X149760000Y-78840000D02*
X150760000Y-78840000D01*
X162760000Y-78840000D02*
X163760000Y-78840000D01*
X163760000Y-78840000D02*
X163760000Y-79840000D01*
X163760000Y-92840000D02*
X162760000Y-92840000D01*
X163760000Y-91840000D02*
X163760000Y-92840000D01*
X150760000Y-92840000D02*
X149760000Y-92840000D01*
X149760000Y-92840000D02*
X149760000Y-91840000D01*
X149760000Y-79840000D02*
X149760000Y-78840000D01*
%TO.C,U2*%
X41900000Y-51770000D02*
X47500000Y-51770000D01*
X47500000Y-53770000D02*
X47500000Y-51770000D01*
X41900000Y-53770000D02*
X41900000Y-51770000D01*
X47750000Y-53770000D02*
X47750000Y-65870000D01*
X41650000Y-53770000D02*
X41650000Y-65870000D01*
X41650000Y-65870000D02*
X47750000Y-65870000D01*
X41650000Y-53770000D02*
X47750000Y-53770000D01*
%TO.C,K23*%
X54490000Y-102650000D02*
X55490000Y-102650000D01*
X67490000Y-102650000D02*
X68490000Y-102650000D01*
X68490000Y-102650000D02*
X68490000Y-103650000D01*
X68490000Y-116650000D02*
X67490000Y-116650000D01*
X68490000Y-115650000D02*
X68490000Y-116650000D01*
X55490000Y-116650000D02*
X54490000Y-116650000D01*
X54490000Y-116650000D02*
X54490000Y-115650000D01*
X54490000Y-103650000D02*
X54490000Y-102650000D01*
%TO.C,K20*%
X73550000Y-126450000D02*
X74550000Y-126450000D01*
X86550000Y-126450000D02*
X87550000Y-126450000D01*
X87550000Y-126450000D02*
X87550000Y-127450000D01*
X87550000Y-140450000D02*
X86550000Y-140450000D01*
X87550000Y-139450000D02*
X87550000Y-140450000D01*
X74550000Y-140450000D02*
X73550000Y-140450000D01*
X73550000Y-140450000D02*
X73550000Y-139450000D01*
X73550000Y-127450000D02*
X73550000Y-126450000D01*
%TO.C,K19*%
X73550000Y-107420000D02*
X74550000Y-107420000D01*
X86550000Y-107420000D02*
X87550000Y-107420000D01*
X87550000Y-107420000D02*
X87550000Y-108420000D01*
X87550000Y-121420000D02*
X86550000Y-121420000D01*
X87550000Y-120420000D02*
X87550000Y-121420000D01*
X74550000Y-121420000D02*
X73550000Y-121420000D01*
X73550000Y-121420000D02*
X73550000Y-120420000D01*
X73550000Y-108420000D02*
X73550000Y-107420000D01*
%TO.C,K18*%
X73540000Y-88380000D02*
X74540000Y-88380000D01*
X86540000Y-88380000D02*
X87540000Y-88380000D01*
X87540000Y-88380000D02*
X87540000Y-89380000D01*
X87540000Y-102380000D02*
X86540000Y-102380000D01*
X87540000Y-101380000D02*
X87540000Y-102380000D01*
X74540000Y-102380000D02*
X73540000Y-102380000D01*
X73540000Y-102380000D02*
X73540000Y-101380000D01*
X73540000Y-89380000D02*
X73540000Y-88380000D01*
%TO.C,K16*%
X73550000Y-50250000D02*
X74550000Y-50250000D01*
X86550000Y-50250000D02*
X87550000Y-50250000D01*
X87550000Y-50250000D02*
X87550000Y-51250000D01*
X87550000Y-64250000D02*
X86550000Y-64250000D01*
X87550000Y-63250000D02*
X87550000Y-64250000D01*
X74550000Y-64250000D02*
X73550000Y-64250000D01*
X73550000Y-64250000D02*
X73550000Y-63250000D01*
X73550000Y-51250000D02*
X73550000Y-50250000D01*
%TO.C,K15*%
X92620000Y-112150000D02*
X93620000Y-112150000D01*
X105620000Y-112150000D02*
X106620000Y-112150000D01*
X106620000Y-112150000D02*
X106620000Y-113150000D01*
X106620000Y-126150000D02*
X105620000Y-126150000D01*
X106620000Y-125150000D02*
X106620000Y-126150000D01*
X93620000Y-126150000D02*
X92620000Y-126150000D01*
X92620000Y-126150000D02*
X92620000Y-125150000D01*
X92620000Y-113150000D02*
X92620000Y-112150000D01*
%TO.C,K13*%
X92590000Y-69320000D02*
X93590000Y-69320000D01*
X105590000Y-69320000D02*
X106590000Y-69320000D01*
X106590000Y-69320000D02*
X106590000Y-70320000D01*
X106590000Y-83320000D02*
X105590000Y-83320000D01*
X106590000Y-82320000D02*
X106590000Y-83320000D01*
X93590000Y-83320000D02*
X92590000Y-83320000D01*
X92590000Y-83320000D02*
X92590000Y-82320000D01*
X92590000Y-70320000D02*
X92590000Y-69320000D01*
%TO.C,K12*%
X92580000Y-50280000D02*
X93580000Y-50280000D01*
X105580000Y-50280000D02*
X106580000Y-50280000D01*
X106580000Y-50280000D02*
X106580000Y-51280000D01*
X106580000Y-64280000D02*
X105580000Y-64280000D01*
X106580000Y-63280000D02*
X106580000Y-64280000D01*
X93580000Y-64280000D02*
X92580000Y-64280000D01*
X92580000Y-64280000D02*
X92580000Y-63280000D01*
X92580000Y-51280000D02*
X92580000Y-50280000D01*
%TO.C,K11*%
X111660000Y-78830000D02*
X112660000Y-78830000D01*
X124660000Y-78830000D02*
X125660000Y-78830000D01*
X125660000Y-78830000D02*
X125660000Y-79830000D01*
X125660000Y-92830000D02*
X124660000Y-92830000D01*
X125660000Y-91830000D02*
X125660000Y-92830000D01*
X112660000Y-92830000D02*
X111660000Y-92830000D01*
X111660000Y-92830000D02*
X111660000Y-91830000D01*
X111660000Y-79830000D02*
X111660000Y-78830000D01*
%TO.C,K10*%
X111650000Y-59810000D02*
X112650000Y-59810000D01*
X124650000Y-59810000D02*
X125650000Y-59810000D01*
X125650000Y-59810000D02*
X125650000Y-60810000D01*
X125650000Y-73810000D02*
X124650000Y-73810000D01*
X125650000Y-72810000D02*
X125650000Y-73810000D01*
X112650000Y-73810000D02*
X111650000Y-73810000D01*
X111650000Y-73810000D02*
X111650000Y-72810000D01*
X111650000Y-60810000D02*
X111650000Y-59810000D01*
%TO.C,K9*%
X111640000Y-40760000D02*
X112640000Y-40760000D01*
X124640000Y-40760000D02*
X125640000Y-40760000D01*
X125640000Y-40760000D02*
X125640000Y-41760000D01*
X125640000Y-54760000D02*
X124640000Y-54760000D01*
X125640000Y-53760000D02*
X125640000Y-54760000D01*
X112640000Y-54760000D02*
X111640000Y-54760000D01*
X111640000Y-54760000D02*
X111640000Y-53760000D01*
X111640000Y-41760000D02*
X111640000Y-40760000D01*
%TO.C,K7*%
X130700000Y-64540000D02*
X131700000Y-64540000D01*
X143700000Y-64540000D02*
X144700000Y-64540000D01*
X144700000Y-64540000D02*
X144700000Y-65540000D01*
X144700000Y-78540000D02*
X143700000Y-78540000D01*
X144700000Y-77540000D02*
X144700000Y-78540000D01*
X131700000Y-78540000D02*
X130700000Y-78540000D01*
X130700000Y-78540000D02*
X130700000Y-77540000D01*
X130700000Y-65540000D02*
X130700000Y-64540000D01*
%TO.C,K6*%
X130750000Y-45500000D02*
X131750000Y-45500000D01*
X143750000Y-45500000D02*
X144750000Y-45500000D01*
X144750000Y-45500000D02*
X144750000Y-46500000D01*
X144750000Y-59500000D02*
X143750000Y-59500000D01*
X144750000Y-58500000D02*
X144750000Y-59500000D01*
X131750000Y-59500000D02*
X130750000Y-59500000D01*
X130750000Y-59500000D02*
X130750000Y-58500000D01*
X130750000Y-46500000D02*
X130750000Y-45500000D01*
%TO.C,K3*%
X149750000Y-59750000D02*
X150750000Y-59750000D01*
X162750000Y-59750000D02*
X163750000Y-59750000D01*
X163750000Y-59750000D02*
X163750000Y-60750000D01*
X163750000Y-73750000D02*
X162750000Y-73750000D01*
X163750000Y-72750000D02*
X163750000Y-73750000D01*
X150750000Y-73750000D02*
X149750000Y-73750000D01*
X149750000Y-73750000D02*
X149750000Y-72750000D01*
X149750000Y-60750000D02*
X149750000Y-59750000D01*
%TO.C,Brd1*%
X56660000Y-87550000D02*
X66820000Y-87550000D01*
X66820000Y-87550000D02*
X66820000Y-90090000D01*
X66820000Y-90090000D02*
X56660000Y-90090000D01*
X56660000Y-90090000D02*
X56660000Y-87550000D01*
X60892380Y-92912380D02*
X60701904Y-92912380D01*
X60606666Y-92960000D01*
X60511428Y-93055238D01*
X60463809Y-93245714D01*
X60463809Y-93579047D01*
X60511428Y-93769523D01*
X60606666Y-93864761D01*
X60701904Y-93912380D01*
X60892380Y-93912380D01*
X60987619Y-93864761D01*
X61082857Y-93769523D01*
X61130476Y-93579047D01*
X61130476Y-93245714D01*
X61082857Y-93055238D01*
X60987619Y-92960000D01*
X60892380Y-92912380D01*
X59559047Y-93912380D02*
X60035238Y-93912380D01*
X60035238Y-92912380D01*
X59225714Y-93388571D02*
X58892380Y-93388571D01*
X58749523Y-93912380D02*
X59225714Y-93912380D01*
X59225714Y-92912380D01*
X58749523Y-92912380D01*
X58320952Y-93912380D02*
X58320952Y-92912380D01*
X58082857Y-92912380D01*
X57940000Y-92960000D01*
X57844761Y-93055238D01*
X57797142Y-93150476D01*
X57749523Y-93340952D01*
X57749523Y-93483809D01*
X57797142Y-93674285D01*
X57844761Y-93769523D01*
X57940000Y-93864761D01*
X58082857Y-93912380D01*
X58320952Y-93912380D01*
%TO.C,K17*%
X81714285Y-68447380D02*
X81714285Y-67447380D01*
X81142857Y-68447380D02*
X81571428Y-67875952D01*
X81142857Y-67447380D02*
X81714285Y-68018809D01*
X80190476Y-68447380D02*
X80761904Y-68447380D01*
X80476190Y-68447380D02*
X80476190Y-67447380D01*
X80571428Y-67590238D01*
X80666666Y-67685476D01*
X80761904Y-67733095D01*
X79857142Y-67447380D02*
X79190476Y-67447380D01*
X79619047Y-68447380D01*
%TO.C,D38*%
X146534285Y-80172380D02*
X146534285Y-79172380D01*
X146296190Y-79172380D01*
X146153333Y-79220000D01*
X146058095Y-79315238D01*
X146010476Y-79410476D01*
X145962857Y-79600952D01*
X145962857Y-79743809D01*
X146010476Y-79934285D01*
X146058095Y-80029523D01*
X146153333Y-80124761D01*
X146296190Y-80172380D01*
X146534285Y-80172380D01*
X145629523Y-79172380D02*
X145010476Y-79172380D01*
X145343809Y-79553333D01*
X145200952Y-79553333D01*
X145105714Y-79600952D01*
X145058095Y-79648571D01*
X145010476Y-79743809D01*
X145010476Y-79981904D01*
X145058095Y-80077142D01*
X145105714Y-80124761D01*
X145200952Y-80172380D01*
X145486666Y-80172380D01*
X145581904Y-80124761D01*
X145629523Y-80077142D01*
X144439047Y-79600952D02*
X144534285Y-79553333D01*
X144581904Y-79505714D01*
X144629523Y-79410476D01*
X144629523Y-79362857D01*
X144581904Y-79267619D01*
X144534285Y-79220000D01*
X144439047Y-79172380D01*
X144248571Y-79172380D01*
X144153333Y-79220000D01*
X144105714Y-79267619D01*
X144058095Y-79362857D01*
X144058095Y-79410476D01*
X144105714Y-79505714D01*
X144153333Y-79553333D01*
X144248571Y-79600952D01*
X144439047Y-79600952D01*
X144534285Y-79648571D01*
X144581904Y-79696190D01*
X144629523Y-79791428D01*
X144629523Y-79981904D01*
X144581904Y-80077142D01*
X144534285Y-80124761D01*
X144439047Y-80172380D01*
X144248571Y-80172380D01*
X144153333Y-80124761D01*
X144105714Y-80077142D01*
X144058095Y-79981904D01*
X144058095Y-79791428D01*
X144105714Y-79696190D01*
X144153333Y-79648571D01*
X144248571Y-79600952D01*
X148392380Y-89735714D02*
X148392380Y-89164285D01*
X148392380Y-89450000D02*
X147392380Y-89450000D01*
X147535238Y-89354761D01*
X147630476Y-89259523D01*
X147678095Y-89164285D01*
%TO.C,K14*%
X100814285Y-87567380D02*
X100814285Y-86567380D01*
X100242857Y-87567380D02*
X100671428Y-86995952D01*
X100242857Y-86567380D02*
X100814285Y-87138809D01*
X99290476Y-87567380D02*
X99861904Y-87567380D01*
X99576190Y-87567380D02*
X99576190Y-86567380D01*
X99671428Y-86710238D01*
X99766666Y-86805476D01*
X99861904Y-86853095D01*
X98433333Y-86900714D02*
X98433333Y-87567380D01*
X98671428Y-86519761D02*
X98909523Y-87234047D01*
X98290476Y-87234047D01*
%TO.C,D23*%
X62471428Y-113186904D02*
X62471428Y-112386904D01*
X62280952Y-112386904D01*
X62166666Y-112425000D01*
X62090476Y-112501190D01*
X62052380Y-112577380D01*
X62014285Y-112729761D01*
X62014285Y-112844047D01*
X62052380Y-112996428D01*
X62090476Y-113072619D01*
X62166666Y-113148809D01*
X62280952Y-113186904D01*
X62471428Y-113186904D01*
X61709523Y-112463095D02*
X61671428Y-112425000D01*
X61595238Y-112386904D01*
X61404761Y-112386904D01*
X61328571Y-112425000D01*
X61290476Y-112463095D01*
X61252380Y-112539285D01*
X61252380Y-112615476D01*
X61290476Y-112729761D01*
X61747619Y-113186904D01*
X61252380Y-113186904D01*
X60985714Y-112386904D02*
X60490476Y-112386904D01*
X60757142Y-112691666D01*
X60642857Y-112691666D01*
X60566666Y-112729761D01*
X60528571Y-112767857D01*
X60490476Y-112844047D01*
X60490476Y-113034523D01*
X60528571Y-113110714D01*
X60566666Y-113148809D01*
X60642857Y-113186904D01*
X60871428Y-113186904D01*
X60947619Y-113148809D01*
X60985714Y-113110714D01*
%TO.C,D17*%
X81471428Y-79926904D02*
X81471428Y-79126904D01*
X81280952Y-79126904D01*
X81166666Y-79165000D01*
X81090476Y-79241190D01*
X81052380Y-79317380D01*
X81014285Y-79469761D01*
X81014285Y-79584047D01*
X81052380Y-79736428D01*
X81090476Y-79812619D01*
X81166666Y-79888809D01*
X81280952Y-79926904D01*
X81471428Y-79926904D01*
X80252380Y-79926904D02*
X80709523Y-79926904D01*
X80480952Y-79926904D02*
X80480952Y-79126904D01*
X80557142Y-79241190D01*
X80633333Y-79317380D01*
X80709523Y-79355476D01*
X79985714Y-79126904D02*
X79452380Y-79126904D01*
X79795238Y-79926904D01*
%TO.C,D18*%
X81471428Y-99186904D02*
X81471428Y-98386904D01*
X81280952Y-98386904D01*
X81166666Y-98425000D01*
X81090476Y-98501190D01*
X81052380Y-98577380D01*
X81014285Y-98729761D01*
X81014285Y-98844047D01*
X81052380Y-98996428D01*
X81090476Y-99072619D01*
X81166666Y-99148809D01*
X81280952Y-99186904D01*
X81471428Y-99186904D01*
X80252380Y-99186904D02*
X80709523Y-99186904D01*
X80480952Y-99186904D02*
X80480952Y-98386904D01*
X80557142Y-98501190D01*
X80633333Y-98577380D01*
X80709523Y-98615476D01*
X79795238Y-98729761D02*
X79871428Y-98691666D01*
X79909523Y-98653571D01*
X79947619Y-98577380D01*
X79947619Y-98539285D01*
X79909523Y-98463095D01*
X79871428Y-98425000D01*
X79795238Y-98386904D01*
X79642857Y-98386904D01*
X79566666Y-98425000D01*
X79528571Y-98463095D01*
X79490476Y-98539285D01*
X79490476Y-98577380D01*
X79528571Y-98653571D01*
X79566666Y-98691666D01*
X79642857Y-98729761D01*
X79795238Y-98729761D01*
X79871428Y-98767857D01*
X79909523Y-98805952D01*
X79947619Y-98882142D01*
X79947619Y-99034523D01*
X79909523Y-99110714D01*
X79871428Y-99148809D01*
X79795238Y-99186904D01*
X79642857Y-99186904D01*
X79566666Y-99148809D01*
X79528571Y-99110714D01*
X79490476Y-99034523D01*
X79490476Y-98882142D01*
X79528571Y-98805952D01*
X79566666Y-98767857D01*
X79642857Y-98729761D01*
%TO.C,D19*%
X81471428Y-118186904D02*
X81471428Y-117386904D01*
X81280952Y-117386904D01*
X81166666Y-117425000D01*
X81090476Y-117501190D01*
X81052380Y-117577380D01*
X81014285Y-117729761D01*
X81014285Y-117844047D01*
X81052380Y-117996428D01*
X81090476Y-118072619D01*
X81166666Y-118148809D01*
X81280952Y-118186904D01*
X81471428Y-118186904D01*
X80252380Y-118186904D02*
X80709523Y-118186904D01*
X80480952Y-118186904D02*
X80480952Y-117386904D01*
X80557142Y-117501190D01*
X80633333Y-117577380D01*
X80709523Y-117615476D01*
X79871428Y-118186904D02*
X79719047Y-118186904D01*
X79642857Y-118148809D01*
X79604761Y-118110714D01*
X79528571Y-117996428D01*
X79490476Y-117844047D01*
X79490476Y-117539285D01*
X79528571Y-117463095D01*
X79566666Y-117425000D01*
X79642857Y-117386904D01*
X79795238Y-117386904D01*
X79871428Y-117425000D01*
X79909523Y-117463095D01*
X79947619Y-117539285D01*
X79947619Y-117729761D01*
X79909523Y-117805952D01*
X79871428Y-117844047D01*
X79795238Y-117882142D01*
X79642857Y-117882142D01*
X79566666Y-117844047D01*
X79528571Y-117805952D01*
X79490476Y-117729761D01*
%TO.C,D20*%
X81471428Y-136936904D02*
X81471428Y-136136904D01*
X81280952Y-136136904D01*
X81166666Y-136175000D01*
X81090476Y-136251190D01*
X81052380Y-136327380D01*
X81014285Y-136479761D01*
X81014285Y-136594047D01*
X81052380Y-136746428D01*
X81090476Y-136822619D01*
X81166666Y-136898809D01*
X81280952Y-136936904D01*
X81471428Y-136936904D01*
X80709523Y-136213095D02*
X80671428Y-136175000D01*
X80595238Y-136136904D01*
X80404761Y-136136904D01*
X80328571Y-136175000D01*
X80290476Y-136213095D01*
X80252380Y-136289285D01*
X80252380Y-136365476D01*
X80290476Y-136479761D01*
X80747619Y-136936904D01*
X80252380Y-136936904D01*
X79757142Y-136136904D02*
X79680952Y-136136904D01*
X79604761Y-136175000D01*
X79566666Y-136213095D01*
X79528571Y-136289285D01*
X79490476Y-136441666D01*
X79490476Y-136632142D01*
X79528571Y-136784523D01*
X79566666Y-136860714D01*
X79604761Y-136898809D01*
X79680952Y-136936904D01*
X79757142Y-136936904D01*
X79833333Y-136898809D01*
X79871428Y-136860714D01*
X79909523Y-136784523D01*
X79947619Y-136632142D01*
X79947619Y-136441666D01*
X79909523Y-136289285D01*
X79871428Y-136213095D01*
X79833333Y-136175000D01*
X79757142Y-136136904D01*
%TO.C,D13*%
X100471428Y-79936904D02*
X100471428Y-79136904D01*
X100280952Y-79136904D01*
X100166666Y-79175000D01*
X100090476Y-79251190D01*
X100052380Y-79327380D01*
X100014285Y-79479761D01*
X100014285Y-79594047D01*
X100052380Y-79746428D01*
X100090476Y-79822619D01*
X100166666Y-79898809D01*
X100280952Y-79936904D01*
X100471428Y-79936904D01*
X99252380Y-79936904D02*
X99709523Y-79936904D01*
X99480952Y-79936904D02*
X99480952Y-79136904D01*
X99557142Y-79251190D01*
X99633333Y-79327380D01*
X99709523Y-79365476D01*
X98985714Y-79136904D02*
X98490476Y-79136904D01*
X98757142Y-79441666D01*
X98642857Y-79441666D01*
X98566666Y-79479761D01*
X98528571Y-79517857D01*
X98490476Y-79594047D01*
X98490476Y-79784523D01*
X98528571Y-79860714D01*
X98566666Y-79898809D01*
X98642857Y-79936904D01*
X98871428Y-79936904D01*
X98947619Y-79898809D01*
X98985714Y-79860714D01*
%TO.C,D14*%
X100471428Y-99186904D02*
X100471428Y-98386904D01*
X100280952Y-98386904D01*
X100166666Y-98425000D01*
X100090476Y-98501190D01*
X100052380Y-98577380D01*
X100014285Y-98729761D01*
X100014285Y-98844047D01*
X100052380Y-98996428D01*
X100090476Y-99072619D01*
X100166666Y-99148809D01*
X100280952Y-99186904D01*
X100471428Y-99186904D01*
X99252380Y-99186904D02*
X99709523Y-99186904D01*
X99480952Y-99186904D02*
X99480952Y-98386904D01*
X99557142Y-98501190D01*
X99633333Y-98577380D01*
X99709523Y-98615476D01*
X98566666Y-98653571D02*
X98566666Y-99186904D01*
X98757142Y-98348809D02*
X98947619Y-98920238D01*
X98452380Y-98920238D01*
%TO.C,D15*%
X100471428Y-122936904D02*
X100471428Y-122136904D01*
X100280952Y-122136904D01*
X100166666Y-122175000D01*
X100090476Y-122251190D01*
X100052380Y-122327380D01*
X100014285Y-122479761D01*
X100014285Y-122594047D01*
X100052380Y-122746428D01*
X100090476Y-122822619D01*
X100166666Y-122898809D01*
X100280952Y-122936904D01*
X100471428Y-122936904D01*
X99252380Y-122936904D02*
X99709523Y-122936904D01*
X99480952Y-122936904D02*
X99480952Y-122136904D01*
X99557142Y-122251190D01*
X99633333Y-122327380D01*
X99709523Y-122365476D01*
X98528571Y-122136904D02*
X98909523Y-122136904D01*
X98947619Y-122517857D01*
X98909523Y-122479761D01*
X98833333Y-122441666D01*
X98642857Y-122441666D01*
X98566666Y-122479761D01*
X98528571Y-122517857D01*
X98490476Y-122594047D01*
X98490476Y-122784523D01*
X98528571Y-122860714D01*
X98566666Y-122898809D01*
X98642857Y-122936904D01*
X98833333Y-122936904D01*
X98909523Y-122898809D01*
X98947619Y-122860714D01*
%TO.C,D10*%
X119731428Y-70666904D02*
X119731428Y-69866904D01*
X119540952Y-69866904D01*
X119426666Y-69905000D01*
X119350476Y-69981190D01*
X119312380Y-70057380D01*
X119274285Y-70209761D01*
X119274285Y-70324047D01*
X119312380Y-70476428D01*
X119350476Y-70552619D01*
X119426666Y-70628809D01*
X119540952Y-70666904D01*
X119731428Y-70666904D01*
X118512380Y-70666904D02*
X118969523Y-70666904D01*
X118740952Y-70666904D02*
X118740952Y-69866904D01*
X118817142Y-69981190D01*
X118893333Y-70057380D01*
X118969523Y-70095476D01*
X118017142Y-69866904D02*
X117940952Y-69866904D01*
X117864761Y-69905000D01*
X117826666Y-69943095D01*
X117788571Y-70019285D01*
X117750476Y-70171666D01*
X117750476Y-70362142D01*
X117788571Y-70514523D01*
X117826666Y-70590714D01*
X117864761Y-70628809D01*
X117940952Y-70666904D01*
X118017142Y-70666904D01*
X118093333Y-70628809D01*
X118131428Y-70590714D01*
X118169523Y-70514523D01*
X118207619Y-70362142D01*
X118207619Y-70171666D01*
X118169523Y-70019285D01*
X118131428Y-69943095D01*
X118093333Y-69905000D01*
X118017142Y-69866904D01*
%TO.C,D11*%
X119721428Y-89686904D02*
X119721428Y-88886904D01*
X119530952Y-88886904D01*
X119416666Y-88925000D01*
X119340476Y-89001190D01*
X119302380Y-89077380D01*
X119264285Y-89229761D01*
X119264285Y-89344047D01*
X119302380Y-89496428D01*
X119340476Y-89572619D01*
X119416666Y-89648809D01*
X119530952Y-89686904D01*
X119721428Y-89686904D01*
X118502380Y-89686904D02*
X118959523Y-89686904D01*
X118730952Y-89686904D02*
X118730952Y-88886904D01*
X118807142Y-89001190D01*
X118883333Y-89077380D01*
X118959523Y-89115476D01*
X117740476Y-89686904D02*
X118197619Y-89686904D01*
X117969047Y-89686904D02*
X117969047Y-88886904D01*
X118045238Y-89001190D01*
X118121428Y-89077380D01*
X118197619Y-89115476D01*
%TO.C,D8*%
X138340476Y-94436904D02*
X138340476Y-93636904D01*
X138150000Y-93636904D01*
X138035714Y-93675000D01*
X137959523Y-93751190D01*
X137921428Y-93827380D01*
X137883333Y-93979761D01*
X137883333Y-94094047D01*
X137921428Y-94246428D01*
X137959523Y-94322619D01*
X138035714Y-94398809D01*
X138150000Y-94436904D01*
X138340476Y-94436904D01*
X137426190Y-93979761D02*
X137502380Y-93941666D01*
X137540476Y-93903571D01*
X137578571Y-93827380D01*
X137578571Y-93789285D01*
X137540476Y-93713095D01*
X137502380Y-93675000D01*
X137426190Y-93636904D01*
X137273809Y-93636904D01*
X137197619Y-93675000D01*
X137159523Y-93713095D01*
X137121428Y-93789285D01*
X137121428Y-93827380D01*
X137159523Y-93903571D01*
X137197619Y-93941666D01*
X137273809Y-93979761D01*
X137426190Y-93979761D01*
X137502380Y-94017857D01*
X137540476Y-94055952D01*
X137578571Y-94132142D01*
X137578571Y-94284523D01*
X137540476Y-94360714D01*
X137502380Y-94398809D01*
X137426190Y-94436904D01*
X137273809Y-94436904D01*
X137197619Y-94398809D01*
X137159523Y-94360714D01*
X137121428Y-94284523D01*
X137121428Y-94132142D01*
X137159523Y-94055952D01*
X137197619Y-94017857D01*
X137273809Y-93979761D01*
%TO.C,D7*%
X138350476Y-75446904D02*
X138350476Y-74646904D01*
X138160000Y-74646904D01*
X138045714Y-74685000D01*
X137969523Y-74761190D01*
X137931428Y-74837380D01*
X137893333Y-74989761D01*
X137893333Y-75104047D01*
X137931428Y-75256428D01*
X137969523Y-75332619D01*
X138045714Y-75408809D01*
X138160000Y-75446904D01*
X138350476Y-75446904D01*
X137626666Y-74646904D02*
X137093333Y-74646904D01*
X137436190Y-75446904D01*
%TO.C,D4*%
X157330476Y-89686904D02*
X157330476Y-88886904D01*
X157140000Y-88886904D01*
X157025714Y-88925000D01*
X156949523Y-89001190D01*
X156911428Y-89077380D01*
X156873333Y-89229761D01*
X156873333Y-89344047D01*
X156911428Y-89496428D01*
X156949523Y-89572619D01*
X157025714Y-89648809D01*
X157140000Y-89686904D01*
X157330476Y-89686904D01*
X156187619Y-89153571D02*
X156187619Y-89686904D01*
X156378095Y-88848809D02*
X156568571Y-89420238D01*
X156073333Y-89420238D01*
%TO.C,D5*%
X157340476Y-108426904D02*
X157340476Y-107626904D01*
X157150000Y-107626904D01*
X157035714Y-107665000D01*
X156959523Y-107741190D01*
X156921428Y-107817380D01*
X156883333Y-107969761D01*
X156883333Y-108084047D01*
X156921428Y-108236428D01*
X156959523Y-108312619D01*
X157035714Y-108388809D01*
X157150000Y-108426904D01*
X157340476Y-108426904D01*
X156159523Y-107626904D02*
X156540476Y-107626904D01*
X156578571Y-108007857D01*
X156540476Y-107969761D01*
X156464285Y-107931666D01*
X156273809Y-107931666D01*
X156197619Y-107969761D01*
X156159523Y-108007857D01*
X156121428Y-108084047D01*
X156121428Y-108274523D01*
X156159523Y-108350714D01*
X156197619Y-108388809D01*
X156273809Y-108426904D01*
X156464285Y-108426904D01*
X156540476Y-108388809D01*
X156578571Y-108350714D01*
%TO.C,D3*%
X157340476Y-70436904D02*
X157340476Y-69636904D01*
X157150000Y-69636904D01*
X157035714Y-69675000D01*
X156959523Y-69751190D01*
X156921428Y-69827380D01*
X156883333Y-69979761D01*
X156883333Y-70094047D01*
X156921428Y-70246428D01*
X156959523Y-70322619D01*
X157035714Y-70398809D01*
X157150000Y-70436904D01*
X157340476Y-70436904D01*
X156616666Y-69636904D02*
X156121428Y-69636904D01*
X156388095Y-69941666D01*
X156273809Y-69941666D01*
X156197619Y-69979761D01*
X156159523Y-70017857D01*
X156121428Y-70094047D01*
X156121428Y-70284523D01*
X156159523Y-70360714D01*
X156197619Y-70398809D01*
X156273809Y-70436904D01*
X156502380Y-70436904D01*
X156578571Y-70398809D01*
X156616666Y-70360714D01*
%TO.C,D6*%
X138340476Y-56436904D02*
X138340476Y-55636904D01*
X138150000Y-55636904D01*
X138035714Y-55675000D01*
X137959523Y-55751190D01*
X137921428Y-55827380D01*
X137883333Y-55979761D01*
X137883333Y-56094047D01*
X137921428Y-56246428D01*
X137959523Y-56322619D01*
X138035714Y-56398809D01*
X138150000Y-56436904D01*
X138340476Y-56436904D01*
X137197619Y-55636904D02*
X137350000Y-55636904D01*
X137426190Y-55675000D01*
X137464285Y-55713095D01*
X137540476Y-55827380D01*
X137578571Y-55979761D01*
X137578571Y-56284523D01*
X137540476Y-56360714D01*
X137502380Y-56398809D01*
X137426190Y-56436904D01*
X137273809Y-56436904D01*
X137197619Y-56398809D01*
X137159523Y-56360714D01*
X137121428Y-56284523D01*
X137121428Y-56094047D01*
X137159523Y-56017857D01*
X137197619Y-55979761D01*
X137273809Y-55941666D01*
X137426190Y-55941666D01*
X137502380Y-55979761D01*
X137540476Y-56017857D01*
X137578571Y-56094047D01*
%TO.C,D9*%
X119340476Y-51436904D02*
X119340476Y-50636904D01*
X119150000Y-50636904D01*
X119035714Y-50675000D01*
X118959523Y-50751190D01*
X118921428Y-50827380D01*
X118883333Y-50979761D01*
X118883333Y-51094047D01*
X118921428Y-51246428D01*
X118959523Y-51322619D01*
X119035714Y-51398809D01*
X119150000Y-51436904D01*
X119340476Y-51436904D01*
X118502380Y-51436904D02*
X118350000Y-51436904D01*
X118273809Y-51398809D01*
X118235714Y-51360714D01*
X118159523Y-51246428D01*
X118121428Y-51094047D01*
X118121428Y-50789285D01*
X118159523Y-50713095D01*
X118197619Y-50675000D01*
X118273809Y-50636904D01*
X118426190Y-50636904D01*
X118502380Y-50675000D01*
X118540476Y-50713095D01*
X118578571Y-50789285D01*
X118578571Y-50979761D01*
X118540476Y-51055952D01*
X118502380Y-51094047D01*
X118426190Y-51132142D01*
X118273809Y-51132142D01*
X118197619Y-51094047D01*
X118159523Y-51055952D01*
X118121428Y-50979761D01*
%TO.C,D12*%
X100471428Y-60936904D02*
X100471428Y-60136904D01*
X100280952Y-60136904D01*
X100166666Y-60175000D01*
X100090476Y-60251190D01*
X100052380Y-60327380D01*
X100014285Y-60479761D01*
X100014285Y-60594047D01*
X100052380Y-60746428D01*
X100090476Y-60822619D01*
X100166666Y-60898809D01*
X100280952Y-60936904D01*
X100471428Y-60936904D01*
X99252380Y-60936904D02*
X99709523Y-60936904D01*
X99480952Y-60936904D02*
X99480952Y-60136904D01*
X99557142Y-60251190D01*
X99633333Y-60327380D01*
X99709523Y-60365476D01*
X98947619Y-60213095D02*
X98909523Y-60175000D01*
X98833333Y-60136904D01*
X98642857Y-60136904D01*
X98566666Y-60175000D01*
X98528571Y-60213095D01*
X98490476Y-60289285D01*
X98490476Y-60365476D01*
X98528571Y-60479761D01*
X98985714Y-60936904D01*
X98490476Y-60936904D01*
%TO.C,D16*%
X81471428Y-60946904D02*
X81471428Y-60146904D01*
X81280952Y-60146904D01*
X81166666Y-60185000D01*
X81090476Y-60261190D01*
X81052380Y-60337380D01*
X81014285Y-60489761D01*
X81014285Y-60604047D01*
X81052380Y-60756428D01*
X81090476Y-60832619D01*
X81166666Y-60908809D01*
X81280952Y-60946904D01*
X81471428Y-60946904D01*
X80252380Y-60946904D02*
X80709523Y-60946904D01*
X80480952Y-60946904D02*
X80480952Y-60146904D01*
X80557142Y-60261190D01*
X80633333Y-60337380D01*
X80709523Y-60375476D01*
X79566666Y-60146904D02*
X79719047Y-60146904D01*
X79795238Y-60185000D01*
X79833333Y-60223095D01*
X79909523Y-60337380D01*
X79947619Y-60489761D01*
X79947619Y-60794523D01*
X79909523Y-60870714D01*
X79871428Y-60908809D01*
X79795238Y-60946904D01*
X79642857Y-60946904D01*
X79566666Y-60908809D01*
X79528571Y-60870714D01*
X79490476Y-60794523D01*
X79490476Y-60604047D01*
X79528571Y-60527857D01*
X79566666Y-60489761D01*
X79642857Y-60451666D01*
X79795238Y-60451666D01*
X79871428Y-60489761D01*
X79909523Y-60527857D01*
X79947619Y-60604047D01*
%TO.C,K5*%
X157498095Y-97077380D02*
X157498095Y-96077380D01*
X156926666Y-97077380D02*
X157355238Y-96505952D01*
X156926666Y-96077380D02*
X157498095Y-96648809D01*
X156021904Y-96077380D02*
X156498095Y-96077380D01*
X156545714Y-96553571D01*
X156498095Y-96505952D01*
X156402857Y-96458333D01*
X156164761Y-96458333D01*
X156069523Y-96505952D01*
X156021904Y-96553571D01*
X155974285Y-96648809D01*
X155974285Y-96886904D01*
X156021904Y-96982142D01*
X156069523Y-97029761D01*
X156164761Y-97077380D01*
X156402857Y-97077380D01*
X156498095Y-97029761D01*
X156545714Y-96982142D01*
%TO.C,K8*%
X138428095Y-82807380D02*
X138428095Y-81807380D01*
X137856666Y-82807380D02*
X138285238Y-82235952D01*
X137856666Y-81807380D02*
X138428095Y-82378809D01*
X137285238Y-82235952D02*
X137380476Y-82188333D01*
X137428095Y-82140714D01*
X137475714Y-82045476D01*
X137475714Y-81997857D01*
X137428095Y-81902619D01*
X137380476Y-81855000D01*
X137285238Y-81807380D01*
X137094761Y-81807380D01*
X136999523Y-81855000D01*
X136951904Y-81902619D01*
X136904285Y-81997857D01*
X136904285Y-82045476D01*
X136951904Y-82140714D01*
X136999523Y-82188333D01*
X137094761Y-82235952D01*
X137285238Y-82235952D01*
X137380476Y-82283571D01*
X137428095Y-82331190D01*
X137475714Y-82426428D01*
X137475714Y-82616904D01*
X137428095Y-82712142D01*
X137380476Y-82759761D01*
X137285238Y-82807380D01*
X137094761Y-82807380D01*
X136999523Y-82759761D01*
X136951904Y-82712142D01*
X136904285Y-82616904D01*
X136904285Y-82426428D01*
X136951904Y-82331190D01*
X136999523Y-82283571D01*
X137094761Y-82235952D01*
%TO.C,D39*%
X128204285Y-49762380D02*
X128204285Y-48762380D01*
X127966190Y-48762380D01*
X127823333Y-48810000D01*
X127728095Y-48905238D01*
X127680476Y-49000476D01*
X127632857Y-49190952D01*
X127632857Y-49333809D01*
X127680476Y-49524285D01*
X127728095Y-49619523D01*
X127823333Y-49714761D01*
X127966190Y-49762380D01*
X128204285Y-49762380D01*
X127299523Y-48762380D02*
X126680476Y-48762380D01*
X127013809Y-49143333D01*
X126870952Y-49143333D01*
X126775714Y-49190952D01*
X126728095Y-49238571D01*
X126680476Y-49333809D01*
X126680476Y-49571904D01*
X126728095Y-49667142D01*
X126775714Y-49714761D01*
X126870952Y-49762380D01*
X127156666Y-49762380D01*
X127251904Y-49714761D01*
X127299523Y-49667142D01*
X126204285Y-49762380D02*
X126013809Y-49762380D01*
X125918571Y-49714761D01*
X125870952Y-49667142D01*
X125775714Y-49524285D01*
X125728095Y-49333809D01*
X125728095Y-48952857D01*
X125775714Y-48857619D01*
X125823333Y-48810000D01*
X125918571Y-48762380D01*
X126109047Y-48762380D01*
X126204285Y-48810000D01*
X126251904Y-48857619D01*
X126299523Y-48952857D01*
X126299523Y-49190952D01*
X126251904Y-49286190D01*
X126204285Y-49333809D01*
X126109047Y-49381428D01*
X125918571Y-49381428D01*
X125823333Y-49333809D01*
X125775714Y-49286190D01*
X125728095Y-49190952D01*
X128822380Y-58105714D02*
X128822380Y-57534285D01*
X128822380Y-57820000D02*
X127822380Y-57820000D01*
X127965238Y-57724761D01*
X128060476Y-57629523D01*
X128108095Y-57534285D01*
%TO.C,D37*%
X95804285Y-105442380D02*
X95804285Y-104442380D01*
X95566190Y-104442380D01*
X95423333Y-104490000D01*
X95328095Y-104585238D01*
X95280476Y-104680476D01*
X95232857Y-104870952D01*
X95232857Y-105013809D01*
X95280476Y-105204285D01*
X95328095Y-105299523D01*
X95423333Y-105394761D01*
X95566190Y-105442380D01*
X95804285Y-105442380D01*
X94899523Y-104442380D02*
X94280476Y-104442380D01*
X94613809Y-104823333D01*
X94470952Y-104823333D01*
X94375714Y-104870952D01*
X94328095Y-104918571D01*
X94280476Y-105013809D01*
X94280476Y-105251904D01*
X94328095Y-105347142D01*
X94375714Y-105394761D01*
X94470952Y-105442380D01*
X94756666Y-105442380D01*
X94851904Y-105394761D01*
X94899523Y-105347142D01*
X93947142Y-104442380D02*
X93280476Y-104442380D01*
X93709047Y-105442380D01*
X85974285Y-110402380D02*
X86545714Y-110402380D01*
X86260000Y-110402380D02*
X86260000Y-109402380D01*
X86355238Y-109545238D01*
X86450476Y-109640476D01*
X86545714Y-109688095D01*
%TO.C,D36*%
X64654285Y-96192380D02*
X64654285Y-95192380D01*
X64416190Y-95192380D01*
X64273333Y-95240000D01*
X64178095Y-95335238D01*
X64130476Y-95430476D01*
X64082857Y-95620952D01*
X64082857Y-95763809D01*
X64130476Y-95954285D01*
X64178095Y-96049523D01*
X64273333Y-96144761D01*
X64416190Y-96192380D01*
X64654285Y-96192380D01*
X63749523Y-95192380D02*
X63130476Y-95192380D01*
X63463809Y-95573333D01*
X63320952Y-95573333D01*
X63225714Y-95620952D01*
X63178095Y-95668571D01*
X63130476Y-95763809D01*
X63130476Y-96001904D01*
X63178095Y-96097142D01*
X63225714Y-96144761D01*
X63320952Y-96192380D01*
X63606666Y-96192380D01*
X63701904Y-96144761D01*
X63749523Y-96097142D01*
X62273333Y-95192380D02*
X62463809Y-95192380D01*
X62559047Y-95240000D01*
X62606666Y-95287619D01*
X62701904Y-95430476D01*
X62749523Y-95620952D01*
X62749523Y-96001904D01*
X62701904Y-96097142D01*
X62654285Y-96144761D01*
X62559047Y-96192380D01*
X62368571Y-96192380D01*
X62273333Y-96144761D01*
X62225714Y-96097142D01*
X62178095Y-96001904D01*
X62178095Y-95763809D01*
X62225714Y-95668571D01*
X62273333Y-95620952D01*
X62368571Y-95573333D01*
X62559047Y-95573333D01*
X62654285Y-95620952D01*
X62701904Y-95668571D01*
X62749523Y-95763809D01*
X70244285Y-98142380D02*
X70815714Y-98142380D01*
X70530000Y-98142380D02*
X70530000Y-97142380D01*
X70625238Y-97285238D01*
X70720476Y-97380476D01*
X70815714Y-97428095D01*
%TO.C,D35*%
X93532380Y-58335714D02*
X92532380Y-58335714D01*
X92532380Y-58573809D01*
X92580000Y-58716666D01*
X92675238Y-58811904D01*
X92770476Y-58859523D01*
X92960952Y-58907142D01*
X93103809Y-58907142D01*
X93294285Y-58859523D01*
X93389523Y-58811904D01*
X93484761Y-58716666D01*
X93532380Y-58573809D01*
X93532380Y-58335714D01*
X92532380Y-59240476D02*
X92532380Y-59859523D01*
X92913333Y-59526190D01*
X92913333Y-59669047D01*
X92960952Y-59764285D01*
X93008571Y-59811904D01*
X93103809Y-59859523D01*
X93341904Y-59859523D01*
X93437142Y-59811904D01*
X93484761Y-59764285D01*
X93532380Y-59669047D01*
X93532380Y-59383333D01*
X93484761Y-59288095D01*
X93437142Y-59240476D01*
X92532380Y-60764285D02*
X92532380Y-60288095D01*
X93008571Y-60240476D01*
X92960952Y-60288095D01*
X92913333Y-60383333D01*
X92913333Y-60621428D01*
X92960952Y-60716666D01*
X93008571Y-60764285D01*
X93103809Y-60811904D01*
X93341904Y-60811904D01*
X93437142Y-60764285D01*
X93484761Y-60716666D01*
X93532380Y-60621428D01*
X93532380Y-60383333D01*
X93484761Y-60288095D01*
X93437142Y-60240476D01*
X91632380Y-63985714D02*
X91632380Y-63414285D01*
X91632380Y-63700000D02*
X90632380Y-63700000D01*
X90775238Y-63604761D01*
X90870476Y-63509523D01*
X90918095Y-63414285D01*
%TO.C,K4*%
X157498095Y-78037380D02*
X157498095Y-77037380D01*
X156926666Y-78037380D02*
X157355238Y-77465952D01*
X156926666Y-77037380D02*
X157498095Y-77608809D01*
X156069523Y-77370714D02*
X156069523Y-78037380D01*
X156307619Y-76989761D02*
X156545714Y-77704047D01*
X155926666Y-77704047D01*
%TO.C,K23*%
X59454285Y-101982380D02*
X59454285Y-100982380D01*
X58882857Y-101982380D02*
X59311428Y-101410952D01*
X58882857Y-100982380D02*
X59454285Y-101553809D01*
X58501904Y-101077619D02*
X58454285Y-101030000D01*
X58359047Y-100982380D01*
X58120952Y-100982380D01*
X58025714Y-101030000D01*
X57978095Y-101077619D01*
X57930476Y-101172857D01*
X57930476Y-101268095D01*
X57978095Y-101410952D01*
X58549523Y-101982380D01*
X57930476Y-101982380D01*
X57597142Y-100982380D02*
X56978095Y-100982380D01*
X57311428Y-101363333D01*
X57168571Y-101363333D01*
X57073333Y-101410952D01*
X57025714Y-101458571D01*
X56978095Y-101553809D01*
X56978095Y-101791904D01*
X57025714Y-101887142D01*
X57073333Y-101934761D01*
X57168571Y-101982380D01*
X57454285Y-101982380D01*
X57549523Y-101934761D01*
X57597142Y-101887142D01*
%TO.C,K20*%
X81764285Y-125647380D02*
X81764285Y-124647380D01*
X81192857Y-125647380D02*
X81621428Y-125075952D01*
X81192857Y-124647380D02*
X81764285Y-125218809D01*
X80811904Y-124742619D02*
X80764285Y-124695000D01*
X80669047Y-124647380D01*
X80430952Y-124647380D01*
X80335714Y-124695000D01*
X80288095Y-124742619D01*
X80240476Y-124837857D01*
X80240476Y-124933095D01*
X80288095Y-125075952D01*
X80859523Y-125647380D01*
X80240476Y-125647380D01*
X79621428Y-124647380D02*
X79526190Y-124647380D01*
X79430952Y-124695000D01*
X79383333Y-124742619D01*
X79335714Y-124837857D01*
X79288095Y-125028333D01*
X79288095Y-125266428D01*
X79335714Y-125456904D01*
X79383333Y-125552142D01*
X79430952Y-125599761D01*
X79526190Y-125647380D01*
X79621428Y-125647380D01*
X79716666Y-125599761D01*
X79764285Y-125552142D01*
X79811904Y-125456904D01*
X79859523Y-125266428D01*
X79859523Y-125028333D01*
X79811904Y-124837857D01*
X79764285Y-124742619D01*
X79716666Y-124695000D01*
X79621428Y-124647380D01*
%TO.C,K19*%
X81764285Y-106617380D02*
X81764285Y-105617380D01*
X81192857Y-106617380D02*
X81621428Y-106045952D01*
X81192857Y-105617380D02*
X81764285Y-106188809D01*
X80240476Y-106617380D02*
X80811904Y-106617380D01*
X80526190Y-106617380D02*
X80526190Y-105617380D01*
X80621428Y-105760238D01*
X80716666Y-105855476D01*
X80811904Y-105903095D01*
X79764285Y-106617380D02*
X79573809Y-106617380D01*
X79478571Y-106569761D01*
X79430952Y-106522142D01*
X79335714Y-106379285D01*
X79288095Y-106188809D01*
X79288095Y-105807857D01*
X79335714Y-105712619D01*
X79383333Y-105665000D01*
X79478571Y-105617380D01*
X79669047Y-105617380D01*
X79764285Y-105665000D01*
X79811904Y-105712619D01*
X79859523Y-105807857D01*
X79859523Y-106045952D01*
X79811904Y-106141190D01*
X79764285Y-106188809D01*
X79669047Y-106236428D01*
X79478571Y-106236428D01*
X79383333Y-106188809D01*
X79335714Y-106141190D01*
X79288095Y-106045952D01*
%TO.C,K18*%
X81754285Y-87577380D02*
X81754285Y-86577380D01*
X81182857Y-87577380D02*
X81611428Y-87005952D01*
X81182857Y-86577380D02*
X81754285Y-87148809D01*
X80230476Y-87577380D02*
X80801904Y-87577380D01*
X80516190Y-87577380D02*
X80516190Y-86577380D01*
X80611428Y-86720238D01*
X80706666Y-86815476D01*
X80801904Y-86863095D01*
X79659047Y-87005952D02*
X79754285Y-86958333D01*
X79801904Y-86910714D01*
X79849523Y-86815476D01*
X79849523Y-86767857D01*
X79801904Y-86672619D01*
X79754285Y-86625000D01*
X79659047Y-86577380D01*
X79468571Y-86577380D01*
X79373333Y-86625000D01*
X79325714Y-86672619D01*
X79278095Y-86767857D01*
X79278095Y-86815476D01*
X79325714Y-86910714D01*
X79373333Y-86958333D01*
X79468571Y-87005952D01*
X79659047Y-87005952D01*
X79754285Y-87053571D01*
X79801904Y-87101190D01*
X79849523Y-87196428D01*
X79849523Y-87386904D01*
X79801904Y-87482142D01*
X79754285Y-87529761D01*
X79659047Y-87577380D01*
X79468571Y-87577380D01*
X79373333Y-87529761D01*
X79325714Y-87482142D01*
X79278095Y-87386904D01*
X79278095Y-87196428D01*
X79325714Y-87101190D01*
X79373333Y-87053571D01*
X79468571Y-87005952D01*
%TO.C,K16*%
X76264285Y-51442380D02*
X76264285Y-50442380D01*
X75692857Y-51442380D02*
X76121428Y-50870952D01*
X75692857Y-50442380D02*
X76264285Y-51013809D01*
X74740476Y-51442380D02*
X75311904Y-51442380D01*
X75026190Y-51442380D02*
X75026190Y-50442380D01*
X75121428Y-50585238D01*
X75216666Y-50680476D01*
X75311904Y-50728095D01*
X73883333Y-50442380D02*
X74073809Y-50442380D01*
X74169047Y-50490000D01*
X74216666Y-50537619D01*
X74311904Y-50680476D01*
X74359523Y-50870952D01*
X74359523Y-51251904D01*
X74311904Y-51347142D01*
X74264285Y-51394761D01*
X74169047Y-51442380D01*
X73978571Y-51442380D01*
X73883333Y-51394761D01*
X73835714Y-51347142D01*
X73788095Y-51251904D01*
X73788095Y-51013809D01*
X73835714Y-50918571D01*
X73883333Y-50870952D01*
X73978571Y-50823333D01*
X74169047Y-50823333D01*
X74264285Y-50870952D01*
X74311904Y-50918571D01*
X74359523Y-51013809D01*
%TO.C,K15*%
X100834285Y-111347380D02*
X100834285Y-110347380D01*
X100262857Y-111347380D02*
X100691428Y-110775952D01*
X100262857Y-110347380D02*
X100834285Y-110918809D01*
X99310476Y-111347380D02*
X99881904Y-111347380D01*
X99596190Y-111347380D02*
X99596190Y-110347380D01*
X99691428Y-110490238D01*
X99786666Y-110585476D01*
X99881904Y-110633095D01*
X98405714Y-110347380D02*
X98881904Y-110347380D01*
X98929523Y-110823571D01*
X98881904Y-110775952D01*
X98786666Y-110728333D01*
X98548571Y-110728333D01*
X98453333Y-110775952D01*
X98405714Y-110823571D01*
X98358095Y-110918809D01*
X98358095Y-111156904D01*
X98405714Y-111252142D01*
X98453333Y-111299761D01*
X98548571Y-111347380D01*
X98786666Y-111347380D01*
X98881904Y-111299761D01*
X98929523Y-111252142D01*
%TO.C,K13*%
X100804285Y-68517380D02*
X100804285Y-67517380D01*
X100232857Y-68517380D02*
X100661428Y-67945952D01*
X100232857Y-67517380D02*
X100804285Y-68088809D01*
X99280476Y-68517380D02*
X99851904Y-68517380D01*
X99566190Y-68517380D02*
X99566190Y-67517380D01*
X99661428Y-67660238D01*
X99756666Y-67755476D01*
X99851904Y-67803095D01*
X98947142Y-67517380D02*
X98328095Y-67517380D01*
X98661428Y-67898333D01*
X98518571Y-67898333D01*
X98423333Y-67945952D01*
X98375714Y-67993571D01*
X98328095Y-68088809D01*
X98328095Y-68326904D01*
X98375714Y-68422142D01*
X98423333Y-68469761D01*
X98518571Y-68517380D01*
X98804285Y-68517380D01*
X98899523Y-68469761D01*
X98947142Y-68422142D01*
%TO.C,K12*%
X95274285Y-51432380D02*
X95274285Y-50432380D01*
X94702857Y-51432380D02*
X95131428Y-50860952D01*
X94702857Y-50432380D02*
X95274285Y-51003809D01*
X93750476Y-51432380D02*
X94321904Y-51432380D01*
X94036190Y-51432380D02*
X94036190Y-50432380D01*
X94131428Y-50575238D01*
X94226666Y-50670476D01*
X94321904Y-50718095D01*
X93369523Y-50527619D02*
X93321904Y-50480000D01*
X93226666Y-50432380D01*
X92988571Y-50432380D01*
X92893333Y-50480000D01*
X92845714Y-50527619D01*
X92798095Y-50622857D01*
X92798095Y-50718095D01*
X92845714Y-50860952D01*
X93417142Y-51432380D01*
X92798095Y-51432380D01*
%TO.C,K11*%
X119874285Y-78027380D02*
X119874285Y-77027380D01*
X119302857Y-78027380D02*
X119731428Y-77455952D01*
X119302857Y-77027380D02*
X119874285Y-77598809D01*
X118350476Y-78027380D02*
X118921904Y-78027380D01*
X118636190Y-78027380D02*
X118636190Y-77027380D01*
X118731428Y-77170238D01*
X118826666Y-77265476D01*
X118921904Y-77313095D01*
X117398095Y-78027380D02*
X117969523Y-78027380D01*
X117683809Y-78027380D02*
X117683809Y-77027380D01*
X117779047Y-77170238D01*
X117874285Y-77265476D01*
X117969523Y-77313095D01*
%TO.C,K10*%
X119864285Y-59007380D02*
X119864285Y-58007380D01*
X119292857Y-59007380D02*
X119721428Y-58435952D01*
X119292857Y-58007380D02*
X119864285Y-58578809D01*
X118340476Y-59007380D02*
X118911904Y-59007380D01*
X118626190Y-59007380D02*
X118626190Y-58007380D01*
X118721428Y-58150238D01*
X118816666Y-58245476D01*
X118911904Y-58293095D01*
X117721428Y-58007380D02*
X117626190Y-58007380D01*
X117530952Y-58055000D01*
X117483333Y-58102619D01*
X117435714Y-58197857D01*
X117388095Y-58388333D01*
X117388095Y-58626428D01*
X117435714Y-58816904D01*
X117483333Y-58912142D01*
X117530952Y-58959761D01*
X117626190Y-59007380D01*
X117721428Y-59007380D01*
X117816666Y-58959761D01*
X117864285Y-58912142D01*
X117911904Y-58816904D01*
X117959523Y-58626428D01*
X117959523Y-58388333D01*
X117911904Y-58197857D01*
X117864285Y-58102619D01*
X117816666Y-58055000D01*
X117721428Y-58007380D01*
%TO.C,K9*%
X119378095Y-39957380D02*
X119378095Y-38957380D01*
X118806666Y-39957380D02*
X119235238Y-39385952D01*
X118806666Y-38957380D02*
X119378095Y-39528809D01*
X118330476Y-39957380D02*
X118140000Y-39957380D01*
X118044761Y-39909761D01*
X117997142Y-39862142D01*
X117901904Y-39719285D01*
X117854285Y-39528809D01*
X117854285Y-39147857D01*
X117901904Y-39052619D01*
X117949523Y-39005000D01*
X118044761Y-38957380D01*
X118235238Y-38957380D01*
X118330476Y-39005000D01*
X118378095Y-39052619D01*
X118425714Y-39147857D01*
X118425714Y-39385952D01*
X118378095Y-39481190D01*
X118330476Y-39528809D01*
X118235238Y-39576428D01*
X118044761Y-39576428D01*
X117949523Y-39528809D01*
X117901904Y-39481190D01*
X117854285Y-39385952D01*
%TO.C,K7*%
X138438095Y-63737380D02*
X138438095Y-62737380D01*
X137866666Y-63737380D02*
X138295238Y-63165952D01*
X137866666Y-62737380D02*
X138438095Y-63308809D01*
X137533333Y-62737380D02*
X136866666Y-62737380D01*
X137295238Y-63737380D01*
%TO.C,K6*%
X138488095Y-44697380D02*
X138488095Y-43697380D01*
X137916666Y-44697380D02*
X138345238Y-44125952D01*
X137916666Y-43697380D02*
X138488095Y-44268809D01*
X137059523Y-43697380D02*
X137250000Y-43697380D01*
X137345238Y-43745000D01*
X137392857Y-43792619D01*
X137488095Y-43935476D01*
X137535714Y-44125952D01*
X137535714Y-44506904D01*
X137488095Y-44602142D01*
X137440476Y-44649761D01*
X137345238Y-44697380D01*
X137154761Y-44697380D01*
X137059523Y-44649761D01*
X137011904Y-44602142D01*
X136964285Y-44506904D01*
X136964285Y-44268809D01*
X137011904Y-44173571D01*
X137059523Y-44125952D01*
X137154761Y-44078333D01*
X137345238Y-44078333D01*
X137440476Y-44125952D01*
X137488095Y-44173571D01*
X137535714Y-44268809D01*
%TO.C,K3*%
X157488095Y-58947380D02*
X157488095Y-57947380D01*
X156916666Y-58947380D02*
X157345238Y-58375952D01*
X156916666Y-57947380D02*
X157488095Y-58518809D01*
X156583333Y-57947380D02*
X155964285Y-57947380D01*
X156297619Y-58328333D01*
X156154761Y-58328333D01*
X156059523Y-58375952D01*
X156011904Y-58423571D01*
X155964285Y-58518809D01*
X155964285Y-58756904D01*
X156011904Y-58852142D01*
X156059523Y-58899761D01*
X156154761Y-58947380D01*
X156440476Y-58947380D01*
X156535714Y-58899761D01*
X156583333Y-58852142D01*
%TO.C,Brd1*%
X63132380Y-86172380D02*
X62941904Y-86172380D01*
X62846666Y-86220000D01*
X62751428Y-86315238D01*
X62703809Y-86505714D01*
X62703809Y-86839047D01*
X62751428Y-87029523D01*
X62846666Y-87124761D01*
X62941904Y-87172380D01*
X63132380Y-87172380D01*
X63227619Y-87124761D01*
X63322857Y-87029523D01*
X63370476Y-86839047D01*
X63370476Y-86505714D01*
X63322857Y-86315238D01*
X63227619Y-86220000D01*
X63132380Y-86172380D01*
X61799047Y-87172380D02*
X62275238Y-87172380D01*
X62275238Y-86172380D01*
X61465714Y-86648571D02*
X61132380Y-86648571D01*
X60989523Y-87172380D02*
X61465714Y-87172380D01*
X61465714Y-86172380D01*
X60989523Y-86172380D01*
X60560952Y-87172380D02*
X60560952Y-86172380D01*
X60322857Y-86172380D01*
X60180000Y-86220000D01*
X60084761Y-86315238D01*
X60037142Y-86410476D01*
X59989523Y-86600952D01*
X59989523Y-86743809D01*
X60037142Y-86934285D01*
X60084761Y-87029523D01*
X60180000Y-87124761D01*
X60322857Y-87172380D01*
X60560952Y-87172380D01*
%TD*%
M02*
