0
SECTION
2
HEADER
9
$INSUNITS
70
4
9
$ACADVER
1
AC1014
9
$HANDSEED
5
FFFF
0
ENDSEC
0
SECTION
2
TABLES
0
TABLE
2
VPORT
5
8
100
AcDbSymbolTable
0
ENDTAB
0
TABLE
2
LTYPE
5
5
100
AcDbSymbolTable
0
LTYPE
5
14
100
AcDbSymbolTableRecord
100
AcDbLinetypeTableRecord
2
BYBLOCK
70
0
0
LTYPE
5
15
100
AcDbSymbolTableRecord
100
AcDbLinetypeTableRecord
2
BYLAYER
70
0
0
ENDTAB
0
TABLE
2
LAYER
5
2
100
AcDbSymbolTable
70
2
0
LAYER
5
50
100
AcDbSymbolTableRecord
100
AcDbLayerTableRecord
2
0
70
0
6
CONTINUOUS
0
ENDTAB
0
TABLE
2
STYLE
5
3
100
AcDbSymbolTable
70
1
0
STYLE
5
11
100
AcDbSymbolTableRecord
100
AcDbTextStyleTableRecord
2
STANDARD
70
0
0
ENDTAB
0
TABLE
2
VIEW
5
6
100
AcDbSymbolTable
70
0
0
ENDTAB
0
TABLE
2
UCS
5
7
100
AcDbSymbolTable
70
0
0
ENDTAB
0
TABLE
2
APPID
5
9
100
AcDbSymbolTable
70
2
0
APPID
5
12
100
AcDbSymbolTableRecord
100
AcDbRegAppTableRecord
2
ACAD
70
0
0
ENDTAB
0
TABLE
2
DIMSTYLE
5
A
100
AcDbSymbolTable
70
1
0
ENDTAB
0
TABLE
2
BLOCK_RECORD
5
1
100
AcDbSymbolTable
70
1
0
BLOCK_RECORD
5
1F
100
AcDbSymbolTableRecord
100
AcDbBlockTableRecord
2
*MODEL_SPACE
0
BLOCK_RECORD
5
1B
100
AcDbSymbolTableRecord
100
AcDbBlockTableRecord
2
*PAPER_SPACE
0
ENDTAB
0
ENDSEC
0
SECTION
2
BLOCKS
0
BLOCK
5
20
100
AcDbEntity
100
AcDbBlockBegin
2
*MODEL_SPACE
0
ENDBLK
5
21
100
AcDbEntity
100
AcDbBlockEnd
0
BLOCK
5
1C
100
AcDbEntity
100
AcDbBlockBegin
2
*PAPER_SPACE
0
ENDBLK
5
1D
100
AcDbEntity
100
AcDbBlockEnd
0
ENDSEC
0
SECTION
2
ENTITIES
0
LWPOLYLINE
5
100
100
AcDbEntity
8
0
100
AcDbPolyline
90
4
70
1
43
0.0
10
240.745
20
45.358100000000007
10
240.745
20
31.358600000000003
10
254.74400000000003
20
31.358600000000003
10
254.74400000000003
20
45.358100000000007
0
LWPOLYLINE
5
101
100
AcDbEntity
8
0
100
AcDbPolyline
90
4
70
1
43
0.0
10
183.595
20
31.070600000000002
10
183.595
20
17.071100000000001
10
197.59400000000002
20
17.071100000000001
10
197.59400000000002
20
31.070600000000002
0
LWPOLYLINE
5
102
100
AcDbEntity
8
0
100
AcDbPolyline
90
4
70
1
43
0.0
10
178.54400000000001
20
2.7836400000000006
10
178.54400000000001
20
16.783100000000001
10
164.54499999999999
20
16.783100000000001
10
164.54499999999999
20
2.7836400000000001
0
LWPOLYLINE
5
103
100
AcDbEntity
8
0
100
AcDbPolyline
90
4
70
1
43
0.0
10
145.495
20
26.596100000000003
10
159.494
20
26.596100000000003
10
159.494
20
40.595500000000008
10
145.495
20
40.595500000000008
0
LWPOLYLINE
5
104
100
AcDbEntity
8
0
100
AcDbPolyline
90
4
70
1
43
0.0
10
164.54499999999999
20
35.832999999999998
10
164.54499999999999
20
21.833600000000001
10
178.54400000000001
20
21.833600000000001
10
178.54400000000001
20
35.832999999999998
0
LWPOLYLINE
5
105
100
AcDbEntity
8
0
100
AcDbPolyline
90
4
70
1
43
0.0
10
273.79400000000004
20
54.883099999999999
10
259.79500000000002
20
54.883099999999999
10
259.79500000000002
20
40.883800000000001
10
273.79400000000004
20
40.883800000000001
0
LWPOLYLINE
5
106
100
AcDbEntity
8
0
100
AcDbPolyline
90
4
70
1
43
0.0
10
164.54499999999999
20
40.883800000000001
10
178.54400000000001
20
40.883800000000001
10
178.54400000000001
20
54.883099999999999
10
164.54499999999999
20
54.883099999999999
0
LWPOLYLINE
5
107
100
AcDbEntity
8
0
100
AcDbPolyline
90
4
70
1
43
0.0
10
216.64400000000001
20
50.408800000000006
10
216.64400000000001
20
64.408100000000005
10
202.64500000000001
20
64.408100000000005
10
202.64500000000001
20
50.408800000000006
0
LWPOLYLINE
5
108
100
AcDbEntity
8
0
100
AcDbPolyline
90
4
70
1
43
0.0
10
183.595
20
40.883800000000001
10
197.59400000000002
20
40.883800000000001
10
197.59400000000002
20
54.883099999999999
10
183.595
20
54.883099999999999
0
LWPOLYLINE
5
109
100
AcDbEntity
8
0
100
AcDbPolyline
90
4
70
1
43
0.0
10
254.74400000000003
20
64.408100000000005
10
240.745
20
64.408100000000005
10
240.745
20
50.408800000000006
10
254.74400000000003
20
50.408800000000006
0
LWPOLYLINE
5
110
100
AcDbEntity
8
0
100
AcDbPolyline
90
4
70
1
43
0.0
10
159.494
20
55.171300000000009
10
159.494
20
69.170599999999993
10
145.495
20
69.170599999999993
10
145.495
20
55.171300000000009
0
LWPOLYLINE
5
111
100
AcDbEntity
8
0
100
AcDbPolyline
90
4
70
1
43
0.0
10
221.69499999999999
20
59.645600000000002
10
221.69499999999999
20
45.646300000000004
10
235.69400000000002
20
45.646300000000004
10
235.69400000000002
20
59.645600000000002
0
LWPOLYLINE
5
112
100
AcDbEntity
8
0
100
AcDbPolyline
90
4
70
1
43
0.0
10
202.64500000000001
20
83.458100000000002
10
202.64500000000001
20
69.458799999999997
10
216.64400000000001
20
69.458799999999997
10
216.64400000000001
20
83.458100000000002
0
LWPOLYLINE
5
113
100
AcDbEntity
8
0
100
AcDbPolyline
90
4
70
1
43
0.0
10
254.74400000000003
20
83.458100000000002
10
240.745
20
83.458100000000002
10
240.745
20
69.458799999999997
10
254.74400000000003
20
69.458799999999997
0
LWPOLYLINE
5
114
100
AcDbEntity
8
0
100
AcDbPolyline
90
4
70
1
43
0.0
10
235.69400000000002
20
64.696299999999994
10
235.69400000000002
20
78.695599999999999
10
221.69499999999999
20
78.695599999999999
10
221.69499999999999
20
64.696299999999994
0
LWPOLYLINE
5
115
100
AcDbEntity
8
0
100
AcDbPolyline
90
4
70
1
43
0.0
10
197.59400000000002
20
78.983800000000002
10
197.59400000000002
20
92.983099999999993
10
183.595
20
92.983099999999993
10
183.595
20
78.983800000000002
0
LWPOLYLINE
5
116
100
AcDbEntity
8
0
100
AcDbPolyline
90
4
70
1
43
0.0
10
197.59400000000002
20
73.933099999999996
10
183.595
20
73.933099999999996
10
183.595
20
59.933800000000005
10
197.59400000000002
20
59.933800000000005
0
LWPOLYLINE
5
117
100
AcDbEntity
8
0
100
AcDbPolyline
90
4
70
1
43
0.0
10
259.79500000000002
20
73.933099999999996
10
259.79500000000002
20
59.933800000000005
10
273.79400000000004
20
59.933800000000005
10
273.79400000000004
20
73.933099999999996
0
LWPOLYLINE
5
118
100
AcDbEntity
8
0
100
AcDbPolyline
90
4
70
1
43
0.0
10
164.54499999999999
20
59.933800000000005
10
178.54400000000001
20
59.933800000000005
10
178.54400000000001
20
73.933099999999996
10
164.54499999999999
20
73.933099999999996
0
LWPOLYLINE
5
119
100
AcDbEntity
8
0
100
AcDbPolyline
90
4
70
1
43
0.0
10
235.69400000000002
20
83.746300000000019
10
235.69400000000002
20
97.74560000000001
10
221.69499999999999
20
97.74560000000001
10
221.69499999999999
20
83.746300000000019
0
LWPOLYLINE
5
120
100
AcDbEntity
8
0
100
AcDbPolyline
90
4
70
1
43
0.0
10
178.54400000000001
20
92.983099999999993
10
164.54499999999999
20
92.983099999999993
10
164.54499999999999
20
78.983800000000002
10
178.54400000000001
20
78.983800000000002
0
LWPOLYLINE
5
121
100
AcDbEntity
8
0
100
AcDbPolyline
90
4
70
1
43
0.0
10
159.494
20
88.220600000000005
10
145.495
20
88.220600000000005
10
145.495
20
74.221299999999999
10
159.494
20
74.221299999999999
0
LWPOLYLINE
5
122
100
AcDbEntity
8
0
100
AcDbPolyline
90
4
70
1
43
0.0
10
202.64500000000001
20
88.508800000000008
10
216.64400000000001
20
88.508800000000008
10
216.64400000000001
20
102.508
10
202.64500000000001
20
102.508
0
LINE
5
123
100
AcDbEntity
8
0
100
AcDbLine
10
164.54499999999999
20
98.03309999999999
30
0
11
197.59400000000002
21
98.03309999999999
31
0
0
LINE
5
124
100
AcDbEntity
8
0
100
AcDbLine
10
197.59500000000003
20
102.508
30
0
11
197.59400000000002
21
98.03309999999999
31
0
0
LINE
5
125
100
AcDbEntity
8
0
100
AcDbLine
10
202.64500000000001
20
107.55800000000001
30
0
11
197.59450000000001
21
107.55800000000001
31
0
0
LINE
5
126
100
AcDbEntity
8
0
100
AcDbLine
10
197.59450000000001
20
107.55800000000001
30
0
11
197.59500000000003
21
102.508
31
0
0
LINE
5
127
100
AcDbEntity
8
0
100
AcDbLine
10
202.64500000000001
20
107.55800000000001
30
0
11
216.64400000000001
21
107.55800000000001
31
0
0
LINE
5
128
100
AcDbEntity
8
0
100
AcDbLine
10
221.69499999999999
20
102.79560000000002
30
0
11
221.69499999999999
21
107.55800000000001
31
0
0
LINE
5
129
100
AcDbEntity
8
0
100
AcDbLine
10
221.69499999999999
20
107.55800000000001
30
0
11
216.64400000000001
21
107.55800000000001
31
0
0
LINE
5
130
100
AcDbEntity
8
0
100
AcDbLine
10
254.74400000000003
20
88.508100000000013
30
0
11
240.745
21
88.508100000000013
31
0
0
LINE
5
131
100
AcDbEntity
8
0
100
AcDbLine
10
240.745
20
88.508100000000013
30
0
11
240.745
21
97.74560000000001
31
0
0
LINE
5
132
100
AcDbEntity
8
0
100
AcDbLine
10
240.745
20
97.74560000000001
30
0
11
240.745
21
102.79560000000002
31
0
0
LINE
5
133
100
AcDbEntity
8
0
100
AcDbLine
10
240.745
20
102.79560000000002
30
0
11
221.69499999999999
21
102.79560000000002
31
0
0
LINE
5
134
100
AcDbEntity
8
0
100
AcDbLine
10
273.79400000000004
20
78.983099999999993
30
0
11
259.79500000000002
21
78.983099999999993
31
0
0
LINE
5
135
100
AcDbEntity
8
0
100
AcDbLine
10
259.79500000000002
20
78.983099999999993
30
0
11
259.79500000000002
21
88.508100000000013
31
0
0
LINE
5
136
100
AcDbEntity
8
0
100
AcDbLine
10
259.79500000000002
20
88.508100000000013
30
0
11
254.74400000000003
21
88.508100000000013
31
0
0
LINE
5
137
100
AcDbEntity
8
0
100
AcDbLine
10
273.79400000000004
20
78.983099999999993
30
0
11
278.84400000000005
21
78.983099999999993
31
0
0
LINE
5
138
100
AcDbEntity
8
0
100
AcDbLine
10
278.84400000000005
20
78.983099999999993
30
0
11
278.84400000000005
21
40.883800000000001
31
0
0
LINE
5
139
100
AcDbEntity
8
0
100
AcDbLine
10
273.79400000000004
20
35.833799999999997
30
0
11
278.84400000000005
21
35.833799999999997
31
0
0
LINE
5
140
100
AcDbEntity
8
0
100
AcDbLine
10
278.84400000000005
20
35.833799999999997
30
0
11
278.84400000000005
21
40.883800000000001
31
0
0
LINE
5
141
100
AcDbEntity
8
0
100
AcDbLine
10
273.79400000000004
20
35.833799999999997
30
0
11
259.79500000000002
21
35.833799999999997
31
0
0
LINE
5
142
100
AcDbEntity
8
0
100
AcDbLine
10
259.79500000000002
20
35.833799999999997
30
0
11
259.79400000000004
21
31.358600000000003
31
0
0
LINE
5
143
100
AcDbEntity
8
0
100
AcDbLine
10
254.74400000000003
20
26.308600000000002
30
0
11
259.79400000000004
21
26.307471558813017
31
0
0
LINE
5
144
100
AcDbEntity
8
0
100
AcDbLine
10
259.79400000000004
20
26.307471558813017
30
0
11
259.79400000000004
21
31.358600000000003
31
0
0
LINE
5
145
100
AcDbEntity
8
0
100
AcDbLine
10
240.745
20
26.308600000000002
30
0
11
254.74400000000003
21
26.308600000000002
31
0
0
LINE
5
146
100
AcDbEntity
8
0
100
AcDbLine
10
240.745
20
26.308600000000002
30
0
11
235.69500000000002
21
26.308600000000002
31
0
0
LINE
5
147
100
AcDbEntity
8
0
100
AcDbLine
10
235.69500000000002
20
26.308600000000002
30
0
11
235.69400000000002
21
40.596299999999999
31
0
0
LINE
5
148
100
AcDbEntity
8
0
100
AcDbLine
10
216.64400000000001
20
45.358800000000002
30
0
11
202.64500000000001
21
45.358800000000002
31
0
0
LINE
5
149
100
AcDbEntity
8
0
100
AcDbLine
10
202.64400000000001
20
40.883800000000001
30
0
11
202.64500000000001
21
45.358800000000002
31
0
0
LINE
5
150
100
AcDbEntity
8
0
100
AcDbLine
10
202.64400000000001
20
40.883800000000001
30
0
11
202.64400000000001
21
17.071100000000001
31
0
0
LINE
5
151
100
AcDbEntity
8
0
100
AcDbLine
10
221.69499999999999
20
40.596299999999999
30
0
11
235.69400000000002
21
40.596299999999999
31
0
0
LINE
5
152
100
AcDbEntity
8
0
100
AcDbLine
10
221.69499999999999
20
40.596299999999999
30
0
11
216.64500000000001
21
40.596299999999999
31
0
0
LINE
5
153
100
AcDbEntity
8
0
100
AcDbLine
10
216.64500000000001
20
40.596299999999999
30
0
11
216.64400000000001
21
45.358800000000002
31
0
0
LINE
5
154
100
AcDbEntity
8
0
100
AcDbLine
10
145.495
20
93.270600000000016
30
0
11
159.494
21
93.270600000000016
31
0
0
LINE
5
155
100
AcDbEntity
8
0
100
AcDbLine
10
164.54499999999999
20
98.03309999999999
30
0
11
159.49499999999998
21
98.03309999999999
31
0
0
LINE
5
156
100
AcDbEntity
8
0
100
AcDbLine
10
159.49499999999998
20
98.03309999999999
30
0
11
159.494
21
93.270600000000016
31
0
0
LINE
5
157
100
AcDbEntity
8
0
100
AcDbLine
10
140.44500000000002
20
88.220600000000005
30
0
11
140.44500000000002
21
93.270600000000016
31
0
0
LINE
5
158
100
AcDbEntity
8
0
100
AcDbLine
10
140.44500000000002
20
93.270600000000016
30
0
11
145.495
21
93.270600000000016
31
0
0
LINE
5
159
100
AcDbEntity
8
0
100
AcDbLine
10
140.44500000000002
20
88.220600000000005
30
0
11
140.44500000000002
21
26.596100000000003
31
0
0
LINE
5
160
100
AcDbEntity
8
0
100
AcDbLine
10
145.495
20
21.546100000000003
30
0
11
140.44500000000002
21
21.546100000000003
31
0
0
LINE
5
161
100
AcDbEntity
8
0
100
AcDbLine
10
140.44500000000002
20
21.546100000000003
30
0
11
140.44500000000002
21
26.596100000000003
31
0
0
LINE
5
162
100
AcDbEntity
8
0
100
AcDbLine
10
159.494
20
21.546100000000003
30
0
11
145.495
21
21.546100000000003
31
0
0
LINE
5
163
100
AcDbEntity
8
0
100
AcDbLine
10
178.54400000000001
20
-2.2663599999999997
30
0
11
159.49499999999998
21
-2.2663599999999997
31
0
0
LINE
5
164
100
AcDbEntity
8
0
100
AcDbLine
10
159.49499999999998
20
-2.2663599999999997
30
0
11
159.49499999999998
21
2.7836400000000001
31
0
0
LINE
5
165
100
AcDbEntity
8
0
100
AcDbLine
10
178.54400000000001
20
-2.2663599999999997
30
0
11
183.59399999999999
21
-2.2663599999999997
31
0
0
LINE
5
166
100
AcDbEntity
8
0
100
AcDbLine
10
183.59399999999999
20
-2.2663599999999997
30
0
11
183.595
21
12.021100000000002
31
0
0
LINE
5
167
100
AcDbEntity
8
0
100
AcDbLine
10
197.59400000000002
20
12.021100000000002
30
0
11
183.595
21
12.021100000000002
31
0
0
LINE
5
168
100
AcDbEntity
8
0
100
AcDbLine
10
202.64400000000001
20
17.071100000000001
30
0
11
202.64400000000001
21
12.021100000000002
31
0
0
LINE
5
169
100
AcDbEntity
8
0
100
AcDbLine
10
202.64400000000001
20
12.021100000000002
30
0
11
197.59400000000002
21
12.021100000000002
31
0
0
LINE
5
170
100
AcDbEntity
8
0
100
AcDbLine
10
159.494
20
21.546100000000003
30
0
11
159.49499999999998
21
2.7836400000000001
31
0
0
LINE
5
171
100
AcDbEntity
8
0
100
AcDbLine
10
130.44500000000002
20
103.27060000000002
30
0
11
145.495
21
103.27060000000002
31
0
0
LINE
5
172
100
AcDbEntity
8
0
100
AcDbLine
10
145.495
20
103.27060000000002
30
0
11
149.49609951708788
21
103.27060000000002
31
0
0
LINE
5
173
100
AcDbEntity
8
0
100
AcDbLine
10
149.49709951708786
20
108.03309999999999
30
0
11
149.49609951708788
21
103.27060000000002
31
0
0
LINE
5
174
100
AcDbEntity
8
0
100
AcDbLine
10
164.54499999999999
20
108.03309999999999
30
0
11
149.49709951708786
21
108.03309999999999
31
0
0
LINE
5
175
100
AcDbEntity
8
0
100
AcDbLine
10
164.54499999999999
20
108.03309999999999
30
0
11
187.59445291138124
21
108.03309999999999
31
0
0
LINE
5
176
100
AcDbEntity
8
0
100
AcDbLine
10
187.59350985197528
20
117.55800000000001
30
0
11
187.59445291138124
21
108.03309999999999
31
0
0
LINE
5
177
100
AcDbEntity
8
0
100
AcDbLine
10
202.64500000000001
20
117.55800000000001
30
0
11
187.59350985197528
21
117.55800000000001
31
0
0
LINE
5
178
100
AcDbEntity
8
0
100
AcDbLine
10
202.64500000000001
20
117.55800000000001
30
0
11
216.64400000000001
21
117.55800000000001
31
0
0
LINE
5
179
100
AcDbEntity
8
0
100
AcDbLine
10
231.69499999999999
20
117.55800000000001
30
0
11
216.64400000000001
21
117.55800000000001
31
0
0
LINE
5
180
100
AcDbEntity
8
0
100
AcDbLine
10
231.69499999999999
20
112.79560000000002
30
0
11
231.69499999999999
21
117.55800000000001
31
0
0
LINE
5
181
100
AcDbEntity
8
0
100
AcDbLine
10
250.745
20
112.79560000000002
30
0
11
231.69499999999999
21
112.79560000000002
31
0
0
LINE
5
182
100
AcDbEntity
8
0
100
AcDbLine
10
250.745
20
98.508100000000013
30
0
11
250.745
21
112.79560000000002
31
0
0
LINE
5
183
100
AcDbEntity
8
0
100
AcDbLine
10
254.74400000000003
20
98.508100000000013
30
0
11
250.745
21
98.508100000000013
31
0
0
LINE
5
184
100
AcDbEntity
8
0
100
AcDbLine
10
269.79500000000002
20
98.508100000000013
30
0
11
254.74400000000003
21
98.508100000000013
31
0
0
LINE
5
185
100
AcDbEntity
8
0
100
AcDbLine
10
269.79500000000002
20
88.983099999999979
30
0
11
269.79500000000002
21
98.508100000000013
31
0
0
LINE
5
186
100
AcDbEntity
8
0
100
AcDbLine
10
273.79400000000004
20
88.983099999999979
30
0
11
269.79500000000002
21
88.983099999999979
31
0
0
LINE
5
187
100
AcDbEntity
8
0
100
AcDbLine
10
273.79400000000004
20
88.983099999999979
30
0
11
288.84400000000005
21
88.983099999999979
31
0
0
LINE
5
188
100
AcDbEntity
8
0
100
AcDbLine
10
288.84400000000005
20
88.983099999999979
30
0
11
288.84400000000005
21
40.883800000000001
31
0
0
LINE
5
189
100
AcDbEntity
8
0
100
AcDbLine
10
288.84400000000005
20
25.8338
30
0
11
288.84400000000005
21
40.883800000000001
31
0
0
LINE
5
190
100
AcDbEntity
8
0
100
AcDbLine
10
273.79400000000004
20
25.8338
30
0
11
288.84400000000005
21
25.8338
31
0
0
LINE
5
191
100
AcDbEntity
8
0
100
AcDbLine
10
273.79400000000004
20
25.8338
30
0
11
269.79400000000004
21
25.8338
31
0
0
LINE
5
192
100
AcDbEntity
8
0
100
AcDbLine
10
269.79400000000004
20
16.305236772151304
30
0
11
269.79400000000004
21
25.8338
31
0
0
LINE
5
193
100
AcDbEntity
8
0
100
AcDbLine
10
254.74288273150424
20
16.308600000000002
30
0
11
269.79400000000004
21
16.305236772151304
31
0
0
LINE
5
194
100
AcDbEntity
8
0
100
AcDbLine
10
240.745
20
16.308600000000002
30
0
11
254.74288273150424
21
16.308600000000002
31
0
0
LINE
5
195
100
AcDbEntity
8
0
100
AcDbLine
10
240.745
20
16.308600000000002
30
0
11
225.69569987822035
21
16.308600000000002
31
0
0
LINE
5
196
100
AcDbEntity
8
0
100
AcDbLine
10
225.69569987822035
20
16.308600000000002
30
0
11
225.69469987822035
21
30.596300000000003
31
0
0
LINE
5
197
100
AcDbEntity
8
0
100
AcDbLine
10
221.69499999999999
20
30.596300000000003
30
0
11
225.69469987822035
21
30.596300000000003
31
0
0
LINE
5
198
100
AcDbEntity
8
0
100
AcDbLine
10
221.69499999999999
20
30.596300000000003
30
0
11
212.64400000000001
21
30.596300000000003
31
0
0
LINE
5
199
100
AcDbEntity
8
0
100
AcDbLine
10
212.64400000000001
20
30.596300000000003
30
0
11
212.64400000000001
21
17.071100000000001
31
0
0
LINE
5
200
100
AcDbEntity
8
0
100
AcDbLine
10
212.64400000000001
20
17.071100000000001
30
0
11
212.64400000000001
21
2.0211000000000023
31
0
0
LINE
5
201
100
AcDbEntity
8
0
100
AcDbLine
10
212.64400000000001
20
2.0211000000000023
30
0
11
197.59400000000002
21
2.0211000000000023
31
0
0
LINE
5
202
100
AcDbEntity
8
0
100
AcDbLine
10
197.59400000000002
20
2.0211000000000023
30
0
11
193.59430011002357
21
2.0211000000000023
31
0
0
LINE
5
203
100
AcDbEntity
8
0
100
AcDbLine
10
193.59330011002356
20
-12.266360000000001
30
0
11
193.59430011002357
21
2.0211000000000023
31
0
0
LINE
5
204
100
AcDbEntity
8
0
100
AcDbLine
10
178.54400000000001
20
-12.266360000000001
30
0
11
193.59330011002356
21
-12.266360000000001
31
0
0
LINE
5
205
100
AcDbEntity
8
0
100
AcDbLine
10
178.54400000000001
20
-12.266360000000001
30
0
11
149.49499999999998
21
-12.266360000000001
31
0
0
LINE
5
206
100
AcDbEntity
8
0
100
AcDbLine
10
149.49499999999998
20
-12.266360000000001
30
0
11
149.49499999999998
21
2.7833735104620905
31
0
0
LINE
5
207
100
AcDbEntity
8
0
100
AcDbLine
10
149.49453296494758
20
11.546100000000003
30
0
11
149.49499999999998
21
2.7833735104620905
31
0
0
LINE
5
208
100
AcDbEntity
8
0
100
AcDbLine
10
149.49453296494758
20
11.546100000000003
30
0
11
145.495
21
11.546100000000003
31
0
0
LINE
5
209
100
AcDbEntity
8
0
100
AcDbLine
10
145.495
20
11.546100000000003
30
0
11
130.44500000000002
21
11.546100000000003
31
0
0
LINE
5
210
100
AcDbEntity
8
0
100
AcDbLine
10
130.44500000000002
20
11.546100000000003
30
0
11
130.44500000000002
21
26.596100000000003
31
0
0
LINE
5
211
100
AcDbEntity
8
0
100
AcDbLine
10
130.44500000000002
20
88.220600000000005
30
0
11
130.44500000000002
21
26.596100000000003
31
0
0
LINE
5
212
100
AcDbEntity
8
0
100
AcDbLine
10
130.44500000000002
20
88.220600000000005
30
0
11
130.44500000000002
21
103.27060000000002
31
0
0
LINE
5
213
100
AcDbEntity
8
0
100
AcDbLine
10
193.59499995574879
20
102.50824891754603
30
0
11
193.59489377484698
21
102.0331
31
0
0
LINE
5
214
100
AcDbEntity
8
0
100
AcDbLine
10
164.54499999999999
20
102.0331
30
0
11
193.59489377484698
21
102.0331
31
0
0
LINE
5
215
100
AcDbEntity
8
0
100
AcDbLine
10
164.54499999999999
20
102.0331
30
0
11
155.49583980683514
21
102.0331
31
0
0
LINE
5
216
100
AcDbEntity
8
0
100
AcDbLine
10
155.49583980683514
20
102.0331
30
0
11
155.49483980683516
21
97.270600000000016
31
0
0
LINE
5
217
100
AcDbEntity
8
0
100
AcDbLine
10
145.495
20
97.270600000000016
30
0
11
155.49483980683516
21
97.270600000000016
31
0
0
LINE
5
218
100
AcDbEntity
8
0
100
AcDbLine
10
136.44499999999999
20
97.270600000000016
30
0
11
145.495
21
97.270600000000016
31
0
0
LINE
5
219
100
AcDbEntity
8
0
100
AcDbLine
10
136.44499999999999
20
88.220600000000005
30
0
11
136.44499999999999
21
97.270600000000016
31
0
0
LINE
5
220
100
AcDbEntity
8
0
100
AcDbLine
10
136.44499999999999
20
88.220600000000005
30
0
11
136.44499999999999
21
26.596100000000007
31
0
0
LINE
5
221
100
AcDbEntity
8
0
100
AcDbLine
10
136.44499999999999
20
17.546100000000003
30
0
11
136.44499999999999
21
26.596100000000007
31
0
0
LINE
5
222
100
AcDbEntity
8
0
100
AcDbLine
10
145.495
20
17.546100000000003
30
0
11
136.44499999999999
21
17.546100000000003
31
0
0
LINE
5
223
100
AcDbEntity
8
0
100
AcDbLine
10
155.49421318597905
20
17.546100000000003
30
0
11
145.495
21
17.546100000000003
31
0
0
LINE
5
224
100
AcDbEntity
8
0
100
AcDbLine
10
155.49421318597905
20
17.546100000000003
30
0
11
155.49499999999998
21
2.7835334042514925
31
0
0
LINE
5
225
100
AcDbEntity
8
0
100
AcDbLine
10
155.49499999999998
20
-6.2663599999999997
30
0
11
155.49499999999998
21
2.7835334042514925
31
0
0
LINE
5
226
100
AcDbEntity
8
0
100
AcDbLine
10
178.54400000000001
20
-6.2663599999999997
30
0
11
155.49499999999998
21
-6.2663599999999997
31
0
0
LINE
5
227
100
AcDbEntity
8
0
100
AcDbLine
10
178.54400000000001
20
-6.2663599999999997
30
0
11
187.59372004400942
21
-6.2663600000000006
31
0
0
LINE
5
228
100
AcDbEntity
8
0
100
AcDbLine
10
187.59372004400942
20
-6.2663600000000006
30
0
11
187.59472004400942
21
8.0211000000000023
31
0
0
LINE
5
229
100
AcDbEntity
8
0
100
AcDbLine
10
197.59400000000002
20
8.0211000000000023
30
0
11
187.59472004400942
21
8.0211000000000023
31
0
0
LINE
5
230
100
AcDbEntity
8
0
100
AcDbLine
10
206.64400000000001
20
8.0211000000000023
30
0
11
197.59400000000002
21
8.0211000000000023
31
0
0
LINE
5
231
100
AcDbEntity
8
0
100
AcDbLine
10
206.64400000000001
20
17.071100000000001
30
0
11
206.64400000000001
21
8.0211000000000023
31
0
0
LINE
5
232
100
AcDbEntity
8
0
100
AcDbLine
10
206.64400000000001
20
40.883353072491616
30
0
11
206.64400000000001
21
17.071100000000001
31
0
0
LINE
5
233
100
AcDbEntity
8
0
100
AcDbLine
10
206.64400000000001
20
40.883353072491616
30
0
11
206.64410624512345
21
41.358800000000002
31
0
0
LINE
5
234
100
AcDbEntity
8
0
100
AcDbLine
10
212.64483980683514
20
41.358800000000002
30
0
11
206.64410624512345
21
41.358800000000002
31
0
0
LINE
5
235
100
AcDbEntity
8
0
100
AcDbLine
10
212.64583980683514
20
36.596300000000006
30
0
11
212.64483980683514
21
41.358800000000002
31
0
0
LINE
5
236
100
AcDbEntity
8
0
100
AcDbLine
10
221.69499999999999
20
36.596300000000006
30
0
11
212.64583980683514
21
36.596300000000006
31
0
0
LINE
5
237
100
AcDbEntity
8
0
100
AcDbLine
10
221.69499999999999
20
36.596300000000006
30
0
11
231.69427995128814
21
36.596300000000006
31
0
0
LINE
5
238
100
AcDbEntity
8
0
100
AcDbLine
10
231.69527995128814
20
22.308600000000002
30
0
11
231.69427995128814
21
36.596300000000006
31
0
0
LINE
5
239
100
AcDbEntity
8
0
100
AcDbLine
10
240.745
20
22.308600000000002
30
0
11
231.69527995128814
21
22.308600000000002
31
0
0
LINE
5
240
100
AcDbEntity
8
0
100
AcDbLine
10
240.745
20
22.308600000000002
30
0
11
254.74355309260568
21
22.308600000000002
31
0
0
LINE
5
241
100
AcDbEntity
8
0
100
AcDbLine
10
254.74355309260568
20
22.308600000000002
30
0
11
263.79399999999998
21
22.30657764414833
31
0
0
LINE
5
242
100
AcDbEntity
8
0
100
AcDbLine
10
263.79399999999998
20
22.30657764414833
30
0
11
263.79399999999998
21
31.358153092506296
31
0
0
LINE
5
243
100
AcDbEntity
8
0
100
AcDbLine
10
263.79410628506156
20
31.8338
30
0
11
263.79399999999998
21
31.358153092506296
31
0
0
LINE
5
244
100
AcDbEntity
8
0
100
AcDbLine
10
273.79400000000004
20
31.8338
30
0
11
263.79410628506156
21
31.8338
31
0
0
LINE
5
245
100
AcDbEntity
8
0
100
AcDbLine
10
273.79400000000004
20
31.8338
30
0
11
282.84399999999999
21
31.8338
31
0
0
LINE
5
246
100
AcDbEntity
8
0
100
AcDbLine
10
282.84399999999999
20
31.8338
30
0
11
282.84399999999999
21
40.883800000000001
31
0
0
LINE
5
247
100
AcDbEntity
8
0
100
AcDbLine
10
282.84399999999999
20
82.983099999999993
30
0
11
282.84399999999999
21
40.883800000000001
31
0
0
LINE
5
248
100
AcDbEntity
8
0
100
AcDbLine
10
273.79400000000004
20
82.983099999999993
30
0
11
282.84399999999999
21
82.983099999999993
31
0
0
LINE
5
249
100
AcDbEntity
8
0
100
AcDbLine
10
273.79400000000004
20
82.983099999999993
30
0
11
263.79500000000002
21
82.983099999999993
31
0
0
LINE
5
250
100
AcDbEntity
8
0
100
AcDbLine
10
263.79500000000002
20
82.983099999999993
30
0
11
263.79500000000002
21
92.508100000000013
31
0
0
LINE
5
251
100
AcDbEntity
8
0
100
AcDbLine
10
263.79500000000002
20
92.508100000000013
30
0
11
254.74400000000003
21
92.508100000000013
31
0
0
LINE
5
252
100
AcDbEntity
8
0
100
AcDbLine
10
254.74400000000003
20
92.508100000000013
30
0
11
244.745
21
92.508100000000013
31
0
0
LINE
5
253
100
AcDbEntity
8
0
100
AcDbLine
10
244.745
20
92.508100000000013
30
0
11
244.745
21
97.74560000000001
31
0
0
LINE
5
254
100
AcDbEntity
8
0
100
AcDbLine
10
244.745
20
97.74560000000001
30
0
11
244.745
21
106.79560000000002
31
0
0
LINE
5
255
100
AcDbEntity
8
0
100
AcDbLine
10
244.745
20
106.79560000000002
30
0
11
225.69499999999999
21
106.79560000000002
31
0
0
LINE
5
256
100
AcDbEntity
8
0
100
AcDbLine
10
225.69499999999999
20
106.79560000000002
30
0
11
225.69499999999999
21
111.55800000000001
31
0
0
LINE
5
257
100
AcDbEntity
8
0
100
AcDbLine
10
225.69499999999999
20
111.55800000000001
30
0
11
216.64400000000001
21
111.55800000000001
31
0
0
LINE
5
258
100
AcDbEntity
8
0
100
AcDbLine
10
202.64500000000001
20
111.55800000000001
30
0
11
216.64400000000001
21
111.55800000000001
31
0
0
LINE
5
259
100
AcDbEntity
8
0
100
AcDbLine
10
202.64500000000001
20
111.55800000000001
30
0
11
193.59410394079009
21
111.55800000000001
31
0
0
LINE
5
260
100
AcDbEntity
8
0
100
AcDbLine
10
193.59410394079009
20
111.55800000000001
30
0
11
193.59499995574879
21
102.50824891754603
31
0
0
LWPOLYLINE
5
261
100
AcDbEntity
8
0
100
AcDbPolyline
90
48
70
1
43
0.0
10
200.0934413907207
20
95.53309999999999
10
200.09500002765705
20
102.50784442653372
10
200.09474753700619
20
105.05800000000001
10
202.64500000000001
20
105.05800000000001
10
216.64400000000001
20
105.05800000000001
10
219.19499999999999
20
105.05800000000001
10
219.19499999999999
20
100.29560000000002
10
238.245
20
100.29560000000002
10
238.245
20
97.74560000000001
10
238.245
20
86.008100000000013
10
254.74400000000003
20
86.008100000000013
10
257.29500000000002
20
86.008100000000013
10
257.29500000000002
20
76.483099999999993
10
273.79400000000004
20
76.483099999999993
10
276.34400000000005
20
76.483099999999993
10
276.34400000000005
20
40.883800000000001
10
276.34400000000005
20
38.333799999999997
10
273.79400000000004
20
38.333799999999997
10
257.29555857183652
20
38.333799999999997
10
257.29400000000004
20
31.358879317183565
10
257.29400000000004
20
28.808030255478446
10
254.74427931712398
20
28.808600000000002
10
240.745
20
28.808600000000002
10
238.19482503044495
20
28.808600000000002
10
238.19382503044494
20
43.096299999999999
10
221.69499999999999
20
43.096299999999999
10
219.144475120728
20
43.096299999999999
10
219.143475120728
20
47.858800000000002
10
200.14555859679785
20
47.858800000000002
10
200.14400000000001
20
40.884079329672865
10
200.14400000000001
20
17.071100000000001
10
200.14400000000001
20
14.521100000000002
10
197.59400000000002
20
14.521100000000002
10
181.09517497249411
20
14.521100000000002
10
181.0941749724941
20
0.23364000000000051
10
178.54400000000001
20
0.23364000000000051
10
161.995
20
0.23364000000000051
10
161.995
20
2.7837066221345141
10
161.99386675876312
20
24.046100000000003
10
145.495
20
24.046100000000003
10
142.94500000000002
20
24.046100000000003
10
142.94500000000002
20
26.596100000000007
10
142.94500000000002
20
88.220600000000005
10
142.94500000000002
20
90.770600000000016
10
145.495
20
90.770600000000016
10
161.99347512072805
20
90.770600000000016
10
161.99447512072805
20
95.53309999999999
10
164.54499999999999
20
95.53309999999999
0
ARC
5
262
100
AcDbEntity
8
0
100
AcDbCircle
10
265.61896744969647
20
-88.459681492316449
30
0
40
104.8480757847118
210
0
220
0
230
1
100
AcDbArc
50
92.256505655023489
51
133.38936904410951
0
ARC
5
263
100
AcDbEntity
8
0
100
AcDbCircle
10
119.57034282376135
20
-16.679883154749504
30
0
40
30.248376712691933
210
0
220
-0
230
1
100
AcDbArc
50
8.3899453274814135
51
68.929765078237807
0
ARC
5
264
100
AcDbEntity
8
0
100
AcDbCircle
10
151.92837532950944
20
-9.3445415368304303
30
0
40
2.930675478331116
210
0
220
0
230
1
100
AcDbArc
50
192.77267255488934
51
274.45560718775272
0
ARC
5
265
100
AcDbEntity
8
0
100
AcDbCircle
10
131.92887389196326
20
12.537079238535608
30
0
40
1.4838738919632632
210
0
220
0
230
1
100
AcDbArc
50
180
51
253.23898745471834
0
ARC
5
266
100
AcDbEntity
8
0
100
AcDbCircle
10
290.02118177953764
20
0.10537619691663114
30
0
40
25.914751887670139
210
0
220
0
230
1
100
AcDbArc
50
92.258339655594853
51
141.30891686621726
0
ARC
5
267
100
AcDbEntity
8
0
100
AcDbCircle
10
286.65015679941001
20
28.06488398785573
30
0
40
2.2472417443195973
210
0
220
0
230
1
100
AcDbArc
50
-83.125140574485926
51
12.515297563772343
0
ARC
5
268
100
AcDbEntity
8
0
100
AcDbCircle
10
268.70097225599937
20
18.608805473544454
30
0
40
2.3151653832455961
210
0
220
0
230
1
100
AcDbArc
50
263.8606049828241
51
319.04585753149547
0
ARC
5
269
100
AcDbEntity
8
0
100
AcDbCircle
10
190.99144590500151
20
-5.3523836149781499
30
0
40
6.9139763850217832
210
0
220
0
230
1
100
AcDbArc
50
269.99999999999972
51
304.2693976258447
0
LINE
5
270
100
AcDbEntity
8
0
100
AcDbLine
10
288.84400000000005
20
88.983099999999979
30
0
11
285.84400000000005
21
88.983099999999979
31
0
0
LINE
5
271
100
AcDbEntity
8
0
100
AcDbLine
10
288.84400000000005
20
88.983099999999979
30
0
11
288.84400000000005
21
85.983099999999979
31
0
0
LINE
5
272
100
AcDbEntity
8
0
100
AcDbLine
10
288.84400000000005
20
88.983099999999979
30
0
11
288.84400000000005
21
85.983099999999979
31
0
0
ARC
5
273
100
AcDbEntity
8
0
100
AcDbCircle
10
285.84400000000011
20
85.983100000000093
30
0
40
2.9999999999999005
210
0
220
0
230
1
100
AcDbArc
50
0
51
90.000000000001094
0
LINE
5
274
100
AcDbEntity
8
0
100
AcDbLine
10
269.79500000000002
20
98.508100000000013
30
0
11
266.79500000000002
21
98.508100000000013
31
0
0
LINE
5
275
100
AcDbEntity
8
0
100
AcDbLine
10
269.79500000000002
20
98.508100000000013
30
0
11
269.79500000000002
21
95.508099999999999
31
0
0
LINE
5
276
100
AcDbEntity
8
0
100
AcDbLine
10
250.745
20
112.79560000000002
30
0
11
250.745
21
109.79560000000001
31
0
0
LINE
5
277
100
AcDbEntity
8
0
100
AcDbLine
10
250.745
20
112.79560000000002
30
0
11
247.745
21
112.79560000000002
31
0
0
LINE
5
278
100
AcDbEntity
8
0
100
AcDbLine
10
231.69499999999999
20
117.55800000000001
30
0
11
231.69499999999999
21
114.55799999999999
31
0
0
LINE
5
279
100
AcDbEntity
8
0
100
AcDbLine
10
231.69499999999999
20
117.55800000000001
30
0
11
228.69499999999999
21
117.55800000000001
31
0
0
ARC
5
280
100
AcDbEntity
8
0
100
AcDbCircle
10
266.79500000000002
20
95.508099999999999
30
0
40
3.0000000000000071
210
0
220
0
230
1
100
AcDbArc
50
0
51
90
0
ARC
5
281
100
AcDbEntity
8
0
100
AcDbCircle
10
247.745
20
109.79560000000005
30
0
40
2.9999999999999716
210
0
220
0
230
1
100
AcDbArc
50
0
51
90
0
ARC
5
282
100
AcDbEntity
8
0
100
AcDbCircle
10
228.69500000000002
20
114.55800000000002
30
0
40
3.0000000000000071
210
0
220
0
230
1
100
AcDbArc
50
0
51
90.00000000000054
0
LINE
5
283
100
AcDbEntity
8
0
100
AcDbLine
10
231.69499999999999
20
112.79560000000002
30
0
11
234.69499999999999
21
112.79560000000002
31
0
0
LINE
5
284
100
AcDbEntity
8
0
100
AcDbLine
10
250.745
20
98.508100000000013
30
0
11
253.745
21
98.508100000000013
31
0
0
LINE
5
285
100
AcDbEntity
8
0
100
AcDbLine
10
269.79500000000002
20
88.983099999999979
30
0
11
272.79500000000002
21
88.983099999999979
31
0
0
ARC
5
286
100
AcDbEntity
8
0
100
AcDbCircle
10
234.69499999999988
20
116.2301363595096
30
0
40
3.4345363595095542
210
0
220
0
230
1
100
AcDbArc
50
209.13436814407677
51
270.00000000000188
0
LINE
5
287
100
AcDbEntity
8
0
100
AcDbLine
10
250.745
20
98.508100000000013
30
0
11
250.745
21
101.50810000000001
31
0
0
LINE
5
288
100
AcDbEntity
8
0
100
AcDbLine
10
269.79500000000002
20
88.983099999999979
30
0
11
269.79500000000002
21
91.983099999999993
31
0
0
ARC
5
289
100
AcDbEntity
8
0
100
AcDbCircle
10
253.745
20
101.50810000000001
30
0
40
3.0000000000000071
210
0
220
0
230
1
100
AcDbArc
50
180
51
270
0
ARC
5
290
100
AcDbEntity
8
0
100
AcDbCircle
10
272.79500000000007
20
91.983100000000064
30
0
40
3.0000000000000782
210
0
220
0
230
1
100
AcDbArc
50
180
51
269.99999999999886
0
LINE
5
291
100
AcDbEntity
8
0
100
AcDbLine
10
130.44500000000002
20
103.27060000000002
30
0
11
133.44500000000002
21
103.27060000000002
31
0
0
LINE
5
292
100
AcDbEntity
8
0
100
AcDbLine
10
130.44500000000002
20
103.27060000000002
30
0
11
130.44500000000002
21
100.2706
31
0
0
LINE
5
293
100
AcDbEntity
8
0
100
AcDbLine
10
149.49609951708788
20
103.27060000000002
30
0
11
149.49672943833383
21
106.27059993386655
31
0
0
LINE
5
294
100
AcDbEntity
8
0
100
AcDbLine
10
149.49609951708788
20
103.27060000000002
30
0
11
149.49609951708788
21
104.77060000000002
31
0
0
LINE
5
295
100
AcDbEntity
8
0
100
AcDbLine
10
149.49609951708788
20
103.27060000000002
30
0
11
147.99609951708788
21
103.27060000000002
31
0
0
LINE
5
296
100
AcDbEntity
8
0
100
AcDbLine
10
149.49709951708786
20
108.03309999999999
30
0
11
149.49709951708786
21
106.53309999999999
31
0
0
LINE
5
297
100
AcDbEntity
8
0
100
AcDbLine
10
149.49709951708786
20
108.03309999999999
30
0
11
150.99709948402113
21
108.03278503937703
31
0
0
LINE
5
298
100
AcDbEntity
8
0
100
AcDbLine
10
187.59350985197528
20
117.55800000000001
30
0
11
187.59380688167681
21
114.55800001470445
31
0
0
LINE
5
299
100
AcDbEntity
8
0
100
AcDbLine
10
187.59350985197528
20
117.55800000000001
30
0
11
190.59350983727086
21
117.55829702970154
31
0
0
LINE
5
300
100
AcDbEntity
8
0
100
AcDbLine
10
187.59445291138124
20
108.03309999999999
30
0
11
187.59445291138124
21
111.0331
31
0
0
LINE
5
301
100
AcDbEntity
8
0
100
AcDbLine
10
187.59445291138124
20
108.03309999999999
30
0
11
184.59445292608567
21
108.03280297029846
31
0
0
ARC
5
302
100
AcDbEntity
8
0
100
AcDbCircle
10
190.59380686697253
20
114.55829704440586
30
0
40
3.0000000000001208
210
0
220
0
230
1
100
AcDbArc
50
90.005672849441183
51
180.00567284944441
0
ARC
5
303
100
AcDbEntity
8
0
100
AcDbCircle
10
184.59415586697384
20
111.0331
30
0
40
3.000297044407414
210
0
220
0
230
1
100
AcDbArc
50
-89.994327150562214
51
0
0
ARC
5
304
100
AcDbEntity
8
0
100
AcDbCircle
10
147.99609951708788
20
104.77060000000002
30
0
40
1.5000000000000213
210
0
220
0
230
1
100
AcDbArc
50
-90
51
0
0
ARC
5
305
100
AcDbEntity
8
0
100
AcDbCircle
10
150.99678458952468
20
106.53309999999999
30
0
40
1.4996850724368238
210
0
220
-0
230
1
100
AcDbArc
50
89.987969390305366
51
180
0
ARC
5
306
100
AcDbEntity
8
0
100
AcDbCircle
10
133.44500000000002
20
100.2706
30
0
40
3.0000000000000249
210
0
220
-0
230
1
100
AcDbArc
50
90
51
180
0
LINE
5
307
100
AcDbEntity
8
0
100
AcDbLine
10
140.44500000000002
20
93.270600000000016
30
0
11
136.44499999999999
21
93.270600000000016
31
0
0
LINE
5
308
100
AcDbEntity
8
0
100
AcDbLine
10
130.44500000000002
20
17.546100000000003
30
0
11
127.44500000000001
21
17.546100000000003
31
0
0
LINE
5
309
100
AcDbEntity
8
0
100
AcDbLine
10
130.44500000000002
20
17.546100000000003
30
0
11
130.44500000000002
21
14.546100000000004
31
0
0
ARC
5
310
100
AcDbEntity
8
0
100
AcDbCircle
10
127.44500000000004
20
14.546100000000038
30
0
40
2.9999999999999716
210
0
220
0
230
1
100
AcDbArc
50
0
51
90.00000000000054
0
LINE
5
311
100
AcDbEntity
8
0
100
AcDbLine
10
130.44500000000002
20
93.270600000000016
30
0
11
130.44500000000002
21
96.270600000000016
31
0
0
LINE
5
312
100
AcDbEntity
8
0
100
AcDbLine
10
130.44500000000002
20
93.270600000000016
30
0
11
127.44500000000001
21
93.270600000000016
31
0
0
ARC
5
313
100
AcDbEntity
8
0
100
AcDbCircle
10
127.44500000000002
20
96.270600000000016
30
0
40
3.0000000000000071
210
0
220
0
230
1
100
AcDbArc
50
-90.000000000000313
51
0
0
LINE
5
314
100
AcDbEntity
8
0
100
AcDbLine
10
140.44500000000002
20
90.745600000000024
30
0
11
116.0000017285347
21
90.745600000000024
31
0
0
LINE
5
315
100
AcDbEntity
8
0
100
AcDbLine
10
116.0000017285347
20
90.745600000000024
30
0
11
116.0000017285347
21
93.270600000000016
31
0
0
LINE
5
316
100
AcDbEntity
8
0
100
AcDbLine
10
116.0000017285347
20
90.745600000000024
30
0
11
116.0000017285347
21
17.546100000000003
31
0
0
LINE
5
317
100
AcDbEntity
8
0
100
AcDbLine
10
116.0000017285347
20
93.270600000000016
30
0
11
127.44500000000001
21
93.270600000000016
31
0
0
LINE
5
318
100
AcDbEntity
8
0
100
AcDbLine
10
116.0000017285347
20
17.546100000000003
30
0
11
127.44500000000001
21
17.546100000000003
31
0
0
LINE
5
319
100
AcDbEntity
8
0
100
AcDbLine
10
136.44499999999999
20
17.546100000000003
30
0
11
130.44500000000002
21
17.546100000000003
31
0
0
LINE
5
320
100
AcDbEntity
8
0
100
AcDbLine
10
116.0000017285347
20
90.745600000000024
30
0
11
118.52500172853469
21
90.745600000000024
31
0
0
LINE
5
321
100
AcDbEntity
8
0
100
AcDbLine
10
118.52500172853469
20
20.071100000000005
30
0
11
130.44500000000002
21
20.071100000000005
31
0
0
LINE
5
322
100
AcDbEntity
8
0
100
AcDbLine
10
118.52500172853469
20
90.745600000000024
30
0
11
118.52500172853469
21
20.071100000000005
31
0
0
LINE
5
323
100
AcDbEntity
8
0
100
AcDbLine
10
130.44500000000002
20
20.071100000000005
30
0
11
140.44500000000002
21
20.071100000000005
31
0
0
LINE
5
324
100
AcDbEntity
8
0
100
AcDbLine
10
140.44500000000002
20
20.071100000000005
30
0
11
140.44500000000002
21
21.546100000000003
31
0
0
ENDSEC
0
SECTION
2
OBJECTS
0
DICTIONARY
5
C
100
AcDbDictionary
3
ACAD_GROUP
350
D
3
ACAD_MLINESTYLE
350
17
0
DICTIONARY
5
D
100
AcDbDictionary
0
DICTIONARY
5
1A
330
C
100
AcDbDictionary
0
DICTIONARY
5
17
100
AcDbDictionary
0
ENDSEC
0
EOF
