999
"DXF R12 Output" (www.mydxf.blogspot.com)
 0 
SECTION
 2 
HEADER
 9 
$ACADVER
 1 
AC1009
 9 
$EXTMIN
 10 
 0 
 20 
 0 
 9 
$EXTMAX
 10 
 8.5 
 20 
 11 
 0 
ENDSEC
 0 
SECTION
 2 
ENTITIES
0
LINE
8
Layer 1
10
8177.660000
20
-9014.810000
11
8177.660000
21
-7481.500000
0
LINE
8
Layer 1
10
9710.980000
20
-7481.500000
11
9710.980000
21
-9014.810000
0
LINE
8
Layer 1
10
9710.980000
20
-7481.500000
11
8177.660000
21
-7481.500000
0
LINE
8
Layer 1
10
8177.660000
20
-9014.810000
11
9710.980000
21
-9014.810000
0
LINE
8
Layer 1
10
10300.000000
20
-11139.100000
11
10300.000000
21
-9605.780000
0
LINE
8
Layer 1
10
11833.300000
20
-9605.780000
11
11833.300000
21
-11139.100000
0
LINE
8
Layer 1
10
11833.300000
20
-9605.780000
11
10300.000000
21
-9605.780000
0
LINE
8
Layer 1
10
10300.000000
20
-11139.100000
11
11833.300000
21
-11139.100000
0
LINE
8
Layer 1
10
16651.100000
20
-12195.700000
11
16651.100000
21
-10662.400000
0
LINE
8
Layer 1
10
18184.400000
20
-10662.400000
11
18184.400000
21
-12195.700000
0
LINE
8
Layer 1
10
18184.400000
20
-10662.400000
11
16651.100000
21
-10662.400000
0
LINE
8
Layer 1
10
16651.100000
20
-12195.700000
11
18184.400000
21
-12195.700000
0
LINE
8
Layer 1
10
14532.200000
20
-10610.200000
11
14532.200000
21
-9076.900000
0
LINE
8
Layer 1
10
16065.500000
20
-9076.900000
11
16065.500000
21
-10610.200000
0
LINE
8
Layer 1
10
16065.500000
20
-9076.900000
11
14532.200000
21
-9076.900000
0
LINE
8
Layer 1
10
14532.200000
20
-10610.200000
11
16065.500000
21
-10610.200000
0
LINE
8
Layer 1
10
16651.100000
20
-10080.200000
11
16651.100000
21
-8546.890000
0
LINE
8
Layer 1
10
18184.400000
20
-8546.890000
11
18184.400000
21
-10080.200000
0
LINE
8
Layer 1
10
18184.400000
20
-8546.890000
11
16651.100000
21
-8546.890000
0
LINE
8
Layer 1
10
16651.100000
20
-10080.200000
11
18184.400000
21
-10080.200000
0
LINE
8
Layer 1
10
6065.520000
20
-12725.700000
11
6065.520000
21
-11192.400000
0
LINE
8
Layer 1
10
7598.830000
20
-11192.400000
11
7598.830000
21
-12725.700000
0
LINE
8
Layer 1
10
7598.830000
20
-11192.400000
11
6065.520000
21
-11192.400000
0
LINE
8
Layer 1
10
6065.520000
20
-12725.700000
11
7598.830000
21
-12725.700000
0
LINE
8
Layer 1
10
8183.310000
20
-15370.200000
11
8183.310000
21
-13836.900000
0
LINE
8
Layer 1
10
9716.620000
20
-13836.900000
11
9716.620000
21
-15370.200000
0
LINE
8
Layer 1
10
9716.620000
20
-13836.900000
11
8183.310000
21
-13836.900000
0
LINE
8
Layer 1
10
8183.310000
20
-15370.200000
11
9716.620000
21
-15370.200000
0
LINE
8
Layer 1
10
8183.310000
20
-13255.800000
11
8183.310000
21
-11722.400000
0
LINE
8
Layer 1
10
9716.620000
20
-11722.400000
11
9716.620000
21
-13255.800000
0
LINE
8
Layer 1
10
9716.620000
20
-11722.400000
11
8183.310000
21
-11722.400000
0
LINE
8
Layer 1
10
8183.310000
20
-13255.800000
11
9716.620000
21
-13255.800000
0
LINE
8
Layer 1
10
8182.180000
20
-11140.200000
11
8182.180000
21
-9606.910000
0
LINE
8
Layer 1
10
9715.490000
20
-9606.910000
11
9715.490000
21
-11140.200000
0
LINE
8
Layer 1
10
9715.490000
20
-9606.910000
11
8182.180000
21
-9606.910000
0
LINE
8
Layer 1
10
8182.180000
20
-11140.200000
11
9715.490000
21
-11140.200000
0
LINE
8
Layer 1
10
8183.310000
20
-6903.510000
11
8183.310000
21
-5370.200000
0
LINE
8
Layer 1
10
9716.620000
20
-5370.200000
11
9716.620000
21
-6903.510000
0
LINE
8
Layer 1
10
9716.620000
20
-5370.200000
11
8183.310000
21
-5370.200000
0
LINE
8
Layer 1
10
8183.310000
20
-6903.510000
11
9716.620000
21
-6903.510000
0
LINE
8
Layer 1
10
10301.900000
20
-13781.300000
11
10301.900000
21
-12247.900000
0
LINE
8
Layer 1
10
11835.500000
20
-12247.900000
11
11835.500000
21
-13781.300000
0
LINE
8
Layer 1
10
11835.500000
20
-12247.900000
11
10301.900000
21
-12247.900000
0
LINE
8
Layer 1
10
10301.900000
20
-13781.300000
11
11835.500000
21
-13781.300000
0
LINE
8
Layer 1
10
10298.800000
20
-9022.430000
11
10298.800000
21
-7489.120000
0
LINE
8
Layer 1
10
11832.200000
20
-7489.120000
11
11832.200000
21
-9022.430000
0
LINE
8
Layer 1
10
11832.200000
20
-7489.120000
11
10298.800000
21
-7489.120000
0
LINE
8
Layer 1
10
10298.800000
20
-9022.430000
11
11832.200000
21
-9022.430000
0
LINE
8
Layer 1
10
10297.700000
20
-6906.900000
11
10297.700000
21
-5373.580000
0
LINE
8
Layer 1
10
11831.000000
20
-5373.580000
11
11831.000000
21
-6906.900000
0
LINE
8
Layer 1
10
11831.000000
20
-5373.580000
11
10297.700000
21
-5373.580000
0
LINE
8
Layer 1
10
10297.700000
20
-6906.900000
11
11831.000000
21
-6906.900000
0
LINE
8
Layer 1
10
12417.800000
20
-10079.100000
11
12417.800000
21
-8545.760000
0
LINE
8
Layer 1
10
13951.100000
20
-8545.760000
11
13951.100000
21
-10079.100000
0
LINE
8
Layer 1
10
13951.100000
20
-8545.760000
11
12417.800000
21
-8545.760000
0
LINE
8
Layer 1
10
12417.800000
20
-10079.100000
11
13951.100000
21
-10079.100000
0
LINE
8
Layer 1
10
12416.600000
20
-7965.790000
11
12416.600000
21
-6432.480000
0
LINE
8
Layer 1
10
13950.000000
20
-6432.480000
11
13950.000000
21
-7965.790000
0
LINE
8
Layer 1
10
13950.000000
20
-6432.480000
11
12416.600000
21
-6432.480000
0
LINE
8
Layer 1
10
12416.600000
20
-7965.790000
11
13950.000000
21
-7965.790000
0
LINE
8
Layer 1
10
12415.500000
20
-5849.130000
11
12415.500000
21
-4315.820000
0
LINE
8
Layer 1
10
13948.800000
20
-4315.820000
11
13948.800000
21
-5849.130000
0
LINE
8
Layer 1
10
13948.800000
20
-4315.820000
11
12415.500000
21
-4315.820000
0
LINE
8
Layer 1
10
12415.500000
20
-5849.130000
11
13948.800000
21
-5849.130000
0
LINE
8
Layer 1
10
14533.300000
20
-8491.290000
11
14533.300000
21
-6957.980000
0
LINE
8
Layer 1
10
16066.600000
20
-6957.980000
11
16066.600000
21
-8491.290000
0
LINE
8
Layer 1
10
16066.600000
20
-6957.980000
11
14533.300000
21
-6957.980000
0
LINE
8
Layer 1
10
14533.300000
20
-8491.290000
11
16066.600000
21
-8491.290000
0
LINE
8
Layer 1
10
14538.700000
20
-6375.750000
11
14538.700000
21
-4842.440000
0
LINE
8
Layer 1
10
16072.000000
20
-4842.440000
11
16072.000000
21
-6375.750000
0
LINE
8
Layer 1
10
16072.000000
20
-4842.440000
11
14538.700000
21
-4842.440000
0
LINE
8
Layer 1
10
14538.700000
20
-6375.750000
11
16072.000000
21
-6375.750000
0
LINE
8
Layer 1
10
16650.000000
20
-7959.300000
11
16650.000000
21
-6425.710000
0
LINE
8
Layer 1
10
18183.300000
20
-6425.710000
11
18183.300000
21
-7959.300000
0
LINE
8
Layer 1
10
18183.300000
20
-6425.710000
11
16650.000000
21
-6425.710000
0
LINE
8
Layer 1
10
16650.000000
20
-7959.300000
11
18183.300000
21
-7959.300000
0
LINE
8
Layer 1
10
4513.290000
20
-5750.350000
11
4513.290000
21
-9998.070000
0
LINE
8
Layer 1
10
5770.880000
20
-12791.500000
11
5770.880000
21
-13020.700000
0
LINE
8
Layer 1
10
4513.290000
20
-5606.980000
11
4513.290000
21
-5629.280000
0
LINE
8
Layer 1
10
7888.100000
20
-5606.980000
11
4513.290000
21
-5606.980000
0
LINE
8
Layer 1
10
4513.290000
20
-5750.350000
11
4513.290000
21
-5609.240000
0
LINE
8
Layer 1
10
4656.660000
20
-10141.400000
11
4513.290000
21
-9998.070000
0
LINE
8
Layer 1
10
5770.880000
20
-11255.900000
11
5770.880000
21
-12791.500000
0
LINE
8
Layer 1
10
4656.660000
20
-10141.400000
11
5770.880000
21
-11255.900000
0
LINE
8
Layer 1
10
18477.100000
20
-7194.480000
11
18477.100000
21
-12491.500000
0
LINE
8
Layer 1
10
7888.100000
20
-13020.700000
11
5771.440000
21
-13020.700000
0
LINE
8
Layer 1
10
7888.100000
20
-15666.500000
11
7888.100000
21
-13020.700000
0
LINE
8
Layer 1
10
10010.400000
20
-15666.500000
11
7888.100000
21
-15666.500000
0
LINE
8
Layer 1
10
10010.400000
20
-14079.000000
11
10010.400000
21
-15666.500000
0
LINE
8
Layer 1
10
12127.100000
20
-14079.000000
11
10010.400000
21
-14079.000000
0
LINE
8
Layer 1
10
12127.100000
20
-10374.800000
11
12127.100000
21
-14079.000000
0
LINE
8
Layer 1
10
14238.100000
20
-10374.800000
11
12127.100000
21
-10374.800000
0
LINE
8
Layer 1
10
14238.100000
20
-10904.000000
11
14238.100000
21
-10374.800000
0
LINE
8
Layer 1
10
16354.800000
20
-10904.000000
11
14238.100000
21
-10904.000000
0
LINE
8
Layer 1
10
16354.800000
20
-12491.500000
11
16354.800000
21
-10904.000000
0
LINE
8
Layer 1
10
18477.100000
20
-12491.500000
11
16354.800000
21
-12491.500000
0
LINE
8
Layer 1
10
18477.100000
20
-6136.150000
11
18477.100000
21
-7194.480000
0
LINE
8
Layer 1
10
16360.400000
20
-6136.150000
11
18477.100000
21
-6136.150000
0
LINE
8
Layer 1
10
16360.400000
20
-4548.650000
11
16360.400000
21
-6136.150000
0
LINE
8
Layer 1
10
14243.700000
20
-4548.650000
11
16360.400000
21
-4548.650000
0
LINE
8
Layer 1
10
14243.700000
20
-4019.480000
11
14243.700000
21
-4548.650000
0
LINE
8
Layer 1
10
12121.400000
20
-4019.480000
11
14243.700000
21
-4019.480000
0
LINE
8
Layer 1
10
12121.400000
20
-5077.810000
11
12121.400000
21
-4019.480000
0
LINE
8
Layer 1
10
7888.100000
20
-5077.810000
11
12121.400000
21
-5077.810000
0
LINE
8
Layer 1
10
7888.100000
20
-5077.810000
11
7888.100000
21
-5606.980000
 0 
ENDSEC
 0 
EOF