0
SECTION
2
HEADER
9
$INSUNITS
70
4
9
$ACADVER
1
AC1014
9
$HANDSEED
5
FFFF
0
ENDSEC
0
SECTION
2
TABLES
0
TABLE
2
VPORT
5
8
100
AcDbSymbolTable
0
ENDTAB
0
TABLE
2
LTYPE
5
5
100
AcDbSymbolTable
0
LTYPE
5
14
100
AcDbSymbolTableRecord
100
AcDbLinetypeTableRecord
2
BYBLOCK
70
0
0
LTYPE
5
15
100
AcDbSymbolTableRecord
100
AcDbLinetypeTableRecord
2
BYLAYER
70
0
0
ENDTAB
0
TABLE
2
LAYER
5
2
100
AcDbSymbolTable
70
2
0
LAYER
5
50
100
AcDbSymbolTableRecord
100
AcDbLayerTableRecord
2
0
70
0
6
CONTINUOUS
0
ENDTAB
0
TABLE
2
STYLE
5
3
100
AcDbSymbolTable
70
1
0
STYLE
5
11
100
AcDbSymbolTableRecord
100
AcDbTextStyleTableRecord
2
STANDARD
70
0
0
ENDTAB
0
TABLE
2
VIEW
5
6
100
AcDbSymbolTable
70
0
0
ENDTAB
0
TABLE
2
UCS
5
7
100
AcDbSymbolTable
70
0
0
ENDTAB
0
TABLE
2
APPID
5
9
100
AcDbSymbolTable
70
2
0
APPID
5
12
100
AcDbSymbolTableRecord
100
AcDbRegAppTableRecord
2
ACAD
70
0
0
ENDTAB
0
TABLE
2
DIMSTYLE
5
A
100
AcDbSymbolTable
70
1
0
ENDTAB
0
TABLE
2
BLOCK_RECORD
5
1
100
AcDbSymbolTable
70
1
0
BLOCK_RECORD
5
1F
100
AcDbSymbolTableRecord
100
AcDbBlockTableRecord
2
*MODEL_SPACE
0
BLOCK_RECORD
5
1B
100
AcDbSymbolTableRecord
100
AcDbBlockTableRecord
2
*PAPER_SPACE
0
ENDTAB
0
ENDSEC
0
SECTION
2
BLOCKS
0
BLOCK
5
20
100
AcDbEntity
100
AcDbBlockBegin
2
*MODEL_SPACE
0
ENDBLK
5
21
100
AcDbEntity
100
AcDbBlockEnd
0
BLOCK
5
1C
100
AcDbEntity
100
AcDbBlockBegin
2
*PAPER_SPACE
0
ENDBLK
5
1D
100
AcDbEntity
100
AcDbBlockEnd
0
ENDSEC
0
SECTION
2
ENTITIES
0
LWPOLYLINE
5
100
100
AcDbEntity
8
0
100
AcDbPolyline
90
4
70
1
43
0.0
10
92.699840000000009
20
-86.452131000000008
10
92.699840000000009
20
-100.25195100000002
10
106.49966000000001
20
-100.25195100000002
10
106.49966000000001
20
-86.452131000000008
0
LWPOLYLINE
5
101
100
AcDbEntity
8
0
100
AcDbPolyline
90
4
70
1
43
0.0
10
144.58949999999999
20
-95.491991000000013
10
144.58949999999999
20
-81.692171000000002
10
130.78968
20
-81.692171000000002
10
130.78968
20
-95.491991000000013
0
LWPOLYLINE
5
102
100
AcDbEntity
8
0
100
AcDbPolyline
90
4
70
1
43
0.0
10
149.86000000000001
20
-76.922050999999996
10
163.65982
20
-76.922050999999996
10
163.65982
20
-90.721870999999993
10
149.86000000000001
20
-90.721870999999993
0
LWPOLYLINE
5
103
100
AcDbEntity
8
0
100
AcDbPolyline
90
4
70
1
43
0.0
10
54.589680000000001
20
-100.732011
10
68.389499999999998
20
-100.732011
10
68.389499999999998
20
-114.53183100000003
10
54.589680000000001
20
-114.53183100000003
0
LWPOLYLINE
5
104
100
AcDbEntity
8
0
100
AcDbPolyline
90
4
70
1
43
0.0
10
73.649839999999998
20
-124.53181100000002
10
87.449659999999994
20
-124.53181100000002
10
87.449659999999994
20
-138.33163100000002
10
73.649839999999998
20
-138.33163100000002
0
LWPOLYLINE
5
105
100
AcDbEntity
8
0
100
AcDbPolyline
90
4
70
1
43
0.0
10
163.65982
20
-109.76171100000002
10
149.86000000000001
20
-109.76171100000002
10
149.86000000000001
20
-95.961891000000023
10
163.65982
20
-95.961891000000023
0
LWPOLYLINE
5
106
100
AcDbEntity
8
0
100
AcDbPolyline
90
4
70
1
43
0.0
10
87.398859999999999
20
-81.133371000000011
10
73.599040000000002
20
-81.133371000000011
10
73.599040000000002
20
-67.333551
10
87.398859999999999
20
-67.333551
0
LWPOLYLINE
5
107
100
AcDbEntity
8
0
100
AcDbPolyline
90
4
70
1
43
0.0
10
87.449659999999994
20
-119.301951
10
87.449659999999994
20
-105.50213100000001
10
73.649839999999998
20
-105.50213100000001
10
73.649839999999998
20
-119.301951
0
LINE
5
108
100
AcDbEntity
8
0
100
AcDbLine
10
51.937920000000005
20
-115.123651
30
0
11
51.937920000000005
21
-117.186131
31
0
0
LWPOLYLINE
5
109
100
AcDbEntity
8
0
100
AcDbPolyline
90
4
70
1
43
0.0
10
144.64792
20
-57.381831000000005
10
130.84809999999999
20
-57.381831000000005
10
130.84809999999999
20
-43.582011000000008
10
144.64792
20
-43.582011000000008
0
LWPOLYLINE
5
110
100
AcDbEntity
8
0
100
AcDbPolyline
90
4
70
1
43
0.0
10
106.47933999999999
20
-62.162110999999996
10
92.679519999999997
20
-62.162110999999996
10
92.679519999999997
20
-48.362291000000006
10
106.47933999999999
20
-48.362291000000006
0
LWPOLYLINE
5
111
100
AcDbEntity
8
0
100
AcDbPolyline
90
4
70
1
43
0.0
10
163.64966000000004
20
-71.633770999999996
10
163.64966000000004
20
-57.831411000000003
10
149.84984
20
-57.831411000000003
10
149.84984
20
-71.633770999999996
0
LINE
5
112
100
AcDbEntity
8
0
100
AcDbLine
10
90.093800000000002
20
-140.99863100000002
30
0
11
70.992999999999995
21
-140.99863100000002
31
0
0
LINE
5
113
100
AcDbEntity
8
0
100
AcDbLine
10
166.2938
20
-64.750371000000001
30
0
11
166.2938
21
-112.423631
31
0
0
LWPOLYLINE
5
114
100
AcDbEntity
8
0
100
AcDbPolyline
90
4
70
1
43
0.0
10
73.649839999999998
20
-48.331811000000009
10
87.449659999999994
20
-48.331811000000009
10
87.449659999999994
20
-62.131631000000013
10
73.649839999999998
20
-62.131631000000013
0
LINE
5
115
100
AcDbEntity
8
0
100
AcDbLine
10
70.992999999999995
20
-117.186131
30
0
11
51.942999999999998
21
-117.186131
31
0
0
LWPOLYLINE
5
116
100
AcDbEntity
8
0
100
AcDbPolyline
90
4
70
1
43
0.0
10
106.48950000000001
20
-81.201951000000008
10
92.68968000000001
20
-81.201951000000008
10
92.68968000000001
20
-67.402131000000026
10
106.48950000000001
20
-67.402131000000026
0
LWPOLYLINE
5
117
100
AcDbEntity
8
0
100
AcDbPolyline
90
4
70
1
43
0.0
10
111.73968000000002
20
-38.842371
10
125.5395
20
-38.842371
10
125.5395
20
-52.642191000000011
10
111.73968000000002
20
-52.642191000000011
0
LWPOLYLINE
5
118
100
AcDbEntity
8
0
100
AcDbPolyline
90
4
70
1
43
0.0
10
125.55982
20
-90.711710999999994
10
125.55982
20
-76.911890999999997
10
111.76000000000002
20
-76.911890999999997
10
111.76000000000002
20
-90.711710999999994
0
LWPOLYLINE
5
119
100
AcDbEntity
8
0
100
AcDbPolyline
90
4
70
1
43
0.0
10
92.717620000000011
20
-110.23161100000003
10
92.717620000000011
20
-124.03143100000001
10
106.51998
20
-124.03143100000001
10
106.51998
20
-110.23161100000003
0
LINE
5
120
100
AcDbEntity
8
0
100
AcDbLine
10
70.992999999999995
20
-140.99863100000002
30
0
11
70.992999999999995
21
-117.186131
31
0
0
LWPOLYLINE
5
121
100
AcDbEntity
8
0
100
AcDbPolyline
90
4
70
1
43
0.0
10
130.79983999999999
20
-62.621850999999999
10
130.79983999999999
20
-76.421670999999989
10
144.59966000000003
20
-76.421670999999989
10
144.59966000000003
20
-62.621850999999999
0
LINE
5
122
100
AcDbEntity
8
0
100
AcDbLine
10
51.937920000000005
20
-101.37852053968621
30
0
11
51.937920000000005
21
-115.123651
31
0
0
LINE
5
123
100
AcDbEntity
8
0
100
AcDbLine
10
109.14380000000001
20
-126.71113100000001
30
0
11
90.093800000000002
21
-126.71113100000001
31
0
0
LWPOLYLINE
5
124
100
AcDbEntity
8
0
100
AcDbPolyline
90
4
70
1
43
0.0
10
73.639679999999998
20
-86.462291000000008
10
73.639679999999998
20
-100.262111
10
87.439499999999995
20
-100.262111
10
87.439499999999995
20
-86.462291000000008
0
LINE
5
125
100
AcDbEntity
8
0
100
AcDbLine
10
128.143
20
-93.373631000000017
30
0
11
109.14380000000001
21
-93.373631000000017
31
0
0
LINE
5
126
100
AcDbEntity
8
0
100
AcDbLine
10
109.14380000000001
20
-93.373631000000017
30
0
11
109.14380000000001
21
-126.71113100000001
31
0
0
LWPOLYLINE
5
127
100
AcDbEntity
8
0
100
AcDbPolyline
90
4
70
1
43
0.0
10
111.74984000000001
20
-57.892371000000004
10
111.74984000000001
20
-71.692191000000008
10
125.54966
20
-71.692191000000008
10
125.54966
20
-57.892371000000004
0
LINE
5
128
100
AcDbEntity
8
0
100
AcDbLine
10
90.093800000000002
20
-126.71113100000001
30
0
11
90.093800000000002
21
-140.99863100000002
31
0
0
LINE
5
129
100
AcDbEntity
8
0
100
AcDbLine
10
147.19300000000001
20
-98.136131000000006
30
0
11
128.143
21
-98.136131000000006
31
0
0
LINE
5
130
100
AcDbEntity
8
0
100
AcDbLine
10
128.143
20
-98.136131000000006
30
0
11
128.143
21
-93.373631000000017
31
0
0
LINE
5
131
100
AcDbEntity
8
0
100
AcDbLine
10
147.24379999999999
20
-40.937871000000001
30
0
11
147.24379999999999
21
-55.225371000000003
31
0
0
LINE
5
132
100
AcDbEntity
8
0
100
AcDbLine
10
128.19380000000001
20
-36.175371000000005
30
0
11
128.19380000000001
21
-40.937871000000001
31
0
0
LINE
5
133
100
AcDbEntity
8
0
100
AcDbLine
10
70.992999999999995
20
-45.700371000000004
30
0
11
70.992999999999995
21
-50.462871000000007
31
0
0
LINE
5
134
100
AcDbEntity
8
0
100
AcDbLine
10
109.09300000000002
20
-36.175371000000005
30
0
11
128.19380000000001
21
-36.175371000000005
31
0
0
LINE
5
135
100
AcDbEntity
8
0
100
AcDbLine
10
166.2938
20
-55.225371000000003
30
0
11
166.2938
21
-64.750371000000001
31
0
0
LINE
5
136
100
AcDbEntity
8
0
100
AcDbLine
10
147.19300000000001
20
-112.423631
30
0
11
147.19300000000001
21
-98.136131000000006
31
0
0
LINE
5
137
100
AcDbEntity
8
0
100
AcDbLine
10
70.992999999999995
20
-45.700371000000004
30
0
11
109.09300000000002
21
-45.700371000000004
31
0
0
LINE
5
138
100
AcDbEntity
8
0
100
AcDbLine
10
166.2938
20
-112.423631
30
0
11
147.19300000000001
21
-112.423631
31
0
0
LINE
5
139
100
AcDbEntity
8
0
100
AcDbLine
10
128.19380000000001
20
-40.937871000000001
30
0
11
147.24379999999999
21
-40.937871000000001
31
0
0
LINE
5
140
100
AcDbEntity
8
0
100
AcDbLine
10
109.09300000000002
20
-45.700371000000004
30
0
11
109.09300000000002
21
-36.175371000000005
31
0
0
LINE
5
141
100
AcDbEntity
8
0
100
AcDbLine
10
147.24379999999999
20
-55.225371000000003
30
0
11
166.2938
21
-55.225371000000003
31
0
0
LINE
5
142
100
AcDbEntity
8
0
100
AcDbLine
10
70.992999999999995
20
-50.462871000000007
30
0
11
70.992999999999995
21
-97.000001445412636
31
0
0
LINE
5
143
100
AcDbEntity
8
0
100
AcDbLine
10
54.589680000000001
20
-98.075010999999989
30
0
11
70.992999999999995
21
-98.075010999999989
31
0
0
LINE
5
144
100
AcDbEntity
8
0
100
AcDbLine
10
70.992999999999995
20
-98.075010999999989
30
0
11
70.992999999999995
21
-97.000001445412636
31
0
0
LINE
5
145
100
AcDbEntity
8
0
100
AcDbLine
10
51.937920000000005
20
-101.37852053968621
30
0
11
51.937920000000005
21
-98.075010999999989
31
0
0
LINE
5
146
100
AcDbEntity
8
0
100
AcDbLine
10
51.937920000000005
20
-98.075010999999989
30
0
11
54.589680000000001
21
-98.075010999999989
31
0
0
LINE
5
147
100
AcDbEntity
8
0
100
AcDbLine
10
51.937920000000005
20
-98.075010999999989
30
0
11
51.942999999999998
21
-117.186131
31
0
0
LWPOLYLINE
5
148
100
AcDbEntity
8
0
100
AcDbPolyline
90
7
70
1
43
0.0
10
51.940460000000002
20
-111.63057085868603
10
51.940460000000002
20
-107.630571
10
51.939396744718145
20
-103.63057114131399
10
46.43939693902486
20
-103.63203311732654
42
0.41421356237309609
10
43.940061561897252
20
-106.13269756355646
10
43.940858614721719
20
-109.13123539323719
42
0.41413570944955586
10
46.44085852640049
20
-111.63057085868604
0
CIRCLE
5
149
100
AcDbEntity
8
0
100
AcDbCircle
10
47.939396886032114
20
-107.63163425528188
30
0
40
1.9999999999999984
210
0
220
0
230
1
0
LINE
5
150
100
AcDbEntity
8
0
100
AcDbLine
10
70.992999999999995
20
-45.700371000000004
30
0
11
90.043000000000006
21
-45.700371000000004
31
0
0
LWPOLYLINE
5
151
100
AcDbEntity
8
0
100
AcDbPolyline
90
7
70
1
43
0.0
10
76.518000000000001
20
-45.700371000000004
10
80.518000000000001
20
-45.700371000000004
10
84.518000000000001
20
-45.700371000000004
10
84.518000000000001
20
-40.200371000000004
42
0.41421356237308982
10
82.018000000000029
20
-37.700370999999997
10
79.018000000000001
20
-37.700371000000004
42
0.41421356237309398
10
76.517999999999986
20
-40.200371000000004
0
CIRCLE
5
152
100
AcDbEntity
8
0
100
AcDbCircle
10
80.518000000000001
20
-41.700371000000004
30
0
40
2.0000000000000018
210
0
220
0
230
1
0
ENDSEC
0
SECTION
2
OBJECTS
0
DICTIONARY
5
C
100
AcDbDictionary
3
ACAD_GROUP
350
D
3
ACAD_MLINESTYLE
350
17
0
DICTIONARY
5
D
100
AcDbDictionary
0
DICTIONARY
5
1A
330
C
100
AcDbDictionary
0
DICTIONARY
5
17
100
AcDbDictionary
0
ENDSEC
0
EOF
