%TF.GenerationSoftware,KiCad,Pcbnew,5.1.10*%
%TF.CreationDate,2021-06-14T18:34:52+02:00*%
%TF.ProjectId,scattered-bat-plate-1,73636174-7465-4726-9564-2d6261742d70,rev?*%
%TF.SameCoordinates,Original*%
%TF.FileFunction,Profile,NP*%
%FSLAX46Y46*%
G04 Gerber Fmt 4.6, Leading zero omitted, Abs format (unit mm)*
G04 Created by KiCad (PCBNEW 5.1.10) date 2021-06-14 18:34:52*
%MOMM*%
%LPD*%
G01*
G04 APERTURE LIST*
%TA.AperFunction,Profile*%
%ADD10C,0.100000*%
%TD*%
G04 APERTURE END LIST*
D10*
X95809680Y-112330000D02*
X112210000Y-112330000D01*
X95809680Y-112330000D02*
X89950000Y-112330000D01*
X112213000Y-64701000D02*
X112213000Y-112330000D01*
X89950000Y-112330000D02*
X89950000Y-131424260D01*
X93157920Y-131424260D02*
X89950000Y-131424260D01*
X112213000Y-59938500D02*
X112213000Y-64701000D01*
X150313000Y-59938500D02*
X112213000Y-59938500D01*
X150313000Y-50413500D02*
X150313000Y-59938500D01*
X169413800Y-50413500D02*
X150313000Y-50413500D01*
X169413800Y-55176000D02*
X169413800Y-50413500D01*
X188463800Y-55176000D02*
X169413800Y-55176000D01*
X112213000Y-131424260D02*
X112213000Y-155236760D01*
X131313800Y-155236760D02*
X112213000Y-155236760D01*
X131313800Y-140949260D02*
X131313800Y-155236760D01*
X150363800Y-140949260D02*
X131313800Y-140949260D01*
X150363800Y-107611760D02*
X150363800Y-140949260D01*
X169363000Y-107611760D02*
X150363800Y-107611760D01*
X169363000Y-112374260D02*
X169363000Y-107611760D01*
X188413000Y-112374260D02*
X169363000Y-112374260D01*
X188413000Y-126661760D02*
X188413000Y-112374260D01*
X207513800Y-126661760D02*
X188413000Y-126661760D01*
X207513800Y-69463500D02*
X207513800Y-126661760D01*
X188463800Y-69463500D02*
X207513800Y-69463500D01*
X188463800Y-55176000D02*
X188463800Y-69463500D01*
X112213000Y-131424260D02*
X93157920Y-131424260D01*
X114869840Y-152569760D02*
X114869840Y-138769940D01*
X185867920Y-57820140D02*
X185867920Y-71619960D01*
X172019839Y-90659800D02*
X185819660Y-90659800D01*
X147739980Y-124469740D02*
X133937620Y-124469740D01*
X114869840Y-76369760D02*
X114869840Y-62569940D01*
X133899520Y-76400240D02*
X147699340Y-76400240D01*
X166779820Y-91150020D02*
X166779820Y-104949840D01*
X204879820Y-110200020D02*
X204879820Y-123999840D01*
X133937620Y-138269560D02*
X147739980Y-138269560D01*
X128669660Y-62569940D02*
X128669660Y-76369760D01*
X114869840Y-133540080D02*
X114869840Y-119740260D01*
X172068099Y-71619960D02*
X185867920Y-71619960D01*
X185819660Y-76859980D02*
X185819660Y-90659800D01*
X147719660Y-100690260D02*
X133919840Y-100690260D01*
X114819040Y-95371500D02*
X114819040Y-81571680D01*
X204879820Y-110200020D02*
X191080000Y-110200020D01*
X152980000Y-104949840D02*
X166779820Y-104949840D01*
X185809500Y-95930300D02*
X185809500Y-109730120D01*
X147739980Y-124469740D02*
X147739980Y-138269560D01*
X191069840Y-85871900D02*
X204869660Y-85871900D01*
X114859680Y-114500240D02*
X114859680Y-100700420D01*
X147709500Y-81640260D02*
X133909680Y-81640260D01*
X152969840Y-85930320D02*
X152969840Y-72130500D01*
X114819040Y-95371500D02*
X128618860Y-95371500D01*
X147699340Y-62600420D02*
X147699340Y-76400240D01*
X128659500Y-100700420D02*
X114859680Y-100700420D01*
X191069840Y-85871900D02*
X191069840Y-72069540D01*
X109609500Y-114970140D02*
X109609500Y-128769960D01*
X191080000Y-123999840D02*
X204879820Y-123999840D01*
X147699340Y-62600420D02*
X133899520Y-62600420D01*
X128618860Y-81571680D02*
X128618860Y-95371500D01*
X172009680Y-109730120D02*
X185809500Y-109730120D01*
X128669660Y-138769940D02*
X114869840Y-138769940D01*
X133937620Y-138269560D02*
X133937620Y-124469740D01*
X204869660Y-72069540D02*
X191069840Y-72069540D01*
X133909680Y-95440080D02*
X133909680Y-81640260D01*
X172068099Y-71619960D02*
X172068099Y-57820140D01*
X109609500Y-114970140D02*
X95809680Y-114970140D01*
X166759500Y-53080500D02*
X166759500Y-66880320D01*
X128669660Y-138769940D02*
X128669660Y-152569760D01*
X204879820Y-91160180D02*
X204879820Y-104960000D01*
X133919840Y-114490080D02*
X133919840Y-100690260D01*
X95809680Y-128769960D02*
X109609500Y-128769960D01*
X204869660Y-72069540D02*
X204869660Y-85871900D01*
X185867920Y-57820140D02*
X172068099Y-57820140D01*
X152959680Y-66880320D02*
X166759500Y-66880320D01*
X191080000Y-104960000D02*
X191080000Y-91160180D01*
X166769660Y-72130500D02*
X152969840Y-72130500D01*
X147719660Y-100690260D02*
X147719660Y-114490080D01*
X152959680Y-66880320D02*
X152959680Y-53080500D01*
X128618860Y-81571680D02*
X114819040Y-81571680D01*
X128659500Y-100700420D02*
X128659500Y-114500240D01*
X204879820Y-91160180D02*
X191080000Y-91160180D01*
X128669660Y-62569940D02*
X114869840Y-62569940D01*
X114869840Y-76369760D02*
X128669660Y-76369760D01*
X166779820Y-91150020D02*
X152980000Y-91150020D01*
X172019839Y-90659800D02*
X172019839Y-76859980D01*
X128669660Y-119740260D02*
X128669660Y-133540080D01*
X166759500Y-53080500D02*
X152959680Y-53080500D01*
X133919840Y-114490080D02*
X147719660Y-114490080D01*
X191080000Y-123999840D02*
X191080000Y-110200020D01*
X185819660Y-76859980D02*
X172019839Y-76859980D01*
X114859680Y-114500240D02*
X128659500Y-114500240D01*
X172009680Y-109730120D02*
X172009680Y-95930300D01*
X128669660Y-119740260D02*
X114869840Y-119740260D01*
X114869840Y-152569760D02*
X128669660Y-152569760D01*
X185809500Y-95930300D02*
X172009680Y-95930300D01*
X152969840Y-85930320D02*
X166769660Y-85930320D01*
X152980000Y-104949840D02*
X152980000Y-91150020D01*
X166769660Y-72130500D02*
X166769660Y-85930320D01*
X133909680Y-95440080D02*
X147709500Y-95440080D01*
X147709500Y-81640260D02*
X147709500Y-95440080D01*
X133899520Y-76400240D02*
X133899520Y-62600420D01*
X95809680Y-128769960D02*
X95809680Y-114970140D01*
X114869840Y-133540080D02*
X128669660Y-133540080D01*
X191080000Y-104960000D02*
X204879820Y-104960000D01*
M02*
