%TF.GenerationSoftware,KiCad,Pcbnew,5.1.10*%
%TF.CreationDate,2021-06-14T18:34:52+02:00*%
%TF.ProjectId,scattered-bat-plate-1,73636174-7465-4726-9564-2d6261742d70,rev?*%
%TF.SameCoordinates,Original*%
%TF.FileFunction,Legend,Bot*%
%TF.FilePolarity,Positive*%
%FSLAX46Y46*%
G04 Gerber Fmt 4.6, Leading zero omitted, Abs format (unit mm)*
G04 Created by KiCad (PCBNEW 5.1.10) date 2021-06-14 18:34:52*
%MOMM*%
%LPD*%
G01*
G04 APERTURE LIST*
%ADD10C,0.100000*%
%ADD11C,0.036000*%
G04 APERTURE END LIST*
D10*
X146007142Y-123280000D02*
X145721428Y-123280000D01*
X146064285Y-123451428D02*
X145864285Y-122851428D01*
X145664285Y-123451428D01*
X145064285Y-123051428D02*
X144950000Y-123451428D01*
X144835714Y-123165714D01*
X144721428Y-123451428D01*
X144607142Y-123051428D01*
X144378571Y-123451428D02*
X144378571Y-123051428D01*
X144378571Y-122851428D02*
X144407142Y-122880000D01*
X144378571Y-122908571D01*
X144350000Y-122880000D01*
X144378571Y-122851428D01*
X144378571Y-122908571D01*
X144121428Y-123422857D02*
X144064285Y-123451428D01*
X143950000Y-123451428D01*
X143892857Y-123422857D01*
X143864285Y-123365714D01*
X143864285Y-123337142D01*
X143892857Y-123280000D01*
X143950000Y-123251428D01*
X144035714Y-123251428D01*
X144092857Y-123222857D01*
X144121428Y-123165714D01*
X144121428Y-123137142D01*
X144092857Y-123080000D01*
X144035714Y-123051428D01*
X143950000Y-123051428D01*
X143892857Y-123080000D01*
X143607142Y-123451428D02*
X143607142Y-122851428D01*
X143350000Y-123451428D02*
X143350000Y-123137142D01*
X143378571Y-123080000D01*
X143435714Y-123051428D01*
X143521428Y-123051428D01*
X143578571Y-123080000D01*
X143607142Y-123108571D01*
X142692857Y-123051428D02*
X142464285Y-123051428D01*
X142607142Y-123451428D02*
X142607142Y-122937142D01*
X142578571Y-122880000D01*
X142521428Y-122851428D01*
X142464285Y-122851428D01*
X142178571Y-123451428D02*
X142235714Y-123422857D01*
X142264285Y-123394285D01*
X142292857Y-123337142D01*
X142292857Y-123165714D01*
X142264285Y-123108571D01*
X142235714Y-123080000D01*
X142178571Y-123051428D01*
X142092857Y-123051428D01*
X142035714Y-123080000D01*
X142007142Y-123108571D01*
X141978571Y-123165714D01*
X141978571Y-123337142D01*
X142007142Y-123394285D01*
X142035714Y-123422857D01*
X142092857Y-123451428D01*
X142178571Y-123451428D01*
X141721428Y-123451428D02*
X141721428Y-123051428D01*
X141721428Y-123165714D02*
X141692857Y-123108571D01*
X141664285Y-123080000D01*
X141607142Y-123051428D01*
X141550000Y-123051428D01*
X140921428Y-123422857D02*
X140864285Y-123451428D01*
X140750000Y-123451428D01*
X140692857Y-123422857D01*
X140664285Y-123365714D01*
X140664285Y-123337142D01*
X140692857Y-123280000D01*
X140750000Y-123251428D01*
X140835714Y-123251428D01*
X140892857Y-123222857D01*
X140921428Y-123165714D01*
X140921428Y-123137142D01*
X140892857Y-123080000D01*
X140835714Y-123051428D01*
X140750000Y-123051428D01*
X140692857Y-123080000D01*
X140150000Y-123451428D02*
X140150000Y-123137142D01*
X140178571Y-123080000D01*
X140235714Y-123051428D01*
X140350000Y-123051428D01*
X140407142Y-123080000D01*
X140150000Y-123422857D02*
X140207142Y-123451428D01*
X140350000Y-123451428D01*
X140407142Y-123422857D01*
X140435714Y-123365714D01*
X140435714Y-123308571D01*
X140407142Y-123251428D01*
X140350000Y-123222857D01*
X140207142Y-123222857D01*
X140150000Y-123194285D01*
X139778571Y-123451428D02*
X139835714Y-123422857D01*
X139864285Y-123365714D01*
X139864285Y-122851428D01*
X139607142Y-123051428D02*
X139464285Y-123451428D01*
X139321428Y-123051428D01*
X138835714Y-123451428D02*
X138835714Y-123137142D01*
X138864285Y-123080000D01*
X138921428Y-123051428D01*
X139035714Y-123051428D01*
X139092857Y-123080000D01*
X138835714Y-123422857D02*
X138892857Y-123451428D01*
X139035714Y-123451428D01*
X139092857Y-123422857D01*
X139121428Y-123365714D01*
X139121428Y-123308571D01*
X139092857Y-123251428D01*
X139035714Y-123222857D01*
X138892857Y-123222857D01*
X138835714Y-123194285D01*
X138635714Y-123051428D02*
X138407142Y-123051428D01*
X138550000Y-122851428D02*
X138550000Y-123365714D01*
X138521428Y-123422857D01*
X138464285Y-123451428D01*
X138407142Y-123451428D01*
X138207142Y-123451428D02*
X138207142Y-123051428D01*
X138207142Y-122851428D02*
X138235714Y-122880000D01*
X138207142Y-122908571D01*
X138178571Y-122880000D01*
X138207142Y-122851428D01*
X138207142Y-122908571D01*
X137835714Y-123451428D02*
X137892857Y-123422857D01*
X137921428Y-123394285D01*
X137950000Y-123337142D01*
X137950000Y-123165714D01*
X137921428Y-123108571D01*
X137892857Y-123080000D01*
X137835714Y-123051428D01*
X137750000Y-123051428D01*
X137692857Y-123080000D01*
X137664285Y-123108571D01*
X137635714Y-123165714D01*
X137635714Y-123337142D01*
X137664285Y-123394285D01*
X137692857Y-123422857D01*
X137750000Y-123451428D01*
X137835714Y-123451428D01*
X137378571Y-123051428D02*
X137378571Y-123451428D01*
X137378571Y-123108571D02*
X137350000Y-123080000D01*
X137292857Y-123051428D01*
X137207142Y-123051428D01*
X137150000Y-123080000D01*
X137121428Y-123137142D01*
X137121428Y-123451428D01*
D11*
X133569037Y-121246753D02*
X133548581Y-121216391D01*
X133548581Y-121216391D02*
X133548558Y-121215096D01*
X132618004Y-116956093D02*
X132336583Y-116665393D01*
X133493161Y-117346297D02*
X133464442Y-117316631D01*
X133464442Y-117316631D02*
X133435809Y-117287054D01*
X133435809Y-117287054D02*
X133407274Y-117257578D01*
X133407274Y-117257578D02*
X133378847Y-117228214D01*
X133378847Y-117228214D02*
X133350542Y-117198975D01*
X133350542Y-117198975D02*
X133322369Y-117169874D01*
X133322369Y-117169874D02*
X133294341Y-117140922D01*
X133294341Y-117140922D02*
X133266470Y-117112132D01*
X133266470Y-117112132D02*
X133238767Y-117083515D01*
X133238767Y-117083515D02*
X133211244Y-117055085D01*
X133211244Y-117055085D02*
X133183914Y-117026854D01*
X133183914Y-117026854D02*
X133156787Y-116998833D01*
X133156787Y-116998833D02*
X133129876Y-116971035D01*
X133129876Y-116971035D02*
X133103193Y-116943472D01*
X133103193Y-116943472D02*
X133076750Y-116916156D01*
X133076750Y-116916156D02*
X133050557Y-116889101D01*
X133050557Y-116889101D02*
X133024628Y-116862317D01*
X133024628Y-116862317D02*
X132998974Y-116835817D01*
X132998974Y-116835817D02*
X132973607Y-116809614D01*
X132973607Y-116809614D02*
X132948539Y-116783719D01*
X132948539Y-116783719D02*
X132899346Y-116732904D01*
X132899346Y-116732904D02*
X132851490Y-116683471D01*
X132851490Y-116683471D02*
X132805067Y-116635516D01*
X132805067Y-116635516D02*
X132760170Y-116589139D01*
X132760170Y-116589139D02*
X132716895Y-116544437D01*
X132716895Y-116544437D02*
X132675337Y-116501509D01*
X132336584Y-118207112D02*
X132371263Y-118221644D01*
X132371263Y-118221644D02*
X132382567Y-118238850D01*
X133117546Y-121215096D02*
X133126972Y-121179847D01*
X133126972Y-121179847D02*
X133137011Y-121166551D01*
X130718369Y-117823149D02*
X130746688Y-117852402D01*
X130746688Y-117852402D02*
X130776903Y-117883613D01*
X130776903Y-117883613D02*
X130806408Y-117914091D01*
X130806408Y-117914091D02*
X130841632Y-117950476D01*
X130841632Y-117950476D02*
X130868226Y-117977947D01*
X130868226Y-117977947D02*
X130897264Y-118007942D01*
X130897264Y-118007942D02*
X130928706Y-118040422D01*
X130928706Y-118040422D02*
X130962514Y-118075344D01*
X130962514Y-118075344D02*
X130998647Y-118112668D01*
X130998647Y-118112668D02*
X131037067Y-118152355D01*
X131037067Y-118152355D02*
X131057123Y-118173072D01*
X132237037Y-117401940D02*
X132243714Y-117364918D01*
X132243714Y-117364918D02*
X132262790Y-117332924D01*
X132262790Y-117332924D02*
X132266193Y-117329230D01*
X132675337Y-116501509D02*
X132635788Y-116460656D01*
X132635788Y-116460656D02*
X132598506Y-116422145D01*
X132598506Y-116422145D02*
X132563530Y-116386016D01*
X132563530Y-116386016D02*
X132530900Y-116352311D01*
X132530900Y-116352311D02*
X132500655Y-116321068D01*
X132500655Y-116321068D02*
X132472834Y-116292330D01*
X132472834Y-116292330D02*
X132447476Y-116266136D01*
X132447476Y-116266136D02*
X132414143Y-116231705D01*
X132414143Y-116231705D02*
X132386574Y-116203227D01*
X132386574Y-116203227D02*
X132359009Y-116174754D01*
X132359009Y-116174754D02*
X132336581Y-116151586D01*
X126958674Y-118471396D02*
X129699005Y-118471396D01*
X133605187Y-121239325D02*
X133569037Y-121246755D01*
X134076337Y-121201936D02*
X134070000Y-121238472D01*
X134070000Y-121238472D02*
X134069129Y-121239409D01*
X132354830Y-121215069D02*
X135602782Y-117860031D01*
X135367569Y-124121318D02*
X135168055Y-124121160D01*
X132336583Y-119391819D02*
X131238832Y-118257878D01*
X132336583Y-116665393D02*
X132055115Y-116956142D01*
X132254473Y-116991673D02*
X132284420Y-116969325D01*
X132284420Y-116969325D02*
X132319436Y-116957856D01*
X132319436Y-116957856D02*
X132336584Y-116956542D01*
X134668406Y-117825288D02*
X134640085Y-117796034D01*
X134640085Y-117796034D02*
X134609871Y-117764823D01*
X134609871Y-117764823D02*
X134580366Y-117734346D01*
X134580366Y-117734346D02*
X134545141Y-117697960D01*
X134545141Y-117697960D02*
X134518547Y-117670489D01*
X134518547Y-117670489D02*
X134489509Y-117640494D01*
X134489509Y-117640494D02*
X134458066Y-117608014D01*
X134458066Y-117608014D02*
X134424259Y-117573092D01*
X134424259Y-117573092D02*
X134388125Y-117535768D01*
X134388125Y-117535768D02*
X134349706Y-117496081D01*
X134349706Y-117496081D02*
X134329651Y-117475365D01*
X134329651Y-117475365D02*
X134288092Y-117432436D01*
X134288092Y-117432436D02*
X134244817Y-117387734D01*
X134244817Y-117387734D02*
X134199920Y-117341357D01*
X134199920Y-117341357D02*
X134153496Y-117293403D01*
X134153496Y-117293403D02*
X134105641Y-117243970D01*
X134105641Y-117243970D02*
X134056448Y-117193155D01*
X134056448Y-117193155D02*
X134031379Y-117167260D01*
X134031379Y-117167260D02*
X134006012Y-117141057D01*
X134006012Y-117141057D02*
X133980358Y-117114557D01*
X133980358Y-117114557D02*
X133954429Y-117087773D01*
X133954429Y-117087773D02*
X133928237Y-117060717D01*
X133928237Y-117060717D02*
X133901793Y-117033402D01*
X133901793Y-117033402D02*
X133875110Y-117005839D01*
X133875110Y-117005839D02*
X133848199Y-116978041D01*
X133848199Y-116978041D02*
X133821072Y-116950020D01*
X133821072Y-116950020D02*
X133793742Y-116921789D01*
X133793742Y-116921789D02*
X133766219Y-116893359D01*
X133766219Y-116893359D02*
X133738516Y-116864742D01*
X133738516Y-116864742D02*
X133710644Y-116835952D01*
X133710644Y-116835952D02*
X133682616Y-116807000D01*
X133682616Y-116807000D02*
X133654444Y-116777899D01*
X133654444Y-116777899D02*
X133626138Y-116748660D01*
X133626138Y-116748660D02*
X133597712Y-116719296D01*
X133597712Y-116719296D02*
X133569176Y-116689820D01*
X133569176Y-116689820D02*
X133540543Y-116660243D01*
X133540543Y-116660243D02*
X133511825Y-116630578D01*
X132336584Y-116956542D02*
X132374676Y-116963173D01*
X132374676Y-116963173D02*
X132407937Y-116981857D01*
X132407937Y-116981857D02*
X132433733Y-117010772D01*
X132433733Y-117010772D02*
X132443868Y-117030589D01*
X132418695Y-117161310D02*
X132387220Y-117184443D01*
X132387220Y-117184443D02*
X132350911Y-117195527D01*
X132350911Y-117195527D02*
X132312877Y-117193921D01*
X132312877Y-117193921D02*
X132292146Y-117187312D01*
X131857811Y-114429463D02*
X130216703Y-116124681D01*
X133581730Y-121180831D02*
X133611875Y-121200795D01*
X133611875Y-121200795D02*
X133612377Y-121201983D01*
X131526211Y-114360811D02*
X131491317Y-114371033D01*
X131491317Y-114371033D02*
X131466898Y-114398487D01*
X131466898Y-114398487D02*
X131464809Y-114403191D01*
X135015112Y-117177070D02*
X132983856Y-115078552D01*
X129070282Y-117822239D02*
X129102046Y-117789425D01*
X135015104Y-117177058D02*
X134909855Y-117068338D01*
X134022046Y-121190781D02*
X134045584Y-121180716D01*
X131874949Y-119017861D02*
X131180000Y-118300000D01*
X132286813Y-118258524D02*
X132299684Y-118224017D01*
X132299684Y-118224017D02*
X132301387Y-118222170D01*
X135776804Y-117886842D02*
X135843336Y-117818116D01*
X132266193Y-117329230D02*
X132296257Y-117307927D01*
X132296257Y-117307927D02*
X132331647Y-117299238D01*
X132331647Y-117299238D02*
X132336584Y-117299112D01*
X132355773Y-120214166D02*
X134668406Y-117825288D01*
X134069121Y-121239409D02*
X134032844Y-121246871D01*
X135168055Y-124121043D02*
X132354830Y-121215069D01*
X130381895Y-118175211D02*
X130423453Y-118218139D01*
X130423453Y-118218139D02*
X130466729Y-118262841D01*
X130466729Y-118262841D02*
X130511626Y-118309218D01*
X130511626Y-118309218D02*
X130558050Y-118357173D01*
X130558050Y-118357173D02*
X130605905Y-118406606D01*
X130605905Y-118406606D02*
X130655099Y-118457421D01*
X130655099Y-118457421D02*
X130680167Y-118483316D01*
X130680167Y-118483316D02*
X130705534Y-118509519D01*
X130705534Y-118509519D02*
X130731188Y-118536019D01*
X130731188Y-118536019D02*
X130757117Y-118562803D01*
X130757117Y-118562803D02*
X130783309Y-118589858D01*
X130783309Y-118589858D02*
X130809753Y-118617174D01*
X130809753Y-118617174D02*
X130836436Y-118644737D01*
X130836436Y-118644737D02*
X130863347Y-118672535D01*
X130863347Y-118672535D02*
X130890474Y-118700556D01*
X130890474Y-118700556D02*
X130917804Y-118728787D01*
X130917804Y-118728787D02*
X130945327Y-118757217D01*
X130945327Y-118757217D02*
X130973030Y-118785834D01*
X130973030Y-118785834D02*
X131000901Y-118814624D01*
X131000901Y-118814624D02*
X131028929Y-118843576D01*
X131028929Y-118843576D02*
X131057102Y-118872677D01*
X131057102Y-118872677D02*
X131085407Y-118901916D01*
X131085407Y-118901916D02*
X131113834Y-118931280D01*
X131113834Y-118931280D02*
X131142369Y-118960756D01*
X131142369Y-118960756D02*
X131171002Y-118990333D01*
X131171002Y-118990333D02*
X131199721Y-119019999D01*
X130216545Y-112734084D02*
X131857811Y-114429463D01*
X131997826Y-119144790D02*
X132037374Y-119185642D01*
X132037374Y-119185642D02*
X132074656Y-119224152D01*
X132074656Y-119224152D02*
X132109631Y-119260281D01*
X132109631Y-119260281D02*
X132142262Y-119293986D01*
X132142262Y-119293986D02*
X132172507Y-119325229D01*
X132172507Y-119325229D02*
X132200328Y-119353967D01*
X132200328Y-119353967D02*
X132225686Y-119380161D01*
X132225686Y-119380161D02*
X132259018Y-119414593D01*
X132259018Y-119414593D02*
X132286587Y-119443071D01*
X132286587Y-119443071D02*
X132314152Y-119471544D01*
X132314152Y-119471544D02*
X132336581Y-119494713D01*
X132355773Y-115436411D02*
X130043141Y-117825288D01*
X132336581Y-119494713D02*
X133954793Y-117823149D01*
X133184008Y-121146442D02*
X133218900Y-121156665D01*
X133218900Y-121156665D02*
X133243319Y-121184120D01*
X133243319Y-121184120D02*
X133245409Y-121188824D01*
X132336583Y-119391819D02*
X133434996Y-118257193D01*
X135168055Y-124121160D02*
X135099078Y-124049904D01*
X132298489Y-117496943D02*
X132267753Y-117476233D01*
X132267753Y-117476233D02*
X132246672Y-117446080D01*
X132246672Y-117446080D02*
X132237318Y-117409686D01*
X132237318Y-117409686D02*
X132237037Y-117401940D01*
X128871464Y-117822239D02*
X129070282Y-117822239D01*
X131057123Y-118173072D02*
X131098681Y-118216000D01*
X131098681Y-118216000D02*
X131141956Y-118260702D01*
X131141956Y-118260702D02*
X131186853Y-118307079D01*
X131186853Y-118307079D02*
X131233277Y-118355033D01*
X131233277Y-118355033D02*
X131281132Y-118404467D01*
X131281132Y-118404467D02*
X131330325Y-118455281D01*
X131330325Y-118455281D02*
X131355394Y-118481176D01*
X131355394Y-118481176D02*
X131380761Y-118507380D01*
X131380761Y-118507380D02*
X131406415Y-118533879D01*
X131406415Y-118533879D02*
X131432344Y-118560663D01*
X131432344Y-118560663D02*
X131458536Y-118587719D01*
X131458536Y-118587719D02*
X131484980Y-118615035D01*
X131484980Y-118615035D02*
X131511663Y-118642598D01*
X131511663Y-118642598D02*
X131538574Y-118670396D01*
X131538574Y-118670396D02*
X131565701Y-118698417D01*
X131565701Y-118698417D02*
X131593031Y-118726648D01*
X131593031Y-118726648D02*
X131620554Y-118755079D01*
X131620554Y-118755079D02*
X131648257Y-118783695D01*
X131648257Y-118783695D02*
X131676129Y-118812485D01*
X131676129Y-118812485D02*
X131704157Y-118841437D01*
X131704157Y-118841437D02*
X131732329Y-118870539D01*
X131732329Y-118870539D02*
X131760635Y-118899778D01*
X131760635Y-118899778D02*
X131789061Y-118929141D01*
X131789061Y-118929141D02*
X131817597Y-118958618D01*
X131817597Y-118958618D02*
X131846230Y-118988195D01*
X131846230Y-118988195D02*
X131874949Y-119017861D01*
X132711933Y-116642087D02*
X132336583Y-116254361D01*
X133511825Y-116630578D02*
X133512301Y-116631054D01*
X132317538Y-118306023D02*
X132291630Y-118280593D01*
X132291630Y-118280593D02*
X132286813Y-118258524D01*
X132406975Y-117474652D02*
X132376689Y-117496059D01*
X132376689Y-117496059D02*
X132341654Y-117504638D01*
X132341654Y-117504638D02*
X132305524Y-117499638D01*
X132305524Y-117499638D02*
X132298489Y-117496943D01*
X131464809Y-114403191D02*
X131460598Y-114440402D01*
X131460598Y-114440402D02*
X131475814Y-114474214D01*
X131475814Y-114474214D02*
X131479224Y-114478008D01*
X134032844Y-121246864D02*
X134012318Y-121216395D01*
X134012318Y-121216395D02*
X134012295Y-121215096D01*
X133616039Y-117473226D02*
X133574480Y-117430297D01*
X133574480Y-117430297D02*
X133531205Y-117385595D01*
X133531205Y-117385595D02*
X133486308Y-117339218D01*
X133486308Y-117339218D02*
X133439884Y-117291263D01*
X133439884Y-117291263D02*
X133392028Y-117241830D01*
X133392028Y-117241830D02*
X133342836Y-117191015D01*
X133342836Y-117191015D02*
X133317767Y-117165120D01*
X133317767Y-117165120D02*
X133292400Y-117138917D01*
X133292400Y-117138917D02*
X133266746Y-117112417D01*
X133266746Y-117112417D02*
X133240817Y-117085633D01*
X133240817Y-117085633D02*
X133214625Y-117058578D01*
X133214625Y-117058578D02*
X133188181Y-117031262D01*
X133188181Y-117031262D02*
X133161498Y-117003699D01*
X133161498Y-117003699D02*
X133134587Y-116975901D01*
X133134587Y-116975901D02*
X133107461Y-116947880D01*
X133107461Y-116947880D02*
X133080130Y-116919649D01*
X133080130Y-116919649D02*
X133052608Y-116891219D01*
X133052608Y-116891219D02*
X133024905Y-116862602D01*
X133024905Y-116862602D02*
X132997033Y-116833812D01*
X132997033Y-116833812D02*
X132969005Y-116804860D01*
X132969005Y-116804860D02*
X132940833Y-116775759D01*
X132940833Y-116775759D02*
X132912527Y-116746520D01*
X132912527Y-116746520D02*
X132884101Y-116717156D01*
X132884101Y-116717156D02*
X132855565Y-116687680D01*
X132855565Y-116687680D02*
X132826932Y-116658103D01*
X132826932Y-116658103D02*
X132798214Y-116628438D01*
X131961619Y-116641687D02*
X131586520Y-117029156D01*
X135015112Y-116081127D02*
X134044942Y-115078552D01*
X130677374Y-114461232D02*
X130697899Y-114430762D01*
X130697899Y-114430762D02*
X130697923Y-114429463D01*
X132292146Y-117187312D02*
X132259411Y-117166127D01*
X132259411Y-117166127D02*
X132235603Y-117135717D01*
X132235603Y-117135717D02*
X132222483Y-117098806D01*
X132222483Y-117098806D02*
X132220462Y-117076492D01*
X132336584Y-117641729D02*
X132371313Y-117651903D01*
X132371313Y-117651903D02*
X132395619Y-117679229D01*
X132395619Y-117679229D02*
X132397699Y-117683911D01*
X137887518Y-117177058D02*
X135015104Y-117177058D01*
X132289809Y-117661743D02*
X132322032Y-117643402D01*
X132322032Y-117643402D02*
X132336584Y-117641729D01*
X132383359Y-117758377D02*
X132351836Y-117776549D01*
X132351836Y-117776549D02*
X132313597Y-117774131D01*
X132313597Y-117774131D02*
X132311270Y-117773188D01*
X132270433Y-117710060D02*
X132279817Y-117674977D01*
X132279817Y-117674977D02*
X132289809Y-117661743D01*
X130641097Y-114453778D02*
X130677374Y-114461232D01*
X131097841Y-114416350D02*
X131104162Y-114452759D01*
X131104162Y-114452759D02*
X131105033Y-114453693D01*
X132336581Y-116151586D02*
X130718369Y-117823149D01*
X132711933Y-116642087D02*
X133086932Y-117029448D01*
X132852407Y-121215096D02*
X134493515Y-122910313D01*
X132333619Y-119388693D02*
X132342827Y-119398202D01*
X131151945Y-114405234D02*
X131128488Y-114395198D01*
X130633881Y-114416305D02*
X130640231Y-114452841D01*
X130640231Y-114452841D02*
X130641105Y-114453778D01*
X133231003Y-121263641D02*
X133199331Y-121281898D01*
X133199331Y-121281898D02*
X133163270Y-121280316D01*
X133163270Y-121280316D02*
X133158573Y-121278516D01*
X131161660Y-114429463D02*
X131151945Y-114405234D01*
X131128488Y-114395198D02*
X131098342Y-114415162D01*
X131098342Y-114415162D02*
X131097841Y-114416350D01*
X132798214Y-116628438D02*
X133493161Y-117346297D01*
X130664635Y-114395078D02*
X130634384Y-114415113D01*
X130634384Y-114415113D02*
X130633881Y-114416305D01*
X129342721Y-111523501D02*
X129541504Y-111523365D01*
X133548558Y-121215096D02*
X133558273Y-121190867D01*
X129699005Y-118471396D02*
X129827369Y-118603992D01*
X132443868Y-117030589D02*
X132452512Y-117069479D01*
X132452512Y-117069479D02*
X132448529Y-117108372D01*
X132448529Y-117108372D02*
X132432538Y-117144055D01*
X132432538Y-117144055D02*
X132418695Y-117161310D01*
X132220462Y-117076492D02*
X132226340Y-117038815D01*
X132226340Y-117038815D02*
X132243249Y-117005128D01*
X132243249Y-117005128D02*
X132254473Y-116991673D01*
X134493673Y-119519716D02*
X132852407Y-121215096D01*
X132354830Y-114429412D02*
X132155881Y-114429412D01*
X132311270Y-117773190D02*
X132282953Y-117750062D01*
X132282953Y-117750062D02*
X132270620Y-117715207D01*
X132270620Y-117715207D02*
X132270433Y-117710060D01*
X130043141Y-117825288D02*
X130071461Y-117854541D01*
X130071461Y-117854541D02*
X130101675Y-117885752D01*
X130101675Y-117885752D02*
X130131180Y-117916230D01*
X130131180Y-117916230D02*
X130166404Y-117952615D01*
X130166404Y-117952615D02*
X130192998Y-117980086D01*
X130192998Y-117980086D02*
X130222036Y-118010082D01*
X130222036Y-118010082D02*
X130253479Y-118042561D01*
X130253479Y-118042561D02*
X130287286Y-118077483D01*
X130287286Y-118077483D02*
X130323420Y-118114808D01*
X130323420Y-118114808D02*
X130361839Y-118154494D01*
X130361839Y-118154494D02*
X130381895Y-118175211D01*
X133245409Y-121188824D02*
X133249619Y-121226035D01*
X133249619Y-121226035D02*
X133234403Y-121259846D01*
X133234403Y-121259846D02*
X133230995Y-121263641D01*
X133137011Y-121166551D02*
X133169388Y-121148123D01*
X133169388Y-121148123D02*
X133184008Y-121146442D01*
X132336583Y-116254361D02*
X131961619Y-116641687D01*
X128900323Y-117792437D02*
X128871464Y-117822239D01*
X132336584Y-117299112D02*
X132372652Y-117306095D01*
X132372652Y-117306095D02*
X132403299Y-117325619D01*
X132403299Y-117325619D02*
X132425425Y-117355545D01*
X132425425Y-117355545D02*
X132428555Y-117362590D01*
X131105031Y-114453693D02*
X131141183Y-114461121D01*
X129699005Y-118471396D02*
X126958674Y-118471396D01*
X132354830Y-114429442D02*
X129102056Y-117789456D01*
X132397699Y-117683911D02*
X132401887Y-117720948D01*
X132401887Y-117720948D02*
X132386752Y-117754600D01*
X132386752Y-117754600D02*
X132383363Y-117758377D01*
X134012295Y-121215096D02*
X134022043Y-121190781D01*
X132301391Y-118222170D02*
X132335348Y-118207135D01*
X132335348Y-118207135D02*
X132336584Y-118207120D01*
X134045584Y-121180710D02*
X134075833Y-121200745D01*
X134075833Y-121200745D02*
X134076337Y-121201936D01*
X133954793Y-117823149D02*
X133926472Y-117793895D01*
X133926472Y-117793895D02*
X133896258Y-117762684D01*
X133896258Y-117762684D02*
X133866753Y-117732207D01*
X133866753Y-117732207D02*
X133831529Y-117695822D01*
X133831529Y-117695822D02*
X133804935Y-117668350D01*
X133804935Y-117668350D02*
X133775897Y-117638355D01*
X133775897Y-117638355D02*
X133744454Y-117605876D01*
X133744454Y-117605876D02*
X133710647Y-117570954D01*
X133710647Y-117570954D02*
X133674513Y-117533629D01*
X133674513Y-117533629D02*
X133636094Y-117493942D01*
X133636094Y-117493942D02*
X133616039Y-117473226D01*
X135843335Y-117818115D02*
X132549376Y-121217007D01*
X132371778Y-118294877D02*
X132337306Y-118309930D01*
X132337306Y-118309930D02*
X132317538Y-118306021D01*
X131573207Y-114380919D02*
X131540830Y-114362492D01*
X131540830Y-114362492D02*
X131526211Y-114360811D01*
X132354830Y-121215069D02*
X132554080Y-121215069D01*
X131199194Y-119019455D02*
X131227912Y-119049120D01*
X131227912Y-119049120D02*
X131256545Y-119078697D01*
X131256545Y-119078697D02*
X131285080Y-119108173D01*
X131285080Y-119108173D02*
X131313507Y-119137537D01*
X131313507Y-119137537D02*
X131341812Y-119166776D01*
X131341812Y-119166776D02*
X131369985Y-119195877D01*
X131369985Y-119195877D02*
X131398013Y-119224829D01*
X131398013Y-119224829D02*
X131425884Y-119253619D01*
X131425884Y-119253619D02*
X131453587Y-119282236D01*
X131453587Y-119282236D02*
X131481110Y-119310666D01*
X131481110Y-119310666D02*
X131508440Y-119338897D01*
X131508440Y-119338897D02*
X131535567Y-119366918D01*
X131535567Y-119366918D02*
X131562478Y-119394716D01*
X131562478Y-119394716D02*
X131589161Y-119422279D01*
X131589161Y-119422279D02*
X131615604Y-119449595D01*
X131615604Y-119449595D02*
X131641797Y-119476650D01*
X131641797Y-119476650D02*
X131667726Y-119503434D01*
X131667726Y-119503434D02*
X131693380Y-119529934D01*
X131693380Y-119529934D02*
X131718747Y-119556137D01*
X131718747Y-119556137D02*
X131743815Y-119582032D01*
X131743815Y-119582032D02*
X131793008Y-119632847D01*
X131793008Y-119632847D02*
X131840864Y-119682280D01*
X131840864Y-119682280D02*
X131887287Y-119730235D01*
X131887287Y-119730235D02*
X131932184Y-119776612D01*
X131932184Y-119776612D02*
X131975459Y-119821314D01*
X131975459Y-119821314D02*
X132017018Y-119864243D01*
X129410597Y-111593614D02*
X129342721Y-111523501D01*
X132017018Y-119864243D02*
X132056566Y-119905095D01*
X132056566Y-119905095D02*
X132093848Y-119943606D01*
X132093848Y-119943606D02*
X132128823Y-119979735D01*
X132128823Y-119979735D02*
X132161454Y-120013440D01*
X132161454Y-120013440D02*
X132191699Y-120044683D01*
X132191699Y-120044683D02*
X132219520Y-120073421D01*
X132219520Y-120073421D02*
X132244878Y-120099615D01*
X132244878Y-120099615D02*
X132278210Y-120134046D01*
X132278210Y-120134046D02*
X132305779Y-120162524D01*
X132305779Y-120162524D02*
X132333344Y-120190997D01*
X132333344Y-120190997D02*
X132355773Y-120214166D01*
X132428555Y-117362590D02*
X132436107Y-117399684D01*
X132436107Y-117399684D02*
X132430374Y-117436402D01*
X132430374Y-117436402D02*
X132412078Y-117468969D01*
X132412078Y-117468969D02*
X132406975Y-117474652D01*
X133558273Y-121190867D02*
X133581730Y-121180834D01*
X132155881Y-114429412D02*
X128900323Y-117792437D01*
X131551645Y-114492891D02*
X131580094Y-114469652D01*
X131580094Y-114469652D02*
X131592485Y-114434634D01*
X131592485Y-114434634D02*
X131592673Y-114429463D01*
X130697923Y-114429463D02*
X130688176Y-114405150D01*
X130688174Y-114405150D02*
X130664635Y-114395079D01*
X129342721Y-111523506D02*
X132155881Y-114429412D01*
X131199721Y-119019999D02*
X131199244Y-119019523D01*
X133512353Y-116631122D02*
X133483634Y-116601456D01*
X133483634Y-116601456D02*
X133455001Y-116571880D01*
X133455001Y-116571880D02*
X133426465Y-116542403D01*
X133426465Y-116542403D02*
X133398039Y-116513040D01*
X133398039Y-116513040D02*
X133369733Y-116483801D01*
X133369733Y-116483801D02*
X133341561Y-116454700D01*
X133341561Y-116454700D02*
X133313533Y-116425748D01*
X133313533Y-116425748D02*
X133285661Y-116396957D01*
X133285661Y-116396957D02*
X133257958Y-116368341D01*
X133257958Y-116368341D02*
X133230436Y-116339911D01*
X133230436Y-116339911D02*
X133203105Y-116311680D01*
X133203105Y-116311680D02*
X133175978Y-116283659D01*
X133175978Y-116283659D02*
X133149067Y-116255861D01*
X133149067Y-116255861D02*
X133122384Y-116228298D01*
X133122384Y-116228298D02*
X133095941Y-116200982D01*
X133095941Y-116200982D02*
X133069748Y-116173926D01*
X133069748Y-116173926D02*
X133043819Y-116147142D01*
X133043819Y-116147142D02*
X133018165Y-116120643D01*
X133018165Y-116120643D02*
X132992798Y-116094439D01*
X132992798Y-116094439D02*
X132967730Y-116068544D01*
X132967730Y-116068544D02*
X132918537Y-116017729D01*
X132918537Y-116017729D02*
X132870681Y-115968296D01*
X132870681Y-115968296D02*
X132824257Y-115920342D01*
X132824257Y-115920342D02*
X132779360Y-115873964D01*
X132779360Y-115873964D02*
X132736085Y-115829262D01*
X132736085Y-115829262D02*
X132694527Y-115786334D01*
X131479216Y-114478008D02*
X131510886Y-114496266D01*
X131510886Y-114496266D02*
X131546947Y-114494690D01*
X131546947Y-114494690D02*
X131551645Y-114492891D01*
X132554080Y-121215069D02*
X135367569Y-124121313D01*
X135639370Y-117822259D02*
X135602781Y-117860053D01*
X135264190Y-124014532D02*
X135367569Y-124121318D01*
X133158573Y-121278522D02*
X133130123Y-121255286D01*
X133130123Y-121255286D02*
X133117733Y-121220267D01*
X133117733Y-121220267D02*
X133117546Y-121215096D01*
X135843336Y-117818116D02*
X135639370Y-117822259D01*
X133612377Y-121201983D02*
X133606055Y-121238392D01*
X133606055Y-121238392D02*
X133605185Y-121239325D01*
X132694527Y-115786334D02*
X132654978Y-115745481D01*
X132654978Y-115745481D02*
X132617697Y-115706971D01*
X132617697Y-115706971D02*
X132582722Y-115670842D01*
X132582722Y-115670842D02*
X132550092Y-115637137D01*
X132550092Y-115637137D02*
X132519847Y-115605894D01*
X132519847Y-115605894D02*
X132492026Y-115577156D01*
X132492026Y-115577156D02*
X132466668Y-115550962D01*
X132466668Y-115550962D02*
X132433335Y-115516530D01*
X132433335Y-115516530D02*
X132405766Y-115488052D01*
X132405766Y-115488052D02*
X132378201Y-115459579D01*
X132378201Y-115459579D02*
X132355773Y-115436411D01*
X129541504Y-111523365D02*
X132354830Y-114429442D01*
X131141183Y-114461121D02*
X131161636Y-114430758D01*
X131161636Y-114430758D02*
X131161660Y-114429463D01*
X132382567Y-118238850D02*
X132383474Y-118275753D01*
X132383474Y-118275753D02*
X132371771Y-118294877D01*
X129699007Y-118471378D02*
X131730263Y-120569896D01*
X131592673Y-114429463D02*
X131583245Y-114394215D01*
X131583245Y-114394215D02*
X131573207Y-114380919D01*
X129699007Y-119567322D02*
X130669175Y-120569896D01*
X131180000Y-118300000D02*
X131208718Y-118329665D01*
X131208718Y-118329665D02*
X131237351Y-118359242D01*
X131237351Y-118359242D02*
X131265887Y-118388719D01*
X131265887Y-118388719D02*
X131294314Y-118418083D01*
X131294314Y-118418083D02*
X131322619Y-118447321D01*
X131322619Y-118447321D02*
X131350792Y-118476423D01*
X131350792Y-118476423D02*
X131378820Y-118505375D01*
X131378820Y-118505375D02*
X131406691Y-118534166D01*
X131406691Y-118534166D02*
X131434394Y-118562782D01*
X131434394Y-118562782D02*
X131461917Y-118591212D01*
X131461917Y-118591212D02*
X131489248Y-118619444D01*
X131489248Y-118619444D02*
X131516374Y-118647465D01*
X131516374Y-118647465D02*
X131543285Y-118675263D01*
X131543285Y-118675263D02*
X131569968Y-118702826D01*
X131569968Y-118702826D02*
X131596412Y-118730141D01*
X131596412Y-118730141D02*
X131622604Y-118757197D01*
X131622604Y-118757197D02*
X131648533Y-118783981D01*
X131648533Y-118783981D02*
X131674187Y-118810481D01*
X131674187Y-118810481D02*
X131699555Y-118836684D01*
X131699555Y-118836684D02*
X131724623Y-118862579D01*
X131724623Y-118862579D02*
X131773816Y-118913394D01*
X131773816Y-118913394D02*
X131821672Y-118962827D01*
X131821672Y-118962827D02*
X131868095Y-119010782D01*
X131868095Y-119010782D02*
X131912992Y-119057159D01*
X131912992Y-119057159D02*
X131956267Y-119101861D01*
X131956267Y-119101861D02*
X131997826Y-119144790D01*
M02*
