%TF.GenerationSoftware,KiCad,Pcbnew,5.1.10*%
%TF.CreationDate,2021-06-14T18:34:52+02:00*%
%TF.ProjectId,scattered-bat-plate-1,73636174-7465-4726-9564-2d6261742d70,rev?*%
%TF.SameCoordinates,Original*%
%TF.FileFunction,Legend,Top*%
%TF.FilePolarity,Positive*%
%FSLAX46Y46*%
G04 Gerber Fmt 4.6, Leading zero omitted, Abs format (unit mm)*
G04 Created by KiCad (PCBNEW 5.1.10) date 2021-06-14 18:34:52*
%MOMM*%
%LPD*%
G01*
G04 APERTURE LIST*
%ADD10C,0.100000*%
%ADD11C,0.036000*%
G04 APERTURE END LIST*
D10*
X137172857Y-123290000D02*
X137458571Y-123290000D01*
X137115714Y-123461428D02*
X137315714Y-122861428D01*
X137515714Y-123461428D01*
X138115714Y-123061428D02*
X138230000Y-123461428D01*
X138344285Y-123175714D01*
X138458571Y-123461428D01*
X138572857Y-123061428D01*
X138801428Y-123461428D02*
X138801428Y-123061428D01*
X138801428Y-122861428D02*
X138772857Y-122890000D01*
X138801428Y-122918571D01*
X138830000Y-122890000D01*
X138801428Y-122861428D01*
X138801428Y-122918571D01*
X139058571Y-123432857D02*
X139115714Y-123461428D01*
X139230000Y-123461428D01*
X139287142Y-123432857D01*
X139315714Y-123375714D01*
X139315714Y-123347142D01*
X139287142Y-123290000D01*
X139230000Y-123261428D01*
X139144285Y-123261428D01*
X139087142Y-123232857D01*
X139058571Y-123175714D01*
X139058571Y-123147142D01*
X139087142Y-123090000D01*
X139144285Y-123061428D01*
X139230000Y-123061428D01*
X139287142Y-123090000D01*
X139572857Y-123461428D02*
X139572857Y-122861428D01*
X139830000Y-123461428D02*
X139830000Y-123147142D01*
X139801428Y-123090000D01*
X139744285Y-123061428D01*
X139658571Y-123061428D01*
X139601428Y-123090000D01*
X139572857Y-123118571D01*
X140487142Y-123061428D02*
X140715714Y-123061428D01*
X140572857Y-123461428D02*
X140572857Y-122947142D01*
X140601428Y-122890000D01*
X140658571Y-122861428D01*
X140715714Y-122861428D01*
X141001428Y-123461428D02*
X140944285Y-123432857D01*
X140915714Y-123404285D01*
X140887142Y-123347142D01*
X140887142Y-123175714D01*
X140915714Y-123118571D01*
X140944285Y-123090000D01*
X141001428Y-123061428D01*
X141087142Y-123061428D01*
X141144285Y-123090000D01*
X141172857Y-123118571D01*
X141201428Y-123175714D01*
X141201428Y-123347142D01*
X141172857Y-123404285D01*
X141144285Y-123432857D01*
X141087142Y-123461428D01*
X141001428Y-123461428D01*
X141458571Y-123461428D02*
X141458571Y-123061428D01*
X141458571Y-123175714D02*
X141487142Y-123118571D01*
X141515714Y-123090000D01*
X141572857Y-123061428D01*
X141630000Y-123061428D01*
X142258571Y-123432857D02*
X142315714Y-123461428D01*
X142430000Y-123461428D01*
X142487142Y-123432857D01*
X142515714Y-123375714D01*
X142515714Y-123347142D01*
X142487142Y-123290000D01*
X142430000Y-123261428D01*
X142344285Y-123261428D01*
X142287142Y-123232857D01*
X142258571Y-123175714D01*
X142258571Y-123147142D01*
X142287142Y-123090000D01*
X142344285Y-123061428D01*
X142430000Y-123061428D01*
X142487142Y-123090000D01*
X143030000Y-123461428D02*
X143030000Y-123147142D01*
X143001428Y-123090000D01*
X142944285Y-123061428D01*
X142830000Y-123061428D01*
X142772857Y-123090000D01*
X143030000Y-123432857D02*
X142972857Y-123461428D01*
X142830000Y-123461428D01*
X142772857Y-123432857D01*
X142744285Y-123375714D01*
X142744285Y-123318571D01*
X142772857Y-123261428D01*
X142830000Y-123232857D01*
X142972857Y-123232857D01*
X143030000Y-123204285D01*
X143401428Y-123461428D02*
X143344285Y-123432857D01*
X143315714Y-123375714D01*
X143315714Y-122861428D01*
X143572857Y-123061428D02*
X143715714Y-123461428D01*
X143858571Y-123061428D01*
X144344285Y-123461428D02*
X144344285Y-123147142D01*
X144315714Y-123090000D01*
X144258571Y-123061428D01*
X144144285Y-123061428D01*
X144087142Y-123090000D01*
X144344285Y-123432857D02*
X144287142Y-123461428D01*
X144144285Y-123461428D01*
X144087142Y-123432857D01*
X144058571Y-123375714D01*
X144058571Y-123318571D01*
X144087142Y-123261428D01*
X144144285Y-123232857D01*
X144287142Y-123232857D01*
X144344285Y-123204285D01*
X144544285Y-123061428D02*
X144772857Y-123061428D01*
X144630000Y-122861428D02*
X144630000Y-123375714D01*
X144658571Y-123432857D01*
X144715714Y-123461428D01*
X144772857Y-123461428D01*
X144972857Y-123461428D02*
X144972857Y-123061428D01*
X144972857Y-122861428D02*
X144944285Y-122890000D01*
X144972857Y-122918571D01*
X145001428Y-122890000D01*
X144972857Y-122861428D01*
X144972857Y-122918571D01*
X145344285Y-123461428D02*
X145287142Y-123432857D01*
X145258571Y-123404285D01*
X145230000Y-123347142D01*
X145230000Y-123175714D01*
X145258571Y-123118571D01*
X145287142Y-123090000D01*
X145344285Y-123061428D01*
X145430000Y-123061428D01*
X145487142Y-123090000D01*
X145515714Y-123118571D01*
X145544285Y-123175714D01*
X145544285Y-123347142D01*
X145515714Y-123404285D01*
X145487142Y-123432857D01*
X145430000Y-123461428D01*
X145344285Y-123461428D01*
X145801428Y-123061428D02*
X145801428Y-123461428D01*
X145801428Y-123118571D02*
X145830000Y-123090000D01*
X145887142Y-123061428D01*
X145972857Y-123061428D01*
X146030000Y-123090000D01*
X146058571Y-123147142D01*
X146058571Y-123461428D01*
D11*
X133745637Y-120905796D02*
X133741446Y-120942833D01*
X133741446Y-120942833D02*
X133756585Y-120976485D01*
X133756585Y-120976485D02*
X133759977Y-120980262D01*
X133806752Y-120863615D02*
X133772022Y-120873789D01*
X133772022Y-120873789D02*
X133747716Y-120901114D01*
X133747716Y-120901114D02*
X133745637Y-120905796D01*
X135502239Y-117675662D02*
X135465962Y-117683116D01*
X134617125Y-117582695D02*
X134652017Y-117592917D01*
X134652017Y-117592917D02*
X134676437Y-117620372D01*
X134676437Y-117620372D02*
X134678527Y-117625076D01*
X132097752Y-124402596D02*
X132097752Y-124402596D01*
X134268387Y-122239746D02*
X134963335Y-121521886D01*
X133724640Y-120383196D02*
X133756115Y-120406329D01*
X133756115Y-120406329D02*
X133792424Y-120417412D01*
X133792424Y-120417412D02*
X133830458Y-120415807D01*
X133830458Y-120415807D02*
X133851190Y-120409197D01*
X133699469Y-120252474D02*
X133690823Y-120291364D01*
X133690823Y-120291364D02*
X133694804Y-120330257D01*
X133694804Y-120330257D02*
X133710795Y-120365940D01*
X133710795Y-120365940D02*
X133724640Y-120383196D01*
X134617125Y-117582695D02*
X134617125Y-117582695D01*
X134981676Y-117651348D02*
X134991392Y-117627119D01*
X135002154Y-117683006D02*
X134981699Y-117652643D01*
X134981699Y-117652643D02*
X134981676Y-117651348D01*
X132585062Y-124412753D02*
X132561605Y-124402716D01*
X134664120Y-117699893D02*
X134632449Y-117718151D01*
X134632449Y-117718151D02*
X134596388Y-117716574D01*
X134596388Y-117716574D02*
X134591691Y-117714775D01*
X133806755Y-119373470D02*
X133806755Y-119373470D01*
X133787563Y-123436052D02*
X131474930Y-121047174D01*
X137073054Y-121044125D02*
X137041290Y-121011311D01*
X137271873Y-121044125D02*
X137073054Y-121044125D01*
X133345122Y-119850323D02*
X132650174Y-120568182D01*
X133806752Y-120178427D02*
X133768659Y-120185058D01*
X133768659Y-120185058D02*
X133735398Y-120203742D01*
X133735398Y-120203742D02*
X133709603Y-120232657D01*
X133709603Y-120232657D02*
X133699469Y-120252474D01*
X133809716Y-122610578D02*
X133800512Y-122620082D01*
X133806753Y-122613705D02*
X132708339Y-121479079D01*
X133922874Y-120298377D02*
X133916997Y-120260700D01*
X133916997Y-120260700D02*
X133900088Y-120227013D01*
X133900088Y-120227013D02*
X133888863Y-120213559D01*
X133851190Y-120409197D02*
X133883925Y-120388012D01*
X133883925Y-120388012D02*
X133907732Y-120357603D01*
X133907732Y-120357603D02*
X133920852Y-120320691D01*
X133920852Y-120320691D02*
X133922874Y-120298377D01*
X132630983Y-119853008D02*
X132659701Y-119823342D01*
X132659701Y-119823342D02*
X132688334Y-119793765D01*
X132688334Y-119793765D02*
X132716870Y-119764289D01*
X132716870Y-119764289D02*
X132745296Y-119734925D01*
X132745296Y-119734925D02*
X132773602Y-119705686D01*
X132773602Y-119705686D02*
X132801774Y-119676585D01*
X132801774Y-119676585D02*
X132829802Y-119647633D01*
X132829802Y-119647633D02*
X132857674Y-119618842D01*
X132857674Y-119618842D02*
X132885377Y-119590226D01*
X132885377Y-119590226D02*
X132912899Y-119561796D01*
X132912899Y-119561796D02*
X132940230Y-119533564D01*
X132940230Y-119533564D02*
X132967357Y-119505543D01*
X132967357Y-119505543D02*
X132994267Y-119477745D01*
X132994267Y-119477745D02*
X133020951Y-119450182D01*
X133020951Y-119450182D02*
X133047394Y-119422867D01*
X133047394Y-119422867D02*
X133073587Y-119395811D01*
X133073587Y-119395811D02*
X133099516Y-119369027D01*
X133099516Y-119369027D02*
X133125170Y-119342527D01*
X133125170Y-119342527D02*
X133150537Y-119316324D01*
X133150537Y-119316324D02*
X133175605Y-119290429D01*
X133175605Y-119290429D02*
X133224798Y-119239614D01*
X133224798Y-119239614D02*
X133272654Y-119190181D01*
X133272654Y-119190181D02*
X133319077Y-119142226D01*
X133319077Y-119142226D02*
X133363974Y-119095849D01*
X133363974Y-119095849D02*
X133407249Y-119051147D01*
X133407249Y-119051147D02*
X133448808Y-119008219D01*
X133806755Y-119373470D02*
X135424967Y-121045034D01*
X133787563Y-118658296D02*
X133787563Y-118658296D01*
X132527297Y-120695111D02*
X132568855Y-120652182D01*
X132568855Y-120652182D02*
X132612130Y-120607480D01*
X132612130Y-120607480D02*
X132657027Y-120561103D01*
X132657027Y-120561103D02*
X132703450Y-120513148D01*
X132703450Y-120513148D02*
X132751306Y-120463715D01*
X132751306Y-120463715D02*
X132800499Y-120412900D01*
X132800499Y-120412900D02*
X132825567Y-120387005D01*
X132825567Y-120387005D02*
X132850934Y-120360802D01*
X132850934Y-120360802D02*
X132876588Y-120334302D01*
X132876588Y-120334302D02*
X132902518Y-120307518D01*
X132902518Y-120307518D02*
X132928710Y-120280463D01*
X132928710Y-120280463D02*
X132955153Y-120253147D01*
X132955153Y-120253147D02*
X132981837Y-120225584D01*
X132981837Y-120225584D02*
X133008747Y-120197786D01*
X133008747Y-120197786D02*
X133035874Y-120169765D01*
X133035874Y-120169765D02*
X133063205Y-120141534D01*
X133063205Y-120141534D02*
X133090727Y-120113104D01*
X133090727Y-120113104D02*
X133118430Y-120084487D01*
X133118430Y-120084487D02*
X133146302Y-120055697D01*
X133146302Y-120055697D02*
X133174330Y-120026745D01*
X133174330Y-120026745D02*
X133202502Y-119997644D01*
X133202502Y-119997644D02*
X133230808Y-119968405D01*
X133230808Y-119968405D02*
X133259234Y-119939041D01*
X133259234Y-119939041D02*
X133287770Y-119909565D01*
X133287770Y-119909565D02*
X133316403Y-119879988D01*
X133316403Y-119879988D02*
X133345122Y-119850323D01*
X135926791Y-115955967D02*
X134285525Y-117651348D01*
X133468000Y-119723393D02*
X133507548Y-119682540D01*
X133507548Y-119682540D02*
X133544830Y-119644029D01*
X133544830Y-119644029D02*
X133579805Y-119607901D01*
X133579805Y-119607901D02*
X133612435Y-119574195D01*
X133612435Y-119574195D02*
X133642680Y-119542953D01*
X133642680Y-119542953D02*
X133670502Y-119514214D01*
X133670502Y-119514214D02*
X133695859Y-119488020D01*
X133695859Y-119488020D02*
X133729192Y-119453589D01*
X133729192Y-119453589D02*
X133756761Y-119425111D01*
X133756761Y-119425111D02*
X133784326Y-119396638D01*
X133784326Y-119396638D02*
X133806755Y-119373470D01*
X133856523Y-121480409D02*
X133843646Y-121445902D01*
X133843646Y-121445902D02*
X133841945Y-121444055D01*
X133825798Y-121527908D02*
X133851705Y-121502477D01*
X133851705Y-121502477D02*
X133856523Y-121480409D01*
X133448808Y-119008219D02*
X133488356Y-118967366D01*
X133488356Y-118967366D02*
X133525638Y-118928855D01*
X133525638Y-118928855D02*
X133560613Y-118892727D01*
X133560613Y-118892727D02*
X133593243Y-118859021D01*
X133593243Y-118859021D02*
X133623488Y-118827779D01*
X133623488Y-118827779D02*
X133651310Y-118799040D01*
X133651310Y-118799040D02*
X133676667Y-118772846D01*
X133676667Y-118772846D02*
X133710000Y-118738415D01*
X133710000Y-118738415D02*
X133737569Y-118709937D01*
X133737569Y-118709937D02*
X133765134Y-118681464D01*
X133765134Y-118681464D02*
X133787563Y-118658296D01*
X133771558Y-121516763D02*
X133806028Y-121531817D01*
X133806028Y-121531817D02*
X133825798Y-121527908D01*
X133760769Y-121460735D02*
X133759857Y-121497639D01*
X133759857Y-121497639D02*
X133771558Y-121516763D01*
X133431402Y-119863971D02*
X133056404Y-120251333D01*
X133806755Y-122716598D02*
X132188542Y-121045034D01*
X133788507Y-124436955D02*
X130540553Y-121081916D01*
X130975279Y-127342931D02*
X133788507Y-124436955D01*
X134991392Y-117627119D02*
X135014848Y-117617082D01*
X132530958Y-124423869D02*
X132537279Y-124460278D01*
X132537279Y-124460278D02*
X132538149Y-124461212D01*
X130299998Y-121040001D02*
X130503966Y-121044141D01*
X130366531Y-121108728D02*
X130299998Y-121040001D01*
X134678527Y-117625076D02*
X134682737Y-117662287D01*
X134682737Y-117662287D02*
X134667527Y-117696098D01*
X134667527Y-117696098D02*
X134664120Y-117699893D01*
X135465962Y-117683116D02*
X135445436Y-117652647D01*
X135445436Y-117652647D02*
X135445413Y-117651348D01*
X133787563Y-118658296D02*
X136100196Y-121047174D01*
X134145509Y-122366675D02*
X134105960Y-122407527D01*
X134105960Y-122407527D02*
X134068678Y-122446038D01*
X134068678Y-122446038D02*
X134033703Y-122482166D01*
X134033703Y-122482166D02*
X134001073Y-122515872D01*
X134001073Y-122515872D02*
X133970828Y-122547114D01*
X133970828Y-122547114D02*
X133943007Y-122575853D01*
X133943007Y-122575853D02*
X133917649Y-122602047D01*
X133917649Y-122602047D02*
X133884317Y-122636478D01*
X133884317Y-122636478D02*
X133856748Y-122664956D01*
X133856748Y-122664956D02*
X133829183Y-122693429D01*
X133829183Y-122693429D02*
X133806755Y-122716598D01*
X131813685Y-120697251D02*
X131855243Y-120654322D01*
X131855243Y-120654322D02*
X131898518Y-120609620D01*
X131898518Y-120609620D02*
X131943415Y-120563243D01*
X131943415Y-120563243D02*
X131989839Y-120515288D01*
X131989839Y-120515288D02*
X132037694Y-120465855D01*
X132037694Y-120465855D02*
X132086887Y-120415040D01*
X132086887Y-120415040D02*
X132111956Y-120389145D01*
X132111956Y-120389145D02*
X132137323Y-120362942D01*
X132137323Y-120362942D02*
X132162977Y-120336442D01*
X132162977Y-120336442D02*
X132188906Y-120309658D01*
X132188906Y-120309658D02*
X132215098Y-120282602D01*
X132215098Y-120282602D02*
X132241542Y-120255287D01*
X132241542Y-120255287D02*
X132268225Y-120227724D01*
X132268225Y-120227724D02*
X132295136Y-120199926D01*
X132295136Y-120199926D02*
X132322263Y-120171905D01*
X132322263Y-120171905D02*
X132349593Y-120143673D01*
X132349593Y-120143673D02*
X132377116Y-120115243D01*
X132377116Y-120115243D02*
X132404819Y-120086627D01*
X132404819Y-120086627D02*
X132432691Y-120057837D01*
X132432691Y-120057837D02*
X132460719Y-120028885D01*
X132460719Y-120028885D02*
X132488891Y-119999783D01*
X132488891Y-119999783D02*
X132517197Y-119970544D01*
X132517197Y-119970544D02*
X132545623Y-119941181D01*
X132545623Y-119941181D02*
X132574159Y-119911704D01*
X132574159Y-119911704D02*
X132602792Y-119882127D01*
X132602792Y-119882127D02*
X132631511Y-119852462D01*
X130975279Y-127342994D02*
X131044257Y-127271738D01*
X130775766Y-127343205D02*
X130975279Y-127342994D01*
X132538149Y-124461212D02*
X132574299Y-124468640D01*
X134943615Y-122241885D02*
X134944143Y-122241341D01*
X134126318Y-123086129D02*
X134086769Y-123126981D01*
X134086769Y-123126981D02*
X134049487Y-123165492D01*
X134049487Y-123165492D02*
X134014512Y-123201620D01*
X134014512Y-123201620D02*
X133981882Y-123235326D01*
X133981882Y-123235326D02*
X133951636Y-123266568D01*
X133951636Y-123266568D02*
X133923815Y-123295307D01*
X133923815Y-123295307D02*
X133898457Y-123321501D01*
X133898457Y-123321501D02*
X133865125Y-123355932D01*
X133865125Y-123355932D02*
X133837556Y-123384410D01*
X133837556Y-123384410D02*
X133809991Y-123412883D01*
X133809991Y-123412883D02*
X133787563Y-123436052D01*
X134591691Y-117714775D02*
X134563241Y-117691537D01*
X134563241Y-117691537D02*
X134550850Y-117656519D01*
X134550850Y-117656519D02*
X134550663Y-117651348D01*
X132594777Y-124436982D02*
X132585062Y-124412753D01*
X133853526Y-120883628D02*
X133821301Y-120865287D01*
X133821301Y-120865287D02*
X133806752Y-120863615D01*
X133872902Y-120931945D02*
X133863517Y-120896862D01*
X133863517Y-120896862D02*
X133853526Y-120883628D01*
X135086213Y-121394957D02*
X135044654Y-121437885D01*
X135044654Y-121437885D02*
X135001379Y-121482587D01*
X135001379Y-121482587D02*
X134956482Y-121528964D01*
X134956482Y-121528964D02*
X134910058Y-121576919D01*
X134910058Y-121576919D02*
X134862202Y-121626352D01*
X134862202Y-121626352D02*
X134813009Y-121677167D01*
X134813009Y-121677167D02*
X134787941Y-121703062D01*
X134787941Y-121703062D02*
X134762574Y-121729265D01*
X134762574Y-121729265D02*
X134736920Y-121755765D01*
X134736920Y-121755765D02*
X134710991Y-121782549D01*
X134710991Y-121782549D02*
X134684798Y-121809605D01*
X134684798Y-121809605D02*
X134658355Y-121836920D01*
X134658355Y-121836920D02*
X134631672Y-121864483D01*
X134631672Y-121864483D02*
X134604761Y-121892281D01*
X134604761Y-121892281D02*
X134577634Y-121920302D01*
X134577634Y-121920302D02*
X134550303Y-121948534D01*
X134550303Y-121948534D02*
X134522781Y-121976964D01*
X134522781Y-121976964D02*
X134495078Y-122005580D01*
X134495078Y-122005580D02*
X134467206Y-122034370D01*
X134467206Y-122034370D02*
X134439178Y-122063322D01*
X134439178Y-122063322D02*
X134411006Y-122092424D01*
X134411006Y-122092424D02*
X134382700Y-122121663D01*
X134382700Y-122121663D02*
X134354274Y-122151026D01*
X134354274Y-122151026D02*
X134325738Y-122180503D01*
X134325738Y-122180503D02*
X134297105Y-122210080D01*
X134297105Y-122210080D02*
X134268387Y-122239746D01*
X133906299Y-120623826D02*
X133899623Y-120586803D01*
X133899623Y-120586803D02*
X133880546Y-120554809D01*
X133880546Y-120554809D02*
X133877142Y-120551114D01*
X133844847Y-120718827D02*
X133875582Y-120698117D01*
X133875582Y-120698117D02*
X133896663Y-120667965D01*
X133896663Y-120667965D02*
X133906017Y-120631572D01*
X133906017Y-120631572D02*
X133906299Y-120623826D01*
X132912333Y-124485527D02*
X132944003Y-124503785D01*
X132944003Y-124503785D02*
X132980064Y-124502208D01*
X132980064Y-124502208D02*
X132984762Y-124500409D01*
X132650174Y-120568182D02*
X132678892Y-120538516D01*
X132678892Y-120538516D02*
X132707525Y-120508939D01*
X132707525Y-120508939D02*
X132736061Y-120479463D01*
X132736061Y-120479463D02*
X132764487Y-120450099D01*
X132764487Y-120450099D02*
X132792793Y-120420860D01*
X132792793Y-120420860D02*
X132820966Y-120391759D01*
X132820966Y-120391759D02*
X132848994Y-120362807D01*
X132848994Y-120362807D02*
X132876865Y-120334016D01*
X132876865Y-120334016D02*
X132904568Y-120305400D01*
X132904568Y-120305400D02*
X132932091Y-120276970D01*
X132932091Y-120276970D02*
X132959421Y-120248738D01*
X132959421Y-120248738D02*
X132986548Y-120220717D01*
X132986548Y-120220717D02*
X133013459Y-120192919D01*
X133013459Y-120192919D02*
X133040142Y-120165356D01*
X133040142Y-120165356D02*
X133066586Y-120138041D01*
X133066586Y-120138041D02*
X133092778Y-120110985D01*
X133092778Y-120110985D02*
X133118707Y-120084201D01*
X133118707Y-120084201D02*
X133144361Y-120057701D01*
X133144361Y-120057701D02*
X133169728Y-120031498D01*
X133169728Y-120031498D02*
X133194796Y-120005603D01*
X133194796Y-120005603D02*
X133243989Y-119954788D01*
X133243989Y-119954788D02*
X133291845Y-119905355D01*
X133291845Y-119905355D02*
X133338269Y-119857400D01*
X133338269Y-119857400D02*
X133383166Y-119811023D01*
X133383166Y-119811023D02*
X133426441Y-119766321D01*
X133426441Y-119766321D02*
X133468000Y-119723393D01*
X135014848Y-117617082D02*
X135044993Y-117637047D01*
X135044993Y-117637047D02*
X135045495Y-117638235D01*
X134285525Y-117651348D02*
X135926633Y-119346566D01*
X130879145Y-127236418D02*
X130775766Y-127343205D01*
X133589256Y-124436955D02*
X130775766Y-127343201D01*
X133806752Y-121428997D02*
X133772071Y-121443529D01*
X133772071Y-121443529D02*
X133760769Y-121460735D01*
X133806752Y-120520997D02*
X133806752Y-120520997D01*
X133290928Y-124436982D02*
X131649820Y-126132200D01*
X132897926Y-124410710D02*
X132893715Y-124447921D01*
X132893715Y-124447921D02*
X132908925Y-124481732D01*
X132908925Y-124481732D02*
X132912333Y-124485527D01*
X132131040Y-124436982D02*
X132121290Y-124412668D01*
X133987455Y-117651297D02*
X137243013Y-121014323D01*
X136800617Y-114745389D02*
X133987455Y-117651297D01*
X133806753Y-122613705D02*
X134904504Y-121479763D01*
X133806752Y-121428997D02*
X133806752Y-121428997D01*
X132188542Y-121045034D02*
X132216861Y-121015780D01*
X132216861Y-121015780D02*
X132247076Y-120984569D01*
X132247076Y-120984569D02*
X132276581Y-120954092D01*
X132276581Y-120954092D02*
X132311805Y-120917706D01*
X132311805Y-120917706D02*
X132338399Y-120890235D01*
X132338399Y-120890235D02*
X132367437Y-120860240D01*
X132367437Y-120860240D02*
X132398880Y-120827760D01*
X132398880Y-120827760D02*
X132432688Y-120792838D01*
X132432688Y-120792838D02*
X132468821Y-120755514D01*
X132468821Y-120755514D02*
X132507241Y-120715827D01*
X132507241Y-120715827D02*
X132527297Y-120695111D01*
X133006324Y-124388437D02*
X132973946Y-124370010D01*
X132973946Y-124370010D02*
X132959328Y-124368329D01*
X132074214Y-124461296D02*
X132110491Y-124468750D01*
X132066999Y-124423823D02*
X132073341Y-124460359D01*
X132073341Y-124460359D02*
X132074214Y-124461296D01*
X131128223Y-119303012D02*
X132098393Y-118300436D01*
X131128223Y-120398955D02*
X133159480Y-118300436D01*
X139184664Y-121693281D02*
X136444332Y-121693281D01*
X136444332Y-121693281D02*
X139184664Y-121693281D01*
X132110491Y-124468750D02*
X132131016Y-124438281D01*
X132131016Y-124438281D02*
X132131040Y-124436982D01*
X134944143Y-122241341D02*
X134915424Y-122271006D01*
X134915424Y-122271006D02*
X134886791Y-122300583D01*
X134886791Y-122300583D02*
X134858255Y-122330059D01*
X134858255Y-122330059D02*
X134829829Y-122359423D01*
X134829829Y-122359423D02*
X134801523Y-122388662D01*
X134801523Y-122388662D02*
X134773351Y-122417763D01*
X134773351Y-122417763D02*
X134745323Y-122446715D01*
X134745323Y-122446715D02*
X134717451Y-122475505D01*
X134717451Y-122475505D02*
X134689748Y-122504122D01*
X134689748Y-122504122D02*
X134662226Y-122532552D01*
X134662226Y-122532552D02*
X134634895Y-122560783D01*
X134634895Y-122560783D02*
X134607768Y-122588804D01*
X134607768Y-122588804D02*
X134580858Y-122616602D01*
X134580858Y-122616602D02*
X134554174Y-122644165D01*
X134554174Y-122644165D02*
X134527731Y-122671481D01*
X134527731Y-122671481D02*
X134501539Y-122698536D01*
X134501539Y-122698536D02*
X134475609Y-122725320D01*
X134475609Y-122725320D02*
X134449955Y-122751820D01*
X134449955Y-122751820D02*
X134424588Y-122778023D01*
X134424588Y-122778023D02*
X134399520Y-122803918D01*
X134399520Y-122803918D02*
X134350327Y-122854733D01*
X134350327Y-122854733D02*
X134302471Y-122904166D01*
X134302471Y-122904166D02*
X134256048Y-122952121D01*
X134256048Y-122952121D02*
X134211151Y-122998498D01*
X134211151Y-122998498D02*
X134167876Y-123043200D01*
X134167876Y-123043200D02*
X134126318Y-123086129D01*
X131474930Y-121047174D02*
X131503250Y-121017920D01*
X131503250Y-121017920D02*
X131533464Y-120986709D01*
X131533464Y-120986709D02*
X131562969Y-120956232D01*
X131562969Y-120956232D02*
X131598193Y-120919846D01*
X131598193Y-120919846D02*
X131624788Y-120892375D01*
X131624788Y-120892375D02*
X131653826Y-120862380D01*
X131653826Y-120862380D02*
X131685268Y-120829900D01*
X131685268Y-120829900D02*
X131719076Y-120794978D01*
X131719076Y-120794978D02*
X131755209Y-120757654D01*
X131755209Y-120757654D02*
X131793629Y-120717967D01*
X131793629Y-120717967D02*
X131813685Y-120697251D01*
X133788506Y-117651327D02*
X137041281Y-121011341D01*
X136601833Y-114745248D02*
X133788506Y-117651327D01*
X133832066Y-120995075D02*
X133860382Y-120971945D01*
X133860382Y-120971945D02*
X133872714Y-120937092D01*
X133872714Y-120937092D02*
X133872902Y-120931945D01*
X133759977Y-120980262D02*
X133791498Y-120998434D01*
X133791498Y-120998434D02*
X133829738Y-120996018D01*
X133829738Y-120996018D02*
X133832066Y-120995075D01*
X135478701Y-117616962D02*
X135508950Y-117636997D01*
X135508950Y-117636997D02*
X135509454Y-117638189D01*
X133806752Y-120863615D02*
X133806752Y-120863615D01*
X133841945Y-121444055D02*
X133807987Y-121429012D01*
X133807987Y-121429012D02*
X133806752Y-121428997D01*
X136100196Y-121047174D02*
X136071875Y-121076427D01*
X136071875Y-121076427D02*
X136041661Y-121107638D01*
X136041661Y-121107638D02*
X136012156Y-121138116D01*
X136012156Y-121138116D02*
X135976932Y-121174501D01*
X135976932Y-121174501D02*
X135950337Y-121201972D01*
X135950337Y-121201972D02*
X135921299Y-121231967D01*
X135921299Y-121231967D02*
X135889857Y-121264447D01*
X135889857Y-121264447D02*
X135856049Y-121299369D01*
X135856049Y-121299369D02*
X135819916Y-121336693D01*
X135819916Y-121336693D02*
X135781496Y-121376380D01*
X135781496Y-121376380D02*
X135761441Y-121397097D01*
X134550663Y-117651348D02*
X134560091Y-117616099D01*
X134560091Y-117616099D02*
X134570129Y-117602803D01*
X135761441Y-121397097D02*
X135719882Y-121440025D01*
X135719882Y-121440025D02*
X135676607Y-121484727D01*
X135676607Y-121484727D02*
X135631710Y-121531104D01*
X135631710Y-121531104D02*
X135585286Y-121579059D01*
X135585286Y-121579059D02*
X135537430Y-121628492D01*
X135537430Y-121628492D02*
X135488237Y-121679307D01*
X135488237Y-121679307D02*
X135463169Y-121705202D01*
X135463169Y-121705202D02*
X135437802Y-121731405D01*
X135437802Y-121731405D02*
X135412148Y-121757905D01*
X135412148Y-121757905D02*
X135386219Y-121784689D01*
X135386219Y-121784689D02*
X135360026Y-121811744D01*
X135360026Y-121811744D02*
X135333583Y-121839060D01*
X135333583Y-121839060D02*
X135306900Y-121866623D01*
X135306900Y-121866623D02*
X135279989Y-121894421D01*
X135279989Y-121894421D02*
X135252862Y-121922442D01*
X135252862Y-121922442D02*
X135225531Y-121950673D01*
X135225531Y-121950673D02*
X135198009Y-121979103D01*
X135198009Y-121979103D02*
X135170306Y-122007720D01*
X135170306Y-122007720D02*
X135142434Y-122036510D01*
X135142434Y-122036510D02*
X135114406Y-122065462D01*
X135114406Y-122065462D02*
X135086234Y-122094563D01*
X135086234Y-122094563D02*
X135057928Y-122123802D01*
X135057928Y-122123802D02*
X135029502Y-122153166D01*
X135029502Y-122153166D02*
X135000966Y-122182642D01*
X135000966Y-122182642D02*
X134972333Y-122212219D01*
X134972333Y-122212219D02*
X134943615Y-122241885D01*
X133736361Y-120696537D02*
X133766645Y-120717944D01*
X133766645Y-120717944D02*
X133801681Y-120726523D01*
X133801681Y-120726523D02*
X133837811Y-120721522D01*
X133837811Y-120721522D02*
X133844847Y-120718827D01*
X133714782Y-120584475D02*
X133707225Y-120621568D01*
X133707225Y-120621568D02*
X133712959Y-120658287D01*
X133712959Y-120658287D02*
X133731257Y-120690854D01*
X133731257Y-120690854D02*
X133736361Y-120696537D01*
X132561605Y-124402716D02*
X132561605Y-124402716D01*
X133788507Y-117651297D02*
X133987455Y-117651297D01*
X135045495Y-117638235D02*
X135039173Y-117674644D01*
X135039173Y-117674644D02*
X135038304Y-117675578D01*
X134181717Y-119863572D02*
X134556817Y-120251041D01*
X131649662Y-122741601D02*
X133290928Y-124436982D01*
X134963335Y-121521886D02*
X134934616Y-121551551D01*
X134934616Y-121551551D02*
X134905983Y-121581128D01*
X134905983Y-121581128D02*
X134877447Y-121610605D01*
X134877447Y-121610605D02*
X134849021Y-121639968D01*
X134849021Y-121639968D02*
X134820715Y-121669207D01*
X134820715Y-121669207D02*
X134792542Y-121698309D01*
X134792542Y-121698309D02*
X134764514Y-121727261D01*
X134764514Y-121727261D02*
X134736643Y-121756051D01*
X134736643Y-121756051D02*
X134708940Y-121784667D01*
X134708940Y-121784667D02*
X134681417Y-121813097D01*
X134681417Y-121813097D02*
X134654087Y-121841329D01*
X134654087Y-121841329D02*
X134626960Y-121869350D01*
X134626960Y-121869350D02*
X134600049Y-121897148D01*
X134600049Y-121897148D02*
X134573366Y-121924711D01*
X134573366Y-121924711D02*
X134546922Y-121952026D01*
X134546922Y-121952026D02*
X134520730Y-121979082D01*
X134520730Y-121979082D02*
X134494801Y-122005866D01*
X134494801Y-122005866D02*
X134469147Y-122032366D01*
X134469147Y-122032366D02*
X134443780Y-122058569D01*
X134443780Y-122058569D02*
X134418712Y-122084464D01*
X134418712Y-122084464D02*
X134369519Y-122135279D01*
X134369519Y-122135279D02*
X134321663Y-122184712D01*
X134321663Y-122184712D02*
X134275239Y-122232667D01*
X134275239Y-122232667D02*
X134230342Y-122279044D01*
X134230342Y-122279044D02*
X134187067Y-122323746D01*
X134187067Y-122323746D02*
X134145509Y-122366675D01*
X133806752Y-120520997D02*
X133770683Y-120527980D01*
X133770683Y-120527980D02*
X133740036Y-120547504D01*
X133740036Y-120547504D02*
X133717911Y-120577429D01*
X133717911Y-120577429D02*
X133714782Y-120584475D01*
X133806753Y-119887278D02*
X134088221Y-120178027D01*
X132984762Y-124500409D02*
X133013211Y-124477171D01*
X133013211Y-124477171D02*
X133025602Y-124442153D01*
X133025602Y-124442153D02*
X133025790Y-124436982D01*
X132097752Y-124402596D02*
X132067502Y-124422631D01*
X132067502Y-124422631D02*
X132066999Y-124423823D01*
X132959328Y-124368329D02*
X132959328Y-124368329D01*
X132561605Y-124402716D02*
X132531459Y-124422681D01*
X132531459Y-124422681D02*
X132530958Y-124423869D01*
X135509454Y-117638189D02*
X135503111Y-117674725D01*
X135503111Y-117674725D02*
X135502239Y-117675662D01*
X136444330Y-122789207D02*
X135474161Y-123791783D01*
X136444330Y-121693264D02*
X134413073Y-123791783D01*
X132121290Y-124412668D02*
X132097752Y-124402596D01*
X135038304Y-117675578D02*
X135002154Y-117683006D01*
X133431402Y-119863971D02*
X133806753Y-119476246D01*
X134570129Y-117602803D02*
X134602506Y-117584376D01*
X134602506Y-117584376D02*
X134617125Y-117582695D01*
X135445413Y-117651348D02*
X135455163Y-117627034D01*
X132574299Y-124468640D02*
X132594753Y-124438277D01*
X132594753Y-124438277D02*
X132594777Y-124436982D01*
X135478701Y-117616962D02*
X135478701Y-117616962D01*
X135014848Y-117617082D02*
X135014848Y-117617082D01*
X133525332Y-120177977D02*
X133806753Y-119887278D01*
X133888863Y-120213559D02*
X133858915Y-120191210D01*
X133858915Y-120191210D02*
X133823899Y-120179741D01*
X133823899Y-120179741D02*
X133806752Y-120178427D01*
X135424967Y-121045034D02*
X135396647Y-121074287D01*
X135396647Y-121074287D02*
X135366432Y-121105498D01*
X135366432Y-121105498D02*
X135336927Y-121135976D01*
X135336927Y-121135976D02*
X135301703Y-121172361D01*
X135301703Y-121172361D02*
X135275109Y-121199832D01*
X135275109Y-121199832D02*
X135246071Y-121229827D01*
X135246071Y-121229827D02*
X135214629Y-121262307D01*
X135214629Y-121262307D02*
X135180821Y-121297229D01*
X135180821Y-121297229D02*
X135144688Y-121334553D01*
X135144688Y-121334553D02*
X135106268Y-121374240D01*
X135106268Y-121374240D02*
X135086213Y-121394957D01*
X132959328Y-124368329D02*
X132924435Y-124378551D01*
X132924435Y-124378551D02*
X132900015Y-124406006D01*
X132900015Y-124406006D02*
X132897926Y-124410710D01*
X136444332Y-121693281D02*
X136315968Y-121825877D01*
X133806753Y-119476246D02*
X134181717Y-119863572D01*
X137243013Y-121014323D02*
X137271873Y-121044125D01*
X130503966Y-121044141D02*
X130540554Y-121081935D01*
X136800616Y-114745385D02*
X136601833Y-114745248D01*
X136732740Y-114815498D02*
X136800616Y-114745385D01*
X133806752Y-120178427D02*
X133806752Y-120178427D01*
X133877142Y-120551114D02*
X133847078Y-120529811D01*
X133847078Y-120529811D02*
X133811688Y-120521123D01*
X133811688Y-120521123D02*
X133806752Y-120520997D01*
X133025790Y-124436982D02*
X133016361Y-124401733D01*
X133016361Y-124401733D02*
X133006324Y-124388437D01*
X131128230Y-120398944D02*
X131233480Y-120290224D01*
X128255816Y-120398944D02*
X131128230Y-120398944D01*
X132631511Y-119852462D02*
X132630983Y-119853008D01*
X133788507Y-124436955D02*
X133589256Y-124436955D01*
X135455163Y-117627034D02*
X135478701Y-117616962D01*
X130300000Y-121040000D02*
X133593960Y-124438893D01*
M02*
